<?xml version="1.0" encoding="UTF-8"?>
<!DOCTYPE svg PUBLIC "-//W3C//DTD SVG 1.1//EN" "http://www.w3.org/Graphics/SVG/1.1/DTD/svg11.dtd">
<!-- Creator: CorelDRAW X6 -->
<svg xmlns="http://www.w3.org/2000/svg" xml:space="preserve" width="78.5812mm" height="123.56mm" version="1.1" style="shape-rendering:geometricPrecision; text-rendering:geometricPrecision; image-rendering:optimizeQuality; fill-rule:evenodd; clip-rule:evenodd"
viewBox="0 0 7858 12356"
 xmlns:xlink="http://www.w3.org/1999/xlink">
 <defs>
  <style type="text/css">
   <![CDATA[
    .str0 {stroke:black;stroke-width:79.37;stroke-linecap:round;stroke-linejoin:round}
    .fil5 {fill:none}
    .fil1 {fill:black}
    .fil0 {fill:#4E4E4E}
    .fil3 {fill:#896C37}
    .fil4 {fill:#D1AE78}
    .fil2 {fill:white}
   ]]>
  </style>
 </defs>
 <g id="Colours">
  <metadata id="CorelCorpID_0Corel-Layer"/>
  <path class="fil0" d="M4625 2546c-28,-433 -1359,-398 -1361,-30 -2,295 283,823 675,837 323,12 704,-533 686,-807z"/>
  <path class="fil1" d="M3645 1809c1,-14 5,-48 8,-90 -23,-93 -156,-138 -245,-34 -41,147 -26,308 93,307 65,-1 135,-61 145,-183z"/>
  <path class="fil1" d="M4480 1727c-96,-176 -221,-63 -245,32 1,19 2,38 4,59 25,249 250,252 240,-91z"/>
  <path class="fil2" d="M3652 1719c8,-121 6,-309 -98,-260 -65,30 -120,125 -148,226 89,-103 222,-59 245,34z"/>
  <path class="fil2" d="M4480 1727c-10,-344 -268,-412 -245,32 23,-95 149,-209 245,-32z"/>
  <path class="fil3" d="M6109 8499c-258,199 -394,303 -593,327 -55,139 -138,269 -228,378 -10,12 -20,23 -29,35 359,-63 630,-328 851,-740z"/>
  <path class="fil3" d="M5942 3150c-122,-357 -226,-705 -317,-1028 -184,-644 -377,-1051 -881,-1336 -16,-9 -33,-18 -50,-27 -48,-26 63,122 164,287 97,156 194,298 280,505 41,99 80,212 115,349 81,315 174,760 217,1055 150,1027 779,1095 471,196z"/>
  <path class="fil3" d="M2826 1434c64,-133 134,-241 207,-356 93,-146 193,-280 178,-287 -2,-1 -5,0 -10,2 -544,280 -734,700 -922,1369 -91,325 -182,679 -314,1034 -329,884 308,816 491,-203 53,-294 124,-744 199,-1060 50,-211 108,-368 172,-500z"/>
  <path class="fil4" d="M5330 3025c13,-145 -18,-290 -89,-422 0,0 0,0 0,0 -186,-348 -644,-616 -1295,-616 -570,0 -1068,138 -1280,511l0 0c-88,155 -127,350 -101,593 36,341 145,672 443,870 311,222 574,439 985,427 323,-9 639,-254 896,-434 84,-56 154,-123 212,-203 130,-178 201,-417 228,-725zm-705 -479c18,274 -363,819 -686,807 -392,-14 -677,-542 -675,-837 2,-368 1333,-402 1361,30z"/>
  <path class="fil4" d="M4694 758c-27,-26 -55,-70 -63,-107 -15,-69 4,-127 30,-193 -184,-8 -222,103 -248,146 -131,-132 -188,-277 -230,-485 -45,52 -101,242 -110,286 -143,-175 -363,-290 -669,-306 129,73 317,199 377,388 -110,-68 -237,-104 -371,-85 92,61 157,136 142,205 -40,-30 -172,-103 -341,-29 73,32 127,47 104,99 -25,58 -73,76 -115,115 5,-3 8,-3 10,-2 16,8 -85,141 -178,287 -73,115 -143,223 -207,356 -95,293 -143,646 -160,1041l-1 24c212,-373 710,-511 1280,-511 652,0 1109,268 1295,616 -1,-38 -1,-78 -3,-118 -11,-335 -35,-655 -99,-935 -86,-206 -183,-348 -280,-505 -102,-164 -213,-312 -164,-287zm-1140 700c104,-48 105,139 98,260 -3,42 -6,76 -8,90 -10,122 -80,182 -145,183 -118,1 -134,-160 -93,-307 28,-101 82,-195 148,-226zm681 300c-24,-445 235,-376 245,-32 10,343 -216,340 -240,91 -2,-20 -4,-40 -4,-59z"/>
  <path class="fil4" d="M5709 6802c-25,-560 -104,-982 -239,-1480 258,315 320,943 239,1480zm-3512 47c-68,-426 -4,-897 210,-1272 -82,457 -155,884 -210,1272zm3934 569c317,-864 283,-1806 -348,-2506 -246,-274 -509,-519 -604,-778 -35,-94 -60,-218 -79,-383 -58,80 -129,147 -212,203 -256,181 -573,425 -896,434 -412,12 -674,-205 -985,-427 -90,-59 -163,-131 -221,-211l-3 28c-82,625 -755,1093 -1049,1778 -456,1064 -35,1545 177,2221 38,123 57,226 69,315 -23,289 93,442 210,477 93,340 235,625 439,840 -21,208 47,1409 283,1995 -344,38 -673,388 -623,682 16,95 75,174 202,191 54,7 111,-12 154,-65 26,40 71,72 145,88 125,28 202,1 259,-52 9,6 20,13 31,18 161,80 289,-32 388,-185 82,-127 149,-280 149,-386 0,-492 -292,-937 -223,-1629 6,-62 22,-157 38,-244 129,22 269,32 421,28 156,-4 308,-23 445,-53 29,144 40,348 40,468 -3,611 -241,1048 -242,1509 0,257 453,663 635,447 102,114 286,97 381,16 41,30 89,45 130,39 128,-17 213,-129 224,-242 31,-297 -351,-562 -645,-632 236,-586 302,-1800 282,-2008 55,-49 106,-101 154,-157l29 -35c90,-109 173,-239 228,-378 21,-54 39,-109 51,-166 136,21 327,-88 300,-436 -22,-280 233,-720 265,-807z"/>
 </g>
 <g id="lineart">
  <metadata id="CorelCorpID_1Corel-Layer"/>
  <path class="fil5 str0" d="M5240 5151c750,281 586,2358 -4,2569 -213,76 -482,-12 -513,365 -36,433 326,144 398,121 -103,58 -164,333 63,286 71,-15 227,-85 269,-147 -26,71 -65,212 36,284 121,87 410,17 378,-405 -22,-280 233,-720 265,-807 317,-864 283,-1806 -348,-2506 -246,-274 -509,-519 -604,-778 -35,-94 -60,-218 -79,-383"/>
  <path class="fil5 str0" d="M3555 1459c-160,75 -254,535 -55,533 65,-1 135,-61 145,-183 4,-52 50,-415 -90,-350z"/>
  <path class="fil5 str0" d="M3652 1719c-23,-93 -156,-138 -245,-34"/>
  <path class="fil5 str0" d="M4240 1818c-50,-509 230,-450 240,-91 10,343 -216,340 -240,91z"/>
  <path class="fil5 str0" d="M4236 1759c23,-95 149,-209 245,-32"/>
  <path class="fil5 str0" d="M3938 3353c-392,-14 -677,-542 -675,-837 2,-368 1333,-402 1361,30 18,274 -363,819 -686,807z"/>
  <path class="fil5 str0" d="M2630 9409c-21,208 47,1409 283,1995 -344,38 -673,388 -623,682 16,95 75,174 202,191 54,7 111,-12 154,-65m129 -452c-105,61 -216,209 -151,407 20,60 66,111 166,133 125,28 202,1 259,-52m38 -449c-75,54 -160,184 -113,334 11,35 24,68 52,96 14,14 32,26 54,38 161,80 289,-32 388,-185 82,-127 149,-280 149,-386 0,-492 -292,-937 -223,-1629 10,-100 45,-284 66,-382"/>
  <path class="fil5 str0" d="M5104 9396c21,208 -46,1423 -282,2008 294,69 676,334 645,632 -12,113 -97,225 -224,242 -41,6 -89,-9 -130,-39m-112 -439c122,60 212,208 166,359 -43,142 -305,210 -436,64m-84 -422c80,51 179,179 135,322 -124,410 -687,-61 -686,-348 0,-461 239,-898 242,-1509 1,-142 -15,-405 -59,-542"/>
  <path class="fil5 str0" d="M2198 6849c55,-388 128,-815 210,-1272"/>
  <path class="fil5 str0" d="M2751 9521c-271,-223 -450,-550 -560,-952"/>
  <path class="fil5 str0" d="M4299 9799c-137,30 -289,49 -445,53 -151,4 -292,-6 -421,-28"/>
  <path class="fil5 str0" d="M5566 8660c-43,201 -154,392 -279,544 -87,105 -184,199 -292,280"/>
  <path class="fil5 str0" d="M5470 5322c134,497 214,920 239,1480"/>
  <path class="fil5 str0" d="M5138 1550c64,280 88,600 99,935 1,40 1,79 3,118m-2575 -105c0,-8 1,-16 1,-24 16,-395 65,-747 160,-1041m374 -641c42,-38 90,-57 115,-115 23,-53 -31,-68 -104,-99 169,-74 302,-1 341,29 15,-70 -50,-144 -142,-205 134,-19 261,17 371,85m407 106c-125,-277 -379,-472 -784,-494 149,85 376,239 395,480m274 -173c9,-45 65,-234 110,-286 42,207 99,353 230,485 26,-42 63,-154 248,-146 -25,66 -44,124 -30,193 8,37 35,81 63,107"/>
  <path class="fil5 str0" d="M2787 3750c-1,9 -2,19 -3,28 -82,625 -755,1093 -1049,1778 -456,1064 -35,1545 177,2221 38,123 57,226 69,315 -51,625 552,613 397,154 171,283 482,114 355,-136 331,146 531,-253 55,-391 -116,-34 -241,-63 -287,-123 -452,-587 -461,-1693 112,-2297"/>
  <path class="fil5 str0" d="M4694 758c-48,-26 63,122 164,287 143,231 287,431 395,854 81,315 174,760 217,1055 150,1027 779,1095 471,196 -122,-357 -226,-705 -317,-1028 -190,-665 -390,-1077 -930,-1364z"/>
  <path class="fil5 str0" d="M3201 793c49,-25 -64,122 -168,285 -146,229 -277,432 -378,856 -75,316 -146,766 -199,1060 -183,1018 -820,1087 -491,203 132,-355 223,-709 314,-1034 188,-670 378,-1089 922,-1369z"/>
  <path class="fil5 str0" d="M4889 3953c-256,181 -573,425 -896,434 -412,12 -674,-205 -985,-427 -299,-197 -407,-529 -443,-870 -88,-828 574,-1104 1380,-1104 900,0 1431,513 1384,1038 -39,446 -170,748 -441,928z"/>
  <path class="fil5 str0" d="M5258 9239c359,-63 630,-328 851,-740 -258,199 -394,303 -593,327"/>
  <path class="fil5 str0" d="M3365 4036c293,126 802,161 1166,0"/>
  <path class="fil5 str0" d="M3365 4036c91,39 202,69 323,87 87,13 173,55 263,55 73,0 150,-39 221,-48 126,-16 249,-46 359,-95"/>
 </g>
</svg>
