<?xml version="1.0" encoding="UTF-8"?>
<!DOCTYPE svg PUBLIC "-//W3C//DTD SVG 1.1//EN" "http://www.w3.org/Graphics/SVG/1.1/DTD/svg11.dtd">
<!-- Creator: CorelDRAW X6 -->
<svg xmlns="http://www.w3.org/2000/svg" xml:space="preserve" width="78.5812mm" height="123.56mm" version="1.1" style="shape-rendering:geometricPrecision; text-rendering:geometricPrecision; image-rendering:optimizeQuality; fill-rule:evenodd; clip-rule:evenodd"
viewBox="0 0 7858 12356"
 xmlns:xlink="http://www.w3.org/1999/xlink">
 <defs>
  <style type="text/css">
   <![CDATA[
    .str0 {stroke:black;stroke-width:79.37;stroke-linecap:round;stroke-linejoin:round}
    .fil5 {fill:none}
    .fil1 {fill:black}
    .fil0 {fill:#4E4E4E}
    .fil3 {fill:#896C37}
    .fil4 {fill:#D1AE78}
    .fil2 {fill:white}
   ]]>
  </style>
 </defs>
 <g id="Colours">
  <metadata id="CorelCorpID_0Corel-Layer"/>
  <path class="fil0" d="M2576 2891c292,-455 -362,-642 -844,-585 -249,30 -452,124 -453,281 0,87 37,186 62,309 16,81 35,153 56,216 245,745 786,391 1179,-221z"/>
  <path class="fil1" d="M3153 1759c2,-25 13,-119 10,-205 -77,-69 -233,63 -258,128 -25,132 -2,261 104,260 65,-1 135,-61 145,-183z"/>
  <path class="fil1" d="M3671 1835c25,249 250,252 240,-91 -2,-63 -12,-117 -27,-160 -85,-9 -192,122 -218,193 1,19 2,38 5,59z"/>
  <path class="fil2" d="M3162 1555c-4,-95 -26,-180 -100,-145 -76,35 -136,156 -159,274 25,-65 181,-197 258,-128z"/>
  <path class="fil2" d="M3884 1583c-68,-192 -237,-171 -218,193 26,-71 133,-201 218,-193z"/>
  <path class="fil3" d="M5453 2196c-31,-102 -92,-335 -147,-568 -34,-143 -95,-592 -158,-697 -79,-133 -244,-257 -379,-180 -37,21 -71,56 -101,110 -26,47 -9,274 14,518 23,243 53,502 53,616 0,183 -129,598 -189,980 -60,384 -51,727 226,738 62,3 220,-28 393,-90 63,-23 127,-50 190,-81 228,-113 430,-282 429,-513 0,-157 -55,-274 -123,-398 -69,-125 -152,-255 -207,-436z"/>
  <path class="fil3" d="M2568 2018c-11,-177 185,-751 353,-1026 27,-45 56,-87 88,-126 -335,38 -558,813 -534,1165 31,-5 61,-9 92,-13z"/>
  <path class="fil3" d="M7769 8558c-678,265 -860,319 -1711,-103 -58,177 -150,339 -303,536 549,255 1505,357 2014,-433z"/>
  <path class="fil4" d="M5653 5362c337,879 563,1573 498,2526 -37,546 -124,794 -541,1281 -215,477 -289,1609 -31,2361 25,87 13,207 -4,263 -124,408 -261,569 -507,513 -45,-10 -80,-27 -105,-49 -273,110 -412,23 -445,-120 -547,258 -607,-240 -189,-548 149,-110 275,-209 434,-263 -197,-629 -265,-849 -175,-1467 -45,8 -92,13 -139,15 -290,22 -1112,92 -1572,-564 -258,-368 -440,-699 -531,-1039 -110,-409 -90,-830 83,-1345 51,-151 107,-314 161,-497 176,-598 239,-1179 224,-1800l0 -13c102,148 361,600 407,680 233,413 483,1193 758,1558 119,163 1348,-540 1501,-755 55,-77 96,-158 125,-241l11 5 4 -51c43,-145 50,-297 34,-451l0 0z"/>
  <path class="fil4" d="M2589 6429c166,-565 232,-1115 226,-1698 -21,800 -798,916 -763,2237 10,382 184,564 -26,803 -123,141 -279,305 -121,418 80,57 201,57 267,-90 -16,121 7,259 172,171 -110,-409 -90,-830 83,-1345 51,-151 107,-314 161,-497z"/>
  <path class="fil4" d="M3713 9843c-278,-59 -574,-193 -797,-478 -61,493 5,1185 247,1781 -1108,0 -1333,961 -773,818 40,120 176,189 448,100 53,60 160,93 341,71 114,-14 279,-97 368,-170 133,-109 232,-257 279,-338 33,-57 33,-188 17,-255 -160,-574 -222,-1159 -131,-1528z"/>
  <path class="fil4" d="M4545 2976c60,-381 189,-797 189,-980 0,-114 -30,-373 -53,-616 -23,-244 -40,-472 -14,-518 30,-54 65,-90 101,-110 -103,-43 -197,-81 -305,-90 5,-95 -1,-156 30,-238 -184,-8 -232,107 -258,150 12,-54 35,-234 20,-335 -168,24 -279,157 -342,306 -47,-117 -81,-348 -79,-505 -63,83 -160,236 -160,529 -141,-121 -394,-332 -476,-476 0,140 59,472 225,529 -41,-8 -575,-157 -877,-97 170,16 436,95 595,222 -50,33 -92,73 -130,119 -32,39 -61,81 -88,126 -168,275 -365,849 -353,1026 -31,4 -62,8 -92,13 -270,45 -531,141 -744,275 481,-57 1136,130 844,585 -393,612 -933,966 -1179,221 29,214 60,241 108,390 77,241 194,537 629,608 84,14 164,25 241,34 0,0 1,0 1,0 3,0 6,1 8,1 64,8 126,14 186,18 -7,23 -11,48 -11,75 1,98 57,217 216,331 47,34 390,632 443,726 233,413 483,1193 758,1558 119,163 1348,-540 1501,-755 161,-226 201,-478 174,-738 -43,-410 -255,-838 -418,-1208 -51,-117 -62,-291 -71,-531 -173,62 -331,93 -393,90 -277,-11 -287,-354 -226,-738zm-634 -1232c10,343 -216,340 -240,91 -2,-21 -4,-40 -5,-59 -19,-363 150,-384 218,-193 15,43 25,97 27,160zm-758 16c-10,122 -80,182 -145,183 -106,1 -129,-127 -104,-260 22,-118 83,-238 159,-274 74,-34 96,50 100,145 4,86 -8,180 -10,205z"/>
 </g>
 <g id="lineart">
  <metadata id="CorelCorpID_1Corel-Layer"/>
  <path class="fil5 str0" d="M4769 751c-103,-43 -197,-81 -305,-90 5,-95 -1,-156 30,-238 -184,-8 -232,107 -258,150 12,-54 35,-234 20,-335 -168,24 -279,157 -342,306 -47,-117 -81,-348 -79,-505 -63,83 -160,236 -160,529 -141,-121 -394,-332 -476,-476 0,140 59,472 225,529 -41,-8 -575,-157 -877,-97 170,16 436,95 595,222 -92,60 -159,148 -219,245 -168,275 -365,849 -353,1026"/>
  <path class="fil5 str0" d="M2917 9365c-61,493 5,1185 247,1781 -1108,0 -1333,961 -773,818"/>
  <path class="fil5 str0" d="M3713 9843c-90,369 -29,954 131,1528"/>
  <path class="fil5 str0" d="M2648 11516c-200,50 -280,258 -268,391 13,153 147,259 460,157"/>
  <path class="fil5 str0" d="M3153 11551c-359,100 -584,659 27,583 114,-14 279,-97 368,-170 133,-109 232,-257 279,-338 33,-57 33,-188 17,-255"/>
  <path class="fil5 str0" d="M2376 4145c47,3 115,43 184,94"/>
  <path class="fil5 str0" d="M1732 2306c545,-342 1402,-442 1928,-47 23,17 74,60 100,94"/>
  <path class="fil5 str0" d="M3063 1409c-161,75 -255,535 -55,533 65,-1 135,-61 145,-183 4,-53 50,-415 -90,-350z"/>
  <path class="fil5 str0" d="M2904 1683c25,-65 181,-197 258,-128"/>
  <path class="fil5 str0" d="M3671 1835c-50,-509 230,-450 240,-91 10,343 -216,340 -240,91z"/>
  <path class="fil5 str0" d="M3666 1776c26,-71 133,-201 218,-193"/>
  <path class="fil5 str0" d="M3010 866c-335,38 -558,813 -534,1165 -24,-353 199,-1127 534,-1165z"/>
  <path class="fil5 str0" d="M1397 3112c29,214 60,241 108,390 77,241 194,537 629,608 158,26 303,43 437,54m1174 -161c315,-166 369,-396 375,-432"/>
  <path class="fil5 str0" d="M2576 2891c-427,665 -1027,1025 -1235,5 -25,-123 -62,-222 -62,-309 2,-460 1740,-387 1297,304z"/>
  <path class="fil5 str0" d="M4667 862c-26,47 -9,274 14,518 23,243 53,502 53,616 0,183 -129,598 -189,980 -60,384 -51,727 226,738 84,3 348,-55 583,-171 228,-113 430,-282 429,-513 0,-157 -55,-274 -123,-398 -69,-125 -152,-255 -207,-436 -31,-102 -92,-335 -147,-568 -34,-143 -95,-592 -158,-697 -101,-169 -340,-323 -481,-70z"/>
  <path class="fil5 str0" d="M2813 4615c0,3 0,10 0,13 15,621 -49,1203 -224,1800 -54,183 -110,346 -161,497 -173,515 -193,936 -83,1345 92,340 273,671 531,1039 459,655 1282,585 1572,564 126,-5 245,-33 358,-80m847 -4432c337,879 563,1573 498,2526 -37,546 -124,794 -541,1281 -215,477 -289,1609 -31,2361 25,87 13,207 -4,263 -124,408 -261,569 -507,513 -309,-71 -121,-441 109,-564m-589 -1883c-90,618 -22,838 175,1467 -159,54 -285,153 -434,263 -418,309 -358,806 189,548m239 -488c-353,213 -361,838 206,608"/>
  <path class="fil5 str0" d="M5755 8991c549,255 1505,357 2014,-433 -678,265 -860,319 -1711,-103"/>
  <path class="fil5 str0" d="M2813 4620c52,903 -797,968 -761,2349 10,382 184,564 -26,803 -123,141 -279,305 -121,418 80,57 201,57 267,-90 -16,121 7,259 172,171"/>
  <path class="fil5 str0" d="M4499 5982c-104,31 -153,-35 -211,-87 -436,-394 -805,-1217 -719,-1478 71,-214 322,-360 55,-628 -307,-308 -321,155 -351,225 21,-106 -119,-302 -228,-182 -56,62 -124,274 -88,353 -32,-49 -87,-99 -139,-142 -150,-128 -477,215 -43,527 47,34 390,632 443,726 233,413 483,1193 758,1558 119,163 1348,-540 1501,-755 417,-584 22,-1343 -244,-1945 -51,-117 -62,-291 -71,-531m-255 1567c40,370 -226,649 -621,705"/>
 </g>
</svg>
