<?xml version="1.0" encoding="UTF-8"?>
<!DOCTYPE svg PUBLIC "-//W3C//DTD SVG 1.1//EN" "http://www.w3.org/Graphics/SVG/1.1/DTD/svg11.dtd">
<!-- Creator: CorelDRAW X6 -->
<svg xmlns="http://www.w3.org/2000/svg" xml:space="preserve" width="78.5812mm" height="123.56mm" version="1.1" style="shape-rendering:geometricPrecision; text-rendering:geometricPrecision; image-rendering:optimizeQuality; fill-rule:evenodd; clip-rule:evenodd"
viewBox="0 0 7858 12356"
 xmlns:xlink="http://www.w3.org/1999/xlink">
 <defs>
  <style type="text/css">
   <![CDATA[
    .str0 {stroke:black;stroke-width:79.37;stroke-linecap:round;stroke-linejoin:round}
    .fil6 {fill:none}
    .fil0 {fill:black}
    .fil2 {fill:#4E4E4E}
    .fil1 {fill:#896C37}
    .fil5 {fill:#D1AE78}
    .fil4 {fill:#D6444A}
    .fil3 {fill:white}
   ]]>
  </style>
 </defs>
 <g id="Colours">
  <metadata id="CorelCorpID_0Corel-Layer"/>
  <path class="fil0" d="M3380 1764c2,-25 13,-119 10,-205 -77,-69 -233,63 -258,128 -25,132 -2,261 104,260 65,-1 135,-61 145,-183z"/>
  <path class="fil0" d="M4111 1588c-85,-9 -192,121 -218,192 1,19 2,38 4,59 25,249 250,252 240,-91 -2,-63 -12,-117 -27,-160z"/>
  <path class="fil1" d="M5679 2201c-31,-102 -92,-335 -147,-567 -34,-143 -95,-592 -158,-696 -79,-133 -244,-256 -379,-180 -37,21 -71,56 -101,110 -26,47 -9,274 14,518 23,243 53,502 52,616 0,183 -129,598 -189,979 -60,384 -51,727 226,738 62,3 220,-28 393,-90 63,-23 127,-49 190,-80 228,-113 430,-282 429,-512 0,-157 -55,-274 -123,-397 -69,-125 -152,-255 -207,-436z"/>
  <path class="fil1" d="M2795 2022c-11,-177 185,-751 353,-1026 27,-45 56,-87 88,-126 -335,38 -558,812 -534,1165 31,-5 61,-9 92,-13z"/>
  <path class="fil1" d="M7814 8695c-687,240 -871,287 -1705,-166l-1 2c0,0 0,0 0,0 -64,174 -162,331 -321,522l0 0c539,275 1490,412 2028,-358z"/>
  <path class="fil2" d="M1625 3116c245,745 785,391 1178,-221 292,-455 -362,-642 -843,-585 -249,29 -452,124 -453,281 0,87 37,186 62,309 16,81 35,153 56,216z"/>
  <path class="fil3" d="M3131 1687c25,-65 181,-197 258,-128 -4,-95 -26,-180 -100,-145 -76,35 -136,156 -159,273z"/>
  <path class="fil3" d="M4111 1588c-68,-192 -237,-171 -218,192 26,-71 133,-201 218,-192z"/>
  <path class="fil4" d="M3779 4088c-183,60 -424,98 -741,92 105,67 210,144 360,139 97,-3 150,-14 226,-73 59,-45 127,-107 155,-158z"/>
  <path class="fil5" d="M2718 6377c190,-569 260,-1071 282,-1634 -64,778 -823,839 -837,2152 -4,382 163,570 -55,801 -128,136 -290,294 -136,413 78,60 199,64 270,-80 -20,120 -2,259 165,177 -95,-412 -59,-832 132,-1340 56,-149 119,-310 179,-491z"/>
  <path class="fil5" d="M3038 4180c317,6 559,-32 741,-92 -29,51 -97,113 -155,158 -76,58 -130,69 -226,73 -150,5 -255,-72 -360,-139zm-39 572c0,-3 0,-5 1,-8 0,3 0,5 -1,8zm3282 2725c351,-850 355,-1793 -247,-2518 -235,-283 -488,-539 -572,-801 -39,-121 -62,-291 -71,-530 -173,62 -331,93 -393,90 -277,-11 -287,-354 -226,-738 60,-381 189,-796 189,-979 0,-114 -30,-373 -52,-616 -23,-244 -40,-471 -14,-518 30,-54 65,-90 101,-110 -103,-43 -197,-81 -305,-90 5,-95 -1,-156 30,-238 -184,-8 -232,107 -258,150 12,-54 35,-234 20,-335 -168,24 -279,157 -342,306 -47,-117 -81,-348 -79,-504 -63,83 -160,236 -160,529 -141,-121 -394,-332 -476,-476 0,140 59,472 225,529 -41,-8 -575,-157 -876,-97 170,16 436,95 594,222 -50,33 -92,73 -130,119 -32,39 -61,81 -88,126 -168,275 -364,848 -353,1026 -31,4 -62,8 -92,13 -270,45 -530,141 -743,275 481,-57 1136,130 843,585 -393,612 -933,966 -1178,221 40,144 77,299 125,440 78,230 207,491 613,558 84,14 164,25 241,34 4,0 7,1 11,1 65,11 163,80 250,154 42,36 90,68 144,95 -1,120 -4,238 -9,353 -23,558 -93,1063 -281,1626 -60,181 -123,341 -179,491 -192,508 -227,928 -132,1340 0,0 0,0 0,0 79,343 248,681 493,1058 9,13 18,27 27,39 213,305 510,453 792,524 216,54 422,63 576,61 105,-1 199,-2 293,-16 -90,618 -22,822 175,1451 -159,53 -285,153 -434,263 -418,308 -358,805 189,548 32,144 172,231 444,120 25,22 60,38 105,49 246,56 383,-104 507,-513 17,-56 29,-177 4,-263 -258,-752 -159,-1829 56,-2305 56,-61 106,-117 152,-171 0,0 0,0 0,0l1 -2c158,-189 256,-347 320,-520l0 0c60,-162 91,-337 115,-566 15,-141 23,-276 25,-407 15,-37 27,-66 33,-81zm-2901 -5713c-10,122 -80,182 -145,183 -106,1 -129,-127 -104,-260 22,-118 83,-238 159,-273 74,-34 96,50 100,145 4,86 -8,180 -10,205zm758 -16c10,343 -216,340 -240,91 -2,-20 -4,-40 -4,-59 -19,-363 150,-384 218,-192 15,43 25,97 27,160z"/>
  <path class="fil5" d="M2962 9355c-192,416 -288,1078 -261,1716 -1012,-449 -1608,337 -1038,434 -12,126 85,244 369,273 24,76 108,150 282,203 110,33 295,25 405,-6 166,-46 317,-141 392,-195 72,-52 119,-184 119,-272 0,-647 156,-1135 476,-1682 -47,-12 -95,-27 -143,-44 -227,-81 -437,-215 -602,-428z"/>
 </g>
 <g id="lineart">
  <metadata id="CorelCorpID_1Corel-Layer"/>
  <path class="fil6 str0" d="M5786 9053c539,275 1490,412 2028,-358 -687,240 -871,287 -1705,-166"/>
  <path class="fil6 str0" d="M5481 5177c738,311 491,2380 -107,2566 -215,67 -482,-31 -528,344 -53,431 320,157 393,137 -96,49 -164,280 -2,292 83,6 292,-72 332,-149 -19,56 -24,130 -26,197 -8,197 464,242 441,-291 -2,-58 256,-697 297,-796 351,-850 355,-1793 -247,-2518 -235,-283 -488,-539 -572,-801 -39,-121 -62,-291 -71,-530m-803 6248c-90,618 -22,822 175,1451 -159,53 -285,153 -434,263 -418,308 -358,805 189,548m1730 -4578c-2,131 -10,266 -25,407 -57,544 -152,788 -588,1260 -215,477 -314,1553 -56,2305 25,86 13,207 -4,263 -124,408 -261,569 -507,513 -308,-71 -121,-441 109,-564m-420 -93c-353,212 -361,838 206,608m-1954 -7858c-8,706 -63,1299 -290,1979 -60,181 -123,341 -179,491 -192,508 -227,928 -132,1340 79,343 248,681 493,1058 373,575 1032,628 1395,625 185,-2 336,-5 515,-71"/>
  <path class="fil6 str0" d="M3038 4180c105,67 210,144 360,139 97,-3 150,-14 226,-73 59,-45 127,-107 155,-158"/>
  <path class="fil6 str0" d="M2604 4148c65,4 169,77 261,156 169,145 449,227 709,172 128,-27 302,-147 474,-303"/>
  <path class="fil6 str0" d="M3290 1414c-160,75 -254,535 -55,533 65,-1 135,-61 145,-183 4,-52 50,-415 -90,-350z"/>
  <path class="fil6 str0" d="M3131 1687c25,-65 181,-197 258,-128"/>
  <path class="fil6 str0" d="M3897 1839c-50,-509 230,-450 240,-91 10,343 -216,340 -240,91zm-4 -59c26,-71 133,-201 218,-192"/>
  <path class="fil6 str0" d="M3237 871c-335,38 -558,812 -534,1165 -24,-352 199,-1127 534,-1165z"/>
  <path class="fil6 str0" d="M1625 3116c40,144 77,299 125,440 78,230 207,491 613,558 1788,292 1974,-472 1985,-539m-2388 -1265c545,-342 1401,-442 1927,-47 23,17 74,60 100,94"/>
  <path class="fil6 str0" d="M2804 2896c-427,664 -1027,1024 -1234,5 -25,-123 -62,-222 -62,-309 2,-459 1740,-387 1296,304z"/>
  <path class="fil6 str0" d="M3004 4619c11,899 -826,896 -842,2277 -4,382 163,570 -55,801 -128,136 -290,294 -136,413 78,60 199,64 270,-80 -20,120 -2,259 166,177"/>
  <path class="fil6 str0" d="M4894 867c-26,47 -9,274 14,518 23,243 53,502 52,616 0,183 -129,598 -189,979 -60,384 -51,727 226,738 84,3 348,-55 583,-171 228,-113 430,-282 429,-512 0,-157 -55,-274 -123,-397 -69,-125 -152,-255 -207,-436 -31,-102 -92,-335 -147,-567 -34,-143 -95,-592 -158,-696 -101,-169 -340,-323 -481,-70z"/>
  <path class="fil6 str0" d="M4995 756c-103,-43 -197,-81 -305,-90 5,-95 -1,-156 30,-238 -184,-8 -232,107 -258,150 12,-54 35,-234 20,-335 -168,24 -279,157 -342,306 -47,-117 -81,-348 -79,-504 -63,83 -160,236 -160,529 -141,-121 -394,-332 -476,-476 0,140 59,472 225,529 -41,-8 -575,-157 -876,-97 170,16 436,95 594,222 -92,60 -159,147 -219,245 -168,275 -364,848 -353,1026"/>
  <path class="fil6 str0" d="M2962 9355c-192,416 -288,1078 -261,1716 -1012,-449 -1608,337 -1038,434m2044 -1678c-320,547 -476,1035 -476,1682 0,88 -47,220 -119,272 -76,54 -226,149 -392,195 -111,31 -296,39 -405,6 -589,-179 -156,-598 212,-544m-447 -238c-203,-36 -360,122 -404,248 -50,145 29,296 356,330"/>
 </g>
</svg>
