<?xml version="1.0" encoding="UTF-8"?>
<!DOCTYPE svg PUBLIC "-//W3C//DTD SVG 1.1//EN" "http://www.w3.org/Graphics/SVG/1.1/DTD/svg11.dtd">
<!-- Creator: CorelDRAW X6 -->
<svg xmlns="http://www.w3.org/2000/svg" xml:space="preserve" width="78.3166mm" height="121.444mm" version="1.1" style="shape-rendering:geometricPrecision; text-rendering:geometricPrecision; image-rendering:optimizeQuality; fill-rule:evenodd; clip-rule:evenodd"
viewBox="0 0 78317 121444"
 xmlns:xlink="http://www.w3.org/1999/xlink">
 <defs>
  <style type="text/css">
   <![CDATA[
    .str0 {stroke:black;stroke-width:793.7;stroke-linecap:round;stroke-linejoin:round}
    .str1 {stroke:red;stroke-width:793.7}
    .fil2 {fill:none}
    .fil5 {fill:black}
    .fil4 {fill:#0000BF}
    .fil1 {fill:#B3B3B3}
    .fil0 {fill:white}
    .fil3 {fill:red;fill-rule:nonzero}
   ]]>
  </style>
   <clipPath id="id0">
    <path d="M26082 44892c-159,-130 -282,-235 -435,-370 -3835,-3375 -6010,-8342 -6010,-13591 0,-9719 5957,-17360 19330,-17449 13373,-89 19058,6313 19058,18032 0,10164 -5758,15351 -14880,16897 -1489,252 -2962,370 -4466,487l-12598 -4005z"/>
   </clipPath>
    <mask id="id1">
  <linearGradient id="id2" gradientUnits="userSpaceOnUse" x1="31067.5" y1="22379.2" x2="31067.5" y2="31646.2">
   <stop offset="0" style="stop-opacity:1; stop-color:white"/>
   <stop offset="0.988235" style="stop-opacity:0.282353; stop-color:white"/>
   <stop offset="1" style="stop-opacity:0.439216; stop-color:white"/>
  </linearGradient>
     <rect style="fill:url(#id2)" x="25831" y="22285" width="10473" height="9456"/>
    </mask>
    <mask id="id3">
  <linearGradient id="id4" gradientUnits="userSpaceOnUse" x1="45176.5" y1="22284.7" x2="45176.5" y2="31740.7">
   <stop offset="0" style="stop-opacity:1; stop-color:white"/>
   <stop offset="0.988235" style="stop-opacity:0.282353; stop-color:white"/>
   <stop offset="1" style="stop-opacity:0.439216; stop-color:white"/>
  </linearGradient>
     <rect style="fill:url(#id4)" x="39940" y="22285" width="10473" height="9456"/>
    </mask>
 </defs>
 <g id="Colours">
  <metadata id="CorelCorpID_0Corel-Layer"/>
  <path class="fil0" d="M14700 72875c-118,-2907 -2405,-3701 -3829,-960 876,450 2281,766 3829,960z"/>
  <path class="fil0" d="M18949 73106c-226,-1444 -2453,-4272 -4249,-231 895,112 1838,183 2754,214 511,18 1014,23 1496,17z"/>
  <path class="fil0" d="M22773 72579c-1989,-2823 -3560,-884 -3824,527 1514,-20 2818,-158 3509,-402 109,-39 214,-80 315,-125z"/>
  <path class="fil0" d="M60509 72371c-730,-3983 -3429,-4240 -5016,-1158 1322,712 3257,1031 5016,1158z"/>
  <path class="fil0" d="M65296 72295c-1107,-3376 -4161,-3099 -4787,76 999,73 1941,84 2681,70 617,-11 1094,-39 1346,-62 257,-24 510,-52 760,-84z"/>
  <path class="fil0" d="M69583 70784c-1734,-2016 -4444,-2093 -4288,1512 1745,-226 3295,-672 4288,-1512z"/>
  <path class="fil0" d="M28822 120680c-186,-2872 -3048,-3137 -4249,-1209 1137,541 2631,954 4249,1209z"/>
  <path class="fil0" d="M33386 120963c-680,-2762 -3503,-2402 -4564,-283 1478,233 3058,335 4564,283z"/>
  <path class="fil0" d="M37897 120185c-1363,-1945 -3703,-2434 -4511,778 1681,-58 3267,-307 4511,-778z"/>
  <path class="fil0" d="M48987 120845c120,-2049 -2252,-4290 -4412,-1179 1078,609 2659,993 4412,1179z"/>
  <path class="fil0" d="M54274 120842c-782,-2659 -3603,-3900 -5287,3 1701,180 3564,171 5287,-3z"/>
  <path class="fil0" d="M59208 119615c-1490,-2209 -4871,-2923 -4935,1228 1985,-201 3785,-621 4935,-1228z"/>
  <path class="fil1" d="M19637 30930c0,-5818 2135,-10891 6717,-14044 -1739,-5623 -4360,-7971 -7331,-8970 -1776,-597 -6226,-1079 -8052,-646 -4015,952 -3867,8433 -2535,11593 1587,3765 5060,7043 4790,9851 -86,895 -1676,2678 -2525,4485 -919,1955 -1644,4451 -1503,6617 182,2793 2703,6135 6717,6475 4200,356 5474,-2829 6614,-5399 -1873,-2908 -2892,-6369 -2892,-9962z"/>
  <path class="fil1" d="M69775 17416c893,-2181 546,-4011 -90,-6984 -599,-2805 -1514,-4360 -3690,-4875 -1826,-433 -6276,49 -8052,646 -3081,1036 -5785,3522 -7519,9603 5245,2824 7600,8164 7600,15707 0,3962 -875,7167 -2483,9695 1159,1891 2795,3522 6099,3201 4276,-415 7208,-3813 7372,-6662 120,-2084 -806,-4471 -1831,-6336 -947,-1724 -1984,-2979 -2030,-3745 -174,-2925 3062,-6436 4623,-10249z"/>
  <path class="fil1" d="M58025 31513c0,-7543 -2355,-12883 -7601,-15706 -2903,-1565 -6692,-2357 -11458,-2325 -5368,36 -9541,1288 -12613,3405 -4582,3154 -6717,8227 -6717,14044 0,3593 1019,7054 2892,9962 653,1014 1409,1960 2262,2822 276,278 561,547 856,807 153,135 276,240 435,370 -986,4522 -1541,9639 -1589,14603 -34,3472 181,6868 669,9935 201,1261 448,2466 744,3597 2791,10685 11270,11013 20231,8280 136,174 300,382 478,488 1360,810 3815,791 4294,-1050 273,-1048 -491,-2321 -2123,-4306 -554,-673 2299,-1521 1280,-3614 -1088,-2233 -4422,-92 -5236,3202 -6345,546 -8074,-4599 -8282,-9206 -196,-4343 865,-12471 2130,-17923 1503,-118 2977,-235 4466,-487 4871,-825 8782,-2688 11371,-5793 370,-444 713,-913 1026,-1409 1609,-2528 2483,-5733 2483,-9695z"/>
  <path class="fil1" d="M24492 59494c48,-4964 604,-10080 1589,-14603 -159,-130 -282,-235 -435,-370 -295,-260 -581,-529 -856,-807 -10566,5935 -16074,12560 -15768,22667 80,2631 124,4250 1374,5236 133,105 292,204 474,297 1424,-2741 3711,-1948 3829,960 1796,-4041 4024,-1213 4249,231 264,-1411 1835,-3350 3824,-527 1339,-594 2016,-1738 2389,-3149 -489,-3067 -703,-6464 -669,-9935z"/>
  <path class="fil1" d="M60509 72371c-1759,-128 -3695,-446 -5016,-1158 1588,-3082 4287,-2825 5016,1158zm2681 70c-740,13 -1682,2 -2681,-70 626,-3174 3680,-3452 4787,-76 -157,-3605 2554,-3528 4288,-1512 712,-603 1137,-1408 1140,-2480 7,-2244 -406,-5682 -1237,-9029 -1935,-7791 -6406,-12392 -14972,-16659 -2588,3105 -6500,4968 -11371,5793 -1489,252 -2962,370 -4466,487 -1265,5453 -2327,13581 -2130,17923 208,4608 1937,9752 8282,9206 814,-3294 4148,-5435 5236,-3202 1019,2092 -1834,2941 -1280,3614 1633,1985 2396,3257 2123,4306 -480,1841 -2934,1861 -4294,1050 -179,-106 -343,-315 -478,-488 -8962,2733 -17440,2406 -20231,-8280 -296,-1132 -543,-2336 -744,-3597 -372,1411 -1050,2554 -2389,3149 -101,45 -206,87 -315,125 -691,245 -1995,382 -3509,402 -482,6 -984,1 -1496,-17 723,5717 2642,11591 5647,15740 -1070,9546 -210,18420 -43,27969 27,1536 -35,1841 1126,2474 125,68 255,134 390,199 1202,-1928 4063,-1663 4249,1209 1060,-2119 3884,-2479 4564,283 808,-3212 3148,-2723 4511,-778 734,-278 1348,-633 1793,-1072 240,-265 373,-11374 373,-12458 0,-1303 -479,-6942 -701,-9755 -43,-549 -80,-1167 -110,-1720 419,-4 845,-13 1277,-26 951,-29 1872,-85 2762,-169 -835,4951 -1061,19428 -122,23089 156,643 662,1170 1407,1591 2160,-3111 4531,-871 4412,1179 1684,-3902 4505,-2662 5287,-3 64,-4151 3445,-3436 4935,-1228 677,-357 1130,-778 1263,-1257 0,-5451 667,-28011 -1406,-31205 374,-532 721,-1091 1041,-1678 580,-1063 1075,-2202 1489,-3411 186,-543 355,-1101 508,-1672 647,-2417 1003,-5080 1087,-7950z"/>
  <path class="fil1" d="M66739 81842c-651,-653 -1734,-1553 -3600,-1510 -361,8 -675,24 -1036,59 -153,571 -322,1129 -508,1672 1221,-86 2295,101 3023,976 746,896 1617,1106 2162,1030 928,-129 1236,-947 -42,-2228z"/>
 </g>
 <g id="lineart">
  <metadata id="CorelCorpID_1Corel-Layer"/>
  <path class="fil2 str0" d="M47119 94415c-2003,423 -4200,668 -6590,740 -1590,48 -3091,36 -4504,-53m-11376 -4398c-27,-28 -54,-56 -80,-84 -3853,-4124 -6280,-10932 -7115,-17531m45736 -648c-149,5059 -1140,9473 -3084,13033 -532,974 -1138,1873 -1818,2696"/>
  <path class="fil2 str0" d="M59065 87152c2073,3194 1406,25754 1406,31205 -896,3228 -16300,3845 -17303,-282 -942,-3674 -711,-18240 131,-23141"/>
  <path class="fil2 str0" d="M39252 95180c30,553 67,1170 110,1720 222,2813 701,8452 701,9755 0,1084 -133,12193 -373,12458 -2700,2665 -11677,2247 -15506,159 -1161,-633 -1099,-938 -1126,-2474 -168,-9549 -1027,-18423 43,-27969"/>
  <path class="fil2 str0" d="M50424 15807c1735,-6082 4439,-8569 7520,-9604 1776,-597 6226,-1079 8052,-646 2176,516 3090,2071 3690,4875 635,2974 982,4804 90,6984 -1561,3814 -4797,7324 -4623,10249 46,767 1082,2021 2030,3745 1025,1865 1951,4252 1831,6336 -164,2849 -3096,6247 -7372,6662 -3304,321 -4941,-1310 -6099,-3201"/>
  <path class="fil2 str0" d="M26353 16886c-1739,-5623 -4360,-7971 -7331,-8970 -1776,-597 -6226,-1079 -8052,-646 -4015,952 -3867,8433 -2535,11593 1587,3765 5060,7043 4790,9851 -86,895 -1676,2678 -2525,4485 -919,1955 -1644,4451 -1503,6617 182,2793 2703,6135 6717,6475 4200,356 5474,-2829 6614,-5400"/>
  <path class="fil2 str0" d="M24573 119471c1202,-1928 4063,-1663 4249,1209 1060,-2119 3884,-2479 4564,283 808,-3212 3148,-2723 4511,-778"/>
  <path class="fil2 str0" d="M44575 119666c2160,-3111 4531,-871 4412,1179 1684,-3902 4505,-2662 5287,-3 64,-4151 3445,-3436 4935,-1228"/>
  <path class="fil2 str0" d="M24790 43714c-10566,5935 -16074,12560 -15768,22667 80,2631 124,4250 1374,5236 1999,1578 9935,1838 12062,1086 1549,-548 2303,-1756 2703,-3274"/>
  <g style="clip-path:url(#id0)">
   <g id="_894077152">
    <path class="fil3" d="M50249 24404c-53,26 -109,40 -165,43 -6,-328 -43,-627 -108,-899l9306 -4488c1350,-651 3054,-204 4234,637 458,327 1227,890 709,1497 -227,267 -694,417 -1054,31 -989,-1062 -1977,-2099 -3502,-1363l-9420 4543z"/>
    <path class="fil3" d="M26258 24404c53,26 109,40 165,43 6,-328 43,-627 108,-899l-9306 -4488c-1350,-651 -3054,-204 -4234,637 -458,327 -1227,890 -709,1497 227,267 694,417 1054,31 989,-1062 1977,-2099 3502,-1363l9420 4543z"/>
   </g>
  </g>
  <path class="fil2 str0" d="M26082 44892c-159,-130 -282,-235 -435,-370 -3835,-3375 -6010,-8342 -6010,-13591 0,-9719 5957,-17360 19330,-17449 13373,-89 19058,6313 19058,18032 0,10164 -5758,15351 -14880,16897 -1489,252 -2962,370 -4466,487"/>
  <path class="fil2 str0" d="M54515 42616c8566,4266 13037,8868 14972,16659 831,3347 1244,6785 1237,9029 -8,2778 -2851,3767 -6188,4075 -1474,136 -10616,432 -10647,-3420 -30,-3679 -555,-10578 1794,-15909"/>
  <path class="fil2 str0" d="M10870 71915c1424,-2741 3711,-1948 3829,960 1796,-4041 4024,-1213 4249,231 264,-1411 1835,-3350 3824,-527"/>
  <path class="fil2 str0" d="M55493 71213c1588,-3082 4287,-2825 5016,1158 626,-3174 3680,-3452 4787,-76 -157,-3605 2554,-3528 4288,-1512"/>
  <path class="fil2 str0" d="M28446 37199c4174,-3141 9848,-998 10738,-415"/>
  <path class="fil2 str0" d="M26117 44729c3517,-2220 7919,-1819 10002,-235"/>
  <path class="fil2 str0" d="M25032 51203c2381,-1111 6814,-236 7770,1112"/>
  <path class="fil2 str0" d="M24492 59494c1937,-799 4679,-588 6205,619"/>
  <path class="fil2 str0" d="M25006 67768c1736,-792 3538,-635 5267,-144"/>
  <path class="fil2 str0" d="M28587 78667c2081,12 3339,-264 4550,-1739"/>
  <path class="fil2 str0" d="M33966 82268c1137,-614 2038,-1338 2362,-2806"/>
  <path class="fil2 str0" d="M41342 82395c398,-696 478,-1177 440,-2062"/>
  <path class="fil2 str0" d="M26280 74288c2045,-80 3159,21 4664,-1261"/>
  <g id="_894138656">
   <path class="fil4" d="M32718 28953c949,-1696 623,-5368 -2026,-4484 -1504,502 -2717,2213 -1932,4275 441,614 1208,1065 2533,1028 557,-16 1043,-329 1426,-819z"/>
   <path class="fil0" d="M33625 25728c-87,-1893 -1204,-3649 -2499,-3294 -1334,366 -3121,2603 -2924,4646 52,544 195,1159 559,1665 -785,-2062 428,-3773 1932,-4275 2649,-884 2975,2788 2026,4484 615,-787 962,-2029 907,-3225z"/>
   <path class="fil2 str0" d="M31125 22434c-1334,366 -3121,2603 -2924,4646 116,1205 676,2761 3091,2692 1452,-41 2421,-2103 2333,-4044 -87,-1893 -1204,-3649 -2499,-3294z"/>
   <path class="fil2 str0" d="M28760 28744c-785,-2062 428,-3773 1932,-4275 2649,-884 2975,2788 2026,4484"/>
  </g>
  <g id="_894135328">
   <path class="fil4" d="M47627 28685c323,-1598 -478,-3943 -2577,-3980 -2472,-43 -1924,3725 -1566,4357 13,19 25,38 38,56 1000,1426 3136,1082 4105,-433z"/>
   <path class="fil0" d="M47591 24726c-879,-1975 -2156,-2425 -3402,-1596 -1564,1041 -1302,2840 -1188,4364 49,656 225,1175 483,1567 -359,-632 -906,-4400 1566,-4357 2099,37 2900,2382 2577,3980 103,-161 193,-335 266,-522 412,-1043 190,-2331 -302,-3437z"/>
   <path class="fil2 str0" d="M43001 27494c-114,-1525 -377,-3323 1188,-4364 1246,-829 2523,-380 3402,1596 492,1106 714,2393 302,3437 -962,2435 -4638,2743 -4892,-668z"/>
   <path class="fil2 str0" d="M43523 29118c-353,-408 -1035,-4458 1527,-4413 2099,37 2900,2382 2577,3980"/>
  </g>
  <g>
   <polygon class="fil3" points="40284,24599 39874,25391 39758,25333 39642,25279 39528,25230 39414,25185 39301,25145 39189,25108 39078,25076 38968,25048 38858,25023 38749,25003 38640,24986 38532,24973 38425,24963 38318,24957 38211,24954 38105,24955 37998,24959 37893,24967 37787,24977 37681,24991 37576,25008 37470,25029 37364,25052 37259,25078 37153,25108 37048,25140 36942,25176 36836,25214 36730,25255 36625,25299 36519,25347 36412,25396 36025,24593 36148,24535 36272,24481 36397,24429 36522,24380 36648,24334 36775,24291 36902,24252 37031,24216 37160,24184 37290,24155 37420,24130 37552,24109 37684,24092 37816,24078 37950,24069 38084,24064 38219,24063 38354,24066 38490,24074 38626,24086 38763,24103 38900,24124 39037,24150 39175,24181 39313,24216 39451,24256 39589,24301 39728,24351 39867,24405 40006,24465 40145,24529 "/>
  </g>
  <g>
   <path class="fil5" style="mask:url(#id1)" d="M31070 22285c2894,0 5219,714 5234,3583 8,1530 -648,3100 -1708,4231 -770,357 -1537,836 -2276,1456 -400,121 -819,186 -1251,186 -2931,0 -5239,-2864 -5239,-5629 0,-2765 2346,-3827 5239,-3827z"/>
   <path id="1" class="fil2 str1" d="M31070 22285c2894,0 5219,714 5234,3583 8,1530 -648,3100 -1708,4231 -770,357 -1537,836 -2276,1456 -400,121 -819,186 -1251,186 -2931,0 -5239,-2864 -5239,-5629 0,-2765 2346,-3827 5239,-3827z"/>
  </g>
  <path class="fil2 str0" d="M62103 80392c361,-36 675,-51 1036,-59 1866,-43 2949,857 3600,1510 1278,1281 970,2098 42,2228 -545,76 -1416,-133 -2162,-1030 -729,-875 -1802,-1063 -3023,-976"/>
  <path class="fil2 str0" d="M40581 43317c1585,-137 2642,-288 4724,-1399"/>
  <path class="fil2 str0" d="M31382 32439c-6096,6404 -8758,28025 -5477,40588 2791,10685 11270,11013 20231,8280 136,174 300,382 478,488 1360,810 3815,791 4294,-1050 273,-1048 -491,-2321 -2123,-4306 -554,-673 2299,-1521 1280,-3614 -1088,-2233 -4422,-92 -5236,3202 -6345,546 -8074,-4599 -8282,-9206 -237,-5239 1357,-15987 2931,-20902 1133,-3538 4046,-7145 5180,-9966"/>
  <path class="fil2 str0" d="M31382 32439c3380,-3559 7662,-3724 10078,-2476"/>
  <g>
   <path class="fil5" style="mask:url(#id3)" d="M45179 22285c2894,0 5219,714 5234,3583 15,2868 -2304,5873 -5234,5873 -2931,0 -5239,-2864 -5239,-5629 0,-2765 2346,-3827 5239,-3827z"/>
   <path id="1" class="fil3" d="M50810 25865l-794 4 0 0 -8 -242 -19 -228 -31 -215 -42 -202 -52 -190 -62 -178 -72 -167 -81 -156 -90 -146 -99 -138 -108 -129 -117 -121 -126 -114 -135 -107 -144 -100 -153 -93 -162 -86 -171 -80 -180 -74 -188 -67 -197 -61 -204 -55 -212 -49 -219 -43 -226 -37 -232 -31 -238 -26 -244 -21 -249 -16 -254 -11 -259 -6 -263 -2 0 -794 276 2 273 7 270 12 266 17 262 22 258 28 253 34 249 41 244 48 239 55 233 62 227 70 221 79 215 88 208 97 200 107 193 117 184 128 175 139 166 150 155 161 144 173 133 184 120 196 107 207 94 218 80 229 66 240 52 251 38 262 23 272 9 283 0 0zm-5631 6272l0 -794 0 0 248 -8 244 -23 240 -38 237 -53 233 -67 229 -81 224 -94 220 -106 214 -119 209 -130 203 -142 197 -153 191 -163 184 -173 177 -182 170 -191 162 -199 154 -206 145 -213 136 -220 127 -226 117 -231 107 -235 97 -239 87 -243 76 -245 65 -248 53 -249 42 -250 30 -250 17 -250 5 -249 794 -4 -6 289 -20 289 -34 288 -48 286 -61 284 -74 282 -86 279 -98 275 -110 271 -121 266 -132 261 -143 255 -154 248 -164 241 -174 234 -184 226 -193 217 -202 208 -211 198 -220 187 -228 176 -236 165 -244 152 -251 139 -259 125 -266 111 -272 96 -278 80 -284 63 -289 46 -294 28 -298 10 0 0zm-5636 -6026l794 0 0 0 6 239 18 240 31 240 42 239 54 238 65 237 76 235 87 232 97 229 107 225 117 220 127 215 136 210 144 204 153 197 161 190 169 182 177 174 184 165 191 156 197 146 203 135 209 125 214 113 220 102 224 90 229 77 233 64 238 51 241 37 245 22 249 8 0 794 -297 -9 -293 -27 -288 -44 -283 -60 -277 -76 -271 -91 -265 -106 -258 -120 -251 -133 -244 -145 -236 -157 -228 -169 -220 -179 -211 -189 -202 -199 -193 -208 -184 -216 -174 -224 -164 -232 -154 -239 -144 -245 -133 -251 -122 -256 -111 -261 -99 -265 -87 -269 -75 -272 -62 -274 -49 -277 -35 -278 -21 -279 -7 -280 0 0zm5636 -4224l0 794 0 0 -260 3 -256 9 -252 15 -247 22 -242 28 -237 34 -231 41 -225 47 -219 54 -212 60 -205 67 -197 74 -189 80 -181 87 -173 93 -164 100 -155 106 -147 113 -138 120 -128 126 -119 133 -110 140 -101 148 -91 155 -82 164 -72 172 -62 182 -52 191 -41 201 -30 211 -18 222 -6 233 -794 0 7 -276 22 -267 37 -258 51 -249 65 -240 79 -231 93 -221 106 -212 118 -202 131 -192 142 -182 153 -171 164 -161 174 -151 183 -141 192 -131 200 -121 208 -112 215 -103 222 -94 228 -85 234 -77 240 -69 246 -60 251 -53 256 -45 260 -38 265 -31 269 -23 272 -17 276 -10 279 -3 0 0z"/>
  </g>
 </g>
</svg>
