<?xml version="1.0" encoding="UTF-8"?>
<!DOCTYPE svg PUBLIC "-//W3C//DTD SVG 1.1//EN" "http://www.w3.org/Graphics/SVG/1.1/DTD/svg11.dtd">
<!-- Creator: CorelDRAW X6 -->
<svg xmlns="http://www.w3.org/2000/svg" xml:space="preserve" width="78.3166mm" height="121.444mm" version="1.1" style="shape-rendering:geometricPrecision; text-rendering:geometricPrecision; image-rendering:optimizeQuality; fill-rule:evenodd; clip-rule:evenodd"
viewBox="0 0 7832 12144"
 xmlns:xlink="http://www.w3.org/1999/xlink">
 <defs>
  <style type="text/css">
   <![CDATA[
    .str0 {stroke:black;stroke-width:79.37;stroke-linecap:round;stroke-linejoin:round}
    .fil3 {fill:none}
    .fil0 {fill:#0000BF}
    .fil2 {fill:#B3B3B3}
    .fil1 {fill:white}
   ]]>
  </style>
 </defs>
 <g id="Colours">
  <metadata id="CorelCorpID_0Corel-Layer"/>
  <path class="fil0" d="M3227 2890c95,-170 62,-537 -203,-448 -150,50 -272,221 -193,428 44,61 121,107 253,103 56,-2 104,-33 143,-82z"/>
  <path class="fil0" d="M4863 2833c32,-160 -48,-394 -258,-398 -247,-4 -192,373 -157,436 1,2 3,4 4,6 100,143 314,108 410,-43z"/>
  <path class="fil1" d="M3318 2568c-9,-189 -120,-365 -250,-329 -133,37 -312,260 -292,465 5,54 20,116 56,166 -79,-206 43,-377 193,-428 265,-88 297,279 203,448 61,-79 96,-203 91,-323z"/>
  <path class="fil1" d="M4860 2438c-88,-198 -216,-243 -340,-160 -156,104 -130,284 -119,436 5,66 22,117 48,157 -36,-63 -91,-440 157,-436 210,4 290,238 258,398 10,-16 19,-34 27,-52 41,-104 19,-233 -30,-344z"/>
  <path class="fil1" d="M1470 7288c-12,-291 -241,-370 -383,-96 88,45 228,77 383,96z"/>
  <path class="fil1" d="M1895 7311c-23,-144 -245,-427 -425,-23 90,11 184,18 275,21 51,2 101,2 150,2z"/>
  <path class="fil1" d="M2277 7258c-199,-282 -356,-88 -382,53 151,-2 282,-16 351,-40 11,-4 21,-8 31,-12z"/>
  <path class="fil1" d="M6051 7237c-73,-398 -343,-424 -502,-116 132,71 326,103 502,116z"/>
  <path class="fil1" d="M6530 7230c-111,-338 -416,-310 -479,8 100,7 194,8 268,7 62,-1 109,-4 135,-6 26,-2 51,-5 76,-8z"/>
  <path class="fil1" d="M6958 7078c-173,-202 -444,-209 -429,151 175,-23 330,-67 429,-151z"/>
  <path class="fil1" d="M2882 12068c-19,-287 -305,-314 -425,-121 114,54 263,95 425,121z"/>
  <path class="fil1" d="M3339 12096c-68,-276 -350,-240 -456,-28 148,23 306,33 456,28z"/>
  <path class="fil1" d="M3790 12018c-136,-194 -370,-243 -451,78 168,-6 327,-31 451,-78z"/>
  <path class="fil1" d="M4899 12084c12,-205 -225,-429 -441,-118 108,61 266,99 441,118z"/>
  <path class="fil1" d="M5427 12084c-78,-266 -360,-390 -529,0 170,18 356,17 529,0z"/>
  <path class="fil1" d="M5921 11961c-149,-221 -487,-292 -493,123 199,-20 378,-62 493,-123z"/>
  <path class="fil2" d="M1964 3093c0,-582 213,-1089 672,-1404 -174,-562 -436,-797 -733,-897 -178,-60 -623,-108 -805,-65 -402,95 -387,843 -253,1159 159,376 506,704 479,985 -9,90 -168,268 -252,448 -92,195 -164,445 -150,662 18,279 270,613 672,647 420,36 547,-283 661,-540 -187,-291 -289,-637 -289,-996z"/>
  <path class="fil2" d="M6978 1742c89,-218 55,-401 -9,-698 -60,-280 -151,-436 -369,-488 -183,-43 -628,5 -805,65 -308,104 -579,352 -752,960 524,282 760,816 760,1571 0,396 -87,717 -248,969 116,189 280,352 610,320 428,-42 721,-381 737,-666 12,-208 -81,-447 -183,-634 -95,-172 -198,-298 -203,-375 -17,-293 306,-644 462,-1025z"/>
  <path class="fil2" d="M5803 3151c0,-754 -236,-1288 -760,-1571 -290,-156 -669,-236 -1146,-233 -537,4 -954,129 -1261,341 -458,315 -672,823 -672,1404 0,359 102,705 289,996 65,101 141,196 226,282 28,28 56,55 86,81 15,13 28,24 44,37 -99,452 -154,964 -159,1460 -3,347 18,687 67,994 20,126 45,247 74,360 279,1069 1127,1101 2023,828 14,17 30,38 48,49 136,81 381,79 429,-105 27,-105 -49,-232 -212,-431 -55,-67 230,-152 128,-361 -109,-223 -442,-9 -524,320 -634,55 -807,-460 -828,-921 -20,-434 87,-1247 213,-1792 150,-12 298,-24 447,-49 487,-83 878,-269 1137,-579 37,-44 71,-91 103,-141 161,-253 248,-573 248,-969zm-939 -318c-97,152 -311,186 -410,43 -1,-1 -3,-3 -4,-6 -26,-39 -43,-91 -48,-157 -11,-152 -38,-332 119,-436 125,-83 252,-38 340,160 49,111 71,239 30,344 -7,19 -16,36 -27,52zm-1545 -266c5,120 -29,244 -91,323 -38,49 -87,80 -143,82 -132,4 -209,-41 -253,-103 -36,-51 -51,-112 -56,-166 -20,-204 159,-428 292,-465 130,-36 241,140 250,329z"/>
  <path class="fil2" d="M2449 5949c5,-496 60,-1008 159,-1460 -16,-13 -28,-24 -44,-37 -30,-26 -58,-53 -86,-81 -1057,593 -1607,1256 -1577,2267 8,263 12,425 137,524 13,10 29,20 47,30 142,-274 371,-195 383,96 180,-404 402,-121 425,23 26,-141 183,-335 382,-53 134,-59 202,-174 239,-315 -49,-307 -70,-646 -67,-994z"/>
  <path class="fil2" d="M6051 7237c-176,-13 -369,-45 -502,-116 159,-308 429,-282 502,116zm268 7c-74,1 -168,0 -268,-7 63,-317 368,-345 479,-8 -16,-361 255,-353 429,-151 71,-60 114,-141 114,-248 1,-224 -41,-568 -124,-903 -193,-779 -641,-1239 -1497,-1666 -259,310 -650,497 -1137,579 -149,25 -296,37 -447,49 -127,545 -233,1358 -213,1792 21,461 194,975 828,921 81,-329 415,-543 524,-320 102,209 -183,294 -128,361 163,198 240,326 212,431 -48,184 -293,186 -429,105 -18,-11 -34,-31 -48,-49 -896,273 -1744,241 -2023,-828 -30,-113 -54,-234 -74,-360 -37,141 -105,255 -239,315 -10,4 -21,9 -31,13 -69,24 -199,38 -351,40 -48,1 -98,0 -150,-2 72,572 264,1159 565,1574 -107,955 -21,1842 -4,2797 3,154 -4,184 113,247 12,7 25,13 39,20 120,-193 406,-166 425,121 106,-212 388,-248 456,28 81,-321 315,-272 451,-78 73,-28 135,-63 179,-107 24,-27 37,-1137 37,-1246 0,-130 -48,-694 -70,-976 -4,-55 -8,-117 -11,-172 42,0 84,-1 128,-3 95,-3 187,-8 276,-17 -84,495 -106,1943 -12,2309 16,64 66,117 141,159 216,-311 453,-87 441,118 168,-390 451,-266 529,0 6,-415 344,-344 493,-123 68,-36 113,-78 126,-126 0,-545 67,-2801 -141,-3120 37,-53 72,-109 104,-168 58,-106 108,-220 149,-341 19,-54 35,-110 51,-167 65,-242 100,-508 109,-795z"/>
  <path class="fil2" d="M6674 8184c-65,-65 -173,-155 -360,-151 -36,1 -67,2 -104,6 -15,57 -32,113 -51,167 122,-9 229,10 302,98 75,90 162,111 216,103 93,-13 124,-95 -4,-223z"/>
 </g>
 <g id="lineart">
  <metadata id="CorelCorpID_1Corel-Layer"/>
  <path class="fil3 str0" d="M4712 9441c-200,42 -420,67 -659,74 -159,5 -309,4 -450,-5m-1138 -440c-3,-3 -5,-6 -8,-8 -385,-412 -628,-1093 -711,-1753m4574 -65c-15,506 -114,947 -308,1303 -53,97 -114,187 -182,270"/>
  <path class="fil3 str0" d="M5906 8715c207,319 141,2575 141,3120 -90,323 -1630,385 -1730,-28 -94,-367 -71,-1824 13,-2314"/>
  <path class="fil3 str0" d="M3925 9518c3,55 7,117 11,172 22,281 70,845 70,976 0,108 -13,1219 -37,1246 -270,266 -1168,225 -1551,16 -116,-63 -110,-94 -113,-247 -17,-955 -103,-1842 4,-2797"/>
  <path class="fil3 str0" d="M5042 1581c173,-608 444,-857 752,-960 178,-60 623,-108 805,-65 218,52 309,207 369,488 64,297 98,480 9,698 -156,381 -480,732 -462,1025 5,77 108,202 203,375 103,187 195,425 183,634 -16,285 -310,625 -737,666 -330,32 -494,-131 -610,-320"/>
  <path class="fil3 str0" d="M2635 1689c-174,-562 -436,-797 -733,-897 -178,-60 -623,-108 -805,-65 -402,95 -387,843 -253,1159 159,376 506,704 479,985 -9,90 -168,268 -252,448 -92,195 -164,445 -150,662 18,279 270,613 672,647 420,36 547,-283 661,-540"/>
  <path class="fil3 str0" d="M2457 11947c120,-193 406,-166 425,121 106,-212 388,-248 456,28 81,-321 315,-272 451,-78"/>
  <path class="fil3 str0" d="M4457 11967c216,-311 453,-87 441,118 168,-390 451,-266 529,0 6,-415 344,-344 493,-123"/>
  <path class="fil3 str0" d="M2479 4371c-1057,593 -1607,1256 -1577,2267 8,263 12,425 137,524 200,158 994,184 1206,109 155,-55 230,-176 270,-327"/>
  <path class="fil3 str0" d="M2608 4489c-16,-13 -28,-24 -44,-37 -383,-337 -601,-834 -601,-1359 0,-972 596,-1736 1933,-1745 1337,-9 1906,631 1906,1803 0,1016 -576,1535 -1488,1690 -149,25 -296,37 -447,49"/>
  <path class="fil3 str0" d="M5452 4262c857,427 1304,887 1497,1666 83,335 124,679 124,903 -1,278 -285,377 -619,408 -147,14 -1062,43 -1065,-342 -3,-368 -56,-1058 179,-1591"/>
  <path class="fil3 str0" d="M1087 7192c142,-274 371,-195 383,96 180,-404 402,-121 425,23 26,-141 183,-335 382,-53"/>
  <path class="fil3 str0" d="M5549 7121c159,-308 429,-282 502,116 63,-317 368,-345 479,-8 -16,-361 255,-353 429,-151"/>
  <path class="fil3 str0" d="M3138 3244c389,-409 897,-370 1103,-182"/>
  <path class="fil3 str0" d="M2845 3720c417,-314 985,-100 1074,-42"/>
  <path class="fil3 str0" d="M2612 4473c352,-222 792,-182 1000,-24"/>
  <path class="fil3 str0" d="M2503 5120c238,-111 681,-24 777,111"/>
  <path class="fil3 str0" d="M2449 5949c194,-80 468,-59 621,62"/>
  <path class="fil3 str0" d="M2501 6777c174,-79 354,-63 527,-14"/>
  <path class="fil3 str0" d="M2859 7867c208,1 334,-26 455,-174"/>
  <path class="fil3 str0" d="M3397 8227c114,-61 204,-134 236,-281"/>
  <path class="fil3 str0" d="M4134 8240c40,-70 48,-118 44,-206"/>
  <path class="fil3 str0" d="M2628 7429c205,-8 316,2 466,-126"/>
  <path class="fil3 str0" d="M3068 2238c-133,37 -312,260 -292,465 12,120 68,276 309,269 145,-4 242,-210 233,-404 -9,-189 -120,-365 -250,-329z"/>
  <path class="fil3 str0" d="M4401 2714c-11,-152 -38,-332 119,-436 125,-83 252,-38 340,160 49,111 71,239 30,344 -96,243 -464,274 -489,-67z"/>
  <path class="fil3 str0" d="M2831 2869c-79,-206 43,-377 193,-428 265,-88 297,279 203,448"/>
  <path class="fil3 str0" d="M4453 2877c-35,-41 -103,-446 153,-441 210,4 290,238 258,398"/>
  <path class="fil3 str0" d="M3138 3244c-610,640 -876,2803 -548,4059 279,1069 1127,1101 2023,828 14,17 30,38 48,49 136,81 381,79 429,-105 27,-105 -49,-232 -212,-431 -55,-67 230,-152 128,-361 -109,-223 -442,-9 -524,320 -634,55 -807,-460 -828,-921 -24,-524 136,-1599 293,-2090 113,-354 405,-715 518,-997"/>
  <path class="fil3 str0" d="M6210 8039c36,-4 68,-5 104,-6 187,-4 295,86 360,151 128,128 97,210 4,223 -55,8 -142,-13 -216,-103 -73,-88 -180,-106 -302,-98"/>
  <path class="fil3 str0" d="M4078 4293c159,-14 231,-23 452,-101"/>
  <path class="fil3 str0" d="M4053 4342c62,-9 407,-126 478,-150"/>
 </g>
</svg>
