<?xml version="1.0" encoding="UTF-8"?>
<!DOCTYPE svg PUBLIC "-//W3C//DTD SVG 1.1//EN" "http://www.w3.org/Graphics/SVG/1.1/DTD/svg11.dtd">
<!-- Creator: CorelDRAW X6 -->
<svg xmlns="http://www.w3.org/2000/svg" xml:space="preserve" width="74.3478mm" height="105.04mm" version="1.1" style="shape-rendering:geometricPrecision; text-rendering:geometricPrecision; image-rendering:optimizeQuality; fill-rule:evenodd; clip-rule:evenodd"
viewBox="0 0 7435 10504"
 xmlns:xlink="http://www.w3.org/1999/xlink">
 <defs>
  <style type="text/css">
   <![CDATA[
    .str0 {stroke:black;stroke-width:79.37;stroke-linecap:round;stroke-linejoin:round}
    .fil5 {fill:none}
    .fil0 {fill:#117600}
    .fil3 {fill:#815C09}
    .fil4 {fill:#D6444A}
    .fil2 {fill:#FCD59A}
    .fil1 {fill:white}
   ]]>
  </style>
 </defs>
 <g id="Colour">
  <metadata id="CorelCorpID_0Corel-Layer"/>
  <path class="fil0" d="M3237 1369c5,-100 -22,-180 -64,-235 -179,-236 -308,-4 -336,184 -10,63 -10,130 13,184 1,2 2,3 3,5 12,17 26,30 42,39 4,2 39,19 42,21 86,-60 183,-111 286,-149 5,-16 10,-32 14,-48z"/>
  <path class="fil0" d="M4378 1465c19,-265 -42,-420 -140,-443 -178,-44 -247,166 -258,247 0,0 0,0 0,0 0,55 6,109 21,155 88,36 170,83 247,136l21 -6c48,-16 84,-48 110,-89z"/>
  <path class="fil1" d="M3237 1369c52,-218 -21,-516 -256,-510 -156,4 -268,440 -131,643 -23,-54 -23,-121 -13,-184 28,-188 157,-420 336,-184 42,55 69,135 64,235z"/>
  <path class="fil1" d="M4434 1237c1,-181 -89,-404 -207,-383 -87,19 -164,74 -199,159 -29,71 -47,165 -48,255 11,-81 81,-291 258,-247 97,24 158,179 140,443 38,-60 55,-142 56,-228z"/>
  <path class="fil2" d="M2116 6792c-95,-256 -367,-579 -400,-642 -11,48 -18,91 -22,128 -7,75 -33,112 -36,107 -158,-270 -152,248 -226,21 -184,-568 -383,517 -386,39 -22,120 -39,496 -9,621 63,259 201,108 237,-132 9,86 35,171 75,242 69,121 123,151 162,128 72,-41 83,-191 62,-326 55,154 168,202 236,173 81,-34 60,-204 14,-338 61,110 163,258 234,260 103,3 78,-226 58,-281z"/>
  <path class="fil2" d="M4533 9384c-46,110 -84,-236 -185,-8 -37,83 -138,-52 -142,-106 0,-3 0,-7 -1,-10 -43,422 -131,530 -271,724 -220,306 -27,549 158,415 64,63 184,69 268,19 75,57 216,15 256,-63 1,1 1,2 2,3 32,55 67,76 99,76 116,0 121,-99 126,-193 11,-232 5,-533 -18,-669 -12,-72 -52,-169 -104,-240 -16,255 -107,-138 -187,51z"/>
  <path class="fil2" d="M3027 9396c-149,-292 -69,114 -213,6 -154,-116 -102,81 -180,62 -29,-7 -57,-50 -69,-112 0,312 -199,550 -287,598 -270,234 -113,462 14,450 42,-4 88,-13 131,-42 60,63 163,94 239,37 3,3 7,6 11,9 69,48 163,35 241,-32 4,6 9,11 14,17 77,78 165,53 210,-28 33,-60 52,-138 56,-187 14,-202 -1,-473 -12,-555 -18,-134 -82,-255 -99,-290 -5,54 -44,92 -57,66z"/>
  <path class="fil2" d="M5582 6672c-66,40 -123,84 -117,-26 7,-119 -110,-20 -159,14 -58,40 -113,82 -124,61 -67,57 -147,154 -235,240 -41,41 -163,145 -238,255 -58,86 -87,176 -28,242 21,23 52,31 90,23 61,-12 139,-63 210,-151 -40,65 -68,121 -68,169 0,113 79,154 175,118 131,-49 215,-153 282,-288 -29,151 -15,311 71,315 129,6 182,-198 211,-389 -2,165 25,467 155,342 96,-92 89,-650 38,-739 -20,8 -44,3 -76,-21 -103,-77 -1,-278 -189,-166z"/>
  <path class="fil3" d="M6101 3118c386,12 498,-806 -156,-594 -496,161 -746,574 -764,915 -10,183 29,435 71,643 8,9 16,19 24,28 191,221 353,467 476,738 21,-327 -41,-663 -35,-896 6,-192 7,-364 30,-501 25,-148 52,-283 159,-331 46,-20 125,-3 193,-1z"/>
  <path class="fil3" d="M5289 6143c-17,-159 -59,-342 -116,-534 -43,109 -93,204 -151,277 -39,245 -114,462 -217,649 26,-9 53,-18 80,-28 152,-58 288,-193 404,-363z"/>
  <path class="fil3" d="M2850 1501c-137,-202 -25,-638 131,-643 236,-7 308,292 256,510 -4,17 -9,33 -14,48 119,-43 248,-68 382,-70 145,-1 276,28 395,76 -15,-47 -21,-100 -21,-155 0,0 0,0 0,0 1,-90 19,-184 48,-255 35,-85 112,-140 199,-159 118,-20 208,202 207,383 -1,86 -17,167 -56,228 -19,30 -39,50 -62,65 -14,10 -30,18 -47,24l-21 6c31,21 60,44 89,67 217,174 400,413 400,710 0,251 -82,475 -243,646 252,-177 443,-432 549,-683 71,-169 115,-342 134,-513 111,10 232,-7 317,-61 594,-378 531,-1210 -88,-1210 -228,0 -368,73 -460,227 -259,-409 -719,-691 -1342,-691 -592,0 -1039,304 -1299,725 -56,-75 -134,-149 -233,-208 -273,-163 -518,-107 -645,9 -106,97 -165,312 -140,555 39,372 387,787 770,724 16,152 53,301 113,442 99,236 274,476 505,651 -136,-172 -205,-387 -199,-614 6,-235 105,-418 246,-579 62,-71 135,-136 217,-193 -4,-2 -39,-19 -42,-21 -16,-9 -30,-22 -42,-39 -1,-1 -2,-3 -3,-5z"/>
  <path class="fil3" d="M5252 4081c-293,-333 -653,-609 -1044,-833 -164,105 -365,177 -602,185 -245,7 -453,-64 -621,-175 -669,378 -1284,1210 -1592,1891 -199,441 -344,879 -346,1274 0,7 0,15 0,21 3,478 201,-607 386,-39 74,227 69,-291 226,-21 3,5 29,-32 36,-107 3,-37 11,-80 22,-128 45,-196 149,-478 283,-779 63,-143 132,-291 208,-431 -12,86 -23,174 -32,264 -66,626 79,1144 341,1505 -258,1186 -113,1704 50,2643 0,1 0,1 0,2 11,62 40,105 69,112 77,19 26,-178 180,-62 144,108 64,-299 213,-6 13,26 52,-12 57,-66 1,-9 1,-18 -1,-27 -96,-725 48,-1379 289,-2048 127,19 270,22 396,11 247,550 370,1250 424,1837 5,54 9,106 13,157 0,3 0,7 1,10 4,55 105,189 142,106 101,-228 139,117 185,8 80,-189 171,204 187,-51 0,-3 0,-7 1,-11 4,-86 7,-290 13,-369 47,-577 132,-968 40,-1471 -38,7 -70,0 -90,-23 -59,-67 -30,-156 28,-242 -33,-115 -75,-237 -129,-369 84,-91 159,-196 223,-313 103,-186 178,-404 217,-649 33,-209 40,-437 14,-682l-1 -8c26,67 50,134 72,201 24,71 46,142 66,212 56,192 99,375 116,534 19,170 9,313 -42,410 -55,105 -71,153 -64,168 11,21 66,-21 124,-61 49,-34 166,-133 159,-14 -6,110 50,65 117,26 187,-112 86,89 189,166 32,24 57,29 76,21 27,-11 45,-46 63,-90 180,-438 151,-1055 -51,-1651 -32,-93 -67,-183 -107,-271 -123,-271 -285,-516 -476,-738l-24 -28z"/>
  <path class="fil2" d="M5493 1726c594,-378 531,-1210 -88,-1210 -228,0 -368,73 -460,227 -23,40 -44,85 -61,135 -141,300 83,434 3,628 -29,71 15,181 94,228 51,27 121,46 196,52 111,10 232,-7 317,-61z"/>
  <path class="fil2" d="M2357 1517c-34,-378 137,-265 12,-632 -17,-35 -39,-71 -66,-107 -56,-75 -134,-149 -233,-208 -273,-163 -518,-107 -645,9 -106,97 -165,312 -140,555 39,372 387,787 770,724 60,-10 120,-31 180,-66 120,-59 130,-167 120,-275z"/>
  <path class="fil2" d="M3606 1347c295,-2 531,120 731,280 217,174 400,413 400,710 0,179 -42,345 -125,487 -169,292 -510,594 -1006,609 -509,16 -860,-310 -1025,-625 -74,-142 -110,-303 -106,-470 6,-235 105,-418 246,-579 204,-232 525,-408 885,-411z"/>
  <path class="fil4" d="M4419 2831c-248,127 -528,193 -816,194 -297,1 -635,-100 -814,-194 197,103 455,425 814,423 330,-1 552,-288 816,-423z"/>
 </g>
 <g id="lineart">
  <metadata id="CorelCorpID_1Corel-Layer"/>
  <path class="fil5 str0" d="M3606 1347c295,-2 531,120 731,280 217,174 400,413 400,710 0,179 -42,345 -125,487 -169,292 -510,594 -1006,609 -509,16 -860,-310 -1025,-625 -74,-142 -110,-303 -106,-470 6,-235 105,-418 246,-579 204,-232 525,-408 885,-411z"/>
  <path class="fil5 str0" d="M5036 5196l1 8c80,762 -152,1363 -526,1716m-742 345c-126,11 -269,8 -396,-11m-763 -428c-320,-361 -509,-925 -435,-1623 10,-90 20,-179 32,-264"/>
  <path class="fil5 str0" d="M3223 1417c76,-219 11,-565 -242,-558 -157,5 -270,447 -128,647 12,17 26,30 42,39 4,2 39,19 42,21"/>
  <path class="fil5 str0" d="M2304 778c260,-421 707,-725 1299,-725 623,0 1083,282 1342,691m231 1044c-19,171 -63,344 -134,513 -103,244 -286,492 -529,669m-1850 -27c-225,-174 -396,-410 -493,-642 -60,-141 -97,-290 -113,-442"/>
  <path class="fil5 str0" d="M2768 4159c-162,180 -336,407 -444,579 -122,194 -230,419 -325,633 -166,375 -287,720 -304,908 -7,75 -33,112 -36,107 -158,-270 -152,248 -226,21 -187,-577 -388,549 -386,17 2,-394 147,-833 346,-1274 308,-681 923,-1514 1592,-1891m1223 -10c403,230 771,516 1069,861 253,293 455,629 584,1009 202,595 231,1213 51,1651 -32,78 -64,126 -140,69 -103,-77 -1,-278 -189,-166 -66,40 -123,84 -117,-26 7,-119 -110,-20 -159,14 -100,70 -192,142 -60,-107 116,-220 20,-675 -140,-1155 -172,-517 -454,-1063 -700,-1401"/>
  <path class="fil5 str0" d="M5183 6721c-67,57 -147,154 -235,240 -73,72 -401,345 -266,498 54,61 185,14 300,-128m212 -355c-96,219 -280,401 -280,524 0,113 79,154 175,118 237,-88 321,-358 422,-659m-141 371c-29,151 -15,311 71,315 204,10 218,-513 248,-666m-37 277c-2,165 25,467 155,342 96,-92 89,-650 38,-739"/>
  <path class="fil5 str0" d="M1047 6445c-22,120 -39,496 -9,621 63,259 201,108 237,-132m1 -147c-17,133 11,277 74,388 69,121 123,151 162,128 72,-41 83,-191 62,-326m-24 -343c-54,422 155,560 260,515 81,-34 60,-204 14,-338m-49 -98c29,75 185,355 283,358 103,3 78,-226 58,-281 -95,-256 -367,-579 -400,-642"/>
  <path class="fil5 str0" d="M5408 840c-266,235 -225,298 -167,399 79,137 30,210 -106,198"/>
  <path class="fil5 str0" d="M4001 1424c-39,-123 -19,-297 27,-411 35,-85 112,-140 199,-159 118,-20 208,202 207,383 -1,144 -48,276 -166,317 -2,1 -19,6 -21,6"/>
  <path class="fil5 str0" d="M4063 1972c-205,0 -302,153 -327,311 -19,122 -16,248 151,306"/>
  <path class="fil5 str0" d="M3148 1972c205,0 346,144 352,304 4,136 -9,255 -176,313"/>
  <path class="fil5 str0" d="M2515 6708c-258,1186 -113,1704 50,2643 11,63 40,107 69,114 77,19 26,-178 180,-62 144,108 64,-299 213,-6 15,30 66,-25 57,-93 -100,-751 59,-1425 315,-2119"/>
  <path class="fil5 str0" d="M3728 7178c275,562 408,1306 464,1924 5,57 10,113 13,167 4,55 105,189 142,106 101,-228 139,117 185,8 81,-191 173,214 187,-61 4,-86 7,-290 13,-369 47,-577 132,-968 40,-1471m-62 -266c-33,-115 -75,-237 -129,-369"/>
  <path class="fil5 str0" d="M2727 10027c-61,76 -140,248 -87,342 8,14 19,27 33,36 69,48 163,35 241,-32m28 -262c-52,104 -94,197 -13,278 77,78 165,53 210,-28 33,-60 52,-138 56,-187 14,-202 -1,-473 -12,-555 -18,-134 -82,-255 -99,-290m-518 23c0,312 -199,550 -287,598 -270,234 -113,462 14,450 42,-4 88,-13 131,-42m91 -349c-99,32 -187,248 -91,348 60,63 163,95 239,38"/>
  <path class="fil5 str0" d="M4205 9260c-43,422 -131,530 -271,724 -220,306 -27,549 158,415"/>
  <path class="fil5 str0" d="M4204 9993c-353,386 -20,530 156,424"/>
  <path class="fil5 str0" d="M4428 10019c-62,103 -151,255 -101,357 54,112 242,69 289,-23"/>
  <path class="fil5 str0" d="M4633 10047c-33,103 -44,149 -37,231 2,29 8,57 21,80 32,55 67,76 99,76 116,0 121,-99 126,-193 11,-232 5,-533 -18,-669 -12,-72 -52,-169 -104,-240"/>
  <path class="fil5 str0" d="M4884 879c86,-248 235,-363 521,-363 619,0 683,832 88,1210 -142,91 -385,77 -513,9"/>
  <path class="fil5 str0" d="M1813 797c94,85 270,184 207,335 -83,198 -167,339 114,346"/>
  <path class="fil5 str0" d="M2850 1501c-23,-54 -23,-121 -13,-184 28,-188 157,-420 336,-184 42,55 69,135 64,235"/>
  <path class="fil5 str0" d="M3980 1269c11,-81 80,-291 258,-247 97,24 158,179 140,443"/>
  <path class="fil5 str0" d="M2370 885c-52,-108 -152,-228 -298,-315 -273,-163 -518,-107 -645,9 -106,97 -165,312 -140,555 45,429 502,917 950,659"/>
  <path class="fil5 str0" d="M5023 5885c57,-73 108,-168 151,-277m78 -1527c-42,-208 -81,-459 -71,-643 18,-341 269,-754 764,-915 653,-212 542,606 156,594 -69,-2 -148,-20 -193,1 -107,48 -134,183 -159,331 -23,137 -25,309 -30,501 -7,233 56,569 35,896m-463 1296c-116,170 -251,306 -404,363 -27,10 -54,20 -80,28"/>
  <path class="fil5 str0" d="M4419 2831c-248,127 -528,193 -816,194 -297,1 -635,-100 -814,-194 197,103 455,425 814,423 330,-1 552,-288 816,-423z"/>
 </g>
</svg>
