<?xml version="1.0" encoding="UTF-8" standalone="no"?>
<!-- Creator: CorelDRAW X6 -->

<svg
   xmlns:dc="http://purl.org/dc/elements/1.1/"
   xmlns:cc="http://creativecommons.org/ns#"
   xmlns:rdf="http://www.w3.org/1999/02/22-rdf-syntax-ns#"
   xmlns:svg="http://www.w3.org/2000/svg"
   xmlns="http://www.w3.org/2000/svg"
   xmlns:sodipodi="http://sodipodi.sourceforge.net/DTD/sodipodi-0.dtd"
   xmlns:inkscape="http://www.inkscape.org/namespaces/inkscape"
   xml:space="preserve"
   width="63.8601mm"
   height="123.504mm"
   version="1.1"
   style="shape-rendering:geometricPrecision; text-rendering:geometricPrecision; image-rendering:optimizeQuality; fill-rule:evenodd; clip-rule:evenodd"
   viewBox="0 0 6386 12350"
   id="svg2"
   inkscape:version="0.48.2 r9819"
   sodipodi:docname="dog-r.svg"><metadata
   id="metadata65"><rdf:RDF><cc:Work
       rdf:about=""><dc:format>image/svg+xml</dc:format><dc:type
         rdf:resource="http://purl.org/dc/dcmitype/StillImage" /><dc:title></dc:title></cc:Work></rdf:RDF></metadata><sodipodi:namedview
   pagecolor="#ffffff"
   bordercolor="#666666"
   borderopacity="1"
   objecttolerance="10"
   gridtolerance="10"
   guidetolerance="10"
   inkscape:pageopacity="0"
   inkscape:pageshadow="2"
   inkscape:window-width="1223"
   inkscape:window-height="859"
   id="namedview63"
   showgrid="false"
   inkscape:zoom="0.5392898"
   inkscape:cx="113.13797"
   inkscape:cy="218.80629"
   inkscape:window-x="536"
   inkscape:window-y="290"
   inkscape:window-maximized="0"
   inkscape:current-layer="svg2" />
 <defs
   id="defs4">
  <style
   type="text/css"
   id="style6">
   
    .str0 {stroke:black;stroke-width:79.3701;stroke-linecap:round;stroke-linejoin:round}
    .fil0 {fill:none}
    .fil1 {fill:white}
   
  </style>
 </defs>
 <g
   id="lineart"
   transform="matrix(-1,0,0,1,6386,0)">
  <metadata
   id="CorelCorpID_0Corel-Layer" />
  <path
   class="fil0 str0"
   d="m 1542,4403 c 12,1244 -268,1923 -470,2459 -352,931 -178,1568 360,2398 435,671 1259,632 1549,621"
   id="path10"
   inkscape:connector-curvature="0"
   style="fill:none;stroke:#000000;stroke-width:79.37010193;stroke-linecap:round;stroke-linejoin:round" />
  <path
   class="fil0 str0"
   d="m 4793,7519 c -70,883 -89,1118 -626,1700 m -826,595 c -114,42 -234,67 -360,67"
   id="path12"
   inkscape:connector-curvature="0"
   style="fill:none;stroke:#000000;stroke-width:79.37010193;stroke-linecap:round;stroke-linejoin:round" />
  <path
   class="fil0 str0"
   d="m 4318,9048 c 539,275 1490,412 2028,-358 -687,240 -871,287 -1705,-166"
   id="path14"
   inkscape:connector-curvature="0"
   style="fill:none;stroke:#000000;stroke-width:79.37010193;stroke-linecap:round;stroke-linejoin:round" />
  <path
   class="fil0 str0"
   d="m 4013,5172 c 738,311 491,2380 -107,2566 -215,67 -482,-31 -528,344 -53,431 320,157 393,137 -131,67 -209,469 268,201 128,-72 48,-188 35,138 -8,197 464,242 441,-291 -4,-97 77,-185 102,-281"
   id="path16"
   inkscape:connector-curvature="0"
   style="fill:none;stroke:#000000;stroke-width:79.37010193;stroke-linecap:round;stroke-linejoin:round" />
  <g
   id="_748959568">
   <path
   class="fil0 str0"
   d="m 1458,9299 c -71,494 -11,1227 239,1842 -1107,0 -1332,961 -773,818"
   id="path19"
   inkscape:connector-curvature="0"
   style="fill:none;stroke:#000000;stroke-width:79.37010193;stroke-linecap:round;stroke-linejoin:round" />
   <path
   class="fil0 str0"
   d="m 2252,9816 c -100,367 -38,963 126,1550"
   id="path21"
   inkscape:connector-curvature="0"
   style="fill:none;stroke:#000000;stroke-width:79.37010193;stroke-linecap:round;stroke-linejoin:round" />
   <path
   class="fil0 str0"
   d="m 1181,11510 c -200,50 -280,258 -268,391 13,153 147,259 460,157"
   id="path23"
   inkscape:connector-curvature="0"
   style="fill:none;stroke:#000000;stroke-width:79.37010193;stroke-linecap:round;stroke-linejoin:round" />
   <path
   class="fil0 str0"
   d="m 1686,11546 c -359,100 -584,658 27,583 114,-14 279,-97 368,-170 133,-109 232,-257 279,-338 33,-57 33,-188 17,-255"
   id="path25"
   inkscape:connector-curvature="0"
   style="fill:none;stroke:#000000;stroke-width:79.37010193;stroke-linecap:round;stroke-linejoin:round" />
  </g>
  <path
   class="fil0 str0"
   d="m 3116,9879 c -90,618 -19,813 178,1441 -159,53 -285,153 -434,263 -428,316 -354,804 197,544"
   id="path27"
   inkscape:connector-curvature="0"
   style="fill:none;stroke:#000000;stroke-width:79.37010193;stroke-linecap:round;stroke-linejoin:round" />
  <path
   class="fil0 str0"
   d="m 4167,9219 c -215,477 -314,1553 -56,2305"
   id="path29"
   inkscape:connector-curvature="0"
   style="fill:none;stroke:#000000;stroke-width:79.37010193;stroke-linecap:round;stroke-linejoin:round" />
  <path
   class="fil0 str0"
   d="m 3288,11643 c -316,190 -398,824 190,615 6,-2 15,-6 24,-12"
   id="path31"
   inkscape:connector-curvature="0"
   style="fill:none;stroke:#000000;stroke-width:79.37010193;stroke-linecap:round;stroke-linejoin:round" />
  <path
   class="fil0 str0"
   d="m 3708,11736 c -229,123 -417,493 -109,564 246,56 383,-104 507,-513 17,-56 29,-177 4,-263"
   id="path33"
   inkscape:connector-curvature="0"
   style="fill:none;stroke:#000000;stroke-width:79.37010193;stroke-linecap:round;stroke-linejoin:round" />
  <path
   class="fil0 str0"
   d="m 3919,3313 c -3,410 21,671 75,839 85,262 337,518 572,801 602,725 598,1668 247,2518 -57,138 -180,446 -215,582"
   id="path35"
   inkscape:connector-curvature="0"
   style="fill:none;stroke:#000000;stroke-width:79.37010193;stroke-linecap:round;stroke-linejoin:round" />
  <path
   class="fil0 str0"
   d="m 1570,4174 c 105,67 210,144 360,139 97,-3 150,-14 226,-73 59,-45 127,-107 155,-158"
   id="path37"
   inkscape:connector-curvature="0"
   style="fill:none;stroke:#000000;stroke-width:79.37010193;stroke-linecap:round;stroke-linejoin:round" />
  <path
   class="fil0 str0"
   d="m 1136,4143 c 65,4 169,77 261,156 169,145 449,227 709,172 128,-27 302,-147 474,-303"
   id="path39"
   inkscape:connector-curvature="0"
   style="fill:none;stroke:#000000;stroke-width:79.37010193;stroke-linecap:round;stroke-linejoin:round" />
  <path
   class="fil0 str0"
   d="m 492,2305 c 545,-342 1401,-442 1927,-47 23,17 74,60 100,94"
   id="path41"
   inkscape:connector-curvature="0"
   style="fill:none;stroke:#000000;stroke-width:79.37010193;stroke-linecap:round;stroke-linejoin:round" />
  <path
   class="fil0 str0"
   d="m 3527,751 c -103,-43 -197,-81 -305,-90 5,-95 -1,-156 30,-238 -184,-8 -232,107 -258,150 12,-54 35,-234 20,-335 -168,24 -279,157 -342,306 -47,-117 -81,-348 -79,-504 -63,83 -160,236 -160,529 -141,-121 -394,-332 -476,-476 0,140 59,472 225,529 -41,-8 -575,-157 -876,-97 170,16 436,95 594,222 -92,60 -159,147 -219,245 -170,278 -368,860 -353,1031"
   id="path43"
   inkscape:connector-curvature="0"
   style="fill:none;stroke:#000000;stroke-width:79.37010193;stroke-linecap:round;stroke-linejoin:round" />
  <path
   class="fil0 str0"
   d="m 1822,1409 c -160,75 -254,535 -55,533 65,-1 135,-61 145,-183 4,-52 50,-415 -90,-350 z"
   id="path45"
   inkscape:connector-curvature="0"
   style="fill:none;stroke:#000000;stroke-width:79.37010193;stroke-linecap:round;stroke-linejoin:round" />
  <path
   class="fil0 str0"
   d="m 1663,1682 c 25,-65 184,-200 262,-125"
   id="path47"
   inkscape:connector-curvature="0"
   style="fill:none;stroke:#000000;stroke-width:79.37010193;stroke-linecap:round;stroke-linejoin:round" />
  <path
   class="fil0 str0"
   d="m 2430,1834 c -50,-509 230,-450 240,-91 10,343 -216,340 -240,91 z"
   id="path49"
   inkscape:connector-curvature="0"
   style="fill:none;stroke:#000000;stroke-width:79.37010193;stroke-linecap:round;stroke-linejoin:round" />
  <path
   class="fil0 str0"
   d="m 2425,1775 c 26,-71 127,-201 211,-192"
   id="path51"
   inkscape:connector-curvature="0"
   style="fill:none;stroke:#000000;stroke-width:79.37010193;stroke-linecap:round;stroke-linejoin:round" />
  <path
   class="fil0 str0"
   d="m 1775,865 c -339,30 -565,814 -539,1167"
   id="path53"
   inkscape:connector-curvature="0"
   style="fill:none;stroke:#000000;stroke-width:79.37010193;stroke-linecap:round;stroke-linejoin:round" />
  <path
   class="fil1 str0"
   d="m 3426,861 c -26,47 -9,274 14,518 23,243 53,502 52,616 0,183 -129,598 -189,979 -60,384 -51,727 226,738 84,3 348,-55 583,-171 228,-113 430,-282 429,-512 0,-157 -55,-274 -123,-397 -69,-125 -152,-255 -207,-436 -31,-102 -92,-335 -147,-567 -34,-143 -95,-592 -158,-696 -101,-169 -340,-323 -481,-70 z"
   id="path55"
   inkscape:connector-curvature="0"
   style="fill:#ffffff;stroke:#000000;stroke-width:79.37010193;stroke-linecap:round;stroke-linejoin:round" />
  <path
   class="fil0 str0"
   d="m 158,3111 c 29,214 60,241 108,390 77,241 194,537 629,608 1788,292 1974,-472 1985,-539"
   id="path57"
   inkscape:connector-curvature="0"
   style="fill:none;stroke:#000000;stroke-width:79.37010193;stroke-linecap:round;stroke-linejoin:round" />
  <path
   class="fil0 str0"
   d="M 1336,2890 C 909,3554 309,3914 102,2895 77,2772 40,2673 40,2586 c 2,-459 1740,-387 1296,304 z"
   id="path59"
   inkscape:connector-curvature="0"
   style="fill:none;stroke:#000000;stroke-width:79.37010193;stroke-linecap:round;stroke-linejoin:round" />
  <path
   class="fil0 str0"
   d="m 1541,4611 c 19,904 -831,900 -847,2280 -4,382 163,570 -55,801 -128,136 -290,294 -136,413 78,60 199,64 270,-80 -20,120 -2,259 166,177"
   id="path61"
   inkscape:connector-curvature="0"
   style="fill:none;stroke:#000000;stroke-width:79.37010193;stroke-linecap:round;stroke-linejoin:round" />
 </g>
<text
   xml:space="preserve"
   style="font-size:1128.88720703px;font-style:normal;font-weight:normal;line-height:125%;letter-spacing:0px;word-spacing:0px;fill:#000000;fill-opacity:1;stroke:none;font-family:Sans"
   x="1441.7528"
   y="6227.3325"
   id="text3080"
   sodipodi:linespacing="125%"><tspan
     sodipodi:role="line"
     id="tspan3082"
     x="1441.7528"
     y="6227.3325">FRONT</tspan></text>
</svg>