<?xml version="1.0" encoding="UTF-8" standalone="no"?>
<!-- Creator: CorelDRAW X6 -->

<svg
   xmlns:dc="http://purl.org/dc/elements/1.1/"
   xmlns:cc="http://creativecommons.org/ns#"
   xmlns:rdf="http://www.w3.org/1999/02/22-rdf-syntax-ns#"
   xmlns:svg="http://www.w3.org/2000/svg"
   xmlns="http://www.w3.org/2000/svg"
   xmlns:sodipodi="http://sodipodi.sourceforge.net/DTD/sodipodi-0.dtd"
   xmlns:inkscape="http://www.inkscape.org/namespaces/inkscape"
   xml:space="preserve"
   width="65.6566mm"
   height="123.504mm"
   version="1.1"
   style="shape-rendering:geometricPrecision; text-rendering:geometricPrecision; image-rendering:optimizeQuality; fill-rule:evenodd; clip-rule:evenodd"
   viewBox="0 0 6304 11858"
   id="svg3134"
   inkscape:version="0.48.2 r9819"
   sodipodi:docname="dog-left-whispering.svg"><metadata
   id="metadata3193"><rdf:RDF><cc:Work
       rdf:about=""><dc:format>image/svg+xml</dc:format><dc:type
         rdf:resource="http://purl.org/dc/dcmitype/StillImage" /><dc:title></dc:title></cc:Work></rdf:RDF></metadata><sodipodi:namedview
   pagecolor="#ffffff"
   bordercolor="#666666"
   borderopacity="1"
   objecttolerance="10"
   gridtolerance="10"
   guidetolerance="10"
   inkscape:pageopacity="0"
   inkscape:pageshadow="2"
   inkscape:window-width="640"
   inkscape:window-height="480"
   id="namedview3191"
   showgrid="false"
   inkscape:zoom="0.5392898"
   inkscape:cx="116.32075"
   inkscape:cy="218.80629"
   inkscape:window-x="0"
   inkscape:window-y="0"
   inkscape:window-maximized="0"
   inkscape:current-layer="svg3134" />
 <defs
   id="defs3136">
  <style
   type="text/css"
   id="style3138">
   
    .str0 {stroke:black;stroke-width:76.2044;stroke-linecap:round;stroke-linejoin:round}
    .fil0 {fill:none}
   
  </style>
 </defs>
 <g
   id="Layer_x0020_1"
   transform="matrix(-1,0,0,1,6303.9796,0)">
  <metadata
   id="CorelCorpID_0Corel-Layer" />
  <path
   class="fil0 str0"
   d="m 1609,8987 c -58,473 5,1137 237,1709 -1063,0 -1279,923 -742,785"
   id="path3142"
   inkscape:connector-curvature="0"
   style="fill:none;stroke:#000000;stroke-width:76.20439911;stroke-linecap:round;stroke-linejoin:round" />
  <path
   class="fil0 str0"
   d="m 2374,9446 c -87,354 -27,916 126,1467"
   id="path3144"
   inkscape:connector-curvature="0"
   style="fill:none;stroke:#000000;stroke-width:76.20439911;stroke-linecap:round;stroke-linejoin:round" />
  <path
   class="fil0 str0"
   d="m 1351,11051 c -192,48 -268,248 -257,375 13,147 141,249 441,150"
   id="path3146"
   inkscape:connector-curvature="0"
   style="fill:none;stroke:#000000;stroke-width:76.20439911;stroke-linecap:round;stroke-linejoin:round" />
  <path
   class="fil0 str0"
   d="m 1836,11085 c -344,96 -561,632 26,560 109,-13 268,-93 353,-163 128,-105 223,-247 268,-324 32,-55 31,-181 17,-245"
   id="path3148"
   inkscape:connector-curvature="0"
   style="fill:none;stroke:#000000;stroke-width:76.20439911;stroke-linecap:round;stroke-linejoin:round" />
  <path
   class="fil0 str0"
   d="m 3212,9461 c -86,593 -21,805 168,1408 -153,51 -273,146 -417,252 -401,296 -343,773 182,526"
   id="path3150"
   inkscape:connector-curvature="0"
   style="fill:none;stroke:#000000;stroke-width:76.20439911;stroke-linecap:round;stroke-linejoin:round" />
  <path
   class="fil0 str0"
   d="m 4193,8798 c -206,457 -277,1544 -30,2266"
   id="path3152"
   inkscape:connector-curvature="0"
   style="fill:none;stroke:#000000;stroke-width:76.20439911;stroke-linecap:round;stroke-linejoin:round" />
  <path
   class="fil0 str0"
   d="m 3374,11179 c -339,204 -347,804 198,584"
   id="path3154"
   inkscape:connector-curvature="0"
   style="fill:none;stroke:#000000;stroke-width:76.20439911;stroke-linecap:round;stroke-linejoin:round" />
  <path
   class="fil0 str0"
   d="m 3777,11268 c -220,118 -401,473 -104,541 236,54 368,-100 487,-492 16,-54 28,-170 4,-253"
   id="path3156"
   inkscape:connector-curvature="0"
   style="fill:none;stroke:#000000;stroke-width:76.20439911;stroke-linecap:round;stroke-linejoin:round" />
  <path
   class="fil0 str0"
   d="m 1091,3978 c 45,3 111,41 177,91"
   id="path3158"
   inkscape:connector-curvature="0"
   style="fill:none;stroke:#000000;stroke-width:76.20439911;stroke-linecap:round;stroke-linejoin:round" />
  <path
   class="fil0 str0"
   d="m 473,2213 c 523,-328 1345,-424 1850,-45 22,16 71,58 96,91"
   id="path3160"
   inkscape:connector-curvature="0"
   style="fill:none;stroke:#000000;stroke-width:76.20439911;stroke-linecap:round;stroke-linejoin:round" />
  <path
   class="fil0 str0"
   d="m 3387,721 c -99,-41 -189,-77 -293,-86 4,-91 -1,-150 29,-228 -177,-8 -223,103 -248,144 11,-52 33,-225 19,-321 -161,23 -268,151 -329,294 -45,-112 -78,-334 -76,-484 -60,80 -154,226 -154,508 -135,-116 -378,-319 -457,-457 0,134 57,453 216,508 -39,-7 -552,-150 -841,-93 163,15 419,91 571,213 -88,58 -153,142 -210,235 -161,264 -350,815 -339,985"
   id="path3162"
   inkscape:connector-curvature="0"
   style="fill:none;stroke:#000000;stroke-width:76.20439911;stroke-linecap:round;stroke-linejoin:round" />
  <path
   class="fil0 str0"
   d="m 1749,1352 c -154,72 -244,513 -53,512 62,-1 130,-59 139,-176 4,-50 48,-399 -86,-336 z"
   id="path3164"
   inkscape:connector-curvature="0"
   style="fill:none;stroke:#000000;stroke-width:76.20439911;stroke-linecap:round;stroke-linejoin:round" />
  <path
   class="fil0 str0"
   d="m 1597,1615 c 24,-62 174,-189 248,-123"
   id="path3166"
   inkscape:connector-curvature="0"
   style="fill:none;stroke:#000000;stroke-width:76.20439911;stroke-linecap:round;stroke-linejoin:round" />
  <path
   class="fil0 str0"
   d="m 2333,1761 c -48,-488 221,-432 231,-87 9,330 -207,326 -231,87 z"
   id="path3168"
   inkscape:connector-curvature="0"
   style="fill:none;stroke:#000000;stroke-width:76.20439911;stroke-linecap:round;stroke-linejoin:round" />
  <path
   class="fil0 str0"
   d="m 2328,1704 c 24,-68 122,-193 203,-184"
   id="path3170"
   inkscape:connector-curvature="0"
   style="fill:none;stroke:#000000;stroke-width:76.20439911;stroke-linecap:round;stroke-linejoin:round" />
  <path
   class="fil0 str0"
   d="m 1704,830 c -325,29 -541,779 -518,1119"
   id="path3172"
   inkscape:connector-curvature="0"
   style="fill:none;stroke:#000000;stroke-width:76.20439911;stroke-linecap:round;stroke-linejoin:round" />
  <path
   class="fil0 str0"
   d="m 151,2987 c 28,206 58,231 104,374 74,232 186,515 604,584 151,25 291,42 419,52 m 1127,-155 c 302,-159 355,-380 360,-414"
   id="path3174"
   inkscape:connector-curvature="0"
   style="fill:none;stroke:#000000;stroke-width:76.20439911;stroke-linecap:round;stroke-linejoin:round" />
  <path
   class="fil0 str0"
   d="M 1282,2775 C 873,3413 296,3758 97,2779 73,2661 37,2566 38,2483 c 2,-441 1670,-371 1244,292 z"
   id="path3176"
   inkscape:connector-curvature="0"
   style="fill:none;stroke:#000000;stroke-width:76.20439911;stroke-linecap:round;stroke-linejoin:round" />
  <path
   class="fil0 str0"
   d="m 3289,827 c -25,45 -9,263 13,497 22,233 50,482 50,591 0,176 -124,574 -181,940 -58,368 -49,698 217,708 81,3 334,-52 559,-164 218,-108 413,-270 412,-492 0,-150 -53,-263 -118,-382 -66,-120 -146,-245 -199,-419 -30,-98 -88,-322 -141,-545 -32,-137 -92,-568 -151,-669 -97,-163 -326,-310 -461,-67 z"
   id="path3178"
   inkscape:connector-curvature="0"
   style="fill:none;stroke:#000000;stroke-width:76.20439911;stroke-linecap:round;stroke-linejoin:round" />
  <path
   class="fil0 str0"
   d="m 1510,4433 c 15,599 -46,1160 -215,1736 -52,176 -106,332 -155,477 -166,494 -185,899 -80,1291 88,326 262,644 510,998 441,629 1230,562 1508,541 121,-4 235,-32 343,-77 m 813,-4253 c 323,844 541,1509 478,2424 -36,524 -119,762 -520,1229"
   id="path3180"
   inkscape:connector-curvature="0"
   style="fill:none;stroke:#000000;stroke-width:76.20439911;stroke-linecap:round;stroke-linejoin:round" />
  <path
   class="fil0 str0"
   d="m 4333,8628 c 527,244 1444,343 1933,-415 -651,254 -825,306 -1642,-99"
   id="path3182"
   inkscape:connector-curvature="0"
   style="fill:none;stroke:#000000;stroke-width:76.20439911;stroke-linecap:round;stroke-linejoin:round" />
  <path
   class="fil0 str0"
   d="m 1510,4433 c 50,867 -765,929 -731,2254 10,367 176,541 -24,770 -118,135 -268,293 -116,401 77,55 193,54 256,-86 -15,116 7,249 165,164"
   id="path3184"
   inkscape:connector-curvature="0"
   style="fill:none;stroke:#000000;stroke-width:76.20439911;stroke-linecap:round;stroke-linejoin:round" />
  <g
   id="_743142272">
   <path
   class="fil0 str0"
   d="m 3128,5741 c -99,29 -147,-34 -202,-84 -419,-379 -772,-1168 -690,-1418 68,-206 309,-345 53,-602 -294,-296 -308,149 -336,216 20,-102 -114,-290 -219,-175 -54,59 -119,263 -84,339 -31,-47 -84,-95 -133,-137 -144,-123 -458,207 -42,506 45,32 374,607 425,696 224,397 464,1145 728,1496"
   id="path3187"
   inkscape:connector-curvature="0"
   style="fill:none;stroke:#000000;stroke-width:76.20439911;stroke-linecap:round;stroke-linejoin:round" />
   <path
   class="fil0 str0"
   d="m 3522,4981 c 38,355 -217,623 -596,677 m -298,920 c 114,157 1293,-518 1441,-725 400,-560 21,-1289 -234,-1867 -49,-112 -60,-279 -68,-509"
   id="path3189"
   inkscape:connector-curvature="0"
   style="fill:none;stroke:#000000;stroke-width:76.20439911;stroke-linecap:round;stroke-linejoin:round" />
  </g>
 </g>
</svg>