<?xml version="1.0" encoding="UTF-8"?>
<!DOCTYPE svg PUBLIC "-//W3C//DTD SVG 1.1//EN" "http://www.w3.org/Graphics/SVG/1.1/DTD/svg11.dtd">
<!-- Creator: CorelDRAW X6 -->
<svg xmlns="http://www.w3.org/2000/svg" xml:space="preserve" width="63.8601mm" height="123.504mm" version="1.1" style="shape-rendering:geometricPrecision; text-rendering:geometricPrecision; image-rendering:optimizeQuality; fill-rule:evenodd; clip-rule:evenodd"
viewBox="0 0 6386 12350"
 xmlns:xlink="http://www.w3.org/1999/xlink">
 <defs>
  <style type="text/css">
   <![CDATA[
    .str0 {stroke:black;stroke-width:79.3701;stroke-linecap:round;stroke-linejoin:round}
    .fil0 {fill:none}
   ]]>
  </style>
 </defs>
 <g id="lineart">
  <metadata id="CorelCorpID_0Corel-Layer"/>
  <g id="_158457168">
   <path class="fil0 str0" d="M1542 4403c12,1244 -268,1923 -470,2459 -352,931 -178,1568 360,2398 435,671 1259,632 1549,621"/>
   <path class="fil0 str0" d="M4793 7519c-70,883 -89,1118 -626,1700m-826 595c-114,42 -234,67 -360,67"/>
   <path class="fil0 str0" d="M4318 9048c539,275 1490,412 2028,-358 -687,240 -871,287 -1705,-166"/>
   <path class="fil0 str0" d="M4013 5172c738,311 491,2380 -107,2566 -215,67 -482,-31 -528,344 -53,431 320,157 393,137 -96,49 -164,280 -2,292 83,6 292,-72 332,-149 -19,56 -24,130 -26,197 -8,197 464,242 441,-291 -4,-97 77,-185 102,-281"/>
   <g>
    <path class="fil0 str0" d="M1458 9299c-71,494 -11,1227 239,1842 -1107,0 -1332,961 -773,818"/>
    <path class="fil0 str0" d="M2252 9816c-100,367 -38,963 126,1550"/>
    <path class="fil0 str0" d="M1181 11510c-200,50 -280,258 -268,391 13,153 147,259 460,157"/>
    <path class="fil0 str0" d="M1686 11546c-359,100 -584,658 27,583 114,-14 279,-97 368,-170 133,-109 232,-257 279,-338 33,-57 33,-188 17,-255"/>
   </g>
   <path class="fil0 str0" d="M3116 9879c-90,618 -19,813 178,1441 -159,53 -285,153 -434,263 -428,316 -354,804 197,544"/>
   <path class="fil0 str0" d="M4167 9219c-215,477 -314,1553 -56,2305"/>
   <path class="fil0 str0" d="M3288 11643c-316,190 -398,824 190,615 6,-2 15,-6 24,-12"/>
   <path class="fil0 str0" d="M3708 11736c-229,123 -417,493 -109,564 246,56 383,-104 507,-513 17,-56 29,-177 4,-263"/>
   <path class="fil0 str0" d="M3922 3622c9,239 32,409 71,530 85,262 337,518 572,801 602,725 598,1668 247,2518 -57,138 -180,446 -215,582"/>
   <path class="fil0 str0" d="M1570 4174c105,67 210,144 360,139 97,-3 150,-14 226,-73 59,-45 127,-107 155,-158"/>
   <path class="fil0 str0" d="M1136 4143c65,4 169,77 261,156 169,145 449,227 709,172 128,-27 302,-147 474,-303"/>
   <path class="fil0 str0" d="M492 2305c545,-342 1401,-442 1927,-47 23,17 74,60 100,94"/>
   <path class="fil0 str0" d="M3527 751c-103,-43 -197,-81 -305,-90 5,-95 -1,-156 30,-238 -184,-8 -232,107 -258,150 12,-54 35,-234 20,-335 -168,24 -279,157 -342,306 -47,-117 -81,-348 -79,-504 -63,83 -160,236 -160,529 -141,-121 -394,-332 -476,-476 0,140 59,472 225,529 -41,-8 -575,-157 -876,-97 170,16 436,95 594,222 -92,60 -159,147 -219,245 -170,278 -368,860 -353,1031"/>
   <path class="fil0 str0" d="M1822 1409c-160,75 -254,535 -55,533 65,-1 135,-61 145,-183 4,-52 50,-415 -90,-350z"/>
   <path class="fil0 str0" d="M1663 1682c25,-65 184,-200 262,-125"/>
   <path class="fil0 str0" d="M2430 1834c-50,-509 230,-450 240,-91 10,343 -216,340 -240,91z"/>
   <path class="fil0 str0" d="M2425 1775c26,-71 127,-201 211,-192"/>
   <path class="fil0 str0" d="M1775 865c-339,30 -565,814 -539,1167"/>
   <path class="fil0 str0" d="M158 3111c29,214 60,241 108,390 77,241 194,537 629,608 1788,292 1974,-472 1985,-539"/>
   <path class="fil0 str0" d="M1336 2890c-427,664 -1027,1024 -1234,5 -25,-123 -62,-222 -62,-309 2,-459 1740,-387 1296,304z"/>
   <path class="fil0 str0" d="M1541 4611c19,904 -831,900 -847,2280 -4,382 163,570 -55,801 -128,136 -290,294 -136,413 78,60 199,64 270,-80 -20,120 -2,259 166,177"/>
   <path class="fil0 str0" d="M3426 861c-26,47 -9,274 14,518 23,243 53,502 52,616 0,183 -129,598 -189,979 -60,384 -51,727 226,738 84,3 348,-55 583,-171 228,-113 430,-282 429,-512 0,-157 -55,-274 -123,-397 -69,-125 -152,-255 -207,-436 -31,-102 -92,-335 -147,-567 -34,-143 -95,-592 -158,-696 -101,-169 -340,-323 -481,-70z"/>
  </g>
 </g>
</svg>
