<?xml version="1.0" encoding="UTF-8"?>
<!DOCTYPE svg PUBLIC "-//W3C//DTD SVG 1.1//EN" "http://www.w3.org/Graphics/SVG/1.1/DTD/svg11.dtd">
<!-- Creator: CorelDRAW X6 -->
<svg xmlns="http://www.w3.org/2000/svg" xml:space="preserve" width="48.7604mm" height="122.924mm" version="1.1" style="shape-rendering:geometricPrecision; text-rendering:geometricPrecision; image-rendering:optimizeQuality; fill-rule:evenodd; clip-rule:evenodd"
viewBox="0 0 2133 5377"
 xmlns:xlink="http://www.w3.org/1999/xlink">
 <defs>
  <style type="text/css">
   <![CDATA[
    .str0 {stroke:black;stroke-width:34.7217;stroke-linecap:round;stroke-linejoin:round}
    .fil0 {fill:none}
   ]]>
  </style>
 </defs>
 <g id="lineart">
  <metadata id="CorelCorpID_0Corel-Layer"/>
  <g id="_642120112">
   <path class="fil0 str0" d="M514 1067c0,-3 0,-7 0,-10 7,-173 28,-327 70,-455m168 -282c8,-8 17,-15 26,-22m604 -16c15,11 28,23 42,36m173 334c30,122 43,262 43,409 0,18 1,35 1,52m101 1190c59,218 93,402 104,647m-62 813c-19,88 -67,172 -122,238 -38,46 -80,87 -128,123m-305 137c-60,13 -126,21 -195,23 -66,2 -126,-2 -182,-12m-301 -132c-119,-97 -197,-240 -245,-417m3 -753c24,-170 56,-356 92,-556"/>
   <path class="fil0 str0" d="M1640 2228c328,123 256,1032 -2,1124 -93,33 -211,-5 -225,160 -16,189 143,63 174,53 -45,25 -72,146 28,125 31,-6 99,-37 118,-64 -11,31 -28,93 16,124 53,38 179,8 165,-177 -10,-123 102,-315 116,-353 138,-378 124,-790 -152,-1096 -108,-120 -223,-227 -264,-340 -15,-41 -26,-96 -34,-168"/>
   <path class="fil0 str0" d="M903 612c-70,33 -111,234 -24,233 28,0 59,-27 63,-80 2,-23 22,-182 -39,-153z"/>
   <path class="fil0 str0" d="M945 726c-10,-41 -68,-60 -107,-15"/>
   <path class="fil0 str0" d="M1203 769c-22,-223 101,-197 105,-40 4,150 -94,149 -105,40z"/>
   <path class="fil0 str0" d="M1201 744c10,-42 65,-91 107,-14"/>
   <path class="fil0 str0" d="M1071 1441c-171,-6 -296,-237 -295,-366 1,-161 583,-176 596,13 8,120 -159,358 -300,353z"/>
   <path class="fil0 str0" d="M498 4090c-9,91 20,617 124,873 -150,17 -294,170 -273,299 7,41 33,76 89,84 24,3 48,-5 67,-28m57 -198c-46,27 -95,91 -66,178 9,26 29,48 73,58 55,12 88,0 113,-23m16 -196c-33,23 -70,80 -50,146 5,15 11,30 23,42 6,6 14,12 24,16 70,35 127,-14 170,-81 36,-55 65,-123 65,-169 0,-215 -128,-410 -98,-713 4,-44 20,-124 29,-167"/>
   <path class="fil0 str0" d="M1580 4084c9,91 -20,622 -123,879 129,30 296,146 282,276 -5,49 -42,98 -98,106 -18,2 -39,-4 -57,-17m-49 -192c53,26 93,91 73,157 -19,62 -134,92 -191,28m-37 -185c35,22 78,78 59,141 -54,180 -300,-27 -300,-152 0,-202 104,-393 106,-660 0,-62 -7,-177 -26,-237"/>
   <path class="fil0 str0" d="M1381 282c-18,-41 -8,-72 5,-108 -81,-4 -97,45 -108,64 -57,-58 -82,-121 -101,-212 -20,23 -44,106 -48,125m50 82c-54,-121 -166,-207 -343,-216 65,37 164,105 173,210"/>
   <path class="fil0 str0" d="M778 298c44,-47 17,-53 -25,-71 74,-32 132,-1 149,13 6,-30 -22,-63 -62,-90 59,-8 114,7 162,37"/>
   <path class="fil0 str0" d="M567 1615c-28,280 -330,486 -460,790 -199,466 -15,676 77,972 17,54 25,99 30,138 -22,273 242,268 174,67 75,124 211,50 155,-59 145,64 232,-111 24,-171 -51,-15 -105,-28 -126,-54 -198,-257 -202,-740 49,-1005"/>
   <path class="fil0 str0" d="M1401 306c-21,-11 28,54 72,125 63,101 125,189 173,374 35,138 76,333 95,461 66,449 341,479 206,86 -53,-156 -99,-308 -139,-449 -83,-291 -170,-471 -407,-597z"/>
   <path class="fil0 str0" d="M748 321c21,-11 -28,53 -73,125 -64,100 -121,189 -165,375 -33,138 -64,335 -87,464 -80,446 -359,476 -215,89 58,-155 98,-310 137,-452 82,-293 165,-476 403,-599z"/>
   <path class="fil0 str0" d="M1486 1703c-112,79 -251,186 -392,190 -180,5 -295,-90 -431,-187 -131,-86 -178,-231 -194,-380 -39,-362 251,-483 604,-483 394,0 626,224 606,454 -17,195 -74,327 -193,406z"/>
   <path class="fil0 str0" d="M882 1740c97,55 265,70 385,0"/>
   <path class="fil0 str0" d="M1648 4016c157,-27 276,-143 372,-324 -113,87 -173,132 -260,143"/>
  </g>
 </g>
</svg>
