<?xml version="1.0" encoding="UTF-8" standalone="no"?>
<!-- Creator: CorelDRAW X6 -->

<svg
   xmlns:dc="http://purl.org/dc/elements/1.1/"
   xmlns:cc="http://creativecommons.org/ns#"
   xmlns:rdf="http://www.w3.org/1999/02/22-rdf-syntax-ns#"
   xmlns:svg="http://www.w3.org/2000/svg"
   xmlns="http://www.w3.org/2000/svg"
   xmlns:sodipodi="http://sodipodi.sourceforge.net/DTD/sodipodi-0.dtd"
   xmlns:inkscape="http://www.inkscape.org/namespaces/inkscape"
   xml:space="preserve"
   width="226.28"
   height="437.60999"
   version="1.1"
   style="fill-rule:evenodd"
   viewBox="0 0 2793.5791 5402.3382"
   id="svg3070"
   inkscape:version="0.48.2 r9819"
   sodipodi:docname="dog-front.svg"><metadata
   id="metadata3115"><rdf:RDF><cc:Work
       rdf:about=""><dc:format>image/svg+xml</dc:format><dc:type
         rdf:resource="http://purl.org/dc/dcmitype/StillImage" /></cc:Work></rdf:RDF></metadata><sodipodi:namedview
   pagecolor="#ffffff"
   bordercolor="#666666"
   borderopacity="1"
   objecttolerance="10"
   gridtolerance="10"
   guidetolerance="10"
   inkscape:pageopacity="0"
   inkscape:pageshadow="2"
   inkscape:window-width="640"
   inkscape:window-height="480"
   id="namedview3113"
   showgrid="false"
   inkscape:snap-global="true"
   showguides="true"
   inkscape:zoom="0.54183432"
   inkscape:cx="86.386536"
   inkscape:cy="217.77875"
   inkscape:window-x="488"
   inkscape:window-y="205"
   inkscape:window-maximized="0"
   inkscape:current-layer="svg3070" />
 <defs
   id="defs3072">
  <style
   type="text/css"
   id="style3074">
   
    .str0 {stroke:black;stroke-width:34.7217;stroke-linecap:round;stroke-linejoin:round}
    .fil0 {fill:none}
   
  </style>
 </defs>
 <g
   id="lineart"
   transform="translate(329.97074,25.339556)">
  <metadata
   id="CorelCorpID_0Corel-Layer" />
  <g
   id="_642120112">
   <path
   class="fil0 str0"
   d="m 514,1067 c 0,-3 0,-7 0,-10 7,-173 28,-327 70,-455 M 752,320 c 8,-8 17,-15 26,-22 m 604,-16 c 15,11 28,23 42,36 m 173,334 c 30,122 43,262 43,409 0,18 1,35 1,52 m 101,1190 c 59,218 93,402 104,647 m -62,813 c -19,88 -67,172 -122,238 -38,46 -80,87 -128,123 m -305,137 c -60,13 -126,21 -195,23 -66,2 -126,-2 -182,-12 M 551,4140 C 432,4043 354,3900 306,3723 m 3,-753 c 24,-170 56,-356 92,-556"
   id="path3079"
   inkscape:connector-curvature="0"
   style="fill:none;stroke:#000000;stroke-width:34.72169876;stroke-linecap:round;stroke-linejoin:round" />
   <path
   class="fil0 str0"
   d="m 1640,2228 c 328,123 256,1032 -2,1124 -93,33 -211,-5 -225,160 -16,189 143,63 174,53 -45,25 -72,146 28,125 31,-6 99,-37 118,-64 -11,31 -28,93 16,124 53,38 179,8 165,-177 -10,-123 102,-315 116,-353 138,-378 124,-790 -152,-1096 -108,-120 -223,-227 -264,-340 -15,-41 -26,-96 -34,-168"
   id="path3081"
   inkscape:connector-curvature="0"
   style="fill:none;stroke:#000000;stroke-width:34.72169876;stroke-linecap:round;stroke-linejoin:round" />
   <path
   class="fil0 str0"
   d="m 903,612 c -70,33 -111,234 -24,233 28,0 59,-27 63,-80 2,-23 22,-182 -39,-153 z"
   id="path3083"
   inkscape:connector-curvature="0"
   style="fill:none;stroke:#000000;stroke-width:34.72169876;stroke-linecap:round;stroke-linejoin:round" />
   <path
   class="fil0 str0"
   d="M 945,726 C 935,685 877,666 838,711"
   id="path3085"
   inkscape:connector-curvature="0"
   style="fill:none;stroke:#000000;stroke-width:34.72169876;stroke-linecap:round;stroke-linejoin:round" />
   <path
   class="fil0 str0"
   d="m 1203,769 c -22,-223 101,-197 105,-40 4,150 -94,149 -105,40 z"
   id="path3087"
   inkscape:connector-curvature="0"
   style="fill:none;stroke:#000000;stroke-width:34.72169876;stroke-linecap:round;stroke-linejoin:round" />
   <path
   class="fil0 str0"
   d="m 1201,744 c 10,-42 65,-91 107,-14"
   id="path3089"
   inkscape:connector-curvature="0"
   style="fill:none;stroke:#000000;stroke-width:34.72169876;stroke-linecap:round;stroke-linejoin:round" />
   <path
   class="fil0 str0"
   d="m 1071,1441 c -171,-6 -296,-237 -295,-366 1,-161 583,-176 596,13 8,120 -159,358 -300,353 z"
   id="path3091"
   inkscape:connector-curvature="0"
   style="fill:none;stroke:#000000;stroke-width:34.72169876;stroke-linecap:round;stroke-linejoin:round" />
   <path
   class="fil0 str0"
   d="m 498,4090 c -9,91 20,617 124,873 -150,17 -294,170 -273,299 7,41 33,76 89,84 24,3 48,-5 67,-28 m 57,-198 c -46,27 -95,91 -66,178 9,26 29,48 73,58 55,12 88,0 113,-23 m 16,-196 c -33,23 -70,80 -50,146 5,15 11,30 23,42 6,6 14,12 24,16 70,35 127,-14 170,-81 36,-55 65,-123 65,-169 0,-215 -128,-410 -98,-713 4,-44 20,-124 29,-167"
   id="path3093"
   inkscape:connector-curvature="0"
   style="fill:none;stroke:#000000;stroke-width:34.72169876;stroke-linecap:round;stroke-linejoin:round" />
   <path
   class="fil0 str0"
   d="m 1580,4084 c 9,91 -20,622 -123,879 129,30 296,146 282,276 -5,49 -42,98 -98,106 -18,2 -39,-4 -57,-17 m -49,-192 c 53,26 93,91 73,157 -19,62 -134,92 -191,28 m -37,-185 c 35,22 78,78 59,141 -54,180 -300,-27 -300,-152 0,-202 104,-393 106,-660 0,-62 -7,-177 -26,-237"
   id="path3095"
   inkscape:connector-curvature="0"
   style="fill:none;stroke:#000000;stroke-width:34.72169876;stroke-linecap:round;stroke-linejoin:round" />
   <path
   class="fil0 str0"
   d="m 1381,282 c -18,-41 -8,-72 5,-108 -81,-4 -97,45 -108,64 -57,-58 -82,-121 -101,-212 -20,23 -44,106 -48,125 m 50,82 C 1125,112 1013,26 836,17 c 65,37 164,105 173,210"
   id="path3097"
   inkscape:connector-curvature="0"
   style="fill:none;stroke:#000000;stroke-width:34.72169876;stroke-linecap:round;stroke-linejoin:round" />
   <path
   class="fil0 str0"
   d="m 778,298 c 44,-47 17,-53 -25,-71 74,-32 132,-1 149,13 6,-30 -22,-63 -62,-90 59,-8 114,7 162,37"
   id="path3099"
   inkscape:connector-curvature="0"
   style="fill:none;stroke:#000000;stroke-width:34.72169876;stroke-linecap:round;stroke-linejoin:round" />
   <path
   class="fil0 str0"
   d="m 567,1615 c -28,280 -330,486 -460,790 -199,466 -15,676 77,972 17,54 25,99 30,138 -22,273 242,268 174,67 75,124 211,50 155,-59 145,64 232,-111 24,-171 -51,-15 -105,-28 -126,-54 -198,-257 -202,-740 49,-1005"
   id="path3101"
   inkscape:connector-curvature="0"
   style="fill:none;stroke:#000000;stroke-width:34.72169876;stroke-linecap:round;stroke-linejoin:round" />
   <path
   class="fil0 str0"
   d="m 1401,306 c -21,-11 28,54 72,125 63,101 125,189 173,374 35,138 76,333 95,461 66,449 341,479 206,86 -53,-156 -99,-308 -139,-449 -83,-291 -170,-471 -407,-597 z"
   id="path3103"
   inkscape:connector-curvature="0"
   style="fill:none;stroke:#000000;stroke-width:34.72169876;stroke-linecap:round;stroke-linejoin:round" />
   <path
   class="fil0 str0"
   d="m 748,321 c 21,-11 -28,53 -73,125 -64,100 -121,189 -165,375 -33,138 -64,335 -87,464 -80,446 -359,476 -215,89 58,-155 98,-310 137,-452 82,-293 165,-476 403,-599 z"
   id="path3105"
   inkscape:connector-curvature="0"
   style="fill:none;stroke:#000000;stroke-width:34.72169876;stroke-linecap:round;stroke-linejoin:round" />
   <path
   class="fil0 str0"
   d="m 1486,1703 c -112,79 -251,186 -392,190 -180,5 -295,-90 -431,-187 -131,-86 -178,-231 -194,-380 -39,-362 251,-483 604,-483 394,0 626,224 606,454 -17,195 -74,327 -193,406 z"
   id="path3107"
   inkscape:connector-curvature="0"
   style="fill:none;stroke:#000000;stroke-width:34.72169876;stroke-linecap:round;stroke-linejoin:round" />
   <path
   class="fil0 str0"
   d="m 882,1740 c 97,55 265,70 385,0"
   id="path3109"
   inkscape:connector-curvature="0"
   style="fill:none;stroke:#000000;stroke-width:34.72169876;stroke-linecap:round;stroke-linejoin:round" />
   <path
   class="fil0 str0"
   d="m 1648,4016 c 157,-27 276,-143 372,-324 -113,87 -173,132 -260,143"
   id="path3111"
   inkscape:connector-curvature="0"
   style="fill:none;stroke:#000000;stroke-width:34.72169876;stroke-linecap:round;stroke-linejoin:round" />
  </g>
 </g>
</svg>