<?xml version="1.0" encoding="UTF-8"?>
<!DOCTYPE svg PUBLIC "-//W3C//DTD SVG 1.1//EN" "http://www.w3.org/Graphics/SVG/1.1/DTD/svg11.dtd">
<!-- Creator: CorelDRAW X6 -->
<svg xmlns="http://www.w3.org/2000/svg" xml:space="preserve" width="65.6566mm" height="123.504mm" version="1.1" style="shape-rendering:geometricPrecision; text-rendering:geometricPrecision; image-rendering:optimizeQuality; fill-rule:evenodd; clip-rule:evenodd"
viewBox="0 0 6304 11858"
 xmlns:xlink="http://www.w3.org/1999/xlink">
 <defs>
  <style type="text/css">
   <![CDATA[
    .str0 {stroke:black;stroke-width:76.2044;stroke-linecap:round;stroke-linejoin:round}
    .fil0 {fill:none}
   ]]>
  </style>
 </defs>
 <g id="Layer_x0020_1">
  <metadata id="CorelCorpID_0Corel-Layer"/>
  <path class="fil0 str0" d="M1609 8987c-58,473 5,1137 237,1709 -1063,0 -1279,923 -742,785"/>
  <path class="fil0 str0" d="M2374 9446c-87,354 -27,916 126,1467"/>
  <path class="fil0 str0" d="M1351 11051c-192,48 -268,248 -257,375 13,147 141,249 441,150"/>
  <path class="fil0 str0" d="M1836 11085c-344,96 -561,632 26,560 109,-13 268,-93 353,-163 128,-105 223,-247 268,-324 32,-55 31,-181 17,-245"/>
  <path class="fil0 str0" d="M3212 9461c-86,593 -21,805 168,1408 -153,51 -273,146 -417,252 -401,296 -343,773 182,526"/>
  <path class="fil0 str0" d="M4193 8798c-206,457 -277,1544 -30,2266"/>
  <path class="fil0 str0" d="M3374 11179c-339,204 -347,804 198,584"/>
  <path class="fil0 str0" d="M3777 11268c-220,118 -401,473 -104,541 236,54 368,-100 487,-492 16,-54 28,-170 4,-253"/>
  <path class="fil0 str0" d="M1091 3978c45,3 111,41 177,91"/>
  <path class="fil0 str0" d="M473 2213c523,-328 1345,-424 1850,-45 22,16 71,58 96,91"/>
  <path class="fil0 str0" d="M3387 721c-99,-41 -189,-77 -293,-86 4,-91 -1,-150 29,-228 -177,-8 -223,103 -248,144 11,-52 33,-225 19,-321 -161,23 -268,151 -329,294 -45,-112 -78,-334 -76,-484 -60,80 -154,226 -154,508 -135,-116 -378,-319 -457,-457 0,134 57,453 216,508 -39,-7 -552,-150 -841,-93 163,15 419,91 571,213 -88,58 -153,142 -210,235 -161,264 -350,815 -339,985"/>
  <path class="fil0 str0" d="M1749 1352c-154,72 -244,513 -53,512 62,-1 130,-59 139,-176 4,-50 48,-399 -86,-336z"/>
  <path class="fil0 str0" d="M1597 1615c24,-62 174,-189 248,-123"/>
  <path class="fil0 str0" d="M2333 1761c-48,-488 221,-432 231,-87 9,330 -207,326 -231,87z"/>
  <path class="fil0 str0" d="M2328 1704c24,-68 122,-193 203,-184"/>
  <path class="fil0 str0" d="M1704 830c-325,29 -541,779 -518,1119"/>
  <path class="fil0 str0" d="M151 2987c28,206 58,231 104,374 74,232 186,515 604,584 151,25 291,42 419,52m1127 -155c302,-159 355,-380 360,-414"/>
  <path class="fil0 str0" d="M1282 2775c-409,638 -986,983 -1185,4 -24,-118 -60,-213 -59,-296 2,-441 1670,-371 1244,292z"/>
  <path class="fil0 str0" d="M3289 827c-25,45 -9,263 13,497 22,233 50,482 50,591 0,176 -124,574 -181,940 -58,368 -49,698 217,708 81,3 334,-52 559,-164 218,-108 413,-270 412,-492 0,-150 -53,-263 -118,-382 -66,-120 -146,-245 -199,-419 -30,-98 -88,-322 -141,-545 -32,-137 -92,-568 -151,-669 -97,-163 -326,-310 -461,-67z"/>
  <path class="fil0 str0" d="M1510 4433c15,599 -46,1160 -215,1736 -52,176 -106,332 -155,477 -166,494 -185,899 -80,1291 88,326 262,644 510,998 441,629 1230,562 1508,541 121,-4 235,-32 343,-77m813 -4253c323,844 541,1509 478,2424 -36,524 -119,762 -520,1229"/>
  <path class="fil0 str0" d="M4333 8628c527,244 1444,343 1933,-415 -651,254 -825,306 -1642,-99"/>
  <path class="fil0 str0" d="M1510 4433c50,867 -765,929 -731,2254 10,367 176,541 -24,770 -118,135 -268,293 -116,401 77,55 193,54 256,-86 -15,116 7,249 165,164"/>
  <g id="_743142272">
   <path class="fil0 str0" d="M3128 5741c-99,29 -147,-34 -202,-84 -419,-379 -772,-1168 -690,-1418 68,-206 309,-345 53,-602 -294,-296 -308,149 -336,216 20,-102 -114,-290 -219,-175 -54,59 -119,263 -84,339 -31,-47 -84,-95 -133,-137 -144,-123 -458,207 -42,506 45,32 374,607 425,696 224,397 464,1145 728,1496"/>
   <path class="fil0 str0" d="M3522 4981c38,355 -217,623 -596,677m-298 920c114,157 1293,-518 1441,-725 400,-560 21,-1289 -234,-1867 -49,-112 -60,-279 -68,-509"/>
  </g>
 </g>
</svg>
