<?xml version="1.0" encoding="UTF-8"?>
<!DOCTYPE svg PUBLIC "-//W3C//DTD SVG 1.1//EN" "http://www.w3.org/Graphics/SVG/1.1/DTD/svg11.dtd">
<!-- Creator: CorelDRAW X6 -->
<svg xmlns="http://www.w3.org/2000/svg" xml:space="preserve" width="235.744mm" height="370.681mm" version="1.1" style="shape-rendering:geometricPrecision; text-rendering:geometricPrecision; image-rendering:optimizeQuality; fill-rule:evenodd; clip-rule:evenodd"
viewBox="0 0 23574 37068"
 xmlns:xlink="http://www.w3.org/1999/xlink">
 <defs>
  <style type="text/css">
   <![CDATA[
    .str0 {stroke:black;stroke-width:79.37;stroke-linecap:round;stroke-linejoin:round}
    .fil0 {fill:none}
    .fil2 {fill:black}
    .fil1 {fill:#4E4E4E}
    .fil4 {fill:#896C37}
    .fil5 {fill:#D1AE78}
    .fil6 {fill:#D6444A}
    .fil3 {fill:white}
   ]]>
  </style>
 </defs>
 <g id="Layer_x0020_1">
  <metadata id="CorelCorpID_0Corel-Layer"/>
  <path class="fil0 str0" d="M10866 16764c-8,706 -63,1290 -290,1969 -60,181 -123,341 -179,491 -192,508 -227,928 -132,1340 79,343 248,681 493,1058 373,575 1032,628 1395,625 185,-2 336,-5 515,-71m1439 -2262c-2,131 -10,266 -25,407 -57,544 -153,788 -588,1259"/>
  <path class="fil0 str0" d="M13644 21409c539,275 1490,412 2028,-358 -687,240 -871,287 -1705,-166"/>
  <path class="fil0 str0" d="M13339 17533c738,311 491,2380 -107,2566 -215,67 -482,-31 -528,344 -53,431 320,157 393,137 -96,49 -164,280 -2,292 83,6 292,-72 332,-149 -19,56 -24,130 -26,197 -8,197 464,242 441,-291 -2,-58 256,-697 297,-796 351,-850 355,-1793 -247,-2518 -235,-283 -488,-539 -572,-801 -39,-121 -62,-291 -71,-530"/>
  <path class="fil0 str0" d="M10820 21711c-192,416 -288,1078 -261,1716 -1012,-449 -1608,337 -1038,434m2043 -1676c-320,547 -475,1033 -475,1680 0,88 -47,220 -119,272 -76,54 -226,149 -392,195 -111,31 -296,39 -405,6 -589,-179 -156,-598 212,-544m-447 -238c-203,-36 -360,122 -404,248 -50,145 29,296 356,330"/>
  <path class="fil0 str0" d="M12445 22231c-90,618 -22,822 175,1451 -159,53 -285,153 -434,263 -418,308 -358,805 189,548"/>
  <path class="fil0 str0" d="M13493 21580c-215,477 -314,1553 -56,2305"/>
  <path class="fil0 str0" d="M12614 24005c-353,212 -361,838 206,608"/>
  <path class="fil0 str0" d="M13034 24098c-229,123 -417,493 -109,564 246,56 383,-104 507,-513 17,-56 29,-177 4,-263"/>
  <path class="fil0 str0" d="M10896 16536c105,67 210,144 360,139 97,-3 150,-14 226,-73 59,-45 127,-107 155,-158"/>
  <path class="fil0 str0" d="M10462 16504c65,4 169,77 261,156 169,145 449,227 709,172 128,-27 302,-147 474,-303"/>
  <path class="fil0 str0" d="M9818 14666c545,-342 1401,-442 1927,-47 23,17 74,60 100,94"/>
  <path class="fil0 str0" d="M12853 13112c-103,-43 -197,-81 -305,-90 5,-95 -1,-156 30,-238 -184,-8 -232,107 -258,150 12,-54 35,-234 20,-335 -168,24 -279,157 -342,306 -47,-117 -81,-348 -79,-504 -63,83 -160,236 -160,529 -141,-121 -394,-332 -476,-476 0,140 59,472 225,529 -41,-8 -575,-157 -876,-97 170,16 436,95 594,222 -92,60 -159,147 -219,245 -168,275 -364,848 -353,1026"/>
  <path class="fil0 str0" d="M11148 13770c-160,75 -254,535 -55,533 65,-1 135,-61 145,-183 4,-52 50,-415 -90,-350z"/>
  <path class="fil0 str0" d="M10989 14043c25,-65 181,-197 258,-128"/>
  <path class="fil0 str0" d="M11101 13226c-338,30 -564,811 -539,1165"/>
  <path class="fil0 str0" d="M9484 15472c29,214 60,241 108,390 77,241 194,537 629,608 1788,292 1974,-472 1985,-539"/>
  <path class="fil0 str0" d="M10662 15252c-427,664 -1027,1024 -1234,5 -25,-123 -62,-222 -62,-309 2,-459 1740,-387 1296,304z"/>
  <path class="fil0 str0" d="M10862 16975c11,899 -826,896 -842,2277 -4,382 163,570 -55,801 -128,136 -290,294 -136,413 78,60 199,64 270,-80 -20,120 -2,259 166,177"/>
  <path class="fil0 str0" d="M12752 13223c-26,47 -9,274 14,518 23,243 53,502 52,616 0,183 -129,598 -189,979 -60,384 -51,727 226,738 84,3 348,-55 583,-171 228,-113 430,-282 429,-512 0,-157 -55,-274 -123,-397 -69,-125 -152,-255 -207,-436 -31,-102 -92,-335 -147,-567 -34,-143 -95,-592 -158,-696 -101,-169 -340,-323 -481,-70z"/>
  <path class="fil0 str0" d="M11756 14195c-50,-509 230,-450 240,-91 10,343 -216,340 -240,91z"/>
  <path class="fil0 str0" d="M11751 14136c26,-71 133,-201 217,-192"/>
  <path class="fil1" d="M2576 15248c292,-455 -362,-642 -844,-585 -249,30 -452,124 -453,281 0,87 37,186 62,309 16,81 35,153 56,216 245,745 786,391 1179,-221z"/>
  <path class="fil2" d="M3153 14115c2,-25 13,-119 10,-205 -77,-69 -233,63 -258,128 -25,132 -2,261 104,260 65,-1 135,-61 145,-183z"/>
  <path class="fil2" d="M3671 14191c25,249 250,252 240,-91 -2,-63 -12,-117 -27,-160 -85,-9 -192,122 -218,193 1,19 2,38 5,59z"/>
  <path class="fil3" d="M3162 13911c-4,-95 -26,-180 -100,-145 -76,35 -136,156 -159,274 25,-65 181,-197 258,-128z"/>
  <path class="fil3" d="M3884 13939c-68,-192 -237,-171 -218,193 26,-71 133,-201 218,-193z"/>
  <path class="fil4" d="M5453 14552c-31,-102 -92,-335 -147,-568 -34,-143 -95,-592 -158,-697 -79,-133 -244,-257 -379,-180 -37,21 -71,56 -101,110 -26,47 -9,274 14,518 23,243 53,502 53,616 0,183 -129,598 -189,980 -60,384 -51,727 226,738 62,3 220,-28 393,-90 63,-23 127,-50 190,-81 228,-113 430,-282 429,-513 0,-157 -55,-274 -123,-398 -69,-125 -152,-255 -207,-436z"/>
  <path class="fil4" d="M2568 14374c-11,-177 185,-751 353,-1026 27,-45 56,-87 88,-126 -335,38 -558,813 -534,1165 31,-5 61,-9 92,-13z"/>
  <path class="fil4" d="M7769 20914c-678,265 -860,319 -1711,-103 -58,177 -150,339 -303,536 549,255 1505,357 2014,-433z"/>
  <path class="fil5" d="M5653 17718c337,879 563,1573 498,2526 -37,546 -124,794 -541,1281 -215,477 -289,1609 -31,2361 25,87 13,207 -4,263 -124,408 -261,569 -507,513 -45,-10 -80,-27 -105,-49 -273,110 -412,23 -445,-120 -547,258 -607,-240 -189,-548 149,-110 275,-209 434,-263 -197,-629 -265,-849 -175,-1467 -45,8 -92,13 -139,15 -290,22 -1112,92 -1572,-564 -258,-368 -440,-699 -531,-1039 -110,-409 -90,-830 83,-1345 51,-151 107,-314 161,-497 176,-598 239,-1179 224,-1800l0 -13c102,148 361,600 407,680 233,413 483,1193 758,1558 119,163 1348,-540 1501,-755 55,-77 96,-158 125,-241l11 5 4 -51c43,-145 50,-297 34,-451l0 0z"/>
  <path class="fil5" d="M2589 18785c166,-565 232,-1115 226,-1698 -21,800 -798,916 -763,2237 10,382 184,564 -26,803 -123,141 -279,305 -121,418 80,57 201,57 267,-90 -16,121 7,259 172,171 -110,-409 -90,-830 83,-1345 51,-151 107,-314 161,-497z"/>
  <path class="fil5" d="M3713 22199c-278,-59 -574,-193 -797,-478 -61,493 5,1185 247,1781 -1108,0 -1333,961 -773,818 40,120 176,189 448,100 53,60 160,93 341,71 114,-14 279,-97 368,-170 133,-109 232,-257 279,-338 33,-57 33,-188 17,-255 -160,-574 -222,-1159 -131,-1528z"/>
  <path class="fil5" d="M4545 15332c60,-381 189,-797 189,-980 0,-114 -30,-373 -53,-616 -23,-244 -40,-472 -14,-518 30,-54 65,-90 101,-110 -103,-43 -197,-81 -305,-90 5,-95 -1,-156 30,-238 -184,-8 -232,107 -258,150 12,-54 35,-234 20,-335 -168,24 -279,157 -342,306 -47,-117 -81,-348 -79,-505 -63,83 -160,236 -160,529 -141,-121 -394,-332 -476,-476 0,140 59,472 225,529 -41,-8 -575,-157 -877,-97 170,16 436,95 595,222 -50,33 -92,73 -130,119 -32,39 -61,81 -88,126 -168,275 -365,849 -353,1026 -31,4 -62,8 -92,13 -270,45 -531,141 -744,275 481,-57 1136,130 844,585 -393,612 -933,966 -1179,221 29,214 60,241 108,390 77,241 194,537 630,608 84,14 164,25 241,34 0,0 1,0 1,0 3,0 6,1 8,1 64,8 126,14 186,18 -7,23 -11,48 -11,75 1,98 57,217 216,331 47,34 390,632 443,726 233,413 483,1193 758,1558 119,163 1348,-540 1501,-755 161,-226 201,-478 174,-738 -43,-410 -255,-838 -418,-1208 -51,-117 -62,-291 -71,-531 -173,62 -331,93 -393,90 -277,-11 -287,-354 -226,-738zm-634 -1232c10,343 -216,340 -240,91 -2,-21 -4,-40 -5,-59 -19,-363 150,-384 218,-193 15,43 25,97 27,160zm-758 16c-10,122 -80,182 -145,183 -106,1 -129,-127 -104,-260 22,-118 83,-238 159,-274 74,-34 96,50 100,145 4,86 -8,180 -10,205z"/>
  <path class="fil0 str0" d="M4769 13107c-103,-43 -197,-81 -305,-90 5,-95 -1,-156 30,-238 -184,-8 -232,107 -258,150 12,-54 35,-234 20,-335 -168,24 -279,157 -342,306 -47,-117 -81,-348 -79,-505 -63,83 -160,236 -160,529 -141,-121 -394,-332 -476,-476 0,140 59,472 225,529 -41,-8 -575,-157 -877,-97 170,16 436,95 595,222 -92,60 -159,148 -219,245 -168,275 -365,849 -353,1026"/>
  <path class="fil0 str0" d="M2917 21721c-61,493 5,1185 247,1781 -1108,0 -1333,961 -773,818"/>
  <path class="fil0 str0" d="M3713 22199c-90,369 -29,954 131,1528"/>
  <path class="fil0 str0" d="M2648 23872c-200,50 -280,258 -268,391 13,153 147,259 460,157"/>
  <path class="fil0 str0" d="M3153 23907c-359,100 -584,659 27,583 114,-14 279,-97 368,-170 133,-109 232,-257 279,-338 33,-57 33,-188 17,-255"/>
  <path class="fil0 str0" d="M2376 16501c47,3 115,43 184,94"/>
  <path class="fil0 str0" d="M1732 14662c545,-342 1402,-442 1928,-47 23,17 74,60 100,94"/>
  <path class="fil0 str0" d="M3063 13765c-161,75 -255,535 -55,533 65,-1 135,-61 145,-183 4,-53 50,-415 -90,-350z"/>
  <path class="fil0 str0" d="M2904 14039c25,-65 181,-197 258,-128"/>
  <path class="fil0 str0" d="M3671 14191c-50,-509 230,-450 240,-91 10,343 -216,340 -240,91z"/>
  <path class="fil0 str0" d="M3666 14132c26,-71 133,-201 218,-193"/>
  <path class="fil0 str0" d="M3010 13222c-335,38 -558,813 -534,1165 -24,-353 199,-1127 534,-1165z"/>
  <path class="fil0 str0" d="M1397 15469c29,214 60,241 108,390 77,241 194,537 630,608 158,26 303,43 437,54m1174 -161c315,-166 369,-396 375,-432"/>
  <path class="fil0 str0" d="M2576 15248c-427,665 -1027,1025 -1235,5 -25,-123 -62,-222 -62,-309 2,-460 1740,-387 1297,304z"/>
  <path class="fil0 str0" d="M4667 13218c-26,47 -9,274 14,518 23,243 53,502 53,616 0,183 -129,598 -189,980 -60,384 -51,727 226,738 84,3 348,-55 583,-171 228,-113 430,-282 429,-513 0,-157 -55,-274 -123,-398 -69,-125 -152,-255 -207,-436 -31,-102 -92,-335 -147,-568 -34,-143 -95,-592 -158,-697 -101,-169 -340,-323 -481,-70z"/>
  <path class="fil0 str0" d="M2813 16971c0,3 0,10 0,13 15,621 -49,1203 -224,1800 -54,183 -110,346 -161,497 -173,515 -193,936 -83,1345 92,340 273,671 531,1039 459,655 1282,585 1572,564 126,-5 245,-33 358,-80m847 -4432c337,879 563,1573 498,2526 -37,546 -124,794 -541,1281 -215,477 -289,1609 -31,2361 25,87 13,207 -4,263 -124,408 -261,569 -507,513 -309,-71 -121,-441 109,-564m-589 -1883c-90,618 -22,838 175,1467 -159,54 -285,153 -434,263 -418,309 -358,806 189,548m239 -488c-353,213 -361,838 206,608"/>
  <path class="fil0 str0" d="M5755 21347c549,255 1505,357 2014,-433 -678,265 -860,319 -1711,-103"/>
  <path class="fil0 str0" d="M2813 16976c52,903 -797,968 -761,2349 10,382 184,564 -26,803 -123,141 -279,305 -121,418 80,57 201,57 267,-90 -16,121 7,259 172,171"/>
  <path class="fil0 str0" d="M4499 18338c-104,31 -153,-35 -211,-87 -436,-394 -805,-1217 -719,-1478 71,-214 322,-360 55,-628 -307,-308 -321,155 -351,225 21,-106 -119,-302 -228,-182 -56,62 -124,274 -88,353 -32,-49 -87,-99 -139,-142 -150,-128 -477,215 -43,527 47,34 390,632 443,726 233,413 483,1193 758,1558 119,163 1348,-540 1501,-755 417,-584 22,-1343 -244,-1945 -51,-117 -62,-291 -71,-531m-255 1567c40,370 -226,649 -621,705"/>
  <path class="fil1" d="M18520 2896c292,-455 -362,-642 -843,-585 -249,29 -452,124 -453,281 0,87 37,186 62,309 16,81 35,153 56,216 245,745 785,391 1178,-221z"/>
  <path class="fil2" d="M19096 1764c2,-25 13,-119 10,-205 -77,-69 -233,63 -258,128 -25,132 -2,261 104,260 65,-1 135,-61 145,-183z"/>
  <path class="fil2" d="M19854 1748c-2,-63 -12,-117 -27,-160 -85,-9 -192,121 -218,192 1,19 2,38 4,59 25,249 250,252 240,-91z"/>
  <path class="fil3" d="M19106 1559c-4,-95 -26,-180 -100,-145 -76,35 -136,156 -159,273 25,-65 181,-197 258,-128z"/>
  <path class="fil3" d="M19827 1588c-68,-192 -237,-171 -218,192 26,-71 133,-201 218,-192z"/>
  <path class="fil4" d="M21395 2201c-31,-102 -92,-335 -147,-567 -34,-143 -95,-592 -158,-696 -79,-133 -244,-256 -379,-180 -37,21 -71,56 -101,110 -26,47 -9,274 14,518 23,243 53,502 52,616 0,183 -129,598 -189,979 -60,384 -51,727 226,738 62,3 220,-28 393,-90 63,-23 127,-49 190,-80 228,-113 430,-282 429,-512 0,-157 -55,-274 -123,-397 -69,-125 -152,-255 -207,-436z"/>
  <path class="fil4" d="M23530 8695c-687,240 -870,287 -1705,-166l-1 0c-64,175 -162,333 -322,524l1 0c539,274 1489,412 2027,-358z"/>
  <path class="fil4" d="M18512 2022c-11,-177 185,-751 353,-1026 27,-45 56,-87 88,-126 -335,38 -558,812 -534,1165 31,-5 61,-9 92,-13z"/>
  <path class="fil6" d="M19594 4051c-213,89 -521,147 -965,124 137,87 274,187 468,181 126,-4 196,-19 294,-94 76,-59 165,-144 203,-210z"/>
  <path class="fil5" d="M18434 6377c188,-564 258,-1068 281,-1626 -68,771 -822,836 -837,2145 -4,382 163,570 -55,801 -128,136 -290,294 -136,413 78,60 199,64 270,-80 -20,120 -2,259 165,177 -95,-412 -59,-832 132,-1340 56,-149 119,-310 179,-491z"/>
  <path class="fil5" d="M19562 11372c-162,-583 -224,-1174 -128,-1542 -282,-71 -579,-219 -792,-524 -71,494 -11,1226 239,1841 -1107,0 -1332,961 -773,818 40,120 176,188 448,100 53,60 160,93 340,71 114,-14 279,-97 368,-170 133,-109 232,-257 279,-338 33,-57 33,-188 17,-255z"/>
  <path class="fil5" d="M18629 4175c445,23 752,-35 965,-124 -38,66 -126,152 -203,210 -98,75 -169,90 -294,94 -195,7 -332,-93 -468,-181zm3368 3302c351,-850 355,-1793 -247,-2518 -235,-283 -488,-539 -572,-801 -39,-121 -62,-291 -71,-530 -173,62 -331,93 -393,90 -277,-11 -287,-354 -226,-738 60,-381 189,-796 189,-979 0,-114 -30,-373 -52,-616 -23,-244 -40,-471 -14,-518 30,-54 65,-90 101,-110 -103,-43 -197,-81 -305,-90 5,-95 -1,-156 30,-238 -184,-8 -232,107 -258,150 12,-54 35,-234 20,-335 -168,24 -279,157 -342,306 -47,-117 -81,-348 -79,-504 -63,83 -160,236 -160,529 -141,-121 -394,-332 -476,-476 0,140 59,472 225,529 -41,-8 -575,-157 -876,-97 170,16 436,95 594,222 -50,33 -92,73 -130,119 -32,39 -61,81 -88,126 -168,275 -364,848 -353,1026 -31,4 -62,8 -92,13 -270,45 -530,141 -743,275 481,-57 1136,130 843,585 -393,612 -933,966 -1178,221 40,144 77,299 125,440 78,230 207,491 613,558 9,1 18,2 27,4 84,21 205,106 312,198 84,72 189,132 305,175 -2,88 -4,175 -8,260 -23,558 -93,1063 -281,1626 -60,181 -123,341 -179,491 -192,508 -227,928 -132,1340 0,0 0,0 0,0 79,343 248,681 493,1058 9,13 18,27 27,39 213,305 510,453 792,524 216,54 422,63 576,61 105,-1 199,-2 293,-16 -90,618 -22,822 175,1451 -159,53 -285,153 -434,263 -418,308 -358,805 189,548 32,144 172,231 444,120 25,22 60,38 105,49 246,56 383,-104 507,-513 17,-56 29,-177 4,-263 -258,-752 -159,-1829 56,-2305 56,-61 106,-117 151,-171 160,-191 258,-349 322,-524 59,-161 90,-337 114,-564 15,-141 23,-276 25,-407 15,-37 27,-66 33,-81zm-2143 -5729c10,343 -216,340 -240,91 -2,-21 -4,-40 -4,-59 -19,-363 150,-384 218,-192 15,43 25,97 27,160zm-758 16c-10,122 -80,182 -145,183 -106,1 -129,-127 -104,-260 22,-118 83,-238 159,-273 74,-34 96,50 100,145 4,86 -8,180 -10,205z"/>
  <path class="fil0 str0" d="M18629 4175c137,87 274,187 468,181 126,-4 196,-19 294,-94 76,-59 165,-144 203,-210"/>
  <path class="fil0 str0" d="M18079 4114c84,6 220,100 339,203 220,189 585,296 923,224 167,-35 393,-192 617,-394"/>
  <path class="fil0 str0" d="M21197 5177c738,311 491,2380 -107,2566 -215,67 -482,-31 -528,344 -53,431 320,157 393,137 -96,49 -164,280 -2,292 83,6 292,-72 332,-149 -19,56 -24,130 -26,197 -8,197 464,242 441,-291 -2,-58 256,-697 297,-796 351,-850 355,-1793 -247,-2518 -235,-283 -488,-539 -572,-801 -39,-121 -62,-291 -71,-530m-803 6248c-90,618 -22,822 175,1451 -159,53 -285,153 -434,263 -418,308 -358,805 189,548m1730 -4578c-2,131 -10,266 -25,407 -57,544 -152,788 -588,1260 -215,477 -314,1553 -56,2305 25,86 13,207 -4,263 -124,408 -261,569 -507,513 -308,-71 -121,-441 109,-564m-420 -93c-353,212 -361,838 206,608m-1955 -7765c-12,666 -72,1237 -289,1886 -60,181 -123,341 -179,491 -192,508 -227,928 -132,1340 79,343 248,681 493,1058 373,575 1032,628 1395,625 185,-2 336,-5 515,-71"/>
  <path class="fil0 str0" d="M17342 3116c40,144 77,299 125,440 78,230 207,491 613,558 1788,292 1974,-472 1985,-539m-2388 -1265c545,-342 1401,-442 1927,-47 23,17 74,60 100,94"/>
  <path class="fil0 str0" d="M18520 2896c-427,664 -1027,1024 -1234,5 -25,-123 -62,-222 -62,-309 2,-459 1740,-387 1296,304z"/>
  <path class="fil0 str0" d="M20711 756c-103,-43 -197,-81 -305,-90 5,-95 -1,-156 30,-238 -184,-8 -232,107 -258,150 12,-54 35,-234 20,-335 -168,24 -279,157 -342,306 -47,-117 -81,-348 -79,-504 -63,83 -160,236 -160,529 -141,-121 -394,-332 -476,-476 0,140 59,472 225,529 -41,-8 -575,-157 -876,-97 170,16 436,95 594,222 -92,60 -159,147 -219,245 -168,275 -364,848 -353,1026"/>
  <path class="fil0 str0" d="M20610 867c-26,47 -9,274 14,518 23,243 53,502 52,616 0,183 -129,598 -189,979 -60,384 -51,727 226,738 84,3 348,-55 583,-171 228,-113 430,-282 429,-512 0,-157 -55,-274 -123,-397 -69,-125 -152,-255 -207,-436 -31,-102 -92,-335 -147,-567 -34,-143 -95,-592 -158,-696 -101,-169 -340,-323 -481,-70z"/>
  <path class="fil0 str0" d="M21503 9053c0,0 0,0 1,0 539,274 1489,412 2027,-358 -687,240 -870,287 -1705,-166 0,0 -1,0 -1,0"/>
  <path class="fil0 str0" d="M18642 9305c-71,494 -11,1226 239,1841 -1107,0 -1332,961 -773,818"/>
  <path class="fil0 str0" d="M19434 9829c-97,368 -35,959 128,1542"/>
  <path class="fil0 str0" d="M18365 11516c-200,50 -280,258 -268,391 13,153 147,259 460,157"/>
  <path class="fil0 str0" d="M18870 11551c-359,100 -584,658 27,583 114,-14 279,-97 368,-170 133,-109 232,-257 279,-338 33,-57 33,-188 17,-255"/>
  <path class="fil0 str0" d="M19006 1414c-160,75 -254,535 -55,533 65,-1 135,-61 145,-183 4,-52 50,-415 -90,-350z"/>
  <path class="fil0 str0" d="M18847 1687c25,-65 181,-197 258,-128"/>
  <path class="fil0 str0" d="M18953 871c-335,38 -558,812 -534,1165 -24,-352 199,-1127 534,-1165z"/>
  <path class="fil0 str0" d="M18720 4619c11,899 -826,896 -842,2277 -4,382 163,570 -55,801 -128,136 -290,294 -136,413 78,60 199,64 270,-80 -20,120 -2,259 166,177"/>
  <path class="fil0 str0" d="M19614 1839c-50,-509 230,-450 240,-91 10,343 -216,340 -240,91z"/>
  <path class="fil0 str0" d="M19609 1780c26,-71 133,-201 218,-192"/>
  <path class="fil1" d="M10662 2896c292,-455 -362,-642 -843,-585 -249,29 -452,124 -453,281 0,87 37,186 62,309 16,81 35,153 56,216 245,745 785,391 1178,-221z"/>
  <path class="fil4" d="M13744 2637c-69,-125 -152,-255 -207,-436 -31,-102 -92,-335 -147,-567 -34,-143 -95,-592 -158,-696 -79,-133 -244,-256 -379,-180 -37,21 -71,56 -101,110 -26,47 -9,274 14,518 23,243 53,502 52,616 0,183 -129,598 -189,979 -60,384 -51,727 226,738 62,3 220,-28 393,-90 63,-23 127,-49 190,-80 228,-113 430,-282 429,-512 0,-157 -55,-274 -123,-397z"/>
  <path class="fil4" d="M15672 8695c-687,240 -870,287 -1705,-166l-1 0c-64,175 -162,333 -322,524l1 0c539,274 1489,412 2027,-358z"/>
  <path class="fil4" d="M10654 2022c-11,-177 185,-751 353,-1026 27,-45 56,-87 88,-126 -335,38 -558,812 -534,1165 31,-5 61,-9 92,-13z"/>
  <path class="fil2" d="M11238 1764c2,-25 13,-119 10,-205 -77,-69 -233,63 -258,128 -25,132 -2,261 104,260 65,-1 135,-61 145,-183z"/>
  <path class="fil2" d="M11756 1839c25,249 250,252 240,-91 -2,-63 -12,-117 -27,-160 -85,-9 -192,121 -218,192 1,19 2,38 4,59z"/>
  <path class="fil3" d="M11248 1559c-4,-95 -26,-180 -100,-145 -76,35 -136,156 -159,273 25,-65 181,-197 258,-128z"/>
  <path class="fil3" d="M11969 1588c-68,-192 -237,-171 -218,192 26,-71 133,-201 218,-192z"/>
  <path class="fil5" d="M10576 6377c186,-555 254,-1066 281,-1618 -73,763 -822,832 -836,2137 -4,382 163,570 -55,801 -128,136 -290,294 -136,413 78,60 199,64 270,-80 -20,120 -2,259 165,177 -95,-412 -59,-832 132,-1340 56,-149 119,-310 179,-491z"/>
  <path class="fil5" d="M11704 11372c-162,-583 -224,-1174 -128,-1542 -282,-71 -579,-219 -792,-524 -71,494 -11,1226 239,1841 -1107,0 -1332,961 -773,818 40,120 176,188 448,100 53,60 160,93 340,71 114,-14 279,-97 368,-170 133,-109 232,-257 279,-338 33,-57 33,-188 17,-255z"/>
  <path class="fil5" d="M10946 4180c251,1 452,-26 614,-70 -24,27 -80,63 -129,87 -63,31 -107,37 -187,39 -124,3 -211,-20 -298,-57zm2946 779c-235,-283 -488,-539 -572,-801 -39,-121 -62,-291 -71,-530 -173,62 -331,93 -393,90 -277,-11 -287,-354 -226,-738 60,-381 189,-796 189,-979 0,-114 -30,-373 -52,-616 -23,-244 -40,-471 -14,-518 30,-54 65,-90 101,-110 -103,-43 -197,-81 -305,-90 5,-95 -1,-156 30,-238 -184,-8 -232,107 -258,150 12,-54 35,-234 20,-335 -168,24 -279,157 -342,306 -47,-117 -81,-348 -79,-504 -63,83 -160,236 -160,529 -141,-121 -394,-332 -476,-476 0,140 59,472 225,529 -41,-8 -575,-157 -876,-97 170,16 436,95 594,222 -50,33 -92,73 -130,119 0,0 0,0 0,0 -32,39 -61,81 -88,126 -168,275 -364,848 -353,1026 -31,4 -62,8 -92,13 -270,45 -530,141 -743,275 481,-57 1136,130 843,585 -393,612 -933,966 -1178,221 40,144 77,299 125,440 78,230 207,491 613,558 16,3 32,5 48,8 74,12 143,27 213,54 121,47 242,111 384,158 0,29 0,59 0,88 -1,113 -4,222 -9,330 -23,558 -93,1063 -281,1626 -60,181 -123,341 -179,491 -192,508 -227,928 -132,1340 0,0 0,0 0,0 79,343 248,681 493,1058 9,13 18,27 27,39 213,305 510,453 792,524 216,54 422,63 576,61 105,-1 199,-2 293,-16 -90,618 -22,822 175,1451 -159,53 -285,153 -434,263 -418,308 -358,805 189,548 32,144 172,231 444,120 25,22 60,38 105,49 246,56 383,-104 507,-513 17,-56 29,-177 4,-263 -258,-752 -159,-1829 56,-2305 56,-61 106,-117 151,-171l0 0c160,-191 258,-349 322,-524 59,-161 90,-336 114,-564 15,-141 23,-276 25,-407 15,-37 27,-66 33,-81 351,-850 355,-1793 -247,-2518zm-2654 -3195c-10,122 -80,182 -145,183 -106,1 -129,-127 -104,-260 22,-118 83,-238 159,-273 74,-34 96,50 100,145 4,86 -8,180 -10,205zm758 -16c10,343 -216,340 -240,91 -2,-21 -4,-40 -4,-59 -19,-363 150,-384 218,-192 15,43 25,97 27,160z"/>
  <path class="fil0 str0" d="M13339 5177c738,311 491,2380 -107,2566 -215,67 -482,-31 -528,344 -53,431 320,157 393,137 -96,49 -164,280 -2,292 83,6 292,-72 332,-149 -19,56 -24,130 -26,197 -8,197 464,242 441,-291 -2,-58 256,-697 297,-796 351,-850 355,-1793 -247,-2518 -235,-283 -488,-539 -572,-801 -39,-121 -62,-291 -71,-530m-803 6248c-90,618 -22,822 175,1451 -159,53 -285,153 -434,263 -418,308 -358,805 189,548m1730 -4578c-2,131 -10,266 -25,407 -57,544 -152,788 -588,1260 -215,477 -314,1553 -56,2305 25,86 13,207 -4,263 -124,408 -261,569 -507,513 -308,-71 -121,-441 109,-564m-420 -93c-353,212 -361,838 206,608m-1954 -7923c0,29 0,59 0,88 -9,696 -65,1284 -290,1956 -60,181 -123,341 -179,491 -192,508 -227,928 -132,1340 79,343 248,681 493,1058 373,575 1032,628 1395,625 185,-2 336,-5 515,-71"/>
  <path class="fil0 str0" d="M9484 3116c40,144 77,299 125,440 78,230 207,491 613,558 1788,292 1974,-472 1985,-539m-2388 -1265c545,-342 1401,-442 1927,-47 23,17 74,60 100,94"/>
  <path class="fil0 str0" d="M10662 2896c-427,664 -1027,1024 -1234,5 -25,-123 -62,-222 -62,-309 2,-459 1740,-387 1296,304z"/>
  <path class="fil0 str0" d="M12853 756c-103,-43 -197,-81 -305,-90 5,-95 -1,-156 30,-238 -184,-8 -232,107 -258,150 12,-54 35,-234 20,-335 -168,24 -279,157 -342,306 -47,-117 -81,-348 -79,-504 -63,83 -160,236 -160,529 -141,-121 -394,-332 -476,-476 0,140 59,472 225,529 -41,-8 -575,-157 -876,-97 170,16 436,95 594,222 -92,60 -159,147 -219,245 -168,275 -364,848 -353,1026"/>
  <path class="fil0 str0" d="M12752 867c-26,47 -9,274 14,518 23,243 53,502 52,616 0,183 -129,598 -189,979 -60,384 -51,727 226,738 84,3 348,-55 583,-171 228,-113 430,-282 429,-512 0,-157 -55,-274 -123,-397 -69,-125 -152,-255 -207,-436 -31,-102 -92,-335 -147,-567 -34,-143 -95,-592 -158,-696 -101,-169 -340,-323 -481,-70z"/>
  <path class="fil0 str0" d="M13644 9053c0,0 0,0 1,0 539,274 1489,412 2027,-358 -687,240 -870,287 -1705,-166 0,0 -1,0 -1,0"/>
  <path class="fil0 str0" d="M10784 9305c-71,494 -11,1226 239,1841 -1107,0 -1332,961 -773,818"/>
  <path class="fil0 str0" d="M11576 9829c-97,368 -35,959 128,1542"/>
  <path class="fil0 str0" d="M10507 11516c-200,50 -280,258 -268,391 13,153 147,259 460,157"/>
  <path class="fil0 str0" d="M11012 11551c-359,100 -584,658 27,583 114,-14 279,-97 368,-170 133,-109 232,-257 279,-338 33,-57 33,-188 17,-255"/>
  <path class="fil0 str0" d="M10946 4180c87,36 174,59 298,57 80,-2 124,-8 187,-39 49,-24 105,-60 129,-87"/>
  <path class="fil0 str0" d="M10221 4114c93,14 176,28 261,61 246,95 492,262 911,207 193,-25 450,-115 707,-318"/>
  <path class="fil0 str0" d="M11148 1414c-160,75 -254,535 -55,533 65,-1 135,-61 145,-183 4,-52 50,-415 -90,-350z"/>
  <path class="fil0 str0" d="M10989 1687c25,-65 181,-197 258,-128"/>
  <path class="fil0 str0" d="M11095 871c-335,38 -558,812 -534,1165 -24,-352 199,-1127 534,-1165z"/>
  <path class="fil0 str0" d="M10862 4619c11,899 -826,896 -842,2277 -4,382 163,570 -55,801 -128,136 -290,294 -136,413 78,60 199,64 270,-80 -20,120 -2,259 166,177"/>
  <path class="fil0 str0" d="M11756 1839c-50,-509 230,-450 240,-91 10,343 -216,340 -240,91z"/>
  <path class="fil0 str0" d="M11751 1780c26,-71 133,-201 218,-192"/>
  <path class="fil0 str0" d="M18382 27210c0,-8 1,-16 1,-24 16,-395 65,-747 160,-1041m384 -644c19,-17 38,-34 59,-50m1380 -36c33,25 65,52 95,81m394 764c69,280 98,599 99,935 0,40 1,80 3,118m230 2720c134,497 214,919 239,1479m-143 1858c-43,201 -154,392 -279,544 -87,105 -184,199 -292,280m-697 314c-137,30 -289,49 -445,53 -151,4 -287,-5 -416,-28m-687 -302c-271,-223 -450,-550 -560,-953m7 -1720c55,-388 128,-815 210,-1272"/>
  <path class="fil0 str0" d="M20957 29864c750,281 586,2358 -4,2569 -213,76 -482,-12 -513,365 -36,433 326,144 398,121 -103,58 -164,333 63,286 71,-15 227,-85 269,-147 -26,71 -65,212 36,284 121,87 410,17 378,-405 -22,-280 233,-720 265,-807 317,-864 283,-1806 -348,-2506 -246,-274 -509,-519 -604,-778 -35,-94 -60,-218 -79,-383"/>
  <path class="fil0 str0" d="M19271 26171c-160,75 -254,535 -55,533 65,-1 135,-61 145,-183 4,-52 50,-415 -90,-350z"/>
  <path class="fil0 str0" d="M19368 26431c-23,-93 -156,-138 -245,-34"/>
  <path class="fil0 str0" d="M19956 26530c-50,-509 230,-450 240,-91 10,343 -216,340 -240,91z"/>
  <path class="fil0 str0" d="M20605 28665c-256,181 -573,579 -896,589 -412,12 -674,-359 -985,-581 -299,-197 -407,-529 -443,-870 -88,-828 574,-1104 1380,-1104 900,0 1431,513 1384,1038 -39,446 -170,748 -441,928z"/>
  <path class="fil0 str0" d="M19952 26471c23,-95 149,-209 245,-32"/>
  <path class="fil0 str0" d="M19654 28065c-392,-14 -677,-542 -675,-837 2,-368 1333,-402 1361,30 18,274 -363,819 -686,807z"/>
  <path class="fil0 str0" d="M18346 34121c-21,208 47,1409 283,1995 -344,38 -673,388 -623,682 16,95 75,174 202,191 54,7 110,-11 153,-64m130 -453c-105,61 -216,209 -151,407 20,60 66,111 166,133 125,28 202,1 259,-52m37 -449c-75,54 -160,184 -113,334 11,35 24,68 52,96 14,14 32,26 54,38 161,80 289,-32 388,-185 82,-127 149,-280 149,-386 0,-492 -292,-937 -223,-1629 10,-100 45,-284 66,-382"/>
  <path class="fil0 str0" d="M20820 34108c21,208 -46,1423 -282,2008 294,69 676,334 645,632 -12,113 -97,225 -224,242 -41,6 -89,-9 -130,-39m-112 -439c122,60 212,208 166,359 -43,142 -305,210 -436,64m-84 -422c80,51 179,179 135,322 -124,410 -687,-61 -686,-348 0,-461 239,-898 242,-1509 1,-142 -15,-405 -59,-542"/>
  <path class="fil0 str0" d="M20365 25417c-41,-95 -19,-165 12,-247 -184,-8 -222,103 -248,146 -131,-132 -188,-277 -230,-485 -45,52 -101,242 -110,286m115 188c-125,-277 -379,-472 -784,-494 149,85 376,239 395,480"/>
  <path class="fil0 str0" d="M18985 25453c102,-108 38,-120 -58,-162 169,-74 302,-1 341,29 15,-70 -50,-144 -142,-205 134,-19 261,17 371,85"/>
  <path class="fil0 str0" d="M18503 28462c-65,639 -754,1111 -1052,1806 -456,1064 -35,1545 177,2221 38,123 57,226 69,315 -51,625 552,613 397,154 171,283 482,114 355,-136 331,146 531,-253 55,-391 -116,-34 -241,-63 -287,-123 -452,-587 -461,-1693 112,-2297"/>
  <path class="fil0 str0" d="M20410 25470c-48,-26 63,122 164,287 143,231 287,431 395,854 81,315 174,760 217,1055 150,1027 779,1095 471,196 -122,-357 -226,-705 -317,-1028 -190,-665 -390,-1077 -930,-1364z"/>
  <path class="fil0 str0" d="M18917 25505c49,-25 -64,122 -168,285 -146,229 -277,432 -378,856 -75,316 -146,766 -199,1060 -183,1018 -820,1087 -491,203 132,-355 223,-709 314,-1034 188,-670 378,-1089 922,-1369z"/>
  <path class="fil0 str0" d="M19081 28748c293,126 802,161 1166,0"/>
  <path class="fil0 str0" d="M20974 33951c359,-63 630,-328 851,-740 -258,199 -394,303 -593,327"/>
  <path class="fil0 str0" d="M19081 28748c154,66 367,313 588,314 200,1 405,-238 578,-314"/>
  <path class="fil0 str0" d="M10524 27210c0,-8 1,-16 1,-24 16,-395 65,-747 160,-1041m384 -644c19,-17 38,-34 59,-50m1380 -36c33,25 65,52 95,81m394 764c69,280 98,599 99,935 0,40 1,80 3,118m230 2720c134,497 214,919 239,1479m-143 1858c-43,201 -154,392 -279,544 -87,105 -184,199 -292,280m-697 314c-137,30 -289,49 -445,53 -151,4 -287,-5 -416,-28m-687 -302c-271,-223 -450,-550 -560,-953m7 -1720c55,-388 128,-815 210,-1272"/>
  <path class="fil0 str0" d="M13099 29864c750,281 586,2358 -4,2569 -213,76 -482,-12 -513,365 -36,433 326,144 398,121 -103,58 -164,333 63,286 71,-15 227,-85 269,-147 -26,71 -65,212 36,284 121,87 410,17 378,-405 -22,-280 233,-720 265,-807 317,-864 283,-1806 -348,-2506 -246,-274 -509,-519 -604,-778 -35,-94 -60,-218 -79,-383"/>
  <path class="fil0 str0" d="M11413 26171c-160,75 -254,535 -55,533 65,-1 135,-61 145,-183 4,-52 50,-415 -90,-350z"/>
  <path class="fil0 str0" d="M11510 26431c-23,-93 -156,-138 -245,-34"/>
  <path class="fil0 str0" d="M12098 26530c-50,-509 230,-450 240,-91 10,343 -216,340 -240,91z"/>
  <path class="fil0 str0" d="M12094 26471c23,-95 149,-209 245,-32"/>
  <path class="fil0 str0" d="M11796 28065c-392,-14 -677,-542 -675,-837 2,-368 1333,-402 1361,30 18,274 -363,819 -686,807z"/>
  <path class="fil0 str0" d="M10488 34121c-21,208 47,1409 283,1995 -344,38 -673,388 -623,682 16,95 75,174 202,191 54,7 110,-11 153,-64m130 -453c-105,61 -216,209 -151,407 20,60 66,111 166,133 125,28 202,1 259,-52m37 -449c-75,54 -160,184 -113,334 11,35 24,68 52,96 14,14 32,26 54,38 161,80 289,-32 388,-185 82,-127 149,-280 149,-386 0,-492 -292,-937 -223,-1629 10,-100 45,-284 66,-382"/>
  <path class="fil0 str0" d="M12962 34108c21,208 -46,1423 -282,2008 294,69 676,334 645,632 -12,113 -97,225 -224,242 -41,6 -89,-9 -130,-39m-112 -439c122,60 212,208 166,359 -43,142 -305,210 -436,64m-84 -422c80,51 179,179 135,322 -124,410 -687,-61 -686,-348 0,-461 239,-898 242,-1509 1,-142 -15,-405 -59,-542"/>
  <path class="fil0 str0" d="M12507 25417c-41,-95 -19,-165 12,-247 -184,-8 -222,103 -248,146 -131,-132 -188,-277 -230,-485 -45,52 -101,242 -110,286m115 188c-125,-277 -379,-472 -784,-494 149,85 376,239 395,480"/>
  <path class="fil0 str0" d="M11127 25453c102,-108 38,-120 -58,-162 169,-74 302,-1 341,29 15,-70 -50,-144 -142,-205 134,-19 261,17 371,85"/>
  <path class="fil0 str0" d="M10645 28462c-65,639 -754,1111 -1052,1806 -456,1064 -35,1545 177,2221 38,123 57,226 69,315 -51,625 552,613 397,154 171,283 482,114 355,-136 331,146 531,-253 55,-391 -116,-34 -241,-63 -287,-123 -452,-587 -461,-1693 112,-2297"/>
  <path class="fil0 str0" d="M12552 25470c-48,-26 63,122 164,287 143,231 287,431 395,854 81,315 174,760 217,1055 150,1027 779,1095 471,196 -122,-357 -226,-705 -317,-1028 -190,-665 -390,-1077 -930,-1364z"/>
  <path class="fil0 str0" d="M11059 25505c49,-25 -64,122 -168,285 -146,229 -277,432 -378,856 -75,316 -146,766 -199,1060 -183,1018 -820,1087 -491,203 132,-355 223,-709 314,-1034 188,-670 378,-1089 922,-1369z"/>
  <path class="fil0 str0" d="M12747 28665c-256,181 -573,425 -896,434 -412,12 -674,-205 -985,-427 -299,-197 -407,-529 -443,-870 -88,-828 574,-1104 1380,-1104 900,0 1431,513 1384,1038 -39,446 -170,748 -441,928z"/>
  <path class="fil0 str0" d="M13116 33951c359,-63 630,-328 851,-740 -258,199 -394,303 -593,327"/>
  <path class="fil0 str0" d="M11223 28748c293,126 802,161 1166,0"/>
  <path class="fil0 str0" d="M11223 28748c91,39 202,69 323,87 87,13 173,55 263,55 73,0 150,-39 221,-48 126,-16 249,-46 359,-95"/>
  <path class="fil1" d="M4625 27259c-28,-433 -1359,-398 -1361,-30 -2,295 283,823 675,837 323,12 704,-533 686,-807z"/>
  <path class="fil2" d="M3645 26521c1,-14 5,-48 8,-90 -23,-93 -156,-138 -245,-34 -41,147 -26,308 93,307 65,-1 135,-61 145,-183z"/>
  <path class="fil2" d="M4480 26439c-96,-176 -221,-63 -245,32 1,19 2,38 4,59 25,249 250,252 240,-91z"/>
  <path class="fil3" d="M3652 26431c8,-121 6,-309 -98,-260 -65,30 -120,125 -148,226 89,-103 222,-59 245,34z"/>
  <path class="fil3" d="M4480 26439c-10,-344 -268,-412 -245,32 23,-95 149,-209 245,-32z"/>
  <path class="fil4" d="M6109 33211c-258,199 -394,303 -593,327 -55,139 -138,269 -228,378 -10,12 -20,23 -29,35 359,-63 630,-328 851,-740z"/>
  <path class="fil4" d="M5942 27862c-122,-357 -226,-705 -317,-1028 -184,-644 -377,-1051 -881,-1336 -16,-9 -33,-18 -50,-27 -48,-26 63,122 164,287 97,156 194,298 280,505 41,99 80,212 115,349 81,315 174,760 217,1055 150,1027 779,1095 471,196z"/>
  <path class="fil4" d="M2826 26146c64,-133 134,-241 207,-356 93,-146 193,-280 178,-287 -2,-1 -5,0 -10,2 -544,280 -734,700 -922,1369 -91,325 -182,679 -314,1034 -329,884 308,816 491,-203 53,-294 124,-744 199,-1060 50,-211 108,-368 172,-500z"/>
  <path class="fil5" d="M5330 27737c13,-145 -18,-290 -89,-422 0,0 0,0 0,0 -186,-348 -644,-616 -1295,-616 -570,0 -1068,138 -1280,511l0 0c-88,155 -127,350 -101,593 36,341 145,672 443,870 311,222 574,439 985,427 323,-9 639,-254 896,-434 84,-56 154,-123 212,-203 130,-178 201,-417 228,-725zm-705 -479c18,274 -363,819 -686,807 -392,-14 -677,-542 -675,-837 2,-368 1333,-402 1361,30z"/>
  <path class="fil5" d="M4694 25470c-27,-26 -55,-70 -63,-107 -15,-69 4,-127 30,-193 -184,-8 -222,103 -248,146 -131,-132 -188,-277 -230,-485 -45,52 -101,242 -110,286 -143,-175 -363,-290 -669,-306 129,73 317,199 377,388 -110,-68 -237,-104 -371,-85 92,61 157,136 142,205 -40,-30 -172,-103 -341,-29 73,32 127,47 104,99 -25,58 -73,76 -115,115 5,-3 8,-3 10,-2 16,8 -85,141 -178,287 -73,115 -143,223 -207,356 -95,293 -143,646 -160,1041l-1 24c212,-373 710,-511 1280,-511 652,0 1109,268 1295,616 -1,-38 -1,-78 -3,-118 -11,-335 -35,-655 -99,-935 -86,-206 -183,-348 -280,-505 -102,-164 -213,-312 -164,-287zm-1140 700c104,-48 105,139 98,260 -3,42 -6,76 -8,90 -10,122 -80,182 -145,183 -118,1 -134,-160 -93,-307 28,-101 82,-195 148,-226zm681 300c-24,-445 235,-376 245,-32 10,343 -216,340 -240,91 -2,-20 -4,-40 -4,-59z"/>
  <path class="fil5" d="M5709 31514c-25,-560 -104,-982 -239,-1480 258,315 320,943 239,1480zm-3511 47c-68,-426 -4,-897 210,-1272 -82,457 -155,884 -210,1272zm3934 569c317,-864 283,-1806 -348,-2506 -246,-274 -509,-519 -604,-778 -35,-94 -60,-218 -79,-383 -58,80 -129,147 -212,203 -256,181 -573,425 -896,434 -411,12 -674,-205 -985,-427 -90,-59 -163,-131 -221,-211l-3 28c-82,625 -755,1093 -1049,1778 -456,1064 -35,1545 177,2221 38,123 57,226 69,315 -23,289 93,442 210,477 93,340 235,625 439,840 -21,208 47,1409 283,1995 -344,38 -673,388 -623,682 16,95 75,174 202,191 54,7 111,-12 154,-65 26,40 71,72 145,88 125,28 202,1 259,-52 9,6 20,13 31,18 161,80 289,-32 388,-185 82,-127 149,-280 149,-386 0,-492 -292,-937 -223,-1629 6,-62 22,-157 38,-244 129,22 269,32 421,28 156,-4 308,-23 445,-53 29,144 40,348 40,468 -3,611 -241,1048 -242,1509 0,257 453,663 635,447 102,114 286,97 381,16 41,30 89,45 130,39 128,-17 213,-129 224,-242 31,-297 -351,-562 -645,-632 236,-586 302,-1800 282,-2008 55,-49 106,-101 154,-157l29 -35c90,-109 173,-239 228,-378 21,-54 39,-109 51,-166 136,21 327,-88 300,-436 -22,-280 233,-720 265,-807z"/>
  <path class="fil0 str0" d="M5240 29864c750,281 586,2358 -4,2569 -213,76 -482,-12 -513,365 -36,433 326,144 398,121 -103,58 -164,333 63,286 71,-15 227,-85 269,-147 -26,71 -65,212 36,284 121,87 410,17 378,-405 -22,-280 233,-720 265,-807 317,-864 283,-1806 -348,-2506 -246,-274 -509,-519 -604,-778 -35,-94 -60,-218 -79,-383"/>
  <path class="fil0 str0" d="M3555 26171c-160,75 -254,535 -55,533 65,-1 135,-61 145,-183 4,-52 50,-415 -90,-350z"/>
  <path class="fil0 str0" d="M3652 26431c-23,-93 -156,-138 -245,-34"/>
  <path class="fil0 str0" d="M4240 26530c-50,-509 230,-450 240,-91 10,343 -216,340 -240,91z"/>
  <path class="fil0 str0" d="M4236 26471c23,-95 149,-209 245,-32"/>
  <path class="fil0 str0" d="M3938 28065c-392,-14 -677,-542 -675,-837 2,-368 1333,-402 1361,30 18,274 -363,819 -686,807z"/>
  <path class="fil0 str0" d="M2630 34121c-21,208 47,1409 283,1995 -344,38 -673,388 -623,682 16,95 75,174 202,191 54,7 111,-12 154,-65m129 -452c-105,61 -216,209 -151,407 20,60 66,111 166,133 125,28 202,1 259,-52m38 -449c-75,54 -160,184 -113,334 11,35 24,68 52,96 14,14 32,26 54,38 161,80 289,-32 388,-185 82,-127 149,-280 149,-386 0,-492 -292,-937 -223,-1629 10,-100 45,-284 66,-382"/>
  <path class="fil0 str0" d="M5104 34108c21,208 -46,1423 -282,2008 294,69 676,334 645,632 -12,113 -97,225 -224,242 -41,6 -89,-9 -130,-39m-112 -439c122,60 212,208 166,359 -43,142 -305,210 -436,64m-84 -422c80,51 179,179 135,322 -124,410 -687,-61 -686,-348 0,-461 239,-898 242,-1509 1,-142 -15,-405 -59,-542"/>
  <path class="fil0 str0" d="M2198 31561c55,-388 128,-815 210,-1272"/>
  <path class="fil0 str0" d="M2751 34233c-271,-223 -450,-550 -560,-952"/>
  <path class="fil0 str0" d="M4299 34511c-137,30 -289,49 -445,53 -151,4 -292,-6 -421,-28"/>
  <path class="fil0 str0" d="M5566 33372c-43,201 -154,392 -279,544 -87,105 -184,199 -292,280"/>
  <path class="fil0 str0" d="M5470 30034c134,497 214,920 239,1480"/>
  <path class="fil0 str0" d="M5138 26262c64,280 88,600 99,935 1,40 1,79 3,118m-2575 -105c0,-8 1,-16 1,-24 16,-395 65,-747 160,-1041m374 -641c42,-38 90,-57 115,-115 23,-53 -31,-68 -104,-99 169,-74 302,-1 341,29 15,-70 -50,-144 -142,-205 134,-19 261,17 371,85m407 106c-125,-277 -379,-472 -784,-494 149,85 376,239 395,480m274 -173c9,-45 65,-234 110,-286 42,207 99,353 230,485 26,-42 63,-154 248,-146 -25,66 -44,124 -30,193 8,37 35,81 63,107"/>
  <path class="fil0 str0" d="M2787 28462c-1,9 -2,19 -3,28 -82,625 -755,1093 -1049,1778 -456,1064 -35,1545 177,2221 38,123 57,226 69,315 -51,625 552,613 397,154 171,283 482,114 355,-136 331,146 531,-253 55,-391 -116,-34 -241,-63 -287,-123 -452,-587 -461,-1693 112,-2297"/>
  <path class="fil0 str0" d="M4694 25470c-48,-26 63,122 164,287 143,231 287,431 395,854 81,315 174,760 217,1055 150,1027 779,1095 471,196 -122,-357 -226,-705 -317,-1028 -190,-665 -390,-1077 -930,-1364z"/>
  <path class="fil0 str0" d="M3201 25505c49,-25 -64,122 -168,285 -146,229 -277,432 -378,856 -75,316 -146,766 -199,1060 -183,1018 -820,1087 -491,203 132,-355 223,-709 314,-1034 188,-670 378,-1089 922,-1369z"/>
  <path class="fil0 str0" d="M4889 28665c-256,181 -573,425 -896,434 -411,12 -674,-205 -985,-427 -299,-197 -407,-529 -443,-870 -88,-828 574,-1104 1380,-1104 900,0 1431,513 1384,1038 -39,446 -170,748 -441,928z"/>
  <path class="fil0 str0" d="M3508 28748c222,126 605,161 880,0"/>
  <path class="fil0 str0" d="M5258 33951c359,-63 630,-328 851,-740 -258,199 -394,303 -593,327"/>
  <path class="fil2" d="M3380 1764c2,-25 13,-119 10,-205 -77,-69 -233,63 -258,128 -25,132 -2,261 104,260 65,-1 135,-61 145,-183z"/>
  <path class="fil2" d="M4111 1588c-85,-9 -192,121 -218,192 1,19 2,38 4,59 25,249 250,252 240,-91 -2,-63 -12,-117 -27,-160z"/>
  <path class="fil4" d="M5679 2201c-31,-102 -92,-335 -147,-567 -34,-143 -95,-592 -158,-696 -79,-133 -244,-256 -379,-180 -37,21 -71,56 -101,110 -26,47 -9,274 14,518 23,243 53,502 52,616 0,183 -129,598 -189,979 -60,384 -51,727 226,738 62,3 220,-28 393,-90 63,-23 127,-49 190,-80 228,-113 430,-282 429,-512 0,-157 -55,-274 -123,-397 -69,-125 -152,-255 -207,-436z"/>
  <path class="fil4" d="M2795 2022c-11,-177 185,-751 353,-1026 27,-45 56,-87 88,-126 -335,38 -558,812 -534,1165 31,-5 61,-9 92,-13z"/>
  <path class="fil4" d="M7814 8695c-687,240 -870,287 -1705,-166l-1 2c0,0 0,0 0,0 -64,174 -162,331 -321,522l0 0c539,275 1490,412 2028,-358z"/>
  <path class="fil1" d="M1625 3116c245,745 785,391 1178,-221 292,-455 -362,-642 -843,-585 -249,29 -452,124 -453,281 0,87 37,186 62,309 16,81 35,153 56,216z"/>
  <path class="fil3" d="M3131 1687c25,-65 181,-197 258,-128 -4,-95 -26,-180 -100,-145 -76,35 -136,156 -159,273z"/>
  <path class="fil3" d="M4111 1588c-68,-192 -237,-171 -218,192 26,-71 133,-201 218,-192z"/>
  <path class="fil6" d="M3779 4088c-183,60 -424,98 -741,92 105,67 210,144 360,139 97,-3 150,-14 226,-73 59,-45 127,-107 155,-158z"/>
  <path class="fil5" d="M3718 9829c-282,-71 -579,-219 -792,-524 -71,494 -11,1226 239,1841 -1107,0 -1332,961 -773,818 40,120 176,188 448,100 53,60 160,93 340,71 114,-14 279,-97 368,-170 133,-109 232,-257 279,-338 33,-57 33,-188 17,-255 -162,-583 -224,-1174 -128,-1542z"/>
  <path class="fil5" d="M2718 6377c190,-569 260,-1071 282,-1634 -64,778 -823,839 -837,2152 -4,382 163,570 -55,801 -128,136 -290,294 -136,413 78,60 199,64 270,-80 -20,120 -2,259 165,177 -95,-412 -59,-832 132,-1340 56,-149 119,-310 179,-491z"/>
  <path class="fil5" d="M3038 4180c317,6 559,-32 741,-92 -29,51 -97,113 -155,158 -76,58 -130,69 -226,73 -150,5 -255,-72 -360,-139zm-39 572c0,-3 0,-5 1,-8 0,3 0,5 -1,8zm3281 2725c351,-850 355,-1793 -247,-2518 -235,-283 -488,-539 -572,-801 -39,-121 -62,-291 -71,-530 -173,62 -331,93 -393,90 -277,-11 -287,-354 -226,-738 60,-381 189,-796 189,-979 0,-114 -30,-373 -52,-616 -23,-244 -40,-471 -14,-518 30,-54 65,-90 101,-110 -103,-43 -197,-81 -305,-90 5,-95 -1,-156 30,-238 -184,-8 -232,107 -258,150 12,-54 35,-234 20,-335 -168,24 -279,157 -342,306 -47,-117 -81,-348 -79,-504 -63,83 -160,236 -160,529 -141,-121 -394,-332 -476,-476 0,140 59,472 225,529 -41,-8 -575,-157 -876,-97 170,16 436,95 594,222 -50,33 -92,73 -130,119 -32,39 -61,81 -88,126 -168,275 -364,848 -353,1026 -31,4 -62,8 -92,13 -270,45 -530,141 -743,275 481,-57 1136,130 843,585 -393,612 -933,966 -1178,221 40,144 77,299 125,440 78,230 207,491 613,558 84,14 164,25 241,34 4,0 7,1 11,1 65,11 163,80 250,154 42,36 90,68 144,95 -1,120 -4,238 -9,353 -23,558 -93,1063 -281,1626 -60,181 -123,341 -179,491 -192,508 -227,928 -132,1340 0,0 0,0 0,0 79,343 248,681 493,1058 9,13 18,27 27,39 213,305 510,453 792,524 216,54 422,63 576,61 105,-1 199,-2 293,-16 -90,618 -22,822 175,1451 -159,53 -285,153 -434,263 -418,308 -358,805 189,548 32,144 172,231 444,120 25,22 60,38 105,49 246,56 383,-104 507,-513 17,-56 29,-177 4,-263 -258,-752 -159,-1829 56,-2305 56,-61 106,-117 152,-171 0,0 0,0 0,0l1 -2c158,-189 256,-347 320,-520l0 0c60,-162 91,-337 115,-566 15,-141 23,-276 25,-407 15,-37 27,-66 33,-81zm-2901 -5713c-10,122 -80,182 -145,183 -106,1 -129,-127 -104,-260 22,-118 83,-238 159,-273 74,-34 96,50 100,145 4,86 -8,180 -10,205zm758 -16c10,343 -216,340 -240,91 -2,-20 -4,-40 -4,-59 -19,-363 150,-384 218,-192 15,43 25,97 27,160z"/>
  <path class="fil0 str0" d="M5786 9053c539,275 1490,412 2028,-358 -687,240 -870,287 -1705,-166"/>
  <path class="fil0 str0" d="M5481 5177c738,311 491,2380 -107,2566 -215,67 -482,-31 -528,344 -53,431 320,157 393,137 -96,49 -164,280 -2,292 83,6 292,-72 332,-149 -19,56 -24,130 -26,197 -8,197 464,242 441,-291 -2,-58 256,-697 297,-796 351,-850 355,-1793 -247,-2518 -235,-283 -488,-539 -572,-801 -39,-121 -62,-291 -71,-530m-803 6248c-90,618 -22,822 175,1451 -159,53 -285,153 -434,263 -418,308 -358,805 189,548m1730 -4578c-2,131 -10,266 -25,407 -57,544 -152,788 -588,1260 -215,477 -314,1553 -56,2305 25,86 13,207 -4,263 -124,408 -261,569 -507,513 -308,-71 -121,-441 109,-564m-420 -93c-353,212 -361,838 206,608m-1954 -7858c-8,706 -63,1299 -290,1979 -60,181 -123,341 -179,491 -192,508 -227,928 -132,1340 79,343 248,681 493,1058 373,575 1032,628 1395,625 185,-2 336,-5 515,-71"/>
  <path class="fil0 str0" d="M2926 9305c-71,494 -11,1226 239,1841 -1107,0 -1332,961 -773,818m1326 -2134c-97,368 -35,959 128,1542 16,67 16,199 -17,255 -47,80 -146,228 -279,338 -89,73 -254,156 -368,170 -611,75 -385,-483 -27,-583m-505 -36c-200,50 -280,258 -268,391 13,153 147,259 460,157"/>
  <path class="fil0 str0" d="M3038 4180c105,67 210,144 360,139 97,-3 150,-14 226,-73 59,-45 127,-107 155,-158"/>
  <path class="fil0 str0" d="M2604 4148c65,4 169,77 261,156 169,145 449,227 709,172 128,-27 302,-147 474,-303"/>
  <path class="fil0 str0" d="M3290 1414c-160,75 -254,535 -55,533 65,-1 135,-61 145,-183 4,-52 50,-415 -90,-350z"/>
  <path class="fil0 str0" d="M3131 1687c25,-65 181,-197 258,-128"/>
  <path class="fil0 str0" d="M3897 1839c-50,-509 230,-450 240,-91 10,343 -216,340 -240,91zm-4 -59c26,-71 133,-201 218,-192"/>
  <path class="fil0 str0" d="M3237 871c-335,38 -558,812 -534,1165 -24,-352 199,-1127 534,-1165z"/>
  <path class="fil0 str0" d="M1625 3116c40,144 77,299 125,440 78,230 207,491 613,558 1788,292 1974,-472 1985,-539m-2388 -1265c545,-342 1401,-442 1927,-47 23,17 74,60 100,94"/>
  <path class="fil0 str0" d="M2804 2896c-427,664 -1027,1024 -1234,5 -25,-123 -62,-222 -62,-309 2,-459 1740,-387 1296,304z"/>
  <path class="fil0 str0" d="M3004 4619c11,899 -826,896 -842,2277 -4,382 163,570 -55,801 -128,136 -290,294 -136,413 78,60 199,64 270,-80 -20,120 -2,259 166,177"/>
  <path class="fil0 str0" d="M4894 867c-26,47 -9,274 14,518 23,243 53,502 52,616 0,183 -129,598 -189,979 -60,384 -51,727 226,738 84,3 348,-55 583,-171 228,-113 430,-282 429,-512 0,-157 -55,-274 -123,-397 -69,-125 -152,-255 -207,-436 -31,-102 -92,-335 -147,-567 -34,-143 -95,-592 -158,-696 -101,-169 -340,-323 -481,-70z"/>
  <path class="fil0 str0" d="M4995 756c-103,-43 -197,-81 -305,-90 5,-95 -1,-156 30,-238 -184,-8 -232,107 -258,150 12,-54 35,-234 20,-335 -168,24 -279,157 -342,306 -47,-117 -81,-348 -79,-504 -63,83 -160,236 -160,529 -141,-121 -394,-332 -476,-476 0,140 59,472 225,529 -41,-8 -575,-157 -876,-97 170,16 436,95 594,222 -92,60 -159,147 -219,245 -168,275 -364,848 -353,1026"/>
 </g>
</svg>
