<?xml version="1.0" encoding="UTF-8"?>
<!DOCTYPE svg PUBLIC "-//W3C//DTD SVG 1.1//EN" "http://www.w3.org/Graphics/SVG/1.1/DTD/svg11.dtd">
<!-- Creator: CorelDRAW X6 -->
<svg xmlns="http://www.w3.org/2000/svg" xml:space="preserve" width="78.5812mm" height="123.56mm" version="1.1" style="shape-rendering:geometricPrecision; text-rendering:geometricPrecision; image-rendering:optimizeQuality; fill-rule:evenodd; clip-rule:evenodd"
viewBox="0 0 7858 12356"
 xmlns:xlink="http://www.w3.org/1999/xlink">
 <defs>
  <style type="text/css">
   <![CDATA[
    .str0 {stroke:black;stroke-width:79.37;stroke-linecap:round;stroke-linejoin:round}
    .fil0 {fill:none}
   ]]>
  </style>
 </defs>
 <g id="lineart">
  <metadata id="CorelCorpID_0Corel-Layer"/>
  <g id="_1157129552">
   <path class="fil0 str0" d="M2666 2498c0,-8 1,-16 1,-24 16,-395 65,-747 160,-1041m384 -644c19,-17 38,-34 59,-50m1380 -36c33,25 65,52 95,81m394 764c69,280 98,599 99,935 0,40 1,80 3,118m230 2720c134,497 214,919 239,1479m-143 1858c-43,201 -154,392 -279,544 -87,105 -184,199 -292,280m-697 314c-137,30 -289,49 -445,53 -151,4 -287,-5 -416,-28m-687 -302c-271,-223 -450,-550 -560,-953m7 -1720c55,-388 128,-815 210,-1272"/>
   <path class="fil0 str0" d="M5240 5151c750,281 586,2358 -4,2569 -213,76 -482,-12 -513,365 -36,433 326,144 398,121 -103,58 -164,333 63,286 71,-15 227,-85 269,-147 -26,71 -65,212 36,284 121,87 410,17 378,-405 -22,-280 233,-720 265,-807 317,-864 283,-1806 -348,-2506 -246,-274 -509,-519 -604,-778 -35,-94 -60,-218 -79,-383"/>
   <path class="fil0 str0" d="M3555 1459c-160,75 -254,535 -55,533 65,-1 135,-61 145,-183 4,-52 50,-415 -90,-350z"/>
   <path class="fil0 str0" d="M3652 1719c-23,-93 -156,-138 -245,-34"/>
   <path class="fil0 str0" d="M4240 1818c-50,-509 230,-450 240,-91 10,343 -216,340 -240,91z"/>
   <path class="fil0 str0" d="M4236 1759c23,-95 149,-209 245,-32"/>
   <path class="fil0 str0" d="M3938 3353c-392,-14 -677,-542 -675,-837 2,-368 1333,-402 1361,30 18,274 -363,819 -686,807z"/>
   <path class="fil0 str0" d="M2630 9409c-21,208 47,1409 283,1995 -344,38 -673,388 -623,682 16,95 75,174 202,191 54,7 110,-11 153,-64m130 -453c-105,61 -216,209 -151,407 20,60 66,111 166,133 125,28 202,1 259,-52m37 -449c-75,54 -160,184 -113,334 11,35 24,68 52,96 14,14 32,26 54,38 161,80 289,-32 388,-185 82,-127 149,-280 149,-386 0,-492 -292,-937 -223,-1629 10,-100 45,-284 66,-382"/>
   <path class="fil0 str0" d="M5104 9396c21,208 -46,1423 -282,2008 294,69 676,334 645,632 -12,113 -97,225 -224,242 -41,6 -89,-9 -130,-39m-112 -439c122,60 212,208 166,359 -43,142 -305,210 -436,64m-84 -422c80,51 179,179 135,322 -124,410 -687,-61 -686,-348 0,-461 239,-898 242,-1509 1,-142 -15,-405 -59,-542"/>
   <path class="fil0 str0" d="M4649 704c-41,-95 -19,-165 12,-247 -184,-8 -222,103 -248,146 -131,-132 -188,-277 -230,-485 -45,52 -101,242 -110,286m115 188c-125,-277 -379,-472 -784,-494 149,85 376,239 395,480"/>
   <path class="fil0 str0" d="M3269 741c102,-108 38,-120 -58,-162 169,-74 302,-1 341,29 15,-70 -50,-144 -142,-205 134,-19 261,17 371,85"/>
   <path class="fil0 str0" d="M2787 3750c-65,639 -754,1111 -1052,1806 -456,1064 -35,1545 177,2221 38,123 57,226 69,315 -51,625 552,613 397,154 171,283 482,114 355,-136 331,146 531,-253 55,-391 -116,-34 -241,-63 -287,-123 -452,-587 -461,-1693 112,-2297"/>
   <path class="fil0 str0" d="M4694 758c-48,-26 63,122 164,287 143,231 287,431 395,854 81,315 174,760 217,1055 150,1027 779,1095 471,196 -122,-357 -226,-705 -317,-1028 -190,-665 -390,-1077 -930,-1364z"/>
   <path class="fil0 str0" d="M3201 793c49,-25 -64,122 -168,285 -146,229 -277,432 -378,856 -75,316 -146,766 -199,1060 -183,1018 -820,1087 -491,203 132,-355 223,-709 314,-1034 188,-670 378,-1089 922,-1369z"/>
   <path class="fil0 str0" d="M4889 3953c-256,181 -573,425 -896,434 -412,12 -674,-205 -985,-427 -299,-197 -407,-529 -443,-870 -88,-828 574,-1104 1380,-1104 900,0 1431,513 1384,1038 -39,446 -170,748 -441,928z"/>
   <path class="fil0 str0" d="M3508 4036c222,126 605,161 880,0"/>
   <path class="fil0 str0" d="M5258 9239c359,-63 630,-328 851,-740 -258,199 -394,303 -593,327"/>
  </g>
 </g>
</svg>
