<?xml version="1.0" encoding="UTF-8"?>
<!DOCTYPE svg PUBLIC "-//W3C//DTD SVG 1.1//EN" "http://www.w3.org/Graphics/SVG/1.1/DTD/svg11.dtd">
<!-- Creator: CorelDRAW X6 -->
<svg xmlns="http://www.w3.org/2000/svg" xml:space="preserve" width="78.5812mm" height="123.56mm" version="1.1" style="shape-rendering:geometricPrecision; text-rendering:geometricPrecision; image-rendering:optimizeQuality; fill-rule:evenodd; clip-rule:evenodd"
viewBox="0 0 7858 12356"
 xmlns:xlink="http://www.w3.org/1999/xlink">
 <defs>
  <style type="text/css">
   <![CDATA[
    .str0 {stroke:black;stroke-width:79.37;stroke-linecap:round;stroke-linejoin:round}
    .fil0 {fill:none}
   ]]>
  </style>
 </defs>
 <g id="Layer_x0020_1">
  <metadata id="CorelCorpID_0Corel-Layer"/>
  <g id="_1157125488">
   <path class="fil0 str0" d="M2917 9365c-61,493 5,1185 247,1781 -1108,0 -1333,961 -773,818"/>
   <path class="fil0 str0" d="M3713 9843c-90,369 -29,954 131,1528"/>
   <path class="fil0 str0" d="M2648 11516c-200,50 -280,258 -268,391 13,153 147,259 460,157"/>
   <path class="fil0 str0" d="M3153 11551c-359,100 -584,659 27,583 114,-14 279,-97 368,-170 133,-109 232,-257 279,-338 33,-57 33,-188 17,-255"/>
   <path class="fil0 str0" d="M4587 9859c-90,618 -22,838 175,1467 -159,54 -285,153 -434,263 -418,309 -358,806 189,548"/>
   <path class="fil0 str0" d="M5610 9168c-215,477 -289,1609 -31,2361"/>
   <path class="fil0 str0" d="M4756 11649c-353,213 -361,838 206,608"/>
   <path class="fil0 str0" d="M5176 11742c-229,123 -417,493 -109,564 246,56 384,-104 507,-513 17,-56 29,-177 4,-263"/>
   <path class="fil0 str0" d="M2376 4145c47,3 115,43 184,94"/>
   <path class="fil0 str0" d="M1732 2306c545,-342 1402,-442 1928,-47 23,17 74,60 100,94"/>
   <path class="fil0 str0" d="M4769 751c-103,-43 -197,-81 -305,-90 5,-95 -1,-156 30,-238 -184,-8 -232,107 -258,150 12,-54 35,-234 20,-335 -168,24 -279,157 -342,306 -47,-117 -81,-348 -79,-505 -63,83 -160,236 -160,529 -141,-121 -394,-332 -476,-476 0,140 59,472 225,529 -41,-8 -575,-157 -877,-97 170,16 436,95 595,222 -92,60 -159,148 -219,245 -168,275 -365,849 -353,1026"/>
   <path class="fil0 str0" d="M3063 1409c-161,75 -255,535 -55,533 65,-1 135,-61 145,-183 4,-53 50,-415 -90,-350z"/>
   <path class="fil0 str0" d="M2904 1683c25,-65 181,-197 258,-128"/>
   <path class="fil0 str0" d="M3671 1835c-50,-509 230,-450 240,-91 10,343 -216,340 -240,91z"/>
   <path class="fil0 str0" d="M3666 1776c26,-71 127,-201 211,-192"/>
   <path class="fil0 str0" d="M3015 865c-338,30 -564,811 -539,1166"/>
   <path class="fil0 str0" d="M1397 3112c29,214 60,241 108,390 77,241 194,537 629,608 158,26 303,43 437,54m1174 -161c315,-166 369,-396 375,-432"/>
   <path class="fil0 str0" d="M2576 2891c-427,665 -1027,1025 -1235,5 -25,-123 -62,-222 -62,-309 2,-460 1740,-387 1297,304z"/>
   <path class="fil0 str0" d="M4667 862c-26,47 -9,274 14,518 23,243 53,502 53,616 0,183 -129,598 -189,980 -60,384 -51,727 226,738 84,3 348,-55 583,-171 228,-113 430,-282 429,-513 0,-157 -55,-274 -123,-398 -69,-125 -152,-255 -207,-436 -31,-102 -92,-335 -147,-568 -34,-143 -95,-592 -158,-697 -101,-169 -340,-323 -481,-70z"/>
   <path class="fil0 str0" d="M2813 4620c15,625 -48,1209 -224,1809 -54,183 -110,346 -161,497 -173,515 -193,936 -83,1345 92,340 273,671 531,1039 459,655 1282,585 1572,564 126,-5 245,-33 358,-80m847 -4432c337,879 563,1573 498,2526 -37,546 -124,794 -541,1281"/>
   <path class="fil0 str0" d="M5755 8991c549,255 1505,357 2014,-433 -678,265 -860,319 -1711,-103"/>
   <path class="fil0 str0" d="M2813 4620c52,903 -797,968 -761,2349 10,382 184,564 -26,803 -123,141 -279,305 -121,418 80,57 201,57 267,-90 -16,121 7,259 172,171"/>
   <g>
    <path class="fil0 str0" d="M4499 5982c-104,31 -153,-35 -211,-87 -436,-394 -805,-1217 -719,-1478 71,-214 322,-360 55,-628 -307,-308 -321,155 -351,225 21,-106 -119,-302 -228,-182 -56,62 -124,274 -88,353 -32,-49 -87,-99 -139,-142 -150,-128 -477,215 -43,527 47,34 390,632 443,726 233,413 483,1193 758,1558"/>
    <path class="fil0 str0" d="M4909 5190c40,370 -226,649 -621,705m-311 959c119,163 1348,-540 1501,-755 417,-584 22,-1343 -244,-1945 -51,-117 -62,-291 -71,-531"/>
   </g>
  </g>
 </g>
</svg>
