<?xml version="1.0" encoding="UTF-8"?>
<!DOCTYPE svg PUBLIC "-//W3C//DTD SVG 1.1//EN" "http://www.w3.org/Graphics/SVG/1.1/DTD/svg11.dtd">
<!-- Creator: CorelDRAW X6 -->
<svg xmlns="http://www.w3.org/2000/svg" xml:space="preserve" width="78.5812mm" height="123.56mm" version="1.1" style="shape-rendering:geometricPrecision; text-rendering:geometricPrecision; image-rendering:optimizeQuality; fill-rule:evenodd; clip-rule:evenodd"
viewBox="0 0 7858 12356"
 xmlns:xlink="http://www.w3.org/1999/xlink">
 <defs>
  <style type="text/css">
   <![CDATA[
    .str0 {stroke:black;stroke-width:79.37;stroke-linecap:round;stroke-linejoin:round}
    .fil0 {fill:none}
   ]]>
  </style>
 </defs>
 <g id="Layer_x0020_1">
  <metadata id="CorelCorpID_0Corel-Layer"/>
  <g id="_1159425904">
   <path class="fil0 str0" d="M3007 4491c-12,669 -71,1234 -289,1886 -60,181 -123,341 -179,491 -192,508 -227,928 -132,1340 79,343 248,681 493,1058 373,575 1032,628 1395,625 185,-2 336,-5 515,-71m1439 -2262c-2,131 -10,266 -25,407 -57,544 -153,788 -588,1259"/>
   <path class="fil0 str0" d="M5786 9053c539,275 1490,412 2028,-358 -687,240 -871,287 -1705,-166"/>
   <path class="fil0 str0" d="M5481 5177c738,311 491,2380 -107,2566 -215,67 -482,-31 -528,344 -53,431 320,157 393,137 -96,49 -164,280 -2,292 83,6 292,-72 332,-149 -19,56 -24,130 -26,197 -8,197 464,242 441,-291 -2,-58 256,-697 297,-796 351,-850 355,-1793 -247,-2518 -235,-283 -488,-539 -572,-801 -39,-121 -62,-291 -71,-530"/>
   <path class="fil0 str0" d="M2926 9305c-71,494 -11,1226 239,1841 -1107,0 -1332,961 -773,818"/>
   <path class="fil0 str0" d="M3718 9829c-97,368 -35,959 128,1542"/>
   <path class="fil0 str0" d="M2649 11516c-200,50 -280,258 -268,391 13,153 147,259 460,157"/>
   <path class="fil0 str0" d="M3154 11551c-359,100 -584,658 27,583 114,-14 279,-97 368,-170 133,-109 232,-257 279,-338 33,-57 33,-188 17,-255"/>
   <path class="fil0 str0" d="M4587 9875c-90,618 -22,822 175,1451 -159,53 -285,153 -434,263 -418,308 -358,805 189,548"/>
   <path class="fil0 str0" d="M5635 9224c-215,477 -314,1553 -56,2305"/>
   <path class="fil0 str0" d="M4756 11649c-353,212 -361,838 206,608"/>
   <path class="fil0 str0" d="M5176 11742c-229,123 -417,493 -109,564 246,56 383,-104 507,-513 17,-56 29,-177 4,-263"/>
   <path class="fil0 str0" d="M2913 4175c137,87 274,187 468,181 126,-4 196,-19 294,-94 76,-59 165,-144 203,-210"/>
   <path class="fil0 str0" d="M2363 4114c84,6 220,100 339,203 220,189 585,296 923,224 167,-35 393,-192 617,-394"/>
   <path class="fil0 str0" d="M1960 2310c545,-342 1401,-442 1927,-47 23,17 74,60 100,94"/>
   <path class="fil0 str0" d="M4995 756c-103,-43 -197,-81 -305,-90 5,-95 -1,-156 30,-238 -184,-8 -232,107 -258,150 12,-54 35,-234 20,-335 -168,24 -279,157 -342,306 -47,-117 -81,-348 -79,-504 -63,83 -160,236 -160,529 -141,-121 -394,-332 -476,-476 0,140 59,472 225,529 -41,-8 -575,-157 -876,-97 170,16 436,95 594,222 -92,60 -159,147 -219,245 -168,275 -364,848 -353,1026"/>
   <path class="fil0 str0" d="M3290 1414c-160,75 -254,535 -55,533 65,-1 135,-61 145,-183 4,-52 50,-415 -90,-350z"/>
   <path class="fil0 str0" d="M3131 1687c25,-65 181,-197 258,-128"/>
   <path class="fil0 str0" d="M3897 1839c-50,-509 230,-450 240,-91 10,343 -216,340 -240,91z"/>
   <path class="fil0 str0" d="M3893 1780c26,-71 127,-201 211,-192"/>
   <path class="fil0 str0" d="M3243 870c-338,30 -564,811 -539,1165"/>
   <path class="fil0 str0" d="M1625 3116c29,214 60,241 108,390 77,241 194,537 629,608 1788,292 1974,-472 1985,-539"/>
   <path class="fil0 str0" d="M2804 2896c-427,664 -1027,1024 -1234,5 -25,-123 -62,-222 -62,-309 2,-459 1740,-387 1296,304z"/>
   <path class="fil0 str0" d="M3004 4619c11,899 -826,896 -842,2277 -4,382 163,570 -55,801 -128,136 -290,294 -136,413 78,60 199,64 270,-80 -20,120 -2,259 166,177"/>
   <path class="fil0 str0" d="M4894 867c-26,47 -9,274 14,518 23,243 53,502 52,616 0,183 -129,598 -189,979 -60,384 -51,727 226,738 84,3 348,-55 583,-171 228,-113 430,-282 429,-512 0,-157 -55,-274 -123,-397 -69,-125 -152,-255 -207,-436 -31,-102 -92,-335 -147,-567 -34,-143 -95,-592 -158,-696 -101,-169 -340,-323 -481,-70z"/>
  </g>
 </g>
</svg>
