<?xml version="1.0" encoding="UTF-8"?>
<!DOCTYPE svg PUBLIC "-//W3C//DTD SVG 1.1//EN" "http://www.w3.org/Graphics/SVG/1.1/DTD/svg11.dtd">
<!-- Creator: CorelDRAW X6 -->
<svg xmlns="http://www.w3.org/2000/svg" xml:space="preserve" width="78.3166mm" height="121.444mm" version="1.1" style="shape-rendering:geometricPrecision; text-rendering:geometricPrecision; image-rendering:optimizeQuality; fill-rule:evenodd; clip-rule:evenodd"
viewBox="0 0 7832 12144"
 xmlns:xlink="http://www.w3.org/1999/xlink">
 <defs>
  <style type="text/css">
   <![CDATA[
    .str0 {stroke:black;stroke-width:79.37;stroke-linecap:round;stroke-linejoin:round}
    .fil0 {fill:none}
   ]]>
  </style>
 </defs>
 <g id="lineart">
  <metadata id="CorelCorpID_0Corel-Layer"/>
  <g id="_741976960">
   <path class="fil0 str0" d="M2870 1868c-180,-192 -219,-369 -213,-637 6,-296 55,-495 123,-680 46,-125 95,-266 188,-364 52,-55 122,-105 208,-118 266,-40 474,302 601,498 158,242 282,525 217,799"/>
   <path class="fil0 str0" d="M5330 1723c190,-686 506,-945 870,-1039 197,-51 690,-78 893,-26 241,61 343,220 409,501 70,298 109,481 10,693 -173,371 -532,704 -513,995 5,76 120,206 225,381 114,190 216,431 203,637 -18,282 -343,605 -817,626 -547,24 -682,-365 -843,-630"/>
   <path class="fil0 str0" d="M4284 2033c-76,87 -153,213 -165,336 -30,314 355,434 497,179 168,-302 -92,-788 -332,-515z"/>
   <path class="fil0 str0" d="M4191 2163c215,-64 426,43 363,462"/>
   <path class="fil0 str0" d="M3128 2431c54,-306 -79,-528 -274,-507 -222,23 -463,488 -214,756"/>
   <path class="fil0 str0" d="M2653 2059c222,58 365,164 218,488"/>
   <path class="fil0 str0" d="M2428 2828c13,-209 46,-300 107,-399"/>
   <path class="fil0 str0" d="M2813 1933c239,-301 709,-513 1233,-572 501,-56 1055,31 1336,193"/>
   <path class="fil0 str0" d="M3116 4521c296,257 548,337 914,350 296,10 621,-71 903,-140 471,-116 672,-218 930,-700"/>
   <path class="fil0 str0" d="M5731 4251c483,310 912,615 1180,1141 214,419 231,885 195,1467 -22,361 -528,483 -890,456 -264,-19 -876,-181 -979,-288 -79,-83 -88,-207 -84,-351 6,-230 39,-618 175,-1024 84,-251 215,-506 348,-743"/>
   <path class="fil0 str0" d="M1224 5207c-219,216 -540,542 -591,734 -86,328 288,647 583,757"/>
   <path class="fil0 str0" d="M635 6105c127,-50 239,-58 267,4 36,81 21,150 -92,318 93,-78 200,-146 308,-73 25,17 44,33 58,50m20 175c-9,29 -22,60 -36,94"/>
   <path class="fil0 str0" d="M5266 7051c259,-320 701,-204 620,209 87,-154 442,-358 590,50 -1,-214 391,-535 521,-203"/>
   <path class="fil0 str0" d="M6385 7317c-9,715 -232,1208 -589,1539m-1029 505c-285,65 -594,95 -912,101 -1050,18 -1579,-464 -1926,-1776"/>
   <path class="fil0 str0" d="M6280 8068c84,38 198,140 555,25 218,-70 372,-91 509,-95 185,-4 293,85 357,150 127,127 96,208 4,221 -54,8 -141,-13 -215,-102 -237,-284 -836,166 -1245,-104"/>
   <path class="fil0 str0" d="M2121 4416c-178,-141 -586,-200 -727,-34"/>
   <path class="fil0 str0" d="M1724 5249c-63,-99 -396,-159 -501,-35"/>
   <path class="fil0 str0" d="M1676 6162c-63,44 -435,22 -511,-90"/>
   <path class="fil0 str0" d="M1236 6787c63,77 370,119 506,53"/>
   <path class="fil0 str0" d="M1583 7458c108,66 277,-36 291,-92"/>
   <path class="fil0 str0" d="M2394 7760c110,-51 129,-191 150,-276"/>
   <path class="fil0 str0" d="M1982 3273c213,-50 438,220 602,446"/>
   <path class="fil0 str0" d="M2373 2870c180,-97 742,89 859,275"/>
   <path class="fil0 str0" d="M3856 9461c-6,-2 77,953 77,1128 0,108 -13,1210 -35,1236 -255,264 -1103,223 -1465,16 -110,-63 -104,-93 -106,-245 -16,-981 -102,-1894 16,-2879"/>
   <path class="fil0 str0" d="M5904 8746c206,317 136,2551 136,3092 -89,320 -1617,382 -1717,-28 -100,-392 -64,-2023 35,-2380"/>
   <path class="fil0 str0" d="M2329 11575c174,42 218,96 275,340 79,-153 342,-330 407,83 94,-282 354,-227 436,-2"/>
   <path class="fil0 str0" d="M4299 11677c174,42 184,83 241,327 79,-153 340,-329 405,84 94,-282 341,-225 423,1"/>
   <path class="fil0 str0" d="M3375 2329c-159,63 -485,190 -734,351 -146,95 -280,195 -401,302 -130,116 -236,263 -340,400 -199,262 -363,545 -480,917 -168,534 -234,1079 -253,1639 -14,433 24,853 187,1185 107,218 266,430 521,542 247,108 648,109 894,87 182,231 383,174 480,18 73,-117 59,-314 14,-440 -7,-20 -35,-96 -35,-116 -1,-58 65,-101 134,-148 55,-38 95,-99 105,-200 8,-88 -30,-185 -165,-188 -107,-2 -261,116 -362,323 -274,0 -521,-63 -644,-199 -117,-130 -118,-351 -126,-525 -22,-448 6,-759 474,-1312 202,-238 533,-529 1032,-814 63,-36 169,-21 291,-26 166,-6 352,-94 485,-336"/>
   <path class="fil0 str0" d="M3664 4157c155,50 308,27 409,-49"/>
   <path class="fil0 str0" d="M3491 4260c172,65 582,123 875,-116"/>
  </g>
 </g>
</svg>
