<?xml version="1.0" encoding="UTF-8" standalone="no"?>
<!-- Creator: CorelDRAW X6 -->

<svg
   xmlns:dc="http://purl.org/dc/elements/1.1/"
   xmlns:cc="http://creativecommons.org/ns#"
   xmlns:rdf="http://www.w3.org/1999/02/22-rdf-syntax-ns#"
   xmlns:svg="http://www.w3.org/2000/svg"
   xmlns="http://www.w3.org/2000/svg"
   xmlns:sodipodi="http://sodipodi.sourceforge.net/DTD/sodipodi-0.dtd"
   xmlns:inkscape="http://www.inkscape.org/namespaces/inkscape"
   xml:space="preserve"
   width="256.70001"
   height="429.14001"
   version="1.1"
   style="fill-rule:evenodd"
   viewBox="0 0 12766.787 21343.411"
   id="svg3869"
   inkscape:version="0.48.2 r9819"
   sodipodi:docname="elephant-front.svg"><metadata
   id="metadata3937"><rdf:RDF><cc:Work
       rdf:about=""><dc:format>image/svg+xml</dc:format><dc:type
         rdf:resource="http://purl.org/dc/dcmitype/StillImage" /></cc:Work></rdf:RDF></metadata><sodipodi:namedview
   pagecolor="#ffffff"
   bordercolor="#666666"
   borderopacity="1"
   objecttolerance="10"
   gridtolerance="10"
   guidetolerance="10"
   inkscape:pageopacity="0"
   inkscape:pageshadow="2"
   inkscape:window-width="640"
   inkscape:window-height="480"
   id="namedview3935"
   showgrid="false"
   inkscape:zoom="0.57231132"
   inkscape:cx="113.25189"
   inkscape:cy="206.18149"
   inkscape:window-x="907"
   inkscape:window-y="286"
   inkscape:window-maximized="0"
   inkscape:current-layer="svg3869" />
 <defs
   id="defs3871">
  <style
   type="text/css"
   id="style3873">
   
    .str0 {stroke:black;stroke-width:139.873;stroke-linecap:round;stroke-linejoin:round}
    .fil0 {fill:none}
   
  </style>
 </defs>
 <g
   id="lineart"
   transform="translate(751.16524,834.41047)">
  <metadata
   id="CorelCorpID_0Corel-Layer" />
  <path
   class="fil0 str0"
   d="m 7035,15759 c -353,75 -740,118 -1161,130 -280,8 -545,6 -794,-9 m -2005,-775 c -5,-5 -9,-10 -14,-15 -679,-727 -1107,-1926 -1254,-3089 m 8060,-114 c -26,892 -201,1669 -543,2297 -94,172 -200,330 -320,475"
   id="path3877"
   inkscape:connector-curvature="0"
   style="fill:none;stroke:#000000;stroke-width:139.8730011;stroke-linecap:round;stroke-linejoin:round" />
  <path
   class="fil0 str0"
   d="m 9146,14487 c 365,563 242,4530 242,5491 -158,569 -2872,678 -3049,-50 -166,-647 -120,-3206 28,-4070"
   id="path3879"
   inkscape:connector-curvature="0"
   style="fill:none;stroke:#000000;stroke-width:139.8730011;stroke-linecap:round;stroke-linejoin:round" />
  <path
   class="fil0 str0"
   d="m 5649,15893 c 5,97 12,206 20,303 39,496 124,1490 124,1719 0,191 -23,2149 -66,2195 -476,470 -2058,396 -2733,28 -205,-112 -194,-165 -198,-436 -30,-1683 -180,-3252 8,-4935"
   id="path3881"
   inkscape:connector-curvature="0"
   style="fill:none;stroke:#000000;stroke-width:139.8730011;stroke-linecap:round;stroke-linejoin:round" />
  <path
   class="fil0 str0"
   d="M 7618,1906 C 7924,834 8400,396 8943,213 9256,108 10040,23 10362,99 c 383,91 545,365 650,859 112,524 173,847 16,1231 -275,672 -845,1291 -815,1806 8,135 191,356 358,660 181,329 344,749 323,1117 -29,502 -546,1101 -1299,1174 -582,56 -871,-231 -1075,-564"
   id="path3883"
   inkscape:connector-curvature="0"
   style="fill:none;stroke:#000000;stroke-width:139.8730011;stroke-linecap:round;stroke-linejoin:round" />
  <path
   class="fil0 str0"
   d="M 3376,2096 C 3070,1105 2608,691 2084,515 1771,410 987,325 665,401 -43,569 -17,1887 218,2444 c 280,663 892,1241 844,1736 -15,158 -295,472 -445,790 -162,344 -290,784 -265,1166 32,492 476,1081 1184,1141 740,63 965,-498 1166,-952"
   id="path3885"
   inkscape:connector-curvature="0"
   style="fill:none;stroke:#000000;stroke-width:139.8730011;stroke-linecap:round;stroke-linejoin:round" />
  <path
   class="fil0 str0"
   d="m 3062,20174 c 212,-340 716,-293 749,213 187,-373 684,-437 804,50 142,-566 555,-480 795,-137"
   id="path3887"
   inkscape:connector-curvature="0"
   style="fill:none;stroke:#000000;stroke-width:139.8730011;stroke-linecap:round;stroke-linejoin:round" />
  <path
   class="fil0 str0"
   d="m 6587,20209 c 381,-548 799,-153 778,208 297,-688 794,-469 932,0 11,-731 607,-606 870,-216"
   id="path3889"
   inkscape:connector-curvature="0"
   style="fill:none;stroke:#000000;stroke-width:139.8730011;stroke-linecap:round;stroke-linejoin:round" />
  <path
   class="fil0 str0"
   d="M 3101,6824 C 1239,7870 268,9037 322,10819 c 14,464 22,749 242,923 352,278 1751,324 2126,191 273,-97 406,-310 476,-577"
   id="path3891"
   inkscape:connector-curvature="0"
   style="fill:none;stroke:#000000;stroke-width:139.8730011;stroke-linecap:round;stroke-linejoin:round" />
  <path
   class="fil0 str0"
   d="m 3328,7031 c -28,-23 -50,-41 -77,-65 -676,-595 -1059,-1470 -1059,-2395 0,-1713 1050,-3059 3407,-3075 2357,-16 3359,1113 3359,3178 0,1791 -1015,2705 -2622,2978 -262,44 -522,65 -787,86"
   id="path3893"
   inkscape:connector-curvature="0"
   style="fill:none;stroke:#000000;stroke-width:139.8730011;stroke-linecap:round;stroke-linejoin:round" />
  <path
   class="fil0 str0"
   d="m 8339,6630 c 1510,752 2297,1563 2638,2936 146,590 219,1196 218,1591 -1,490 -502,664 -1091,718 -260,24 -1871,76 -1876,-603 -5,-648 -98,-1864 316,-2804"
   id="path3895"
   inkscape:connector-curvature="0"
   style="fill:none;stroke:#000000;stroke-width:139.8730011;stroke-linecap:round;stroke-linejoin:round" />
  <path
   class="fil0 str0"
   d="m 648,11793 c 251,-483 654,-343 675,169 317,-712 709,-214 749,41 47,-249 323,-590 674,-93"
   id="path3897"
   inkscape:connector-curvature="0"
   style="fill:none;stroke:#000000;stroke-width:139.8730011;stroke-linecap:round;stroke-linejoin:round" />
  <path
   class="fil0 str0"
   d="m 8511,11670 c 280,-543 755,-498 884,204 110,-559 649,-608 844,-13 -28,-635 450,-622 756,-266"
   id="path3899"
   inkscape:connector-curvature="0"
   style="fill:none;stroke:#000000;stroke-width:139.8730011;stroke-linecap:round;stroke-linejoin:round" />
  <path
   class="fil0 str0"
   d="m 4262,4837 c 685,-721 1581,-652 1944,-322"
   id="path3901"
   inkscape:connector-curvature="0"
   style="fill:none;stroke:#000000;stroke-width:139.8730011;stroke-linecap:round;stroke-linejoin:round" />
  <path
   class="fil0 str0"
   d="m 3745,5675 c 736,-553 1735,-176 1892,-73"
   id="path3903"
   inkscape:connector-curvature="0"
   style="fill:none;stroke:#000000;stroke-width:139.8730011;stroke-linecap:round;stroke-linejoin:round" />
  <path
   class="fil0 str0"
   d="m 3334,7002 c 620,-391 1396,-321 1763,-41"
   id="path3905"
   inkscape:connector-curvature="0"
   style="fill:none;stroke:#000000;stroke-width:139.8730011;stroke-linecap:round;stroke-linejoin:round" />
  <path
   class="fil0 str0"
   d="m 3143,8143 c 420,-196 1201,-42 1369,196"
   id="path3907"
   inkscape:connector-curvature="0"
   style="fill:none;stroke:#000000;stroke-width:139.8730011;stroke-linecap:round;stroke-linejoin:round" />
  <path
   class="fil0 str0"
   d="m 3048,9605 c 341,-141 825,-104 1094,109"
   id="path3909"
   inkscape:connector-curvature="0"
   style="fill:none;stroke:#000000;stroke-width:139.8730011;stroke-linecap:round;stroke-linejoin:round" />
  <path
   class="fil0 str0"
   d="m 3139,11063 c 306,-139 623,-112 928,-25"
   id="path3911"
   inkscape:connector-curvature="0"
   style="fill:none;stroke:#000000;stroke-width:139.8730011;stroke-linecap:round;stroke-linejoin:round" />
  <path
   class="fil0 str0"
   d="m 3770,12983 c 367,2 588,-47 802,-306"
   id="path3913"
   inkscape:connector-curvature="0"
   style="fill:none;stroke:#000000;stroke-width:139.8730011;stroke-linecap:round;stroke-linejoin:round" />
  <path
   class="fil0 str0"
   d="m 4718,13618 c 200,-108 359,-236 416,-495"
   id="path3915"
   inkscape:connector-curvature="0"
   style="fill:none;stroke:#000000;stroke-width:139.8730011;stroke-linecap:round;stroke-linejoin:round" />
  <path
   class="fil0 str0"
   d="m 6018,13640 c 70,-123 84,-207 78,-363"
   id="path3917"
   inkscape:connector-curvature="0"
   style="fill:none;stroke:#000000;stroke-width:139.8730011;stroke-linecap:round;stroke-linejoin:round" />
  <path
   class="fil0 str0"
   d="m 3363,12212 c 360,-14 557,4 822,-222"
   id="path3919"
   inkscape:connector-curvature="0"
   style="fill:none;stroke:#000000;stroke-width:139.8730011;stroke-linecap:round;stroke-linejoin:round" />
  <path
   class="fil0 str0"
   d="m 4139,3064 c -235,64 -550,459 -515,819 20,212 119,487 545,474 256,-7 427,-371 411,-713 -15,-334 -212,-643 -440,-581 z"
   id="path3921"
   inkscape:connector-curvature="0"
   style="fill:none;stroke:#000000;stroke-width:139.8730011;stroke-linecap:round;stroke-linejoin:round" />
  <path
   class="fil0 str0"
   d="m 6487,3904 c -20,-269 -66,-586 209,-769 220,-146 445,-67 600,281 87,195 126,422 53,606 -169,429 -817,483 -862,-118 z"
   id="path3923"
   inkscape:connector-curvature="0"
   style="fill:none;stroke:#000000;stroke-width:139.8730011;stroke-linecap:round;stroke-linejoin:round" />
  <path
   class="fil0 str0"
   d="m 3722,4176 c -138,-363 75,-665 340,-753 467,-156 524,491 357,790"
   id="path3925"
   inkscape:connector-curvature="0"
   style="fill:none;stroke:#000000;stroke-width:139.8730011;stroke-linecap:round;stroke-linejoin:round" />
  <path
   class="fil0 str0"
   d="m 6579,4190 c -62,-72 -182,-786 269,-778 370,6 511,420 454,701"
   id="path3927"
   inkscape:connector-curvature="0"
   style="fill:none;stroke:#000000;stroke-width:139.8730011;stroke-linecap:round;stroke-linejoin:round" />
  <path
   class="fil0 str0"
   d="m 5763,7013 c 342,-27 767,-171 953,-506"
   id="path3929"
   inkscape:connector-curvature="0"
   style="fill:none;stroke:#000000;stroke-width:139.8730011;stroke-linecap:round;stroke-linejoin:round" />
  <path
   class="fil0 str0"
   d="m 4262,4837 c -1074,1129 -1543,4939 -965,7153 492,1883 1986,1941 3565,1459 24,31 53,67 84,86 240,143 672,139 757,-185 48,-185 -86,-409 -374,-759 -98,-119 405,-268 226,-637 -192,-394 -779,-16 -923,564 -1118,96 -1423,-810 -1460,-1622 -42,-923 239,-2817 516,-3683 200,-623 713,-1259 913,-1756"
   id="path3931"
   inkscape:connector-curvature="0"
   style="fill:none;stroke:#000000;stroke-width:139.8730011;stroke-linecap:round;stroke-linejoin:round" />
  <path
   class="fil0 str0"
   d="m 9676,13287 c 64,-6 119,-9 183,-10 329,-8 520,151 634,266 225,226 171,370 7,393 -96,13 -250,-23 -381,-181 -128,-154 -308,-187 -523,-172"
   id="path3933"
   inkscape:connector-curvature="0"
   style="fill:none;stroke:#000000;stroke-width:139.8730011;stroke-linecap:round;stroke-linejoin:round" />
 </g>
</svg>