<?xml version="1.0" encoding="UTF-8" standalone="no"?>
<!-- Creator: CorelDRAW X6 -->

<svg
   xmlns:dc="http://purl.org/dc/elements/1.1/"
   xmlns:cc="http://creativecommons.org/ns#"
   xmlns:rdf="http://www.w3.org/1999/02/22-rdf-syntax-ns#"
   xmlns:svg="http://www.w3.org/2000/svg"
   xmlns="http://www.w3.org/2000/svg"
   xmlns:sodipodi="http://sodipodi.sourceforge.net/DTD/sodipodi-0.dtd"
   xmlns:inkscape="http://www.inkscape.org/namespaces/inkscape"
   xml:space="preserve"
   width="72.4472mm"
   height="121.113mm"
   version="1.1"
   style="shape-rendering:geometricPrecision; text-rendering:geometricPrecision; image-rendering:optimizeQuality; fill-rule:evenodd; clip-rule:evenodd"
   viewBox="0 0 7245 12111"
   id="svg3250"
   inkscape:version="0.48.2 r9819"
   sodipodi:docname="elephant-l.svg"><metadata
   id="metadata3321"><rdf:RDF><cc:Work
       rdf:about=""><dc:format>image/svg+xml</dc:format><dc:type
         rdf:resource="http://purl.org/dc/dcmitype/StillImage" /><dc:title></dc:title></cc:Work></rdf:RDF></metadata><sodipodi:namedview
   pagecolor="#ffffff"
   bordercolor="#666666"
   borderopacity="1"
   objecttolerance="10"
   gridtolerance="10"
   guidetolerance="10"
   inkscape:pageopacity="0"
   inkscape:pageshadow="2"
   inkscape:window-width="640"
   inkscape:window-height="480"
   id="namedview3319"
   showgrid="false"
   inkscape:zoom="0.5499364"
   inkscape:cx="128.35133"
   inkscape:cy="214.57027"
   inkscape:window-x="0"
   inkscape:window-y="0"
   inkscape:window-maximized="0"
   inkscape:current-layer="svg3250" />
 <defs
   id="defs3252">
  <style
   type="text/css"
   id="style3254">
   
    .str0 {stroke:black;stroke-width:79.3704;stroke-linecap:round;stroke-linejoin:round}
    .fil0 {fill:none}
   
  </style>
 </defs>
 <g
   id="lineart"
   transform="matrix(-1,0,0,1,7243.8946,0)">
  <metadata
   id="CorelCorpID_0Corel-Layer" />
  <g
   id="_749195504">
   <path
   class="fil0 str0"
   d="m 2289,1842 c -180,-192 -219,-369 -213,-637 6,-296 55,-495 123,-680 46,-125 95,-266 188,-364 52,-55 122,-105 208,-118 266,-40 474,302 601,498 158,242 282,525 217,799"
   id="path3259"
   inkscape:connector-curvature="0"
   style="fill:none;stroke:#000000;stroke-width:79.37039948;stroke-linecap:round;stroke-linejoin:round" />
   <path
   class="fil0 str0"
   d="m 4749,1697 c 190,-686 506,-945 870,-1039 197,-51 690,-78 893,-26 241,61 343,220 409,501 70,298 109,481 10,693 -173,371 -532,704 -513,995 5,76 120,206 225,381 114,190 216,431 203,637 -18,282 -343,605 -817,626 -547,24 -682,-365 -843,-630"
   id="path3261"
   inkscape:connector-curvature="0"
   style="fill:none;stroke:#000000;stroke-width:79.37039948;stroke-linecap:round;stroke-linejoin:round" />
   <path
   class="fil0 str0"
   d="m 3703,2007 c -76,87 -153,213 -165,336 -30,314 355,434 497,179 168,-302 -92,-788 -332,-515 z"
   id="path3263"
   inkscape:connector-curvature="0"
   style="fill:none;stroke:#000000;stroke-width:79.37039948;stroke-linecap:round;stroke-linejoin:round" />
   <path
   class="fil0 str0"
   d="m 3610,2137 c 215,-64 426,43 363,462"
   id="path3265"
   inkscape:connector-curvature="0"
   style="fill:none;stroke:#000000;stroke-width:79.37039948;stroke-linecap:round;stroke-linejoin:round" />
   <path
   class="fil0 str0"
   d="m 2547,2405 c 54,-306 -79,-528 -274,-507 -222,23 -463,488 -214,756"
   id="path3267"
   inkscape:connector-curvature="0"
   style="fill:none;stroke:#000000;stroke-width:79.37039948;stroke-linecap:round;stroke-linejoin:round" />
   <path
   class="fil0 str0"
   d="m 2072,2034 c 222,58 365,164 218,488"
   id="path3269"
   inkscape:connector-curvature="0"
   style="fill:none;stroke:#000000;stroke-width:79.37039948;stroke-linecap:round;stroke-linejoin:round" />
   <path
   class="fil0 str0"
   d="m 1847,2802 c 13,-209 46,-300 107,-399"
   id="path3271"
   inkscape:connector-curvature="0"
   style="fill:none;stroke:#000000;stroke-width:79.37039948;stroke-linecap:round;stroke-linejoin:round" />
   <path
   class="fil0 str0"
   d="m 2232,1907 c 239,-301 709,-513 1233,-572 501,-56 1055,31 1336,193"
   id="path3273"
   inkscape:connector-curvature="0"
   style="fill:none;stroke:#000000;stroke-width:79.37039948;stroke-linecap:round;stroke-linejoin:round" />
   <path
   class="fil0 str0"
   d="m 2535,4495 c 296,257 548,337 914,350 296,10 621,-71 903,-140 471,-116 672,-218 930,-700"
   id="path3275"
   inkscape:connector-curvature="0"
   style="fill:none;stroke:#000000;stroke-width:79.37039948;stroke-linecap:round;stroke-linejoin:round" />
   <path
   class="fil0 str0"
   d="m 2855,4269 c 130,123 273,157 406,164 269,14 481,-179 515,-269"
   id="path3277"
   inkscape:connector-curvature="0"
   style="fill:none;stroke:#000000;stroke-width:79.37039948;stroke-linecap:round;stroke-linejoin:round" />
   <path
   class="fil0 str0"
   d="m 3042,4155 c 200,288 494,85 478,-80"
   id="path3279"
   inkscape:connector-curvature="0"
   style="fill:none;stroke:#000000;stroke-width:79.37039948;stroke-linecap:round;stroke-linejoin:round" />
   <path
   class="fil0 str0"
   d="m 5150,4225 c 483,310 912,615 1180,1141 214,419 231,885 195,1467 -22,361 -528,483 -890,456 -264,-19 -876,-181 -979,-288 -79,-83 -88,-207 -84,-351 6,-230 39,-618 175,-1024 84,-251 215,-506 348,-743"
   id="path3281"
   inkscape:connector-curvature="0"
   style="fill:none;stroke:#000000;stroke-width:79.37039948;stroke-linecap:round;stroke-linejoin:round" />
   <path
   class="fil0 str0"
   d="m 643,5181 c -219,216 -540,542 -591,734 -86,328 288,647 583,757"
   id="path3283"
   inkscape:connector-curvature="0"
   style="fill:none;stroke:#000000;stroke-width:79.37039948;stroke-linecap:round;stroke-linejoin:round" />
   <path
   class="fil0 str0"
   d="m 54,6079 c 127,-50 239,-58 267,4 36,81 21,150 -92,318 93,-78 200,-146 308,-73 25,17 44,33 58,50 m 20,175 c -9,29 -22,60 -36,94"
   id="path3285"
   inkscape:connector-curvature="0"
   style="fill:none;stroke:#000000;stroke-width:79.37039948;stroke-linecap:round;stroke-linejoin:round" />
   <path
   class="fil0 str0"
   d="m 4685,7025 c 259,-320 701,-204 620,209 87,-154 442,-358 590,50 -1,-214 391,-535 521,-203"
   id="path3287"
   inkscape:connector-curvature="0"
   style="fill:none;stroke:#000000;stroke-width:79.37039948;stroke-linecap:round;stroke-linejoin:round" />
   <path
   class="fil0 str0"
   d="m 5804,7291 c -9,715 -232,1208 -589,1539 m -1029,505 c -285,65 -594,95 -912,101 -1050,18 -1579,-464 -1926,-1776"
   id="path3289"
   inkscape:connector-curvature="0"
   style="fill:none;stroke:#000000;stroke-width:79.37039948;stroke-linecap:round;stroke-linejoin:round" />
   <path
   class="fil0 str0"
   d="m 5699,8042 c 84,38 198,140 555,25 218,-70 372,-91 509,-95 185,-4 293,85 357,150 127,127 96,208 4,221 -54,8 -141,-13 -215,-102 -237,-284 -836,166 -1245,-104"
   id="path3291"
   inkscape:connector-curvature="0"
   style="fill:none;stroke:#000000;stroke-width:79.37039948;stroke-linecap:round;stroke-linejoin:round" />
   <path
   class="fil0 str0"
   d="M 1540,4390 C 1362,4249 954,4190 813,4356"
   id="path3293"
   inkscape:connector-curvature="0"
   style="fill:none;stroke:#000000;stroke-width:79.37039948;stroke-linecap:round;stroke-linejoin:round" />
   <path
   class="fil0 str0"
   d="m 1143,5223 c -63,-99 -396,-159 -501,-35"
   id="path3295"
   inkscape:connector-curvature="0"
   style="fill:none;stroke:#000000;stroke-width:79.37039948;stroke-linecap:round;stroke-linejoin:round" />
   <path
   class="fil0 str0"
   d="m 1095,6136 c -63,44 -435,22 -511,-90"
   id="path3297"
   inkscape:connector-curvature="0"
   style="fill:none;stroke:#000000;stroke-width:79.37039948;stroke-linecap:round;stroke-linejoin:round" />
   <path
   class="fil0 str0"
   d="m 655,6762 c 63,77 370,119 506,53"
   id="path3299"
   inkscape:connector-curvature="0"
   style="fill:none;stroke:#000000;stroke-width:79.37039948;stroke-linecap:round;stroke-linejoin:round" />
   <path
   class="fil0 str0"
   d="m 1002,7432 c 108,66 277,-36 291,-92"
   id="path3301"
   inkscape:connector-curvature="0"
   style="fill:none;stroke:#000000;stroke-width:79.37039948;stroke-linecap:round;stroke-linejoin:round" />
   <path
   class="fil0 str0"
   d="m 1813,7734 c 110,-51 129,-191 150,-276"
   id="path3303"
   inkscape:connector-curvature="0"
   style="fill:none;stroke:#000000;stroke-width:79.37039948;stroke-linecap:round;stroke-linejoin:round" />
   <path
   class="fil0 str0"
   d="m 1401,3247 c 213,-50 438,220 602,446"
   id="path3305"
   inkscape:connector-curvature="0"
   style="fill:none;stroke:#000000;stroke-width:79.37039948;stroke-linecap:round;stroke-linejoin:round" />
   <path
   class="fil0 str0"
   d="m 1792,2844 c 180,-97 742,89 859,275"
   id="path3307"
   inkscape:connector-curvature="0"
   style="fill:none;stroke:#000000;stroke-width:79.37039948;stroke-linecap:round;stroke-linejoin:round" />
   <path
   class="fil0 str0"
   d="m 3275,9435 c -6,-2 77,953 77,1128 0,108 -13,1210 -35,1236 -255,264 -1103,223 -1465,16 -110,-63 -104,-93 -106,-245 -16,-981 -102,-1894 16,-2879"
   id="path3309"
   inkscape:connector-curvature="0"
   style="fill:none;stroke:#000000;stroke-width:79.37039948;stroke-linecap:round;stroke-linejoin:round" />
   <path
   class="fil0 str0"
   d="m 5323,8720 c 206,317 136,2551 136,3092 -89,320 -1617,382 -1717,-28 -100,-392 -64,-2023 35,-2380"
   id="path3311"
   inkscape:connector-curvature="0"
   style="fill:none;stroke:#000000;stroke-width:79.37039948;stroke-linecap:round;stroke-linejoin:round" />
   <path
   class="fil0 str0"
   d="m 1748,11550 c 174,42 218,96 275,340 79,-153 342,-330 407,83 94,-282 354,-227 436,-2"
   id="path3313"
   inkscape:connector-curvature="0"
   style="fill:none;stroke:#000000;stroke-width:79.37039948;stroke-linecap:round;stroke-linejoin:round" />
   <path
   class="fil0 str0"
   d="m 3718,11651 c 174,42 184,83 241,327 79,-153 340,-329 405,84 94,-282 341,-225 423,1"
   id="path3315"
   inkscape:connector-curvature="0"
   style="fill:none;stroke:#000000;stroke-width:79.37039948;stroke-linecap:round;stroke-linejoin:round" />
   <path
   class="fil0 str0"
   d="m 2794,2303 c -159,63 -485,190 -734,351 -146,95 -280,195 -401,302 -130,116 -236,263 -340,400 -199,262 -363,545 -480,917 -168,534 -234,1079 -253,1639 -14,433 24,853 187,1185 107,218 266,430 521,542 247,108 648,109 894,87 182,231 383,174 480,18 73,-117 59,-314 14,-440 -7,-20 -35,-96 -35,-116 -1,-58 65,-101 134,-148 55,-38 95,-99 105,-200 8,-88 -30,-185 -165,-188 -107,-2 -261,116 -362,323 -274,0 -521,-63 -644,-199 -117,-130 -118,-351 -126,-525 -22,-448 6,-759 474,-1312 202,-238 533,-529 1032,-814 63,-36 169,-21 291,-26 166,-6 352,-94 485,-336"
   id="path3317"
   inkscape:connector-curvature="0"
   style="fill:none;stroke:#000000;stroke-width:79.37039948;stroke-linecap:round;stroke-linejoin:round" />
  </g>
 </g>
</svg>