<?xml version="1.0" encoding="UTF-8"?>
<!DOCTYPE svg PUBLIC "-//W3C//DTD SVG 1.1//EN" "http://www.w3.org/Graphics/SVG/1.1/DTD/svg11.dtd">
<!-- Creator: CorelDRAW X6 -->
<svg xmlns="http://www.w3.org/2000/svg" xml:space="preserve" width="78.3166mm" height="121.444mm" version="1.1" style="shape-rendering:geometricPrecision; text-rendering:geometricPrecision; image-rendering:optimizeQuality; fill-rule:evenodd; clip-rule:evenodd"
viewBox="0 0 7832 12144"
 xmlns:xlink="http://www.w3.org/1999/xlink">
 <defs>
  <style type="text/css">
   <![CDATA[
    .str0 {stroke:black;stroke-width:79.37;stroke-linecap:round;stroke-linejoin:round}
    .fil0 {fill:none}
   ]]>
  </style>
 </defs>
 <g id="Layer_x0020_1">
  <metadata id="CorelCorpID_0Corel-Layer"/>
  <g id="_750044528">
   <path class="fil0 str0" d="M2749 1920c-184,-189 -225,-366 -224,-634 1,-296 46,-496 111,-682 44,-126 90,-267 181,-367 51,-56 121,-107 206,-122 265,-45 479,294 610,487 162,239 291,520 231,795"/>
   <path class="fil0 str0" d="M5207 1732c178,-689 490,-954 852,-1054 196,-54 689,-90 892,-42 242,57 346,214 418,494 76,297 117,479 22,693 -167,374 -520,713 -495,1004 6,76 124,204 232,377 117,188 224,427 214,634 -13,282 -333,611 -806,640 -546,34 -688,-354 -854,-615"/>
   <path class="fil0 str0" d="M4167 2060c-75,88 -150,216 -159,339 -25,315 362,428 500,170 163,-305 -105,-787 -340,-509z"/>
   <path class="fil0 str0" d="M4075 2192c214,-67 426,35 371,456"/>
   <path class="fil0 str0" d="M3018 2478c49,-307 -88,-526 -283,-502 -221,27 -455,495 -201,759"/>
   <path class="fil0 str0" d="M2536 2115c223,54 368,158 226,484"/>
   <path class="fil0 str0" d="M2325 2887c9,-209 41,-301 100,-400"/>
   <path class="fil0 str0" d="M2694 1986c234,-305 700,-525 1223,-593 500,-65 1056,13 1339,170"/>
   <path class="fil0 str0" d="M3042 4568c18,15 36,30 54,43m2225 -34c180,-104 311,-258 459,-547"/>
   <path class="fil0 str0" d="M1162 5287c-215,220 -531,551 -578,744 -81,330 299,642 596,747"/>
   <path class="fil0 str0" d="M589 6195c126,-52 238,-62 267,-1 37,80 24,149 -86,320 91,-80 197,-149 307,-78 25,16 45,33 59,49m23 175c-9,29 -21,60 -35,95"/>
   <path class="fil0 str0" d="M6281 5720c226,932 265,2452 -485,3135m-1020 523c-284,70 -592,105 -910,116 -1050,36 -1587,-437 -1957,-1743"/>
   <path class="fil0 str0" d="M6271 8062c85,38 202,132 551,13 217,-74 371,-98 507,-103 185,-7 294,80 360,144 129,125 100,207 8,221 -54,8 -141,-11 -216,-98 -240,-279 -829,176 -1242,-79"/>
   <path class="fil0 str0" d="M3855 9495c11,174 75,938 75,1092 0,108 -13,1210 -35,1236 -255,264 -1103,223 -1465,16 -110,-63 -104,-93 -106,-245 -16,-963 -99,-1861 10,-2825"/>
   <path class="fil0 str0" d="M5903 8746c204,324 135,2550 135,3090 -89,320 -1617,382 -1717,-28 -98,-382 -65,-1942 28,-2351"/>
   <path class="fil0 str0" d="M2328 11574c174,42 218,96 275,340 79,-153 342,-330 407,83 94,-282 354,-227 436,-2"/>
   <path class="fil0 str0" d="M4298 11675c174,42 184,83 241,327 79,-153 340,-329 405,84 94,-282 341,-225 423,1"/>
   <g>
    <path class="fil0 str0" d="M2045 4480c-181,-138 -589,-190 -728,-22"/>
    <path class="fil0 str0" d="M1663 5320c-64,-98 -398,-152 -502,-26"/>
    <path class="fil0 str0" d="M1630 6234c-62,45 -434,30 -512,-82"/>
    <path class="fil0 str0" d="M1201 6867c64,76 372,113 507,45"/>
    <path class="fil0 str0" d="M1559 7531c109,64 276,-40 290,-97"/>
    <path class="fil0 str0" d="M2376 7819c109,-53 126,-194 145,-279"/>
    <path class="fil0 str0" d="M1886 3340c212,-54 442,212 610,436"/>
    <path class="fil0 str0" d="M2270 2930c179,-100 744,76 864,260"/>
    <path class="fil0 str0" d="M3262 2372c-158,66 -482,198 -728,364 -145,97 -276,199 -396,309 -128,118 -231,267 -333,405 -194,265 -353,552 -464,925 -159,537 -216,1083 -224,1643 -7,433 39,853 207,1181 111,217 274,426 530,533 249,104 649,98 896,72 186,228 386,167 481,9 71,-119 54,-315 6,-440 -7,-20 -37,-96 -37,-115 -2,-58 63,-102 131,-150 54,-39 94,-100 101,-202 7,-88 -33,-184 -168,-185 -107,0 -259,121 -357,329 -274,4 -523,-54 -647,-188 -119,-128 -124,-349 -135,-523 -29,-448 -7,-759 451,-1320 126,-155 305,-331 547,-515"/>
   </g>
   <path class="fil0 str0" d="M4314 3498c54,408 -336,649 -579,305 81,198 8,621 -443,393 156,147 124,655 -206,520"/>
   <path class="fil0 str0" d="M5651 4253c734,533 847,1199 561,1581 -536,717 -1610,651 -3027,-871 -246,-265 14,-715 283,-959 196,-178 735,-510 883,-511 115,0 210,79 312,181 163,163 421,455 621,833 82,155 139,315 203,479"/>
  </g>
 </g>
</svg>
