<?xml version="1.0" encoding="UTF-8"?>
<!DOCTYPE svg PUBLIC "-//W3C//DTD SVG 1.1//EN" "http://www.w3.org/Graphics/SVG/1.1/DTD/svg11.dtd">
<!-- Creator: CorelDRAW X6 -->
<svg xmlns="http://www.w3.org/2000/svg" xml:space="preserve" width="72.4472mm" height="121.113mm" version="1.1" style="shape-rendering:geometricPrecision; text-rendering:geometricPrecision; image-rendering:optimizeQuality; fill-rule:evenodd; clip-rule:evenodd"
viewBox="0 0 2604 4353"
 xmlns:xlink="http://www.w3.org/1999/xlink">
 <defs>
  <style type="text/css">
   <![CDATA[
    .str0 {stroke:black;stroke-width:28.5277;stroke-linecap:round;stroke-linejoin:round}
    .fil0 {fill:none}
   ]]>
  </style>
 </defs>
 <g id="lineart">
  <metadata id="CorelCorpID_0Corel-Layer"/>
  <g id="_67892240">
   <path class="fil0 str0" d="M823 662c-65,-69 -79,-133 -77,-229 2,-106 20,-178 44,-245 17,-45 34,-96 67,-131 19,-20 44,-38 75,-42 96,-15 170,109 216,179 57,87 102,189 78,287"/>
   <path class="fil0 str0" d="M1707 610c68,-247 182,-340 313,-374 71,-18 248,-28 321,-9 87,22 123,79 147,180 25,107 39,173 4,249 -62,133 -191,253 -184,358 2,27 43,74 81,137 41,68 78,155 73,229 -7,101 -123,218 -294,225 -197,9 -245,-131 -303,-226"/>
   <path class="fil0 str0" d="M1331 721c-27,31 -55,77 -59,121 -11,113 127,156 179,64 60,-108 -33,-283 -119,-185z"/>
   <path class="fil0 str0" d="M1297 768c77,-23 153,15 130,166"/>
   <path class="fil0 str0" d="M916 865c19,-110 -28,-190 -99,-182 -80,8 -166,175 -77,272"/>
   <path class="fil0 str0" d="M745 731c80,21 131,59 78,175"/>
   <path class="fil0 str0" d="M664 1007c5,-75 17,-108 38,-143"/>
   <path class="fil0 str0" d="M802 685c86,-108 255,-184 443,-205 180,-20 379,11 480,69"/>
   <path class="fil0 str0" d="M911 1616c106,92 197,121 329,126 106,4 223,-25 325,-50 169,-42 241,-79 334,-251"/>
   <path class="fil0 str0" d="M1026 1534c47,44 98,56 146,59 97,5 173,-64 185,-97"/>
   <path class="fil0 str0" d="M1093 1493c72,104 178,30 172,-29"/>
   <path class="fil0 str0" d="M1851 1519c173,111 328,221 424,410 77,151 83,318 70,527 -8,130 -190,174 -320,164 -95,-7 -315,-65 -352,-103 -29,-30 -32,-74 -30,-126 2,-83 14,-222 63,-368 30,-90 77,-182 125,-267"/>
   <path class="fil0 str0" d="M231 1862c-79,78 -194,195 -212,264 -31,118 104,233 210,272"/>
   <path class="fil0 str0" d="M20 2185c46,-18 86,-21 96,1 13,29 8,54 -33,114 33,-28 72,-52 111,-26 9,6 16,12 21,18m7 63c-3,10 -8,21 -13,34"/>
   <path class="fil0 str0" d="M1684 2525c93,-115 252,-73 223,75 31,-55 159,-129 212,18 0,-77 141,-192 187,-73"/>
   <path class="fil0 str0" d="M2086 2621c-3,257 -83,434 -212,553m-370 181c-103,23 -213,34 -328,36 -377,6 -568,-167 -692,-638"/>
   <path class="fil0 str0" d="M2049 2891c30,14 71,50 199,9 78,-25 134,-33 183,-34 67,-2 105,31 128,54 46,46 35,75 2,79 -19,3 -50,-5 -77,-37 -85,-102 -301,59 -448,-37"/>
   <path class="fil0 str0" d="M554 1578c-64,-51 -211,-72 -261,-12"/>
   <path class="fil0 str0" d="M411 1877c-22,-36 -142,-57 -180,-13"/>
   <path class="fil0 str0" d="M394 2205c-23,16 -156,8 -184,-32"/>
   <path class="fil0 str0" d="M235 2430c23,28 133,43 182,19"/>
   <path class="fil0 str0" d="M360 2671c39,24 100,-13 105,-33"/>
   <path class="fil0 str0" d="M652 2780c40,-18 46,-69 54,-99"/>
   <path class="fil0 str0" d="M504 1167c77,-18 157,79 216,160"/>
   <path class="fil0 str0" d="M644 1022c65,-35 267,32 309,99"/>
   <path class="fil0 str0" d="M1177 3391c-2,-1 27,343 27,405 0,39 -5,435 -13,444 -92,95 -397,80 -527,6 -39,-23 -37,-33 -38,-88 -6,-352 -37,-681 6,-1035"/>
   <path class="fil0 str0" d="M1913 3134c74,114 49,917 49,1111 -32,115 -581,137 -617,-10 -36,-141 -23,-727 13,-856"/>
   <path class="fil0 str0" d="M628 4151c62,15 79,35 99,122 29,-55 123,-119 146,30 34,-101 127,-82 157,-1"/>
   <path class="fil0 str0" d="M1337 4188c62,15 66,30 87,118 29,-55 122,-118 145,30 34,-101 123,-81 152,0"/>
   <path class="fil0 str0" d="M1004 828c-57,23 -174,68 -264,126 -53,34 -101,70 -144,109 -47,42 -85,94 -122,144 -71,94 -130,196 -172,329 -61,192 -84,388 -91,589 -5,155 9,307 67,426 39,79 96,155 187,195 89,39 233,39 321,31 66,83 138,63 173,6 26,-42 21,-113 5,-158 -3,-7 -13,-35 -13,-42 0,-21 23,-36 48,-53 20,-13 34,-35 38,-72 3,-32 -11,-66 -59,-67 -38,-1 -94,42 -130,116 -98,0 -187,-23 -231,-72 -42,-47 -42,-126 -45,-189 -8,-161 2,-273 170,-471 73,-86 191,-190 371,-292 23,-13 61,-8 105,-9 60,-2 127,-34 174,-121"/>
  </g>
 </g>
</svg>
