<?xml version="1.0" encoding="UTF-8" standalone="no"?>
<!-- Creator: CorelDRAW X6 -->

<svg
   xmlns:dc="http://purl.org/dc/elements/1.1/"
   xmlns:cc="http://creativecommons.org/ns#"
   xmlns:rdf="http://www.w3.org/1999/02/22-rdf-syntax-ns#"
   xmlns:svg="http://www.w3.org/2000/svg"
   xmlns="http://www.w3.org/2000/svg"
   xmlns:sodipodi="http://sodipodi.sourceforge.net/DTD/sodipodi-0.dtd"
   xmlns:inkscape="http://www.inkscape.org/namespaces/inkscape"
   xml:space="preserve"
   width="72.4472mm"
   height="121.113mm"
   version="1.1"
   style="shape-rendering:geometricPrecision; text-rendering:geometricPrecision; image-rendering:optimizeQuality; fill-rule:evenodd; clip-rule:evenodd"
   viewBox="0 0 2604 4353"
   id="svg3362"
   inkscape:version="0.48.2 r9819"
   sodipodi:docname="elephant-left.svg"><metadata
   id="metadata3433"><rdf:RDF><cc:Work
       rdf:about=""><dc:format>image/svg+xml</dc:format><dc:type
         rdf:resource="http://purl.org/dc/dcmitype/StillImage" /><dc:title></dc:title></cc:Work></rdf:RDF></metadata><sodipodi:namedview
   pagecolor="#ffffff"
   bordercolor="#666666"
   borderopacity="1"
   objecttolerance="10"
   gridtolerance="10"
   guidetolerance="10"
   inkscape:pageopacity="0"
   inkscape:pageshadow="2"
   inkscape:window-width="640"
   inkscape:window-height="480"
   id="namedview3431"
   showgrid="false"
   inkscape:zoom="0.5499364"
   inkscape:cx="128.35133"
   inkscape:cy="214.57027"
   inkscape:window-x="0"
   inkscape:window-y="0"
   inkscape:window-maximized="0"
   inkscape:current-layer="svg3362" />
 <defs
   id="defs3364">
  <style
   type="text/css"
   id="style3366">
   
    .str0 {stroke:black;stroke-width:28.5277;stroke-linecap:round;stroke-linejoin:round}
    .fil0 {fill:none}
   
  </style>
 </defs>
 <g
   id="lineart"
   transform="matrix(-1,0,0,1,2604.205,0)">
  <metadata
   id="CorelCorpID_0Corel-Layer" />
  <g
   id="_67892240">
   <path
   class="fil0 str0"
   d="m 823,662 c -65,-69 -79,-133 -77,-229 2,-106 20,-178 44,-245 17,-45 34,-96 67,-131 19,-20 44,-38 75,-42 96,-15 170,109 216,179 57,87 102,189 78,287"
   id="path3371"
   inkscape:connector-curvature="0"
   style="fill:none;stroke:#000000;stroke-width:28.52770042;stroke-linecap:round;stroke-linejoin:round" />
   <path
   class="fil0 str0"
   d="m 1707,610 c 68,-247 182,-340 313,-374 71,-18 248,-28 321,-9 87,22 123,79 147,180 25,107 39,173 4,249 -62,133 -191,253 -184,358 2,27 43,74 81,137 41,68 78,155 73,229 -7,101 -123,218 -294,225 -197,9 -245,-131 -303,-226"
   id="path3373"
   inkscape:connector-curvature="0"
   style="fill:none;stroke:#000000;stroke-width:28.52770042;stroke-linecap:round;stroke-linejoin:round" />
   <path
   class="fil0 str0"
   d="m 1331,721 c -27,31 -55,77 -59,121 -11,113 127,156 179,64 60,-108 -33,-283 -119,-185 z"
   id="path3375"
   inkscape:connector-curvature="0"
   style="fill:none;stroke:#000000;stroke-width:28.52770042;stroke-linecap:round;stroke-linejoin:round" />
   <path
   class="fil0 str0"
   d="m 1297,768 c 77,-23 153,15 130,166"
   id="path3377"
   inkscape:connector-curvature="0"
   style="fill:none;stroke:#000000;stroke-width:28.52770042;stroke-linecap:round;stroke-linejoin:round" />
   <path
   class="fil0 str0"
   d="M 916,865 C 935,755 888,675 817,683 737,691 651,858 740,955"
   id="path3379"
   inkscape:connector-curvature="0"
   style="fill:none;stroke:#000000;stroke-width:28.52770042;stroke-linecap:round;stroke-linejoin:round" />
   <path
   class="fil0 str0"
   d="m 745,731 c 80,21 131,59 78,175"
   id="path3381"
   inkscape:connector-curvature="0"
   style="fill:none;stroke:#000000;stroke-width:28.52770042;stroke-linecap:round;stroke-linejoin:round" />
   <path
   class="fil0 str0"
   d="m 664,1007 c 5,-75 17,-108 38,-143"
   id="path3383"
   inkscape:connector-curvature="0"
   style="fill:none;stroke:#000000;stroke-width:28.52770042;stroke-linecap:round;stroke-linejoin:round" />
   <path
   class="fil0 str0"
   d="m 802,685 c 86,-108 255,-184 443,-205 180,-20 379,11 480,69"
   id="path3385"
   inkscape:connector-curvature="0"
   style="fill:none;stroke:#000000;stroke-width:28.52770042;stroke-linecap:round;stroke-linejoin:round" />
   <path
   class="fil0 str0"
   d="m 911,1616 c 106,92 197,121 329,126 106,4 223,-25 325,-50 169,-42 241,-79 334,-251"
   id="path3387"
   inkscape:connector-curvature="0"
   style="fill:none;stroke:#000000;stroke-width:28.52770042;stroke-linecap:round;stroke-linejoin:round" />
   <path
   class="fil0 str0"
   d="m 1026,1534 c 47,44 98,56 146,59 97,5 173,-64 185,-97"
   id="path3389"
   inkscape:connector-curvature="0"
   style="fill:none;stroke:#000000;stroke-width:28.52770042;stroke-linecap:round;stroke-linejoin:round" />
   <path
   class="fil0 str0"
   d="m 1093,1493 c 72,104 178,30 172,-29"
   id="path3391"
   inkscape:connector-curvature="0"
   style="fill:none;stroke:#000000;stroke-width:28.52770042;stroke-linecap:round;stroke-linejoin:round" />
   <path
   class="fil0 str0"
   d="m 1851,1519 c 173,111 328,221 424,410 77,151 83,318 70,527 -8,130 -190,174 -320,164 -95,-7 -315,-65 -352,-103 -29,-30 -32,-74 -30,-126 2,-83 14,-222 63,-368 30,-90 77,-182 125,-267"
   id="path3393"
   inkscape:connector-curvature="0"
   style="fill:none;stroke:#000000;stroke-width:28.52770042;stroke-linecap:round;stroke-linejoin:round" />
   <path
   class="fil0 str0"
   d="m 231,1862 c -79,78 -194,195 -212,264 -31,118 104,233 210,272"
   id="path3395"
   inkscape:connector-curvature="0"
   style="fill:none;stroke:#000000;stroke-width:28.52770042;stroke-linecap:round;stroke-linejoin:round" />
   <path
   class="fil0 str0"
   d="m 20,2185 c 46,-18 86,-21 96,1 13,29 8,54 -33,114 33,-28 72,-52 111,-26 9,6 16,12 21,18 m 7,63 c -3,10 -8,21 -13,34"
   id="path3397"
   inkscape:connector-curvature="0"
   style="fill:none;stroke:#000000;stroke-width:28.52770042;stroke-linecap:round;stroke-linejoin:round" />
   <path
   class="fil0 str0"
   d="m 1684,2525 c 93,-115 252,-73 223,75 31,-55 159,-129 212,18 0,-77 141,-192 187,-73"
   id="path3399"
   inkscape:connector-curvature="0"
   style="fill:none;stroke:#000000;stroke-width:28.52770042;stroke-linecap:round;stroke-linejoin:round" />
   <path
   class="fil0 str0"
   d="m 2086,2621 c -3,257 -83,434 -212,553 m -370,181 c -103,23 -213,34 -328,36 -377,6 -568,-167 -692,-638"
   id="path3401"
   inkscape:connector-curvature="0"
   style="fill:none;stroke:#000000;stroke-width:28.52770042;stroke-linecap:round;stroke-linejoin:round" />
   <path
   class="fil0 str0"
   d="m 2049,2891 c 30,14 71,50 199,9 78,-25 134,-33 183,-34 67,-2 105,31 128,54 46,46 35,75 2,79 -19,3 -50,-5 -77,-37 -85,-102 -301,59 -448,-37"
   id="path3403"
   inkscape:connector-curvature="0"
   style="fill:none;stroke:#000000;stroke-width:28.52770042;stroke-linecap:round;stroke-linejoin:round" />
   <path
   class="fil0 str0"
   d="m 554,1578 c -64,-51 -211,-72 -261,-12"
   id="path3405"
   inkscape:connector-curvature="0"
   style="fill:none;stroke:#000000;stroke-width:28.52770042;stroke-linecap:round;stroke-linejoin:round" />
   <path
   class="fil0 str0"
   d="m 411,1877 c -22,-36 -142,-57 -180,-13"
   id="path3407"
   inkscape:connector-curvature="0"
   style="fill:none;stroke:#000000;stroke-width:28.52770042;stroke-linecap:round;stroke-linejoin:round" />
   <path
   class="fil0 str0"
   d="m 394,2205 c -23,16 -156,8 -184,-32"
   id="path3409"
   inkscape:connector-curvature="0"
   style="fill:none;stroke:#000000;stroke-width:28.52770042;stroke-linecap:round;stroke-linejoin:round" />
   <path
   class="fil0 str0"
   d="m 235,2430 c 23,28 133,43 182,19"
   id="path3411"
   inkscape:connector-curvature="0"
   style="fill:none;stroke:#000000;stroke-width:28.52770042;stroke-linecap:round;stroke-linejoin:round" />
   <path
   class="fil0 str0"
   d="m 360,2671 c 39,24 100,-13 105,-33"
   id="path3413"
   inkscape:connector-curvature="0"
   style="fill:none;stroke:#000000;stroke-width:28.52770042;stroke-linecap:round;stroke-linejoin:round" />
   <path
   class="fil0 str0"
   d="m 652,2780 c 40,-18 46,-69 54,-99"
   id="path3415"
   inkscape:connector-curvature="0"
   style="fill:none;stroke:#000000;stroke-width:28.52770042;stroke-linecap:round;stroke-linejoin:round" />
   <path
   class="fil0 str0"
   d="m 504,1167 c 77,-18 157,79 216,160"
   id="path3417"
   inkscape:connector-curvature="0"
   style="fill:none;stroke:#000000;stroke-width:28.52770042;stroke-linecap:round;stroke-linejoin:round" />
   <path
   class="fil0 str0"
   d="m 644,1022 c 65,-35 267,32 309,99"
   id="path3419"
   inkscape:connector-curvature="0"
   style="fill:none;stroke:#000000;stroke-width:28.52770042;stroke-linecap:round;stroke-linejoin:round" />
   <path
   class="fil0 str0"
   d="m 1177,3391 c -2,-1 27,343 27,405 0,39 -5,435 -13,444 -92,95 -397,80 -527,6 -39,-23 -37,-33 -38,-88 -6,-352 -37,-681 6,-1035"
   id="path3421"
   inkscape:connector-curvature="0"
   style="fill:none;stroke:#000000;stroke-width:28.52770042;stroke-linecap:round;stroke-linejoin:round" />
   <path
   class="fil0 str0"
   d="m 1913,3134 c 74,114 49,917 49,1111 -32,115 -581,137 -617,-10 -36,-141 -23,-727 13,-856"
   id="path3423"
   inkscape:connector-curvature="0"
   style="fill:none;stroke:#000000;stroke-width:28.52770042;stroke-linecap:round;stroke-linejoin:round" />
   <path
   class="fil0 str0"
   d="m 628,4151 c 62,15 79,35 99,122 29,-55 123,-119 146,30 34,-101 127,-82 157,-1"
   id="path3425"
   inkscape:connector-curvature="0"
   style="fill:none;stroke:#000000;stroke-width:28.52770042;stroke-linecap:round;stroke-linejoin:round" />
   <path
   class="fil0 str0"
   d="m 1337,4188 c 62,15 66,30 87,118 29,-55 122,-118 145,30 34,-101 123,-81 152,0"
   id="path3427"
   inkscape:connector-curvature="0"
   style="fill:none;stroke:#000000;stroke-width:28.52770042;stroke-linecap:round;stroke-linejoin:round" />
   <path
   class="fil0 str0"
   d="m 1004,828 c -57,23 -174,68 -264,126 -53,34 -101,70 -144,109 -47,42 -85,94 -122,144 -71,94 -130,196 -172,329 -61,192 -84,388 -91,589 -5,155 9,307 67,426 39,79 96,155 187,195 89,39 233,39 321,31 66,83 138,63 173,6 26,-42 21,-113 5,-158 -3,-7 -13,-35 -13,-42 0,-21 23,-36 48,-53 20,-13 34,-35 38,-72 3,-32 -11,-66 -59,-67 -38,-1 -94,42 -130,116 -98,0 -187,-23 -231,-72 -42,-47 -42,-126 -45,-189 -8,-161 2,-273 170,-471 73,-86 191,-190 371,-292 23,-13 61,-8 105,-9 60,-2 127,-34 174,-121"
   id="path3429"
   inkscape:connector-curvature="0"
   style="fill:none;stroke:#000000;stroke-width:28.52770042;stroke-linecap:round;stroke-linejoin:round" />
  </g>
 </g>
</svg>