<?xml version="1.0" encoding="UTF-8"?>
<!DOCTYPE svg PUBLIC "-//W3C//DTD SVG 1.1//EN" "http://www.w3.org/Graphics/SVG/1.1/DTD/svg11.dtd">
<!-- Creator: CorelDRAW X6 -->
<svg xmlns="http://www.w3.org/2000/svg" xml:space="preserve" width="78.3166mm" height="121.444mm" version="1.1" style="shape-rendering:geometricPrecision; text-rendering:geometricPrecision; image-rendering:optimizeQuality; fill-rule:evenodd; clip-rule:evenodd"
viewBox="0 0 7832 12144"
 xmlns:xlink="http://www.w3.org/1999/xlink">
 <defs>
  <style type="text/css">
   <![CDATA[
    .str0 {stroke:black;stroke-width:79.37;stroke-linecap:round;stroke-linejoin:round}
    .fil0 {fill:none}
   ]]>
  </style>
 </defs>
 <g id="lineart">
  <metadata id="CorelCorpID_0Corel-Layer"/>
  <g id="_749280016">
   <path class="fil0 str0" d="M4712 9441c-200,42 -420,67 -659,74 -159,5 -309,4 -450,-5m-1138 -440c-3,-3 -5,-6 -8,-8 -385,-412 -628,-1093 -711,-1753m4574 -65c-15,506 -114,947 -308,1303 -53,97 -114,187 -182,270"/>
   <path class="fil0 str0" d="M5910 8720c207,319 138,2571 138,3116 -90,323 -1630,385 -1730,-28 -94,-367 -68,-1819 16,-2309"/>
   <path class="fil0 str0" d="M3925 9518c3,55 7,117 11,172 22,281 70,845 70,976 0,108 -13,1219 -37,1246 -270,266 -1168,225 -1551,16 -116,-63 -110,-94 -113,-247 -17,-955 -102,-1845 5,-2800"/>
   <path class="fil0 str0" d="M5042 1581c173,-608 444,-857 752,-960 178,-60 623,-108 805,-65 218,52 309,207 369,488 64,297 98,480 9,698 -156,381 -480,732 -462,1025 5,77 108,202 203,375 103,187 195,425 183,634 -16,285 -310,625 -737,666 -330,32 -494,-131 -610,-320"/>
   <path class="fil0 str0" d="M2635 1689c-174,-562 -436,-797 -733,-897 -178,-60 -623,-108 -805,-65 -402,95 -387,843 -253,1159 159,376 506,704 479,985 -9,90 -168,268 -252,448 -92,195 -164,445 -150,662 18,279 270,613 672,647 420,36 547,-283 661,-540"/>
   <path class="fil0 str0" d="M2457 11947c120,-193 406,-166 425,121 106,-212 388,-248 456,28 81,-321 315,-272 451,-78"/>
   <path class="fil0 str0" d="M4457 11967c216,-311 453,-87 441,118 168,-390 451,-266 529,0 6,-415 344,-344 493,-123"/>
   <path class="fil0 str0" d="M2479 4371c-1057,593 -1607,1256 -1577,2267 8,263 12,425 137,524 200,158 994,184 1206,109 155,-55 230,-176 270,-327"/>
   <path class="fil0 str0" d="M2608 4489c-16,-13 -28,-24 -44,-37 -383,-337 -601,-834 -601,-1359 0,-972 596,-1736 1933,-1745 1337,-9 1906,631 1906,1803 0,1016 -576,1535 -1488,1690 -149,25 -296,37 -447,49"/>
   <path class="fil0 str0" d="M5452 4262c857,427 1304,887 1497,1666 83,335 124,679 124,903 -1,278 -285,377 -619,408 -147,14 -1062,43 -1065,-342 -3,-368 -56,-1058 179,-1591"/>
   <path class="fil0 str0" d="M1087 7192c142,-274 371,-195 383,96 180,-404 402,-121 425,23 26,-141 183,-335 382,-53"/>
   <path class="fil0 str0" d="M5549 7121c159,-308 429,-282 502,116 63,-317 368,-345 479,-8 -16,-361 255,-353 429,-151"/>
   <path class="fil0 str0" d="M3138 3244c389,-409 897,-370 1103,-182"/>
   <path class="fil0 str0" d="M2845 3720c417,-314 985,-100 1074,-42"/>
   <path class="fil0 str0" d="M2612 4473c352,-222 792,-182 1000,-24"/>
   <path class="fil0 str0" d="M2503 5120c238,-111 681,-24 777,111"/>
   <path class="fil0 str0" d="M2449 5949c194,-80 468,-59 621,62"/>
   <path class="fil0 str0" d="M2501 6777c174,-79 354,-63 527,-14"/>
   <path class="fil0 str0" d="M2859 7867c208,1 334,-26 455,-174"/>
   <path class="fil0 str0" d="M3397 8227c114,-61 204,-134 236,-281"/>
   <path class="fil0 str0" d="M4134 8240c40,-70 48,-118 44,-206"/>
   <path class="fil0 str0" d="M2628 7429c205,-8 316,2 466,-126"/>
   <path class="fil0 str0" d="M3068 2238c-133,37 -312,260 -292,465 12,120 68,276 309,269 145,-4 242,-210 233,-404 -9,-189 -120,-365 -250,-329z"/>
   <path class="fil0 str0" d="M4401 2714c-11,-152 -38,-332 119,-436 125,-83 252,-38 340,160 49,111 71,239 30,344 -96,243 -464,274 -489,-67z"/>
   <path class="fil0 str0" d="M2831 2869c-79,-206 43,-377 193,-428 265,-88 297,279 203,448"/>
   <path class="fil0 str0" d="M4453 2877c-35,-41 -103,-446 153,-441 210,4 290,238 258,398"/>
   <path class="fil0 str0" d="M3138 3244c-610,640 -876,2803 -548,4059 279,1069 1127,1101 2023,828 14,17 30,38 48,49 136,81 381,79 429,-105 27,-105 -49,-232 -212,-431 -55,-67 230,-152 128,-361 -109,-223 -442,-9 -524,320 -634,55 -807,-460 -828,-921 -24,-524 136,-1599 293,-2090 113,-354 405,-715 518,-997"/>
   <path class="fil0 str0" d="M6210 8039c36,-4 68,-5 104,-6 187,-4 295,86 360,151 128,128 97,210 4,223 -55,8 -142,-13 -216,-103 -73,-88 -175,-106 -297,-98"/>
   <path class="fil0 str0" d="M4058 4332c159,-14 264,-29 472,-140"/>
  </g>
 </g>
</svg>
