<?xml version="1.0" encoding="UTF-8"?>
<!DOCTYPE svg PUBLIC "-//W3C//DTD SVG 1.1//EN" "http://www.w3.org/Graphics/SVG/1.1/DTD/svg11.dtd">
<!-- Creator: CorelDRAW X6 -->
<svg xmlns="http://www.w3.org/2000/svg" xml:space="preserve" width="78.3166mm" height="121.444mm" version="1.1" style="shape-rendering:geometricPrecision; text-rendering:geometricPrecision; image-rendering:optimizeQuality; fill-rule:evenodd; clip-rule:evenodd"
viewBox="0 0 7832 12144"
 xmlns:xlink="http://www.w3.org/1999/xlink">
 <defs>
  <style type="text/css">
   <![CDATA[
    .str0 {stroke:black;stroke-width:79.37;stroke-linecap:round;stroke-linejoin:round}
    .fil3 {fill:none}
    .fil0 {fill:#0000BF}
    .fil2 {fill:#B3B3B3}
    .fil1 {fill:white}
   ]]>
  </style>
 </defs>
 <g id="Colours">
  <metadata id="CorelCorpID_0Corel-Layer"/>
  <path class="fil0" d="M4446 2648c56,-421 -156,-523 -371,-456 -36,65 -62,137 -68,207 -22,276 273,397 439,249z"/>
  <path class="fil0" d="M2762 2601c141,-327 -3,-432 -226,-486 -73,99 -121,238 -111,372 7,89 40,177 109,249 72,-48 150,-93 228,-135z"/>
  <path class="fil1" d="M3018 2476c49,-307 -88,-524 -283,-500 -13,2 -27,5 -41,10 -57,20 -112,67 -158,129 223,54 368,159 226,486 87,-46 175,-88 256,-124z"/>
  <path class="fil1" d="M4507 2569c163,-305 -105,-787 -340,-509 -32,38 -64,83 -91,132 214,-67 426,35 371,456 23,-21 44,-47 61,-79z"/>
  <path class="fil1" d="M3736 3803c243,344 632,103 579,-305 -122,27 -371,166 -579,305z"/>
  <path class="fil1" d="M3293 4196c451,227 524,-195 443,-393 -108,72 -205,144 -267,201 -61,55 -121,121 -175,192z"/>
  <path class="fil1" d="M3087 4715c330,135 362,-372 206,-519 -72,95 -133,201 -170,307 -12,36 -22,72 -28,107 -6,35 -9,70 -8,104z"/>
  <path class="fil1" d="M855 6194c-29,-62 -148,-48 -275,5 23,115 94,224 187,318 110,-170 125,-242 88,-322z"/>
  <path class="fil1" d="M1135 6485c-15,-17 -34,-33 -59,-49 -110,-71 -218,0 -309,80 103,103 233,187 356,239 14,-34 26,-66 35,-95 -9,-57 -17,-116 -23,-175z"/>
  <path class="fil1" d="M2602 11914c-57,-244 -106,-299 -279,-341 0,7 0,13 0,20 3,152 -3,183 106,245 49,28 108,54 173,75z"/>
  <path class="fil1" d="M3009 11997c-65,-413 -327,-236 -407,-83 120,40 261,69 407,83z"/>
  <path class="fil1" d="M3445 11995c-82,-225 -342,-280 -436,2 147,15 298,15 436,-2z"/>
  <path class="fil1" d="M4538 12002c-57,-244 -67,-285 -241,-327 7,53 15,98 24,133 20,84 101,148 217,195z"/>
  <path class="fil1" d="M4943 12087c-65,-413 -325,-237 -405,-84 110,44 252,71 405,84z"/>
  <path class="fil1" d="M5367 12088c-82,-225 -329,-283 -423,-1 138,12 284,12 423,1z"/>
  <path class="fil2" d="M3865 1400c60,-275 -69,-558 -231,-797 -131,-193 -345,-533 -610,-487 -86,15 -155,66 -206,122 -91,99 -137,241 -181,367 -65,186 -110,386 -111,682 -1,268 41,445 224,634 239,-261 652,-450 1116,-520z"/>
  <path class="fil2" d="M1118 6017c4,-244 17,-485 43,-724 0,-2 1,-5 1,-7 -215,220 -531,551 -578,744 -14,57 -14,113 -3,168 126,-52 246,-66 275,-5 37,80 22,152 -88,322 91,-80 199,-152 309,-80 25,16 45,33 59,49 -11,-109 -16,-220 -18,-333 -1,-45 0,-90 0,-135z"/>
  <path class="fil2" d="M7689 8115c-66,-64 -175,-151 -360,-144 -137,6 -290,29 -507,103 -349,119 -466,25 -551,-13 -10,33 -21,65 -33,97 413,256 1002,-200 1242,79 76,88 162,107 216,98 92,-14 121,-96 -8,-221z"/>
  <path class="fil2" d="M3855 9495c-704,22 -1176,-188 -1522,-727 -108,958 -27,1850 -10,2805 174,42 223,97 279,341 79,-153 342,-330 407,83 94,-282 354,-227 436,-2 193,-23 359,-78 450,-173 23,-26 35,-1129 35,-1236 0,-154 -64,-918 -75,-1092z"/>
  <path class="fil2" d="M6038 11836c0,-540 69,-2766 -135,-3090 145,-165 255,-366 336,-588 12,-32 22,-64 33,-97 235,-741 169,-1687 10,-2342 -20,40 -43,78 -69,114 -536,717 -1610,651 -3027,-871 -66,-72 -96,-157 -98,-248 -1,-34 2,-69 8,-104 -18,-14 -36,-28 -54,-43 -201,161 -353,315 -465,451 -459,561 -481,872 -451,1320 11,174 16,395 135,523 124,134 373,193 647,188 98,-208 250,-329 357,-329 135,1 175,97 168,185 -8,101 -47,163 -101,202 -68,48 -133,92 -131,150 1,19 30,96 37,115 48,125 65,322 -6,440 -95,158 -294,218 -481,-9 -105,11 -238,19 -375,16 -162,-4 -331,-22 -466,-67 120,422 257,757 423,1016 346,539 818,748 1522,727 4,0 8,0 11,0 164,-6 326,-18 483,-38 -85,372 -119,1694 -52,2219 174,42 184,83 241,327 79,-153 340,-329 405,84 94,-282 341,-225 423,1 337,-26 634,-116 672,-252z"/>
  <path class="fil2" d="M5285 4507c-200,-378 -458,-670 -621,-833 -102,-102 -198,-182 -312,-181 -10,0 -23,2 -37,5 54,408 -336,649 -579,305 81,198 8,620 -443,393 156,147 124,654 -206,519 2,91 32,176 98,248 1417,1522 2491,1588 3027,871 27,-36 50,-74 69,-114 190,-391 35,-984 -630,-1467 -101,152 -204,251 -331,324 -11,-24 -23,-47 -35,-70z"/>
  <path class="fil2" d="M3293 4196c0,0 0,0 0,0 0,0 0,0 0,0zm3602 -1369c-24,-291 329,-630 495,-1004 95,-214 54,-396 -22,-693 -71,-280 -175,-437 -418,-494 -203,-48 -696,-13 -892,42 -331,92 -620,321 -803,886 -283,-157 -839,-235 -1339,-170 -17,2 -35,5 -52,7 -464,69 -877,259 -1116,520 -20,21 -38,43 -55,66 13,-5 27,-8 41,-10 195,-24 332,194 283,500 -81,36 -168,78 -256,124 -79,42 -157,87 -228,135 -73,49 -143,99 -209,152 -18,14 -37,29 -54,44 -45,37 -89,75 -132,114 -95,87 -175,191 -252,295 -27,37 -54,74 -81,110 -194,265 -353,552 -464,925 -8,27 -16,54 -23,81 -76,274 -126,551 -157,830l-1 7c-26,239 -39,480 -43,724 -1,45 -1,90 0,135 1,113 7,224 18,333 6,59 13,118 23,175 6,40 14,79 22,118 6,30 13,60 21,89 31,118 71,230 124,332 60,118 136,234 234,332 82,82 179,152 296,200 17,7 36,14 55,20 135,45 304,63 466,67 137,3 270,-4 375,-16 186,228 386,167 481,9 71,-119 54,-315 6,-440 -7,-20 -37,-96 -37,-115 -2,-58 63,-102 131,-150 54,-39 94,-100 101,-202 7,-88 -33,-184 -168,-185 -107,0 -259,121 -357,329 -274,4 -523,-54 -647,-188 -119,-128 -124,-349 -135,-523 -29,-448 -7,-759 451,-1320 112,-137 264,-290 465,-451 26,-21 54,-43 82,-64 37,-106 98,-212 170,-307 54,-72 114,-137 175,-192 62,-57 159,-129 267,-201 208,-139 457,-277 579,-305 14,-3 26,-5 37,-5 115,0 210,79 312,181 163,163 421,455 621,833 12,23 24,47 35,70 127,-73 229,-171 331,-324 43,-64 85,-138 129,-223 139,232 317,476 755,449 474,-29 793,-358 806,-640 10,-206 -97,-446 -214,-634 -108,-174 -225,-301 -232,-377zm-2729 -767c235,-277 503,205 340,509 -17,32 -38,58 -61,79 -166,148 -461,27 -439,-249 6,-70 32,-142 68,-207 27,-49 59,-94 91,-132z"/>
  <path class="fil2" d="M2534 2735c-69,-72 -102,-159 -109,-249 -59,99 -91,191 -100,400 69,-54 136,-103 203,-147 2,-1 4,-3 6,-4z"/>
 </g>
 <g id="lineart">
  <metadata id="CorelCorpID_1Corel-Layer"/>
  <path class="fil3 str0" d="M2749 1920c-184,-189 -225,-366 -224,-634 1,-296 46,-496 111,-682 44,-126 90,-267 181,-367 51,-56 121,-107 206,-122 265,-45 479,294 610,487 162,239 291,522 231,797"/>
  <path class="fil3 str0" d="M5207 1732c178,-689 490,-954 852,-1054 196,-54 689,-90 892,-42 242,57 346,214 418,494 76,297 117,479 22,693 -167,374 -520,713 -495,1004 6,76 124,204 232,377 117,188 224,427 214,634 -13,282 -333,611 -806,640 -546,34 -688,-354 -854,-615"/>
  <path class="fil3 str0" d="M4167 2060c-75,88 -150,216 -159,339 -25,315 362,428 500,170 163,-305 -105,-787 -340,-509z"/>
  <path class="fil3 str0" d="M4075 2192c214,-67 426,35 371,456"/>
  <path class="fil3 str0" d="M3018 2476c49,-307 -88,-524 -283,-500 -221,27 -455,495 -201,759"/>
  <path class="fil3 str0" d="M2536 2115c223,54 368,159 226,486"/>
  <path class="fil3 str0" d="M2325 2887c9,-209 41,-301 100,-400"/>
  <path class="fil3 str0" d="M2694 1986c234,-305 700,-525 1223,-593 500,-65 1056,13 1339,170"/>
  <path class="fil3 str0" d="M3042 4568c18,15 36,30 54,43m2225 -34c180,-104 311,-259 460,-547"/>
  <path class="fil3 str0" d="M1162 5287c-215,220 -531,551 -578,744 -81,330 299,642 596,747"/>
  <path class="fil3 str0" d="M580 6199c126,-52 246,-66 275,-5 37,80 22,152 -88,322 91,-80 199,-152 309,-80 25,16 45,33 59,49m23 175c-9,29 -21,61 -35,95"/>
  <path class="fil3 str0" d="M6281 5720c226,932 265,2452 -485,3135m-1020 523c-284,70 -592,105 -910,116 -1050,36 -1587,-437 -1957,-1743"/>
  <path class="fil3 str0" d="M6271 8062c85,38 202,132 551,13 217,-74 371,-98 507,-103 185,-7 294,80 360,144 129,125 100,207 8,221 -54,8 -141,-11 -216,-98 -240,-279 -829,176 -1242,-79"/>
  <path class="fil3 str0" d="M3855 9495c11,174 75,938 75,1092 0,108 -13,1210 -35,1236 -255,264 -1103,223 -1465,16 -110,-63 -104,-93 -106,-245 -16,-963 -99,-1861 10,-2825"/>
  <path class="fil3 str0" d="M5903 8746c204,324 135,2550 135,3090 -89,320 -1617,382 -1717,-28 -98,-382 -65,-1942 28,-2351"/>
  <path class="fil3 str0" d="M2323 11573c174,42 223,97 279,341 79,-153 342,-330 407,83 94,-282 354,-227 436,-2"/>
  <path class="fil3 str0" d="M4298 11675c174,42 184,83 241,327 79,-153 340,-329 405,84 94,-282 341,-225 423,1"/>
  <path class="fil3 str0" d="M2045 4480c-181,-138 -589,-190 -728,-22"/>
  <path class="fil3 str0" d="M1663 5320c-64,-98 -398,-152 -502,-26"/>
  <path class="fil3 str0" d="M1630 6234c-62,45 -434,30 -512,-82"/>
  <path class="fil3 str0" d="M1201 6867c64,76 372,113 507,45"/>
  <path class="fil3 str0" d="M1559 7531c109,64 276,-40 290,-97"/>
  <path class="fil3 str0" d="M2376 7819c109,-53 126,-194 145,-279"/>
  <path class="fil3 str0" d="M1886 3340c212,-54 442,212 610,436"/>
  <path class="fil3 str0" d="M2270 2930c179,-100 744,76 864,260"/>
  <path class="fil3 str0" d="M3262 2372c-158,66 -482,198 -728,364 -145,97 -276,199 -396,309 -128,118 -231,267 -333,405 -194,265 -353,552 -464,925 -159,537 -216,1083 -224,1643 -7,433 39,853 207,1181 111,217 274,426 530,533 249,104 649,98 896,72 186,228 386,167 481,9 71,-119 54,-315 6,-440 -7,-20 -37,-96 -37,-115 -2,-58 63,-102 131,-150 54,-39 94,-100 101,-202 7,-88 -33,-184 -168,-185 -107,0 -259,121 -357,329 -274,4 -523,-54 -647,-188 -119,-128 -124,-349 -135,-523 -29,-448 -7,-759 451,-1320 126,-155 305,-331 547,-515"/>
  <path class="fil3 str0" d="M4314 3498c54,408 -336,649 -579,305 81,198 8,621 -443,393 156,147 124,655 -206,520"/>
  <path class="fil3 str0" d="M5651 4253c734,533 847,1199 561,1581 -536,717 -1610,651 -3027,-871 -246,-265 14,-715 283,-959 196,-178 735,-510 883,-511 115,0 210,79 312,181 163,163 421,455 621,833 82,155 139,315 203,479"/>
 </g>
</svg>
