<?xml version="1.0" encoding="UTF-8"?>
<!DOCTYPE svg PUBLIC "-//W3C//DTD SVG 1.1//EN" "http://www.w3.org/Graphics/SVG/1.1/DTD/svg11.dtd">
<!-- Creator: CorelDRAW X6 -->
<svg xmlns="http://www.w3.org/2000/svg" xml:space="preserve" width="63.9244mm" height="116.378mm" version="1.1" style="shape-rendering:geometricPrecision; text-rendering:geometricPrecision; image-rendering:optimizeQuality; fill-rule:evenodd; clip-rule:evenodd"
viewBox="0 0 11265 20509"
 xmlns:xlink="http://www.w3.org/1999/xlink">
 <defs>
  <style type="text/css">
   <![CDATA[
    .str0 {stroke:black;stroke-width:139.873;stroke-linecap:round;stroke-linejoin:round}
    .fil0 {fill:none}
   ]]>
  </style>
 </defs>
 <g id="lineart">
  <metadata id="CorelCorpID_0Corel-Layer"/>
  <path class="fil0 str0" d="M7035 15759c-353,75 -740,118 -1161,130 -280,8 -545,6 -794,-9m-2005 -775c-5,-5 -9,-10 -14,-15 -679,-727 -1107,-1926 -1254,-3089m8060 -114c-26,892 -201,1669 -543,2297 -94,172 -200,330 -320,475"/>
  <path class="fil0 str0" d="M9146 14487c365,563 242,4530 242,5491 -158,569 -2872,678 -3049,-50 -166,-647 -120,-3206 28,-4070"/>
  <path class="fil0 str0" d="M5649 15893c5,97 12,206 20,303 39,496 124,1490 124,1719 0,191 -23,2149 -66,2195 -476,470 -2058,396 -2733,28 -205,-112 -194,-165 -198,-436 -30,-1683 -180,-3252 8,-4935"/>
  <path class="fil0 str0" d="M7618 1906c306,-1072 782,-1510 1325,-1693 313,-105 1097,-190 1419,-114 383,91 545,365 650,859 112,524 173,847 16,1231 -275,672 -845,1291 -815,1806 8,135 191,356 358,660 181,329 344,749 323,1117 -29,502 -546,1101 -1299,1174 -582,56 -871,-231 -1075,-564"/>
  <path class="fil0 str0" d="M3376 2096c-306,-991 -768,-1405 -1292,-1581 -313,-105 -1097,-190 -1419,-114 -708,168 -682,1486 -447,2043 280,663 892,1241 844,1736 -15,158 -295,472 -445,790 -162,344 -290,784 -265,1166 32,492 476,1081 1184,1141 740,63 965,-498 1166,-952"/>
  <path class="fil0 str0" d="M3062 20174c212,-340 716,-293 749,213 187,-373 684,-437 804,50 142,-566 555,-480 795,-137"/>
  <path class="fil0 str0" d="M6587 20209c381,-548 799,-153 778,208 297,-688 794,-469 932,0 11,-731 607,-606 870,-216"/>
  <path class="fil0 str0" d="M3101 6824c-1862,1046 -2833,2213 -2779,3995 14,464 22,749 242,923 352,278 1751,324 2126,191 273,-97 406,-310 476,-577"/>
  <path class="fil0 str0" d="M3328 7031c-28,-23 -50,-41 -77,-65 -676,-595 -1059,-1470 -1059,-2395 0,-1713 1050,-3059 3407,-3075 2357,-16 3359,1113 3359,3178 0,1791 -1015,2705 -2622,2978 -262,44 -522,65 -787,86"/>
  <path class="fil0 str0" d="M8339 6630c1510,752 2297,1563 2638,2936 146,590 219,1196 218,1591 -1,490 -502,664 -1091,718 -260,24 -1871,76 -1876,-603 -5,-648 -98,-1864 316,-2804"/>
  <path class="fil0 str0" d="M648 11793c251,-483 654,-343 675,169 317,-712 709,-214 749,41 47,-249 323,-590 674,-93"/>
  <path class="fil0 str0" d="M8511 11670c280,-543 755,-498 884,204 110,-559 649,-608 844,-13 -28,-635 450,-622 756,-266"/>
  <path class="fil0 str0" d="M4262 4837c685,-721 1581,-652 1944,-322"/>
  <path class="fil0 str0" d="M3745 5675c736,-553 1735,-176 1892,-73"/>
  <path class="fil0 str0" d="M3334 7002c620,-391 1396,-321 1763,-41"/>
  <path class="fil0 str0" d="M3143 8143c420,-196 1201,-42 1369,196"/>
  <path class="fil0 str0" d="M3048 9605c341,-141 825,-104 1094,109"/>
  <path class="fil0 str0" d="M3139 11063c306,-139 623,-112 928,-25"/>
  <path class="fil0 str0" d="M3770 12983c367,2 588,-47 802,-306"/>
  <path class="fil0 str0" d="M4718 13618c200,-108 359,-236 416,-495"/>
  <path class="fil0 str0" d="M6018 13640c70,-123 84,-207 78,-363"/>
  <path class="fil0 str0" d="M3363 12212c360,-14 557,4 822,-222"/>
  <path class="fil0 str0" d="M4139 3064c-235,64 -550,459 -515,819 20,212 119,487 545,474 256,-7 427,-371 411,-713 -15,-334 -212,-643 -440,-581z"/>
  <path class="fil0 str0" d="M6487 3904c-20,-269 -66,-586 209,-769 220,-146 445,-67 600,281 87,195 126,422 53,606 -169,429 -817,483 -862,-118z"/>
  <path class="fil0 str0" d="M3722 4176c-138,-363 75,-665 340,-753 467,-156 524,491 357,790"/>
  <path class="fil0 str0" d="M6579 4190c-62,-72 -182,-786 269,-778 370,6 511,420 454,701"/>
  <path class="fil0 str0" d="M5763 7013c342,-27 767,-171 953,-506"/>
  <path class="fil0 str0" d="M4262 4837c-1074,1129 -1543,4939 -965,7153 492,1883 1986,1941 3565,1459 24,31 53,67 84,86 240,143 672,139 757,-185 48,-185 -86,-409 -374,-759 -98,-119 405,-268 226,-637 -192,-394 -779,-16 -923,564 -1118,96 -1423,-810 -1460,-1622 -42,-923 239,-2817 516,-3683 200,-623 713,-1259 913,-1756"/>
  <path class="fil0 str0" d="M9676 13287c64,-6 119,-9 183,-10 329,-8 520,151 634,266 225,226 171,370 7,393 -96,13 -250,-23 -381,-181 -128,-154 -308,-187 -523,-172"/>
 </g>
</svg>
