<?xml version="1.0" encoding="UTF-8"?>
<!DOCTYPE svg PUBLIC "-//W3C//DTD SVG 1.1//EN" "http://www.w3.org/Graphics/SVG/1.1/DTD/svg11.dtd">
<!-- Creator: CorelDRAW X6 -->
<svg xmlns="http://www.w3.org/2000/svg" xml:space="preserve" width="78.3166mm" height="121.444mm" version="1.1" style="shape-rendering:geometricPrecision; text-rendering:geometricPrecision; image-rendering:optimizeQuality; fill-rule:evenodd; clip-rule:evenodd"
viewBox="0 0 7832 12144"
 xmlns:xlink="http://www.w3.org/1999/xlink">
 <defs>
  <style type="text/css">
   <![CDATA[
    .str0 {stroke:black;stroke-width:79.37;stroke-linecap:round;stroke-linejoin:round}
    .fil3 {fill:none}
    .fil0 {fill:#0000BF}
    .fil2 {fill:#B3B3B3}
    .fil1 {fill:white}
   ]]>
  </style>
 </defs>
 <g id="Colours">
  <metadata id="CorelCorpID_0Corel-Layer"/>
  <path class="fil0" d="M2871 2549c147,-324 5,-432 -217,-490 -75,98 -126,236 -118,370 5,90 37,177 105,251 72,-47 151,-90 230,-131z"/>
  <path class="fil0" d="M4554 2625c63,-419 -147,-526 -363,-462 -37,64 -65,135 -72,205 -27,275 266,401 434,257z"/>
  <path class="fil1" d="M3129 2429c53,-305 -79,-526 -275,-505 -14,1 -27,4 -41,9 -57,19 -113,65 -160,126 222,58 364,166 217,490 88,-45 177,-85 258,-120z"/>
  <path class="fil1" d="M4616 2548c168,-302 -92,-788 -332,-515 -33,37 -66,82 -94,131 215,-64 426,43 363,462 24,-20 45,-46 62,-78z"/>
  <path class="fil1" d="M902 6109c-28,-62 -148,-50 -275,0 21,116 90,226 181,321 113,-168 130,-240 94,-321z"/>
  <path class="fil1" d="M1119 6354c-109,-73 -218,-3 -310,75 101,105 230,191 352,245 14,-34 27,-66 36,-95 -8,-57 -15,-116 -20,-175 -14,-17 -33,-34 -58,-50z"/>
  <path class="fil1" d="M5886 7260c82,-413 -361,-529 -620,-209 104,70 376,154 620,209z"/>
  <path class="fil1" d="M6476 7309c-148,-408 -503,-203 -590,-49 127,29 246,49 330,55 54,4 111,5 169,2 30,-2 61,-4 91,-7z"/>
  <path class="fil1" d="M6994 7101c-132,-323 -519,-4 -518,209 199,-23 399,-88 518,-209z"/>
  <path class="fil1" d="M2604 11916c-57,-244 -106,-299 -279,-341 0,7 0,14 0,20 3,152 -3,183 106,245 49,28 108,54 173,75z"/>
  <path class="fil1" d="M3011 11999c-65,-413 -327,-236 -407,-83 120,40 261,69 407,83z"/>
  <path class="fil1" d="M3447 11997c-82,-225 -342,-280 -436,2 147,15 298,15 436,-2z"/>
  <path class="fil1" d="M4540 12004c-57,-244 -67,-285 -241,-327 7,53 15,98 24,133 20,84 101,148 217,195z"/>
  <path class="fil1" d="M4945 12089c-65,-413 -325,-237 -405,-84 110,44 252,71 405,84z"/>
  <path class="fil1" d="M5368 12089c-82,-225 -329,-283 -423,-1 138,12 284,12 423,1z"/>
  <path class="fil2" d="M5886 7260c-244,-55 -516,-139 -620,-209 259,-320 701,-204 620,209zm-155 -3009c-205,297 -410,383 -797,479 -282,70 -607,151 -903,140 -366,-13 -618,-93 -914,-350 -203,157 -358,309 -472,443 -468,553 -496,864 -474,1312 8,174 9,395 126,525 122,136 370,199 644,199 101,-206 255,-325 362,-323 135,3 173,100 165,188 -10,101 -50,162 -105,200 -69,47 -135,90 -134,148 0,19 28,96 35,116 46,126 60,323 -14,440 -97,156 -298,213 -480,-18 -105,9 -238,15 -375,9 -162,-7 -330,-28 -465,-75 114,430 247,770 411,1033 338,541 808,755 1515,743 171,-3 339,-13 503,-32 -90,326 -129,1708 -59,2248 174,42 184,83 241,327 79,-153 340,-329 405,84 94,-282 341,-225 423,1 337,-26 634,-116 672,-252 0,-541 69,-2775 -136,-3092 144,-160 260,-353 342,-582 11,-31 22,-63 32,-96 66,-218 103,-467 107,-750 -58,3 -115,2 -169,-2 -84,-6 -203,-27 -330,-55 87,-154 442,-358 590,49 -1,-213 386,-532 518,-209 64,-64 105,-144 111,-242 36,-582 19,-1048 -195,-1467 -268,-526 -697,-831 -1180,-1141z"/>
  <path class="fil2" d="M7702 8148c-65,-65 -172,-154 -357,-150 -137,3 -291,24 -509,95 -357,115 -473,12 -558,-26 -10,33 -21,65 -32,96 409,269 1009,-180 1245,104 74,89 160,110 215,102 92,-13 123,-94 -4,-221z"/>
  <path class="fil2" d="M3932 10589c0,-174 -48,-866 -77,-1128 -706,12 -1177,-202 -1515,-743 -117,978 -33,1884 -16,2857 174,42 223,97 279,341 79,-153 342,-330 407,83 94,-282 354,-227 436,-2 193,-23 359,-78 450,-173 23,-26 35,-1129 35,-1236z"/>
  <path class="fil2" d="M1168 5937c8,-244 25,-485 55,-723 0,-2 1,-5 1,-7 -219,216 -540,542 -591,734 -15,57 -16,113 -6,168 127,-50 247,-62 275,0 36,81 19,152 -94,321 93,-78 202,-148 310,-75 25,17 44,33 58,50 -9,-109 -12,-220 -12,-333 0,-45 1,-90 3,-134z"/>
  <path class="fil2" d="M3664 4157c4,-2 8,-4 11,-6 63,-36 169,-21 291,-26 34,-1 69,-6 104,-15 -101,76 -251,97 -406,47zm3335 -1310c-19,-291 339,-624 513,-995 99,-212 61,-395 -10,-693 -66,-281 -168,-440 -409,-501 -202,-52 -696,-25 -893,26 -333,86 -626,310 -818,871 -281,-162 -835,-249 -1336,-193 -17,2 -35,4 -52,6 -465,61 -881,244 -1124,501 -20,21 -39,43 -56,65 14,-5 27,-8 41,-9 195,-20 328,200 275,505 -81,35 -170,75 -258,120 -79,40 -158,84 -230,131 -74,48 -145,97 -212,148 -19,14 -37,28 -55,43 -46,36 -91,74 -134,112 -96,85 -179,188 -257,291 -28,37 -55,73 -82,109 -199,262 -363,545 -480,917 -9,27 -17,54 -25,81 -81,273 -135,549 -171,828l-1 7c-31,238 -48,479 -55,723 -1,45 -2,90 -3,134 -1,113 3,225 12,333 5,59 11,118 20,175 6,40 12,79 20,118 6,30 12,60 20,90 29,119 67,231 118,334 58,119 132,236 229,336 80,83 177,155 292,205 17,8 35,15 54,21 135,47 303,69 465,75 137,6 270,0 375,-9 182,231 383,174 480,18 73,-117 59,-314 14,-440 -7,-20 -35,-96 -35,-116 -1,-58 65,-101 134,-148 55,-38 95,-99 105,-200 8,-88 -30,-185 -165,-188 -107,-2 -261,116 -362,323 -274,0 -521,-63 -644,-199 -117,-130 -118,-351 -126,-525 -22,-448 6,-759 474,-1312 114,-135 269,-286 472,-443 296,257 548,337 914,350 296,10 621,-71 903,-140 388,-96 593,-182 797,-479 44,-63 87,-136 133,-221 135,235 308,481 747,462 474,-21 799,-344 817,-626 13,-206 -89,-448 -203,-637 -105,-176 -220,-305 -225,-381zm-2446 -222c-168,145 -461,19 -434,-257 7,-70 35,-141 72,-205 28,-49 61,-93 94,-131 240,-273 500,213 332,515 -18,31 -39,57 -62,78z"/>
  <path class="fil2" d="M3994 1368c65,-274 -60,-559 -217,-801 -128,-196 -335,-538 -601,-498 -86,13 -156,63 -208,118 -93,98 -141,238 -188,364 -68,185 -117,384 -123,680 -6,268 33,445 213,637 243,-257 660,-439 1124,-501z"/>
  <path class="fil2" d="M2641 2680c-68,-73 -100,-161 -105,-251 -61,98 -94,190 -107,399 67,-51 138,-100 212,-148z"/>
 </g>
 <g id="lineart">
  <metadata id="CorelCorpID_1Corel-Layer"/>
  <path class="fil3 str0" d="M2870 1868c-180,-192 -219,-369 -213,-637 6,-296 55,-495 123,-680 46,-125 95,-266 188,-364 52,-55 122,-105 208,-118 266,-40 474,302 601,498 158,242 282,527 217,801"/>
  <path class="fil3 str0" d="M5330 1723c190,-686 506,-945 870,-1039 197,-51 690,-78 893,-26 241,61 343,220 409,501 70,298 109,481 10,693 -173,371 -532,704 -513,995 5,76 120,206 225,381 114,190 216,431 203,637 -18,282 -343,605 -817,626 -547,24 -682,-365 -843,-630"/>
  <path class="fil3 str0" d="M4284 2033c-76,87 -153,213 -165,336 -30,314 355,434 497,179 168,-302 -92,-788 -332,-515z"/>
  <path class="fil3 str0" d="M4191 2163c215,-64 426,43 363,462"/>
  <path class="fil3 str0" d="M3129 2429c53,-305 -79,-526 -275,-505 -222,23 -463,488 -214,756 -249,-268 -8,-733 214,-756"/>
  <path class="fil3 str0" d="M2653 2059c222,58 364,166 217,490"/>
  <path class="fil3 str0" d="M2428 2828c13,-209 46,-300 107,-399"/>
  <path class="fil3 str0" d="M2813 1933c239,-301 709,-513 1233,-572 501,-56 1055,31 1336,193"/>
  <path class="fil3 str0" d="M3116 4521c296,257 548,337 914,350 296,10 621,-71 903,-140 471,-116 672,-218 930,-700"/>
  <path class="fil3 str0" d="M5731 4251c483,310 912,615 1180,1141 214,419 231,885 195,1467 -22,361 -528,483 -890,456 -264,-19 -876,-181 -979,-288 -79,-83 -88,-207 -84,-351 6,-230 39,-618 175,-1024 84,-251 215,-506 348,-743"/>
  <path class="fil3 str0" d="M1224 5207c-219,216 -540,542 -591,734 -86,328 288,647 583,757"/>
  <path class="fil3 str0" d="M627 6108c127,-50 247,-62 275,0 36,81 19,152 -94,321 93,-78 202,-148 310,-75 25,17 44,33 58,50m20 175c-9,29 -22,61 -36,95"/>
  <path class="fil3 str0" d="M5266 7051c259,-320 701,-204 620,209 87,-154 442,-358 590,49 -1,-213 386,-532 518,-209"/>
  <path class="fil3 str0" d="M6385 7317c-9,715 -232,1208 -589,1539m-1029 505c-285,65 -594,95 -912,101 -1050,18 -1579,-464 -1926,-1776"/>
  <path class="fil3 str0" d="M6278 8067c84,38 200,141 558,26 218,-70 372,-91 509,-95 185,-4 293,85 357,150 127,127 96,208 4,221 -54,8 -141,-13 -215,-102 -237,-284 -836,166 -1245,-104"/>
  <path class="fil3 str0" d="M2121 4416c-178,-141 -586,-200 -727,-34"/>
  <path class="fil3 str0" d="M1724 5249c-63,-99 -396,-159 -501,-35"/>
  <path class="fil3 str0" d="M1676 6162c-63,44 -435,22 -511,-90"/>
  <path class="fil3 str0" d="M1236 6787c63,77 370,119 506,53"/>
  <path class="fil3 str0" d="M1583 7458c108,66 277,-36 291,-92"/>
  <path class="fil3 str0" d="M2394 7760c110,-51 129,-191 150,-276"/>
  <path class="fil3 str0" d="M1982 3273c213,-50 438,220 602,446"/>
  <path class="fil3 str0" d="M2373 2870c180,-97 742,89 859,275"/>
  <path class="fil3 str0" d="M3856 9461c29,261 77,953 77,1128 0,108 -13,1210 -35,1236 -255,264 -1103,223 -1465,16 -110,-63 -104,-93 -106,-245 -16,-981 -102,-1892 16,-2877"/>
  <path class="fil3 str0" d="M5904 8746c206,317 136,2551 136,3092 -89,320 -1617,382 -1717,-28 -100,-392 -64,-2023 35,-2380"/>
  <path class="fil3 str0" d="M2325 11575c174,42 223,97 279,341 79,-153 342,-330 407,83 94,-282 354,-227 436,-2"/>
  <path class="fil3 str0" d="M4299 11677c174,42 184,83 241,327 79,-153 340,-329 405,84 94,-282 341,-225 423,1"/>
  <path class="fil3 str0" d="M3375 2329c-159,63 -485,190 -734,351 -146,95 -280,195 -401,302 -130,116 -236,263 -340,400 -199,262 -363,545 -480,917 -168,534 -234,1079 -253,1639 -14,433 24,853 187,1185 107,218 266,430 521,542 247,108 648,109 894,87 182,231 383,174 480,18 73,-117 59,-314 14,-440 -7,-20 -35,-96 -35,-116 -1,-58 65,-101 134,-148 55,-38 95,-99 105,-200 8,-88 -30,-185 -165,-188 -107,-2 -261,116 -362,323 -274,0 -521,-63 -644,-199 -117,-130 -118,-351 -126,-525 -22,-448 6,-759 474,-1312 202,-238 533,-529 1032,-814 63,-36 169,-21 291,-26 166,-6 352,-94 485,-336"/>
  <path class="fil3 str0" d="M3664 4157c155,50 305,29 406,-47"/>
  <path class="fil3 str0" d="M3491 4260c172,65 582,123 875,-116"/>
  <path class="fil3 str0" d="M2870 1868c-180,-192 -219,-369 -213,-637 6,-296 55,-495 123,-680 46,-125 95,-266 188,-364 52,-55 122,-105 208,-118 266,-40 474,302 601,498 158,242 282,527 217,801"/>
  <path class="fil3 str0" d="M5330 1723c190,-686 506,-945 870,-1039 197,-51 690,-78 893,-26 241,61 343,220 409,501 70,298 109,481 10,693 -173,371 -532,704 -513,995 5,76 120,206 225,381 114,190 216,431 203,637 -18,282 -343,605 -817,626 -547,24 -682,-365 -843,-630"/>
  <path class="fil3 str0" d="M4284 2033c-76,87 -153,213 -165,336 -30,314 355,434 497,179 168,-302 -92,-788 -332,-515z"/>
  <path class="fil3 str0" d="M4191 2163c215,-64 426,43 363,462"/>
  <path class="fil3 str0" d="M3129 2429c53,-305 -79,-526 -275,-505 -222,23 -463,488 -214,756 -249,-268 -8,-733 214,-756"/>
  <path class="fil3 str0" d="M2653 2059c222,58 364,166 217,490"/>
  <path class="fil3 str0" d="M2428 2828c13,-209 46,-300 107,-399"/>
  <path class="fil3 str0" d="M2813 1933c239,-301 709,-513 1233,-572 501,-56 1055,31 1336,193"/>
  <path class="fil3 str0" d="M3116 4521c296,257 548,337 914,350 296,10 621,-71 903,-140 471,-116 672,-218 930,-700"/>
  <path class="fil3 str0" d="M5731 4251c483,310 912,615 1180,1141 214,419 231,885 195,1467 -22,361 -528,483 -890,456 -264,-19 -876,-181 -979,-288 -79,-83 -88,-207 -84,-351 6,-230 39,-618 175,-1024 84,-251 215,-506 348,-743"/>
  <path class="fil3 str0" d="M1224 5207c-219,216 -540,542 -591,734 -86,328 288,647 583,757"/>
  <path class="fil3 str0" d="M627 6108c127,-50 247,-62 275,0 36,81 19,152 -94,321 93,-78 202,-148 310,-75 25,17 44,33 58,50m20 175c-9,29 -22,61 -36,95"/>
  <path class="fil3 str0" d="M5266 7051c259,-320 701,-204 620,209 87,-154 442,-358 590,49 -1,-213 386,-532 518,-209"/>
  <path class="fil3 str0" d="M6385 7317c-9,715 -232,1208 -589,1539m-1029 505c-285,65 -594,95 -912,101 -1050,18 -1579,-464 -1926,-1776"/>
  <path class="fil3 str0" d="M6278 8067c84,38 200,141 558,26 218,-70 372,-91 509,-95 185,-4 293,85 357,150 127,127 96,208 4,221 -54,8 -141,-13 -215,-102 -237,-284 -836,166 -1245,-104"/>
  <path class="fil3 str0" d="M2121 4416c-178,-141 -586,-200 -727,-34"/>
  <path class="fil3 str0" d="M1724 5249c-63,-99 -396,-159 -501,-35"/>
  <path class="fil3 str0" d="M1676 6162c-63,44 -435,22 -511,-90"/>
  <path class="fil3 str0" d="M1236 6787c63,77 370,119 506,53"/>
  <path class="fil3 str0" d="M1583 7458c108,66 277,-36 291,-92"/>
  <path class="fil3 str0" d="M2394 7760c110,-51 129,-191 150,-276"/>
  <path class="fil3 str0" d="M1982 3273c213,-50 438,220 602,446"/>
  <path class="fil3 str0" d="M2373 2870c180,-97 742,89 859,275"/>
  <path class="fil3 str0" d="M3856 9461c29,261 77,953 77,1128 0,108 -13,1210 -35,1236 -255,264 -1103,223 -1465,16 -110,-63 -104,-93 -106,-245 -16,-981 -102,-1892 16,-2877"/>
  <path class="fil3 str0" d="M5904 8746c206,317 136,2551 136,3092 -89,320 -1617,382 -1717,-28 -100,-392 -64,-2023 35,-2380"/>
  <path class="fil3 str0" d="M2325 11575c174,42 223,97 279,341 79,-153 342,-330 407,83 94,-282 354,-227 436,-2"/>
  <path class="fil3 str0" d="M4299 11677c174,42 184,83 241,327 79,-153 340,-329 405,84 94,-282 341,-225 423,1"/>
  <path class="fil3 str0" d="M3375 2329c-159,63 -485,190 -734,351 -146,95 -280,195 -401,302 -130,116 -236,263 -340,400 -199,262 -363,545 -480,917 -168,534 -234,1079 -253,1639 -14,433 24,853 187,1185 107,218 266,430 521,542 247,108 648,109 894,87 182,231 383,174 480,18 73,-117 59,-314 14,-440 -7,-20 -35,-96 -35,-116 -1,-58 65,-101 134,-148 55,-38 95,-99 105,-200 8,-88 -30,-185 -165,-188 -107,-2 -261,116 -362,323 -274,0 -521,-63 -644,-199 -117,-130 -118,-351 -126,-525 -22,-448 6,-759 474,-1312 202,-238 533,-529 1032,-814 63,-36 169,-21 291,-26 166,-6 352,-94 485,-336"/>
 </g>
</svg>
