<?xml version="1.0" encoding="UTF-8" standalone="no"?>
<!-- Creator: CorelDRAW X6 -->

<svg
   xmlns:dc="http://purl.org/dc/elements/1.1/"
   xmlns:cc="http://creativecommons.org/ns#"
   xmlns:rdf="http://www.w3.org/1999/02/22-rdf-syntax-ns#"
   xmlns:svg="http://www.w3.org/2000/svg"
   xmlns="http://www.w3.org/2000/svg"
   xmlns:sodipodi="http://sodipodi.sourceforge.net/DTD/sodipodi-0.dtd"
   xmlns:inkscape="http://www.inkscape.org/namespaces/inkscape"
   xml:space="preserve"
   width="273.64001"
   height="371.12"
   version="1.1"
   style="fill-rule:evenodd"
   viewBox="0 0 5783.4784 7843.7981"
   id="svg4185"
   inkscape:version="0.48.2 r9819"
   sodipodi:docname="monkey-front.svg"><metadata
   id="metadata4248"><rdf:RDF><cc:Work
       rdf:about=""><dc:format>image/svg+xml</dc:format><dc:type
         rdf:resource="http://purl.org/dc/dcmitype/StillImage" /></cc:Work></rdf:RDF></metadata><sodipodi:namedview
   pagecolor="#ffffff"
   bordercolor="#666666"
   borderopacity="1"
   objecttolerance="10"
   gridtolerance="10"
   guidetolerance="10"
   inkscape:pageopacity="0"
   inkscape:pageshadow="2"
   inkscape:window-width="640"
   inkscape:window-height="480"
   id="namedview4246"
   showgrid="false"
   inkscape:zoom="0.64854669"
   inkscape:cx="95.006691"
   inkscape:cy="181.94527"
   inkscape:window-x="213"
   inkscape:window-y="95"
   inkscape:window-maximized="0"
   inkscape:current-layer="svg4185" />
 <defs
   id="defs4187">
  <style
   type="text/css"
   id="style4189">
   
    .str0 {stroke:black;stroke-width:59.437;stroke-linecap:round;stroke-linejoin:round}
    .fil0 {fill:none}
   
  </style>
 </defs>
 <g
   id="lineart"
   transform="translate(883.94653,-0.28149986)">
  <metadata
   id="CorelCorpID_0Corel-Layer" />
  <g
   id="_649455744">
   <path
   class="fil0 str0"
   d="m 2975,3804 1,6 c 59,559 -112,1000 -386,1260 m -548,254 c -93,8 -193,5 -287,-8 M 1195,5002 C 960,4737 821,4323 875,3811 c 7,-66 15,-131 24,-194"
   id="path4194"
   inkscape:connector-curvature="0"
   style="fill:none;stroke:#000000;stroke-width:59.43700027;stroke-linecap:round;stroke-linejoin:round" />
   <path
   class="fil0 str0"
   d="m 1645,1031 c 56,-161 8,-415 -178,-410 -115,3 -198,328 -94,475 11,15 24,26 39,33"
   id="path4196"
   inkscape:connector-curvature="0"
   style="fill:none;stroke:#000000;stroke-width:59.43700027;stroke-linecap:round;stroke-linejoin:round" />
   <path
   class="fil0 str0"
   d="m 971,562 c 190,-309 519,-532 953,-532 457,0 795,207 985,507 m 169,766 c -14,126 -46,253 -98,376 -78,184 -217,371 -403,501 M 1242,2156 C 1073,2027 945,1851 872,1678 828,1574 801,1465 789,1353"
   id="path4198"
   inkscape:connector-curvature="0"
   style="fill:none;stroke:#000000;stroke-width:59.43700027;stroke-linecap:round;stroke-linejoin:round" />
   <path
   class="fil0 str0"
   d="m 2327,2352 c 312,172 597,390 825,654 186,215 334,461 428,740 148,437 169,890 37,1211 -23,57 -47,92 -102,51 -76,-56 -1,-204 -138,-122 -49,29 -90,62 -86,-19 5,-88 -81,-15 -116,10 -74,51 -141,105 -44,-79 85,-162 14,-496 -102,-848 -126,-380 -333,-780 -514,-1028"
   id="path4200"
   inkscape:connector-curvature="0"
   style="fill:none;stroke:#000000;stroke-width:59.43700027;stroke-linecap:round;stroke-linejoin:round" />
   <path
   class="fil0 str0"
   d="m 3084,4923 c -49,42 -108,113 -172,176 -54,53 -295,254 -195,365 40,44 136,11 220,-94 m 156,-260 c -70,161 -206,295 -205,384 0,83 58,113 129,87 174,-65 235,-262 310,-483 m -103,272 c -21,111 -11,228 52,231 150,7 160,-377 182,-489 m -27,203 c -2,121 18,343 114,251 71,-68 66,-475 28,-541"
   id="path4202"
   inkscape:connector-curvature="0"
   style="fill:none;stroke:#000000;stroke-width:59.43700027;stroke-linecap:round;stroke-linejoin:round" />
   <path
   class="fil0 str0"
   d="M 1510,2360 C 1004,2626 534,3256 302,3770 156,4093 50,4415 48,4705 c -2,390 146,-436 283,-13 54,167 50,-213 166,-15 2,4 22,-24 27,-79 12,-138 101,-391 223,-666 69,-157 149,-322 238,-465 79,-126 206,-292 326,-425"
   id="path4204"
   inkscape:connector-curvature="0"
   style="fill:none;stroke:#000000;stroke-width:59.43700027;stroke-linecap:round;stroke-linejoin:round" />
   <path
   class="fil0 str0"
   d="m 48,4721 c -16,88 -29,364 -7,456 46,190 147,80 174,-97 m 1,-108 c -12,97 8,203 54,285 50,89 91,110 119,94 53,-30 61,-140 45,-239 m -18,-252 c -40,310 114,411 191,378 59,-25 44,-150 10,-248 m -36,-72 c 21,55 135,261 207,263 75,2 57,-166 42,-206 -70,-188 -269,-425 -293,-471"
   id="path4206"
   inkscape:connector-curvature="0"
   style="fill:none;stroke:#000000;stroke-width:59.43700027;stroke-linecap:round;stroke-linejoin:round" />
   <path
   class="fil0 str0"
   d="m 3248,607 c -195,172 -165,219 -123,293 58,100 22,154 -78,145"
   id="path4208"
   inkscape:connector-curvature="0"
   style="fill:none;stroke:#000000;stroke-width:59.43700027;stroke-linecap:round;stroke-linejoin:round" />
   <path
   class="fil0 str0"
   d="m 2216,1036 c -28,-90 -14,-218 20,-301 25,-62 82,-103 146,-117 87,-15 153,148 152,281 -1,107 -36,205 -125,233"
   id="path4210"
   inkscape:connector-curvature="0"
   style="fill:none;stroke:#000000;stroke-width:59.43700027;stroke-linecap:round;stroke-linejoin:round" />
   <path
   class="fil0 str0"
   d="m 1327,2069 c 131,69 380,143 597,142 211,-1 417,-49 599,-142"
   id="path4212"
   inkscape:connector-curvature="0"
   style="fill:none;stroke:#000000;stroke-width:59.43700027;stroke-linecap:round;stroke-linejoin:round" />
   <path
   class="fil0 str0"
   d="m 2262,1438 c -150,0 -222,112 -240,228 -14,90 -12,182 111,224"
   id="path4214"
   inkscape:connector-curvature="0"
   style="fill:none;stroke:#000000;stroke-width:59.43700027;stroke-linecap:round;stroke-linejoin:round" />
   <path
   class="fil0 str0"
   d="m 1590,1438 c 150,0 254,106 258,223 3,100 -7,187 -129,229"
   id="path4216"
   inkscape:connector-curvature="0"
   style="fill:none;stroke:#000000;stroke-width:59.43700027;stroke-linecap:round;stroke-linejoin:round" />
   <path
   class="fil0 str0"
   d="m 1126,4914 c -190,870 -83,1251 37,1939 8,46 29,78 51,83 57,14 19,-131 132,-46 105,79 47,-219 156,-5 11,22 48,-19 42,-68 -73,-551 43,-1046 231,-1555"
   id="path4218"
   inkscape:connector-curvature="0"
   style="fill:none;stroke:#000000;stroke-width:59.43700027;stroke-linecap:round;stroke-linejoin:round" />
   <path
   class="fil0 str0"
   d="m 2016,5259 c 202,412 299,958 341,1412 4,42 7,83 10,122 3,40 77,139 104,78 74,-167 102,86 136,6 59,-140 127,157 138,-45 3,-63 5,-213 10,-271 35,-423 97,-710 29,-1080 m -46,-195 c -24,-84 -55,-174 -94,-271"
   id="path4220"
   inkscape:connector-curvature="0"
   style="fill:none;stroke:#000000;stroke-width:59.43700027;stroke-linecap:round;stroke-linejoin:round" />
   <path
   class="fil0 str0"
   d="m 1281,7350 c -45,56 -103,182 -64,251 6,10 14,20 24,27 51,35 120,26 177,-24 m 20,-192 c -38,77 -69,144 -10,204 56,58 121,39 154,-20 24,-44 38,-101 41,-137 10,-149 -1,-347 -9,-407 -13,-99 -60,-187 -72,-212 m -381,20 c 0,229 -146,400 -210,435 -198,172 -83,339 10,330 31,-3 65,-9 96,-31 m 66,-256 c -73,23 -137,182 -67,255 44,46 120,70 175,28"
   id="path4222"
   inkscape:connector-curvature="0"
   style="fill:none;stroke:#000000;stroke-width:59.43700027;stroke-linecap:round;stroke-linejoin:round" />
   <path
   class="fil0 str0"
   d="m 2366,6787 c -31,309 -96,389 -199,532 -161,225 -20,403 116,304"
   id="path4224"
   inkscape:connector-curvature="0"
   style="fill:none;stroke:#000000;stroke-width:59.43700027;stroke-linecap:round;stroke-linejoin:round" />
   <path
   class="fil0 str0"
   d="m 2365,7325 c -259,284 -15,389 114,311"
   id="path4226"
   inkscape:connector-curvature="0"
   style="fill:none;stroke:#000000;stroke-width:59.43700027;stroke-linecap:round;stroke-linejoin:round" />
   <path
   class="fil0 str0"
   d="m 2529,7344 c -45,75 -111,187 -74,262 39,82 178,51 212,-17"
   id="path4228"
   inkscape:connector-curvature="0"
   style="fill:none;stroke:#000000;stroke-width:59.43700027;stroke-linecap:round;stroke-linejoin:round" />
   <path
   class="fil0 str0"
   d="m 2680,7364 c -24,75 -32,109 -27,169 2,22 6,42 15,58 24,41 49,56 72,56 85,0 89,-73 92,-141 8,-170 4,-391 -13,-491 -9,-53 -38,-124 -76,-176"
   id="path4230"
   inkscape:connector-curvature="0"
   style="fill:none;stroke:#000000;stroke-width:59.43700027;stroke-linecap:round;stroke-linejoin:round" />
   <path
   class="fil0 str0"
   d="m 2864,636 c 63,-182 172,-266 382,-266 454,0 501,610 65,888 -104,66 -283,56 -376,7"
   id="path4232"
   inkscape:connector-curvature="0"
   style="fill:none;stroke:#000000;stroke-width:59.43700027;stroke-linecap:round;stroke-linejoin:round" />
   <path
   class="fil0 str0"
   d="m 610,575 c 69,62 198,135 152,246 -61,146 -123,249 84,254"
   id="path4234"
   inkscape:connector-curvature="0"
   style="fill:none;stroke:#000000;stroke-width:59.43700027;stroke-linecap:round;stroke-linejoin:round" />
   <path
   class="fil0 str0"
   d="m 1372,1093 c -17,-40 -17,-89 -10,-135 21,-138 115,-308 247,-135 31,41 51,99 47,173"
   id="path4236"
   inkscape:connector-curvature="0"
   style="fill:none;stroke:#000000;stroke-width:59.43700027;stroke-linecap:round;stroke-linejoin:round" />
   <path
   class="fil0 str0"
   d="m 2201,922 c 8,-59 59,-214 190,-181 71,17 116,131 102,325"
   id="path4238"
   inkscape:connector-curvature="0"
   style="fill:none;stroke:#000000;stroke-width:59.43700027;stroke-linecap:round;stroke-linejoin:round" />
   <path
   class="fil0 str0"
   d="M 1019,640 C 981,561 907,473 800,409 600,289 420,330 327,415 249,486 206,644 225,823 c 33,315 368,673 697,483"
   id="path4240"
   inkscape:connector-curvature="0"
   style="fill:none;stroke:#000000;stroke-width:59.43700027;stroke-linecap:round;stroke-linejoin:round" />
   <path
   class="fil0 str0"
   d="m 1926,980 c 217,-2 390,88 536,205 159,127 293,303 293,521 0,401 -288,710 -830,726 -542,17 -840,-330 -830,-726 4,-173 77,-307 180,-425 149,-170 385,-300 649,-302 z"
   id="path4242"
   inkscape:connector-curvature="0"
   style="fill:none;stroke:#000000;stroke-width:59.43700027;stroke-linecap:round;stroke-linejoin:round" />
  </g>
  <path
   class="fil0 str0"
   d="m 2966,4310 c 42,-54 79,-123 111,-203 m 57,-1121 c -31,-153 -59,-337 -52,-472 13,-250 197,-553 561,-672 479,-156 398,445 114,436 -50,-2 -109,-15 -142,0 -79,35 -98,135 -117,243 -17,101 -18,227 -22,368 -5,171 41,417 25,658 m -340,951 c -85,125 -184,224 -296,267 -20,7 -39,14 -59,21"
   id="path4244"
   inkscape:connector-curvature="0"
   style="fill:none;stroke:#000000;stroke-width:59.43700027;stroke-linecap:round;stroke-linejoin:round" />
 </g>
</svg>