<?xml version="1.0" encoding="UTF-8"?>
<!DOCTYPE svg PUBLIC "-//W3C//DTD SVG 1.1//EN" "http://www.w3.org/Graphics/SVG/1.1/DTD/svg11.dtd">
<!-- Creator: CorelDRAW X6 -->
<svg xmlns="http://www.w3.org/2000/svg" xml:space="preserve" width="74.3478mm" height="105.04mm" version="1.1" style="shape-rendering:geometricPrecision; text-rendering:geometricPrecision; image-rendering:optimizeQuality; fill-rule:evenodd; clip-rule:evenodd"
viewBox="0 0 7435 10504"
 xmlns:xlink="http://www.w3.org/1999/xlink">
 <defs>
  <style type="text/css">
   <![CDATA[
    .str0 {stroke:black;stroke-width:79.37;stroke-linecap:round;stroke-linejoin:round}
    .fil0 {fill:none}
   ]]>
  </style>
 </defs>
 <g id="lineart">
  <metadata id="CorelCorpID_0Corel-Layer"/>
  <g id="_751558880">
   <g>
    <path class="fil0 str0" d="M5036 5196l1 8c80,762 -152,1363 -526,1716m-747 346c-126,11 -264,7 -390,-11m-764 -428c-320,-361 -509,-925 -435,-1623 10,-90 20,-179 32,-264"/>
    <path class="fil0 str0" d="M3223 1417c76,-219 11,-565 -242,-558 -157,5 -270,447 -128,647 15,21 33,35 53,45"/>
    <path class="fil0 str0" d="M2304 778c260,-421 707,-725 1299,-725 623,0 1083,282 1342,691m231 1044c-19,171 -63,344 -134,513 -106,251 -296,506 -549,683m-1819 -32c-231,-175 -405,-415 -505,-651 -60,-141 -97,-291 -113,-442"/>
    <path class="fil0 str0" d="M4152 3217c424,235 813,531 1124,892 253,293 455,629 584,1009 202,595 231,1213 51,1651 -32,78 -64,126 -140,69 -103,-77 -1,-278 -189,-166 -66,40 -123,84 -117,-26 7,-119 -110,-20 -159,14 -100,70 -192,142 -60,-107 116,-220 20,-675 -140,-1155 -172,-517 -454,-1063 -700,-1401"/>
    <path class="fil0 str0" d="M5183 6721c-67,57 -147,154 -235,240 -73,72 -401,345 -266,498 54,61 185,14 300,-128m212 -355c-96,219 -280,401 -280,524 0,113 79,154 175,118 237,-88 321,-358 422,-659m-141 371c-29,151 -15,311 71,315 204,10 218,-513 248,-666m-37 277c-2,165 25,467 155,342 96,-92 90,-648 38,-737"/>
    <path class="fil0 str0" d="M3039 3228c-690,362 -1330,1221 -1646,1921 -199,441 -344,879 -346,1274 -3,531 199,-594 386,-17 74,227 69,-291 226,-21 3,5 29,-32 36,-107 17,-188 138,-533 304,-908 95,-214 203,-439 325,-633 108,-171 281,-398 444,-579"/>
    <path class="fil0 str0" d="M1047 6445c-22,120 -39,496 -9,621 63,259 201,108 237,-132m1 -147c-17,133 11,277 74,388 69,121 123,151 162,128 72,-41 83,-191 62,-326m-24 -343c-54,422 155,560 260,515 81,-34 60,-204 14,-338m-49 -98c29,75 185,355 283,358 103,3 78,-226 58,-281 -95,-256 -367,-579 -400,-642"/>
    <path class="fil0 str0" d="M5408 840c-266,235 -225,298 -167,399 79,137 30,210 -106,198"/>
    <path class="fil0 str0" d="M4001 1424c-39,-123 -19,-297 27,-411 35,-85 112,-140 199,-159 118,-20 208,202 207,383 -1,146 -49,279 -170,318"/>
    <path class="fil0 str0" d="M2789 2831c179,94 517,195 814,194 288,-1 568,-67 816,-194"/>
    <path class="fil0 str0" d="M4063 1972c-205,0 -302,153 -327,311 -19,122 -16,248 151,306"/>
    <path class="fil0 str0" d="M3148 1972c205,0 346,144 352,304 4,136 -9,255 -176,313"/>
    <path class="fil0 str0" d="M2515 6708c-258,1186 -113,1704 50,2643 11,63 40,107 69,114 77,19 26,-178 180,-62 144,108 64,-299 213,-6 15,30 66,-25 57,-93 -100,-751 59,-1425 315,-2119"/>
    <path class="fil0 str0" d="M3728 7178c275,562 408,1306 464,1924 5,57 10,113 13,167 4,55 105,189 142,106 101,-228 139,117 185,8 81,-191 173,214 187,-61 4,-86 7,-290 13,-369 47,-577 132,-968 40,-1471m-62 -266c-33,-115 -75,-237 -129,-369"/>
    <path class="fil0 str0" d="M2727 10027c-61,76 -140,248 -87,342 8,14 19,27 33,36 69,48 163,35 242,-32m28 -261c-52,104 -94,197 -13,278 77,78 165,53 210,-28 33,-60 52,-138 56,-187 14,-202 -1,-473 -12,-555 -18,-134 -82,-254 -99,-289m-519 27c0,312 -199,546 -286,593 -270,234 -113,462 14,450 43,-4 88,-13 131,-42m90 -349c-99,32 -187,248 -91,348 60,63 163,95 239,38"/>
    <path class="fil0 str0" d="M4205 9260c-43,422 -131,530 -271,724 -220,306 -27,549 158,415"/>
    <path class="fil0 str0" d="M4204 9993c-353,386 -20,530 156,424"/>
    <path class="fil0 str0" d="M4428 10019c-62,103 -151,255 -101,357 54,112 242,69 289,-23"/>
    <path class="fil0 str0" d="M4633 10047c-33,103 -44,149 -37,231 2,29 8,57 21,80 32,55 67,76 99,76 116,0 121,-99 126,-193 11,-232 5,-533 -18,-669 -12,-72 -52,-169 -104,-240"/>
    <path class="fil0 str0" d="M4884 879c86,-248 235,-363 521,-363 619,0 683,832 88,1210 -142,91 -385,77 -513,9"/>
    <path class="fil0 str0" d="M1813 797c94,85 270,184 207,335 -83,198 -167,339 114,346"/>
    <path class="fil0 str0" d="M2850 1501c-23,-54 -23,-121 -13,-184 28,-188 157,-420 336,-184 42,55 69,135 64,235"/>
    <path class="fil0 str0" d="M3980 1269c11,-81 80,-291 258,-247 97,24 158,179 140,443"/>
    <path class="fil0 str0" d="M2370 885c-52,-108 -152,-228 -298,-315 -273,-163 -518,-107 -645,9 -106,97 -165,312 -140,555 45,429 502,917 950,659"/>
    <path class="fil0 str0" d="M3606 1347c295,-2 531,120 731,280 217,174 400,413 400,710 0,547 -392,967 -1131,990 -738,23 -1144,-450 -1131,-990 6,-235 105,-418 246,-579 204,-232 525,-408 885,-411z"/>
   </g>
   <path class="fil0 str0" d="M5023 5885c57,-73 108,-168 151,-277m78 -1527c-42,-208 -81,-459 -71,-643 18,-341 269,-754 764,-915 653,-212 542,606 156,594 -69,-2 -148,-20 -193,1 -107,48 -134,183 -159,331 -23,137 -25,309 -30,501 -7,233 56,569 35,896m-463 1296c-116,170 -251,306 -404,363 -27,10 -54,20 -80,28"/>
  </g>
 </g>
</svg>
