<?xml version="1.0" encoding="UTF-8"?>
<!DOCTYPE svg PUBLIC "-//W3C//DTD SVG 1.1//EN" "http://www.w3.org/Graphics/SVG/1.1/DTD/svg11.dtd">
<!-- Creator: CorelDRAW X6 -->
<svg xmlns="http://www.w3.org/2000/svg" xml:space="preserve" width="77.2275mm" height="104.739mm" version="1.1" style="shape-rendering:geometricPrecision; text-rendering:geometricPrecision; image-rendering:optimizeQuality; fill-rule:evenodd; clip-rule:evenodd"
viewBox="0 0 3871 5250"
 xmlns:xlink="http://www.w3.org/1999/xlink">
 <defs>
  <style type="text/css">
   <![CDATA[
    .str0 {stroke:black;stroke-width:39.7846;stroke-linecap:round;stroke-linejoin:round}
    .fil0 {fill:none}
   ]]>
  </style>
 </defs>
 <g id="lineart">
  <metadata id="CorelCorpID_0Corel-Layer"/>
  <path class="fil0 str0" d="M580 784c-10,-77 -11,-149 4,-226 43,-220 200,-394 433,-483 176,-67 377,-76 575,-15 179,55 421,209 459,408"/>
  <path class="fil0 str0" d="M1807 691c86,-119 220,-248 371,-258 67,-4 162,61 206,132 74,118 53,291 -45,381 -164,149 -303,230 -494,106"/>
  <path class="fil0 str0" d="M1531 1611c164,-6 473,-326 492,-499"/>
  <path class="fil0 str0" d="M2141 607c-163,125 -138,159 -102,212 48,73 18,112 -65,106"/>
  <path class="fil0 str0" d="M435 391c65,-44 109,-37 186,47"/>
  <path class="fil0 str0" d="M792 207c-61,-45 -147,-68 -214,-62 -115,10 -232,119 -271,230 -47,132 -57,247 0,331 51,75 125,116 216,108"/>
  <path class="fil0 str0" d="M665 543c35,-62 98,-120 160,-124 72,-5 125,85 131,182 4,62 -15,129 -45,169"/>
  <path class="fil0 str0" d="M831 419c-72,11 -139,184 -87,332"/>
  <path class="fil0 str0" d="M1484 512c59,3 78,119 58,206 -16,70 -54,129 -117,134 -161,13 -119,-192 -53,-285 72,-103 275,-58 274,115"/>
  <path class="fil0 str0" d="M1344 618c178,-75 157,143 56,234"/>
  <path class="fil0 str0" d="M736 551c31,-53 84,-44 109,-21 49,46 38,180 2,228"/>
  <path class="fil0 str0" d="M435 1010c66,58 114,204 4,311"/>
  <path class="fil0 str0" d="M844 1065c-101,0 -149,75 -161,153 -9,60 -8,122 74,150"/>
  <path class="fil0 str0" d="M1105 864c-108,-96 -291,-121 -398,-111 -110,10 -200,53 -339,184 -92,86 -124,209 -113,327 12,122 70,213 146,284 142,130 361,183 560,174 296,-14 413,-213 439,-343"/>
  <path class="fil0 str0" d="M380 1527c256,92 523,63 742,-40"/>
  <path class="fil0 str0" d="M808 1716c-323,226 -580,676 -693,1047 -69,227 -112,450 -89,642 32,259 60,-302 187,-33 50,106 15,-146 109,-24 2,2 12,-18 11,-54 -4,-93 34,-268 92,-461 50,-168 114,-352 202,-475"/>
  <path class="fil0 str0" d="M709 2047c-141,441 -168,843 -57,1129 118,307 377,466 597,456 93,-4 191,-32 245,-106"/>
  <path class="fil0 str0" d="M1531 1611c357,245 647,581 748,1010 71,301 56,604 -52,810 -19,37 -37,59 -72,27 -47,-42 12,-136 -84,-90 -34,16 -64,35 -56,-18 9,-58 -53,-15 -78,-1 -52,30 -100,61 -24,-55 67,-102 41,-329 -14,-572 -60,-261 -172,-541 -277,-718"/>
  <path class="fil0 str0" d="M694 3269c-48,163 -136,698 -74,956 28,115 76,238 163,365 41,59 102,123 118,72 6,-20 26,-26 45,-6 14,15 37,33 54,-46 13,-59 89,9 42,-92 -113,-242 -18,-661 137,-889"/>
  <path class="fil0 str0" d="M1364 3612c3,156 19,358 70,543 61,220 258,458 358,501 43,19 166,51 149,-11 -19,-66 -6,-75 69,-56 -39,-54 -91,-113 -120,-191 -74,-197 -74,-414 -42,-619"/>
  <path class="fil0 str0" d="M822 4640c-63,63 -169,75 -276,73 -80,-2 -116,-31 -149,-30 -52,1 -148,210 45,224"/>
  <path class="fil0 str0" d="M633 4796c-29,-18 -165,-39 -191,110 -16,93 55,83 105,81"/>
  <path class="fil0 str0" d="M643 4885c-47,0 -106,58 -96,102 7,27 40,66 120,49"/>
  <path class="fil0 str0" d="M764 4885c-56,20 -162,168 -48,183 31,4 87,-4 137,-19 98,-31 141,-98 207,-175 40,-47 57,-36 75,-56 38,-41 51,-55 44,-104 -14,-95 -43,-157 -141,-202"/>
  <path class="fil0 str0" d="M1796 4658c-44,136 -81,159 -169,190 -85,30 -105,17 -185,34 -94,19 -128,70 -130,121 -3,58 41,107 99,77"/>
  <path class="fil0 str0" d="M1555 4927c-123,1 -171,126 -136,171 38,48 190,47 215,20"/>
  <path class="fil0 str0" d="M1774 4992c-47,22 -240,154 -95,215 108,45 193,33 250,-120m-23 51c-4,63 24,87 63,85 98,-4 89,-90 88,-187 0,-35 21,-83 29,-112 48,-175 -17,-246 -77,-335"/>
  <path class="fil0 str0" d="M28 3416c-3,60 12,244 35,303 47,122 105,40 107,-79m-9 -71c0,66 23,134 60,184 41,55 70,66 87,52 32,-24 28,-98 10,-163m-33 -166c0,209 111,263 159,235 37,-22 16,-103 -15,-165m-30 -45c19,34 112,162 160,157 50,-5 24,-115 11,-141 -62,-119 -215,-259 -235,-288"/>
  <path class="fil0 str0" d="M1874 3373c-35,25 -79,69 -126,107 -39,32 -212,150 -153,231 24,32 90,16 153,-49m120 -163c-57,103 -156,183 -161,243 -5,55 32,79 80,66 120,-32 173,-160 237,-302m-86 175c-21,73 -22,152 20,158 100,14 131,-241 152,-314m-31 134c-9,81 -10,230 60,175 51,-40 74,-313 53,-359"/>
  <path class="fil0 str0" d="M2154 3811c131,267 357,608 760,502 192,-51 266,-222 255,-534 -4,-113 -5,-287 22,-399 40,-163 198,-340 452,-372 335,-43 206,342 21,301 -33,-7 -70,-23 -93,-17 -56,14 -81,76 -107,145 -24,64 -40,147 -60,239 -28,128 -24,330 -86,504 -63,178 -194,326 -441,370 -179,32 -315,8 -429,-46 -212,-100 -413,-421 -490,-668"/>
 </g>
</svg>
