<?xml version="1.0" encoding="UTF-8" standalone="no"?>
<!-- Creator: CorelDRAW X6 -->

<svg
   xmlns:dc="http://purl.org/dc/elements/1.1/"
   xmlns:cc="http://creativecommons.org/ns#"
   xmlns:rdf="http://www.w3.org/1999/02/22-rdf-syntax-ns#"
   xmlns:svg="http://www.w3.org/2000/svg"
   xmlns="http://www.w3.org/2000/svg"
   xmlns:sodipodi="http://sodipodi.sourceforge.net/DTD/sodipodi-0.dtd"
   xmlns:inkscape="http://www.inkscape.org/namespaces/inkscape"
   xml:space="preserve"
   width="77.2275mm"
   height="104.739mm"
   version="1.1"
   style="shape-rendering:geometricPrecision; text-rendering:geometricPrecision; image-rendering:optimizeQuality; fill-rule:evenodd; clip-rule:evenodd"
   viewBox="0 0 3871 5250"
   id="svg3592"
   inkscape:version="0.48.2 r9819"
   sodipodi:docname="monkey-left.svg"><metadata
   id="metadata3662"><rdf:RDF><cc:Work
       rdf:about=""><dc:format>image/svg+xml</dc:format><dc:type
         rdf:resource="http://purl.org/dc/dcmitype/StillImage" /><dc:title></dc:title></cc:Work></rdf:RDF></metadata><sodipodi:namedview
   pagecolor="#ffffff"
   bordercolor="#666666"
   borderopacity="1"
   objecttolerance="10"
   gridtolerance="10"
   guidetolerance="10"
   inkscape:pageopacity="0"
   inkscape:pageshadow="2"
   inkscape:window-width="640"
   inkscape:window-height="480"
   id="namedview3660"
   showgrid="false"
   inkscape:zoom="0.63590874"
   inkscape:cx="136.82037"
   inkscape:cy="185.56122"
   inkscape:window-x="0"
   inkscape:window-y="0"
   inkscape:window-maximized="0"
   inkscape:current-layer="svg3592" />
 <defs
   id="defs3594">
  <style
   type="text/css"
   id="style3596">
   
    .str0 {stroke:black;stroke-width:39.7846;stroke-linecap:round;stroke-linejoin:round}
    .fil0 {fill:none}
   
  </style>
 </defs>
 <g
   id="lineart"
   transform="matrix(-1,0,0,1,3870.3073,0)">
  <metadata
   id="CorelCorpID_0Corel-Layer" />
  <path
   class="fil0 str0"
   d="M 580,784 C 570,707 569,635 584,558 627,338 784,164 1017,75 1193,8 1394,-1 1592,60 c 179,55 421,209 459,408"
   id="path3600"
   inkscape:connector-curvature="0"
   style="fill:none;stroke:#000000;stroke-width:39.7845993;stroke-linecap:round;stroke-linejoin:round" />
  <path
   class="fil0 str0"
   d="m 1807,691 c 86,-119 220,-248 371,-258 67,-4 162,61 206,132 74,118 53,291 -45,381 -164,149 -303,230 -494,106"
   id="path3602"
   inkscape:connector-curvature="0"
   style="fill:none;stroke:#000000;stroke-width:39.7845993;stroke-linecap:round;stroke-linejoin:round" />
  <path
   class="fil0 str0"
   d="m 1531,1611 c 164,-6 473,-326 492,-499"
   id="path3604"
   inkscape:connector-curvature="0"
   style="fill:none;stroke:#000000;stroke-width:39.7845993;stroke-linecap:round;stroke-linejoin:round" />
  <path
   class="fil0 str0"
   d="m 2141,607 c -163,125 -138,159 -102,212 48,73 18,112 -65,106"
   id="path3606"
   inkscape:connector-curvature="0"
   style="fill:none;stroke:#000000;stroke-width:39.7845993;stroke-linecap:round;stroke-linejoin:round" />
  <path
   class="fil0 str0"
   d="m 435,391 c 65,-44 109,-37 186,47"
   id="path3608"
   inkscape:connector-curvature="0"
   style="fill:none;stroke:#000000;stroke-width:39.7845993;stroke-linecap:round;stroke-linejoin:round" />
  <path
   class="fil0 str0"
   d="M 792,207 C 731,162 645,139 578,145 463,155 346,264 307,375 c -47,132 -57,247 0,331 51,75 125,116 216,108"
   id="path3610"
   inkscape:connector-curvature="0"
   style="fill:none;stroke:#000000;stroke-width:39.7845993;stroke-linecap:round;stroke-linejoin:round" />
  <path
   class="fil0 str0"
   d="m 665,543 c 35,-62 98,-120 160,-124 72,-5 125,85 131,182 4,62 -15,129 -45,169"
   id="path3612"
   inkscape:connector-curvature="0"
   style="fill:none;stroke:#000000;stroke-width:39.7845993;stroke-linecap:round;stroke-linejoin:round" />
  <path
   class="fil0 str0"
   d="M 831,419 C 759,430 692,603 744,751"
   id="path3614"
   inkscape:connector-curvature="0"
   style="fill:none;stroke:#000000;stroke-width:39.7845993;stroke-linecap:round;stroke-linejoin:round" />
  <path
   class="fil0 str0"
   d="m 1484,512 c 59,3 78,119 58,206 -16,70 -54,129 -117,134 -161,13 -119,-192 -53,-285 72,-103 275,-58 274,115"
   id="path3616"
   inkscape:connector-curvature="0"
   style="fill:none;stroke:#000000;stroke-width:39.7845993;stroke-linecap:round;stroke-linejoin:round" />
  <path
   class="fil0 str0"
   d="m 1344,618 c 178,-75 157,143 56,234"
   id="path3618"
   inkscape:connector-curvature="0"
   style="fill:none;stroke:#000000;stroke-width:39.7845993;stroke-linecap:round;stroke-linejoin:round" />
  <path
   class="fil0 str0"
   d="m 736,551 c 31,-53 84,-44 109,-21 49,46 38,180 2,228"
   id="path3620"
   inkscape:connector-curvature="0"
   style="fill:none;stroke:#000000;stroke-width:39.7845993;stroke-linecap:round;stroke-linejoin:round" />
  <path
   class="fil0 str0"
   d="m 435,1010 c 66,58 114,204 4,311"
   id="path3622"
   inkscape:connector-curvature="0"
   style="fill:none;stroke:#000000;stroke-width:39.7845993;stroke-linecap:round;stroke-linejoin:round" />
  <path
   class="fil0 str0"
   d="m 844,1065 c -101,0 -149,75 -161,153 -9,60 -8,122 74,150"
   id="path3624"
   inkscape:connector-curvature="0"
   style="fill:none;stroke:#000000;stroke-width:39.7845993;stroke-linecap:round;stroke-linejoin:round" />
  <path
   class="fil0 str0"
   d="M 1105,864 C 997,768 814,743 707,753 597,763 507,806 368,937 c -92,86 -124,209 -113,327 12,122 70,213 146,284 142,130 361,183 560,174 296,-14 413,-213 439,-343"
   id="path3626"
   inkscape:connector-curvature="0"
   style="fill:none;stroke:#000000;stroke-width:39.7845993;stroke-linecap:round;stroke-linejoin:round" />
  <path
   class="fil0 str0"
   d="m 380,1527 c 256,92 523,63 742,-40"
   id="path3628"
   inkscape:connector-curvature="0"
   style="fill:none;stroke:#000000;stroke-width:39.7845993;stroke-linecap:round;stroke-linejoin:round" />
  <path
   class="fil0 str0"
   d="M 808,1716 C 485,1942 228,2392 115,2763 46,2990 3,3213 26,3405 c 32,259 60,-302 187,-33 50,106 15,-146 109,-24 2,2 12,-18 11,-54 -4,-93 34,-268 92,-461 50,-168 114,-352 202,-475"
   id="path3630"
   inkscape:connector-curvature="0"
   style="fill:none;stroke:#000000;stroke-width:39.7845993;stroke-linecap:round;stroke-linejoin:round" />
  <path
   class="fil0 str0"
   d="m 709,2047 c -141,441 -168,843 -57,1129 118,307 377,466 597,456 93,-4 191,-32 245,-106"
   id="path3632"
   inkscape:connector-curvature="0"
   style="fill:none;stroke:#000000;stroke-width:39.7845993;stroke-linecap:round;stroke-linejoin:round" />
  <path
   class="fil0 str0"
   d="m 1531,1611 c 357,245 647,581 748,1010 71,301 56,604 -52,810 -19,37 -37,59 -72,27 -47,-42 12,-136 -84,-90 -34,16 -64,35 -56,-18 9,-58 -53,-15 -78,-1 -52,30 -100,61 -24,-55 67,-102 41,-329 -14,-572 -60,-261 -172,-541 -277,-718"
   id="path3634"
   inkscape:connector-curvature="0"
   style="fill:none;stroke:#000000;stroke-width:39.7845993;stroke-linecap:round;stroke-linejoin:round" />
  <path
   class="fil0 str0"
   d="m 694,3269 c -48,163 -136,698 -74,956 28,115 76,238 163,365 41,59 102,123 118,72 6,-20 26,-26 45,-6 14,15 37,33 54,-46 13,-59 89,9 42,-92 -113,-242 -18,-661 137,-889"
   id="path3636"
   inkscape:connector-curvature="0"
   style="fill:none;stroke:#000000;stroke-width:39.7845993;stroke-linecap:round;stroke-linejoin:round" />
  <path
   class="fil0 str0"
   d="m 1364,3612 c 3,156 19,358 70,543 61,220 258,458 358,501 43,19 166,51 149,-11 -19,-66 -6,-75 69,-56 -39,-54 -91,-113 -120,-191 -74,-197 -74,-414 -42,-619"
   id="path3638"
   inkscape:connector-curvature="0"
   style="fill:none;stroke:#000000;stroke-width:39.7845993;stroke-linecap:round;stroke-linejoin:round" />
  <path
   class="fil0 str0"
   d="m 822,4640 c -63,63 -169,75 -276,73 -80,-2 -116,-31 -149,-30 -52,1 -148,210 45,224"
   id="path3640"
   inkscape:connector-curvature="0"
   style="fill:none;stroke:#000000;stroke-width:39.7845993;stroke-linecap:round;stroke-linejoin:round" />
  <path
   class="fil0 str0"
   d="m 633,4796 c -29,-18 -165,-39 -191,110 -16,93 55,83 105,81"
   id="path3642"
   inkscape:connector-curvature="0"
   style="fill:none;stroke:#000000;stroke-width:39.7845993;stroke-linecap:round;stroke-linejoin:round" />
  <path
   class="fil0 str0"
   d="m 643,4885 c -47,0 -106,58 -96,102 7,27 40,66 120,49"
   id="path3644"
   inkscape:connector-curvature="0"
   style="fill:none;stroke:#000000;stroke-width:39.7845993;stroke-linecap:round;stroke-linejoin:round" />
  <path
   class="fil0 str0"
   d="m 764,4885 c -56,20 -162,168 -48,183 31,4 87,-4 137,-19 98,-31 141,-98 207,-175 40,-47 57,-36 75,-56 38,-41 51,-55 44,-104 -14,-95 -43,-157 -141,-202"
   id="path3646"
   inkscape:connector-curvature="0"
   style="fill:none;stroke:#000000;stroke-width:39.7845993;stroke-linecap:round;stroke-linejoin:round" />
  <path
   class="fil0 str0"
   d="m 1796,4658 c -44,136 -81,159 -169,190 -85,30 -105,17 -185,34 -94,19 -128,70 -130,121 -3,58 41,107 99,77"
   id="path3648"
   inkscape:connector-curvature="0"
   style="fill:none;stroke:#000000;stroke-width:39.7845993;stroke-linecap:round;stroke-linejoin:round" />
  <path
   class="fil0 str0"
   d="m 1555,4927 c -123,1 -171,126 -136,171 38,48 190,47 215,20"
   id="path3650"
   inkscape:connector-curvature="0"
   style="fill:none;stroke:#000000;stroke-width:39.7845993;stroke-linecap:round;stroke-linejoin:round" />
  <path
   class="fil0 str0"
   d="m 1774,4992 c -47,22 -240,154 -95,215 108,45 193,33 250,-120 m -23,51 c -4,63 24,87 63,85 98,-4 89,-90 88,-187 0,-35 21,-83 29,-112 48,-175 -17,-246 -77,-335"
   id="path3652"
   inkscape:connector-curvature="0"
   style="fill:none;stroke:#000000;stroke-width:39.7845993;stroke-linecap:round;stroke-linejoin:round" />
  <path
   class="fil0 str0"
   d="m 28,3416 c -3,60 12,244 35,303 47,122 105,40 107,-79 m -9,-71 c 0,66 23,134 60,184 41,55 70,66 87,52 32,-24 28,-98 10,-163 m -33,-166 c 0,209 111,263 159,235 37,-22 16,-103 -15,-165 m -30,-45 c 19,34 112,162 160,157 50,-5 24,-115 11,-141 -62,-119 -215,-259 -235,-288"
   id="path3654"
   inkscape:connector-curvature="0"
   style="fill:none;stroke:#000000;stroke-width:39.7845993;stroke-linecap:round;stroke-linejoin:round" />
  <path
   class="fil0 str0"
   d="m 1874,3373 c -35,25 -79,69 -126,107 -39,32 -212,150 -153,231 24,32 90,16 153,-49 m 120,-163 c -57,103 -156,183 -161,243 -5,55 32,79 80,66 120,-32 173,-160 237,-302 m -86,175 c -21,73 -22,152 20,158 100,14 131,-241 152,-314 m -31,134 c -9,81 -10,230 60,175 51,-40 74,-313 53,-359"
   id="path3656"
   inkscape:connector-curvature="0"
   style="fill:none;stroke:#000000;stroke-width:39.7845993;stroke-linecap:round;stroke-linejoin:round" />
  <path
   class="fil0 str0"
   d="m 2154,3811 c 131,267 357,608 760,502 192,-51 266,-222 255,-534 -4,-113 -5,-287 22,-399 40,-163 198,-340 452,-372 335,-43 206,342 21,301 -33,-7 -70,-23 -93,-17 -56,14 -81,76 -107,145 -24,64 -40,147 -60,239 -28,128 -24,330 -86,504 -63,178 -194,326 -441,370 -179,32 -315,8 -429,-46 -212,-100 -413,-421 -490,-668"
   id="path3658"
   inkscape:connector-curvature="0"
   style="fill:none;stroke:#000000;stroke-width:39.7845993;stroke-linecap:round;stroke-linejoin:round" />
 </g>
</svg>