<?xml version="1.0" encoding="UTF-8"?>
<!DOCTYPE svg PUBLIC "-//W3C//DTD SVG 1.1//EN" "http://www.w3.org/Graphics/SVG/1.1/DTD/svg11.dtd">
<!-- Creator: CorelDRAW X6 -->
<svg xmlns="http://www.w3.org/2000/svg" xml:space="preserve" width="53.626mm" height="102.698mm" version="1.1" style="shape-rendering:geometricPrecision; text-rendering:geometricPrecision; image-rendering:optimizeQuality; fill-rule:evenodd; clip-rule:evenodd"
viewBox="0 0 4016 7691"
 xmlns:xlink="http://www.w3.org/1999/xlink">
 <defs>
  <style type="text/css">
   <![CDATA[
    .str0 {stroke:black;stroke-width:59.437;stroke-linecap:round;stroke-linejoin:round}
    .fil0 {fill:none}
   ]]>
  </style>
 </defs>
 <g id="lineart">
  <metadata id="CorelCorpID_0Corel-Layer"/>
  <g id="_649455744">
   <path class="fil0 str0" d="M2975 3804l1 6c59,559 -112,1000 -386,1260m-548 254c-93,8 -193,5 -287,-8m-560 -314c-235,-265 -374,-679 -320,-1191 7,-66 15,-131 24,-194"/>
   <path class="fil0 str0" d="M1645 1031c56,-161 8,-415 -178,-410 -115,3 -198,328 -94,475 11,15 24,26 39,33"/>
   <path class="fil0 str0" d="M971 562c190,-309 519,-532 953,-532 457,0 795,207 985,507m169 766c-14,126 -46,253 -98,376 -78,184 -217,371 -403,501m-1335 -24c-169,-129 -297,-305 -370,-478 -44,-104 -71,-213 -83,-325"/>
   <path class="fil0 str0" d="M2327 2352c312,172 597,390 825,654 186,215 334,461 428,740 148,437 169,890 37,1211 -23,57 -47,92 -102,51 -76,-56 -1,-204 -138,-122 -49,29 -90,62 -86,-19 5,-88 -81,-15 -116,10 -74,51 -141,105 -44,-79 85,-162 14,-496 -102,-848 -126,-380 -333,-780 -514,-1028"/>
   <path class="fil0 str0" d="M3084 4923c-49,42 -108,113 -172,176 -54,53 -295,254 -195,365 40,44 136,11 220,-94m156 -260c-70,161 -206,295 -205,384 0,83 58,113 129,87 174,-65 235,-262 310,-483m-103 272c-21,111 -11,228 52,231 150,7 160,-377 182,-489m-27 203c-2,121 18,343 114,251 71,-68 66,-475 28,-541"/>
   <path class="fil0 str0" d="M1510 2360c-506,266 -976,896 -1208,1410 -146,323 -252,645 -254,935 -2,390 146,-436 283,-13 54,167 50,-213 166,-15 2,4 22,-24 27,-79 12,-138 101,-391 223,-666 69,-157 149,-322 238,-465 79,-126 206,-292 326,-425"/>
   <path class="fil0 str0" d="M48 4721c-16,88 -29,364 -7,456 46,190 147,80 174,-97m1 -108c-12,97 8,203 54,285 50,89 91,110 119,94 53,-30 61,-140 45,-239m-18 -252c-40,310 114,411 191,378 59,-25 44,-150 10,-248m-36 -72c21,55 135,261 207,263 75,2 57,-166 42,-206 -70,-188 -269,-425 -293,-471"/>
   <path class="fil0 str0" d="M3248 607c-195,172 -165,219 -123,293 58,100 22,154 -78,145"/>
   <path class="fil0 str0" d="M2216 1036c-28,-90 -14,-218 20,-301 25,-62 82,-103 146,-117 87,-15 153,148 152,281 -1,107 -36,205 -125,233"/>
   <path class="fil0 str0" d="M1327 2069c131,69 380,143 597,142 211,-1 417,-49 599,-142"/>
   <path class="fil0 str0" d="M2262 1438c-150,0 -222,112 -240,228 -14,90 -12,182 111,224"/>
   <path class="fil0 str0" d="M1590 1438c150,0 254,106 258,223 3,100 -7,187 -129,229"/>
   <path class="fil0 str0" d="M1126 4914c-190,870 -83,1251 37,1939 8,46 29,78 51,83 57,14 19,-131 132,-46 105,79 47,-219 156,-5 11,22 48,-19 42,-68 -73,-551 43,-1046 231,-1555"/>
   <path class="fil0 str0" d="M2016 5259c202,412 299,958 341,1412 4,42 7,83 10,122 3,40 77,139 104,78 74,-167 102,86 136,6 59,-140 127,157 138,-45 3,-63 5,-213 10,-271 35,-423 97,-710 29,-1080m-46 -195c-24,-84 -55,-174 -94,-271"/>
   <path class="fil0 str0" d="M1281 7350c-45,56 -103,182 -64,251 6,10 14,20 24,27 51,35 120,26 177,-24m20 -192c-38,77 -69,144 -10,204 56,58 121,39 154,-20 24,-44 38,-101 41,-137 10,-149 -1,-347 -9,-407 -13,-99 -60,-187 -72,-212m-381 20c0,229 -146,400 -210,435 -198,172 -83,339 10,330 31,-3 65,-9 96,-31m66 -256c-73,23 -137,182 -67,255 44,46 120,70 175,28"/>
   <path class="fil0 str0" d="M2366 6787c-31,309 -96,389 -199,532 -161,225 -20,403 116,304"/>
   <path class="fil0 str0" d="M2365 7325c-259,284 -15,389 114,311"/>
   <path class="fil0 str0" d="M2529 7344c-45,75 -111,187 -74,262 39,82 178,51 212,-17"/>
   <path class="fil0 str0" d="M2680 7364c-24,75 -32,109 -27,169 2,22 6,42 15,58 24,41 49,56 72,56 85,0 89,-73 92,-141 8,-170 4,-391 -13,-491 -9,-53 -38,-124 -76,-176"/>
   <path class="fil0 str0" d="M2864 636c63,-182 172,-266 382,-266 454,0 501,610 65,888 -104,66 -283,56 -376,7"/>
   <path class="fil0 str0" d="M610 575c69,62 198,135 152,246 -61,146 -123,249 84,254"/>
   <path class="fil0 str0" d="M1372 1093c-17,-40 -17,-89 -10,-135 21,-138 115,-308 247,-135 31,41 51,99 47,173"/>
   <path class="fil0 str0" d="M2201 922c8,-59 59,-214 190,-181 71,17 116,131 102,325"/>
   <path class="fil0 str0" d="M1019 640c-38,-79 -112,-167 -219,-231 -200,-120 -380,-79 -473,6 -78,71 -121,229 -102,408 33,315 368,673 697,483"/>
   <path class="fil0 str0" d="M1926 980c217,-2 390,88 536,205 159,127 293,303 293,521 0,401 -288,710 -830,726 -542,17 -840,-330 -830,-726 4,-173 77,-307 180,-425 149,-170 385,-300 649,-302z"/>
  </g>
  <path class="fil0 str0" d="M2966 4310c42,-54 79,-123 111,-203m57 -1121c-31,-153 -59,-337 -52,-472 13,-250 197,-553 561,-672 479,-156 398,445 114,436 -50,-2 -109,-15 -142,0 -79,35 -98,135 -117,243 -17,101 -18,227 -22,368 -5,171 41,417 25,658m-340 951c-85,125 -184,224 -296,267 -20,7 -39,14 -59,21"/>
 </g>
</svg>
