<?xml version="1.0" encoding="UTF-8"?>
<!DOCTYPE svg PUBLIC "-//W3C//DTD SVG 1.1//EN" "http://www.w3.org/Graphics/SVG/1.1/DTD/svg11.dtd">
<!-- Creator: CorelDRAW X6 -->
<svg xmlns="http://www.w3.org/2000/svg" xml:space="preserve" width="74.3478mm" height="105.04mm" version="1.1" style="shape-rendering:geometricPrecision; text-rendering:geometricPrecision; image-rendering:optimizeQuality; fill-rule:evenodd; clip-rule:evenodd"
viewBox="0 0 7435 10504"
 xmlns:xlink="http://www.w3.org/1999/xlink">
 <defs>
  <style type="text/css">
   <![CDATA[
    .str0 {stroke:black;stroke-width:79.37;stroke-linecap:round;stroke-linejoin:round}
    .fil4 {fill:none}
    .fil0 {fill:#117600}
    .fil3 {fill:#815C09}
    .fil2 {fill:#FCD59A}
    .fil1 {fill:white}
   ]]>
  </style>
 </defs>
 <g id="Colour">
  <metadata id="CorelCorpID_0Corel-Layer"/>
  <path class="fil0" d="M3051 1525c72,-95 95,-362 -4,-455 -49,-46 -155,-63 -217,43 -29,120 -31,264 16,398 62,-1 131,3 204,13z"/>
  <path class="fil0" d="M4155 1715c203,-183 243,-618 -111,-468 -84,188 -105,450 111,468z"/>
  <path class="fil1" d="M3271 1212c-12,-189 -113,-364 -251,-363 -79,12 -154,120 -190,264 62,-106 167,-89 217,-43 99,92 75,359 4,455 43,6 86,14 130,25 60,-81 98,-214 90,-337z"/>
  <path class="fil1" d="M4440 1447c40,-173 2,-405 -115,-411 -88,0 -173,36 -225,109 -20,29 -40,64 -56,102 354,-150 313,285 111,468 16,1 33,1 52,0 125,-10 201,-128 233,-268z"/>
  <path class="fil2" d="M2529 1127c16,-83 41,-163 73,-240 75,-176 190,-333 341,-461 -122,-89 -293,-135 -428,-123 -229,21 -462,238 -542,459 -95,263 -114,492 0,661 102,150 250,231 431,216 40,-24 78,-44 116,-60 -20,-155 -21,-297 9,-451z"/>
  <path class="fil2" d="M2501 7034c-124,-237 -429,-517 -469,-574 -5,48 -6,91 -5,128 3,74 -18,113 -22,109 -187,-243 -117,260 -217,48 -250,-530 -308,551 -370,86 -6,119 24,487 69,605 93,244 209,80 214,-158 20,83 55,162 103,225 82,109 139,131 174,104 65,-49 57,-196 20,-324 73,142 188,175 251,138 74,-44 33,-206 -29,-330 73,99 190,231 260,224 100,-10 48,-230 21,-281z"/>
  <path class="fil2" d="M5527 9841c95,-349 -34,-490 -153,-668 -149,-38 -175,-21 -138,112 33,118 -196,63 -288,25 -87,271 -161,317 -337,379 -170,60 -209,34 -370,67 -187,38 -255,140 -260,241 -5,117 82,214 197,154 4,13 9,25 17,35 75,95 379,94 429,39 -32,67 -19,134 91,180 188,79 341,70 452,-138 -8,125 48,173 125,170 196,-8 178,-180 177,-373 -1,-69 43,-166 58,-224z"/>
  <path class="fil2" d="M5496 6735c-68,32 -128,70 -111,-36 18,-116 -105,-30 -156,-2 -60,34 -118,69 -126,48 -70,50 -158,137 -251,213 -78,64 -424,300 -306,461 47,64 179,31 305,-97 -45,59 -78,112 -82,159 -10,111 63,157 160,131 44,-12 84,-30 121,-54 72,-48 130,-117 181,-200 -43,145 -43,302 39,314 125,18 196,-177 242,-360 -18,161 -19,458 120,349 102,-81 147,-626 106,-718 -20,6 -43,-1 -72,-28 -93,-85 25,-272 -169,-180z"/>
  <path class="fil3" d="M6884 6653c-321,473 -700,469 -1103,251 -14,20 -28,33 -44,38 26,58 18,298 -17,486 248,131 497,186 714,125 244,-69 487,-206 707,-494 153,-200 226,-428 244,-666 54,-702 -247,-1252 -660,-1782 -168,-215 -323,-408 -369,-529 -52,-138 -17,-331 50,-425 28,-40 104,-64 163,-96 333,-181 22,-929 -426,-426 -340,382 -347,855 -194,1153 352,683 826,756 1005,1752 43,239 33,462 -69,612z"/>
  <path class="fil3" d="M2847 1512c-47,-134 -46,-279 -16,-398 35,-144 111,-252 190,-264 138,-1 238,174 251,363 8,123 -30,257 -90,337 -44,-11 -87,-19 -130,-25 -72,-10 -142,-14 -204,-13zm3064 3732c-202,-856 -779,-1528 -1493,-2016 327,-13 944,-650 982,-996 217,1 411,-136 628,-332 197,-178 237,-524 90,-759 -88,-141 -276,-271 -410,-263 -88,6 -173,31 -253,71 -74,-397 -558,-704 -915,-814 -394,-121 -797,-103 -1147,30 -172,65 -324,154 -450,262 -151,129 -267,285 -341,461 -32,76 -57,156 -73,240 -30,155 -29,297 -9,451 -38,16 -76,36 -116,60 -92,56 -191,135 -307,244 -183,172 -248,416 -226,653 21,221 118,391 250,525 14,14 28,28 42,41 212,195 509,302 812,336 -644,451 -1157,1350 -1383,2089 -138,453 -224,898 -177,1282 1,7 2,14 3,21 62,465 120,-616 370,-86 100,212 30,-291 217,-48 3,4 25,-35 22,-109 -1,-36 0,-79 5,-128 19,-197 85,-484 178,-793 100,-336 227,-702 403,-948 -128,633 -118,1199 49,1632 25,65 54,127 85,186 231,434 612,681 968,720 46,5 92,7 137,5 78,-4 158,-15 232,-39 5,312 37,714 139,1084 121,440 515,913 715,1000 3,1 6,2 9,4 92,37 321,93 288,-25 -37,-133 -11,-151 138,-112 -77,-108 -182,-226 -240,-380 -149,-393 -149,-825 -85,-1235 -36,24 -76,42 -121,54 -97,26 -171,-21 -160,-131 4,-47 37,-99 82,-159 -126,128 -258,161 -305,97 -118,-161 227,-397 306,-461 94,-76 181,-163 251,-213 8,21 66,-14 126,-48 51,-29 174,-114 156,2 -17,106 43,68 111,36 193,-92 75,95 169,180 29,26 52,34 72,28 16,-5 31,-19 44,-38 9,-13 17,-28 26,-44 216,-411 246,-1016 104,-1616zm-1471 -3797c-33,140 -108,258 -233,268 -19,2 -36,2 -52,0 -216,-18 -195,-280 -111,-468 17,-38 36,-72 56,-102 52,-74 137,-110 225,-109 117,6 155,238 115,411z"/>
  <path class="fil2" d="M4968 1392c166,-228 434,-495 741,-515 134,-8 322,122 410,263 147,235 107,581 -90,759 -217,196 -411,333 -627,332 -111,0 -228,-37 -356,-120 -1,-1 -2,-1 -3,-2 -67,-39 -104,-128 -79,-188 68,-164 -115,-277 4,-530z"/>
  <path class="fil2" d="M3567 1737c-108,-96 -252,-156 -397,-190l-2 0 0 0 -12 -3 -1 0 -1 0 -12 -3 0 0 -14 -3 -1 0 -12 -2 -1 0 -11 -2 -2 0 0 0 -13 -2 -1 0 -2 0 -10 -2 -1 0 -1 0 -2 0 -2 0 -6 -1 -2 0 0 0 -2 0 -2 0 -6 -1 -3 0 0 0 -1 0 -9 -1 -3 0 0 0 -3 0 -9 -1 -1 0 -10 -1 -2 0 -1 0 -10 -1 -2 0 -1 0 0 0 -10 -1 -2 0 -1 0 -10 -1 -2 0 -2 0 -10 -1 -1 0 -12 -1 -1 0 -2 0 -10 -1 -1 0 -12 -1 -1 0 -3 0 -6 0 -3 0 0 0 -3 0 -6 0 -3 0 0 0 0 0 -12 0 0 0 -11 0 0 0 0 0c-8,0 -15,0 -23,0l-1 0c-26,0 -51,2 -74,4 -88,8 -169,27 -253,63l-2 1 -2 1 0 0 -2 1 -2 1 -2 1 -2 1 -2 1 -1 0 -1 0 -2 1 -4 2 -2 1 -2 1 0 0 -2 1 -2 1 -2 1 -2 1 -2 1 -1 0 -1 0 -2 1 -7 3 0 0 0 0 -2 1 -5 3 -2 1 -1 1 -1 0 -2 1 -5 3 -2 1 0 0 -2 1 0 0 -7 4 -1 1 -1 0 -2 1 -4 2 -2 1 -2 1 0 0 0 0 -7 4 -2 1 -1 1 0 0 0 0 -9 5 -1 0 -1 1 -7 4 -2 1 0 0 -9 6 -1 1 -1 0 -9 5 -1 1 0 0c-7,4 -13,9 -20,13l0 0 0 0c-7,5 -14,9 -21,14l0 0 -1 1 -9 6 -1 1 -11 8 -2 1 -8 6 -1 1 0 0 -1 1c-10,8 -21,16 -32,24l-1 1 0 0c-7,6 -15,12 -23,18l0 0c-7,6 -15,12 -22,18l0 0 -1 1 -10 8 0 0 -1 0 -1 1 -9 7 -2 2 -2 2 -9 8 0 0 -1 0 -10 9 -1 1 0 0 -8 7 -3 3 -2 2 -10 9 0 0 -10 9 -2 2 -3 3 -5 5 -4 4 -1 1 -5 5 -5 5 -1 1 -4 4 -5 5 -3 3 -2 2 -5 5 -5 5c-183,172 -248,416 -226,653l1 10 0 1 0 4 1 6 1 4 1 6 1 5 1 6 1 5 1 5 1 5 1 6 1 4 1 6 1 5 1 4 1 7 0 0 2 9 0 1 2 10 0 0 2 9 0 0 1 5 1 6 1 4 2 6 1 4 2 6 1 4 2 6 1 3 2 7 1 3 2 7 1 2 2 7 1 2 0 1 3 9 0 0 3 9 0 1 3 8 0 1 2 5 2 4 2 5 2 4 2 4 2 5 2 4 2 5 2 4 2 4 2 5 3 5 1 2 1 2 4 8 0 1 4 8 0 0 4 8 1 1 4 7 0 0 3 6 1 2 3 5 2 4 3 4 2 3 3 5 2 3 2 4 2 4 3 5 0 1 4 6 1 1 5 7 0 0 5 8 0 0 5 7 1 1 4 6 1 1 2 3 4 5 1 2 4 5 2 3 3 5 3 3 3 3 3 4 3 3 3 4 0 0 5 6 6 8 0 0 6 7 1 1 5 6 1 1 2 2 4 4 2 2 4 5 1 1 3 4 1 1 3 4 3 3 3 4 1 1 4 5 1 1 5 5 2 2 1 1 6 6 0 0 6 6 0 0 6 6 1 1 0 0 1 1 1 1 5 5 1 1 0 0 0 0 1 1 1 1 5 5 1 1 0 0 1 1 1 1 4 4 1 1 1 1 1 1 0 0 1 1 1 1 6 5 0 0 5 4 1 1 1 1 1 1c4,4 8,7 12,11l4 3 9 8 3 3c4,4 8,7 12,10l0 0c4,3 8,7 13,10l3 3 10 8 3 3c4,3 8,6 13,10l0 0c4,3 9,7 13,10l3 2 11 8 2 2c5,3 9,6 14,9l1 0 3 2 10 7 6 4 9 6 5 3c9,6 18,11 27,16l5 3 10 6 4 2c5,3 9,5 14,8l1 1 2 1 12 6 6 3 11 6 4 2c5,2 10,5 14,7l1 1 2 1c4,2 8,4 12,6l5 2 11 5 4 2c5,2 9,4 14,6l1 1 3 1 12 5 5 2 12 5 4 2c5,2 10,4 16,6l2 1 13 5 6 2 11 4 5 2 15 5 4 2 13 4 3 1 14 5 3 1 15 5 2 1 3 1 12 4 5 2 12 4 5 1c5,2 11,3 16,5l1 0 15 4 6 1 12 3 6 1c11,3 23,6 34,8l2 1 15 3 2 1 2 0 16 3 2 0 16 3 3 1 15 3 2 0 2 0c12,2 23,4 35,6l2 0c18,3 36,6 54,8l3 0 16 2 1 0 1 0c107,13 215,17 320,12 590,-27 825,-426 876,-684 61,-524 -278,-808 -590,-1028z"/>
  <path class="fil3" d="M3220 8970c-154,-508 136,-1304 496,-1713 -341,-37 -705,-265 -937,-665 -149,422 -368,1253 -317,1705 26,235 91,490 233,764 7,13 14,27 22,40 66,115 154,219 194,131 18,-39 58,-44 90,0 24,33 64,74 118,-78 40,-114 175,40 107,-171 -2,-5 -3,-9 -4,-14z"/>
  <path class="fil2" d="M3118 9155c-54,153 -94,111 -118,78 -32,-44 -73,-39 -90,0 -40,88 -128,-17 -194,-131 -154,74 -356,40 -552,-23 -153,-49 -205,-124 -270,-141 -100,-26 -401,319 -38,454 -83,169 60,190 157,215 -1,56 44,146 204,159 1,34 23,65 75,88 57,25 168,42 273,40 205,-4 325,-109 495,-220 103,-67 129,-38 175,-65 95,-57 129,-77 142,-174 26,-189 6,-324 -157,-465l4 14c68,210 -66,57 -107,171z"/>
 </g>
 <g id="lineart">
  <metadata id="CorelCorpID_1Corel-Layer"/>
  <path class="fil4 str0" d="M2520 1579c-20,-155 -21,-297 9,-451 86,-438 399,-787 865,-963 350,-133 753,-152 1147,-30 357,110 841,417 915,814"/>
  <path class="fil4 str0" d="M4968 1392c173,-237 439,-496 741,-515 134,-8 322,122 410,263 147,235 107,581 -90,759 -328,297 -605,459 -986,211"/>
  <path class="fil4 str0" d="M4419 3228c327,-13 944,-650 982,-996"/>
  <path class="fil4 str0" d="M5636 1225c-325,250 -274,317 -204,424 96,146 37,223 -129,211"/>
  <path class="fil4 str0" d="M2231 793c129,-88 218,-74 371,95"/>
  <path class="fil4 str0" d="M2943 426c-122,-89 -293,-135 -428,-123 -229,21 -462,238 -542,459 -95,263 -114,492 0,661 102,150 250,231 431,216"/>
  <path class="fil4 str0" d="M2690 1097c70,-124 195,-239 320,-248 144,-10 249,169 262,363 8,123 -30,257 -90,337"/>
  <path class="fil4 str0" d="M3020 849c-144,22 -277,366 -173,663"/>
  <path class="fil4 str0" d="M4325 1036c117,6 155,238 115,411 -33,140 -108,258 -233,268 -321,26 -237,-383 -107,-569 144,-206 548,-117 548,230"/>
  <path class="fil4 str0" d="M4044 1247c354,-150 313,285 111,468"/>
  <path class="fil4 str0" d="M2831 1113c62,-106 167,-89 217,-43 99,92 75,359 4,455"/>
  <path class="fil4 str0" d="M2231 2028c132,116 227,406 8,620"/>
  <path class="fil4 str0" d="M3047 2138c-201,0 -296,150 -320,305 -19,120 -16,243 148,300"/>
  <path class="fil4 str0" d="M3567 1737c-216,-192 -581,-241 -794,-221 -219,20 -398,106 -676,367 -183,172 -248,416 -226,653 23,243 139,425 292,566 283,260 721,365 1117,347 590,-27 825,-426 876,-684"/>
  <path class="fil4 str0" d="M2121 3061c510,184 1043,125 1481,-80"/>
  <path class="fil4 str0" d="M2976 3438c-644,451 -1157,1350 -1383,2089 -138,453 -224,898 -177,1282 64,517 119,-602 373,-65 100,212 30,-291 217,-48 3,4 25,-35 22,-109 -7,-185 68,-535 183,-921 100,-336 227,-702 403,-948"/>
  <path class="fil4 str0" d="M2777 4098c-282,879 -335,1682 -115,2252 236,612 752,931 1191,911 186,-8 382,-64 489,-211"/>
  <path class="fil4 str0" d="M4419 3228c713,488 1290,1160 1493,2016 142,600 112,1205 -104,1616 -38,73 -74,117 -143,55 -93,-85 25,-272 -169,-180 -68,32 -128,70 -111,-36 18,-116 -105,-30 -156,-2 -104,59 -200,121 -49,-110 134,-204 82,-657 -28,-1141 -119,-521 -344,-1079 -552,-1433"/>
  <path class="fil4 str0" d="M4085 7222c5,312 37,714 139,1084 121,440 515,913 715,1000 86,37 331,101 297,-21 -37,-133 -11,-151 138,-112 -77,-108 -182,-226 -240,-380 -149,-393 -149,-825 -85,-1235"/>
  <path class="fil4 str0" d="M2778 6592c-149,422 -368,1253 -317,1705 26,235 91,490 233,764 66,128 171,270 216,171 18,-39 58,-44 90,0 24,33 64,74 118,-78 40,-114 175,40 107,-171 -164,-507 128,-1314 491,-1727"/>
  <path class="fil4 str0" d="M2715 9101c-154,74 -356,40 -552,-23 -153,-49 -205,-124 -270,-141 -100,-26 -401,319 -38,454m427 -105c-46,-51 -295,-166 -427,105 -83,169 60,190 157,215m240 -144c-91,-26 -236,51 -240,142 -2,56 41,148 204,161m269 -235c-119,7 -405,231 -194,323 57,25 168,42 273,40 205,-4 325,-109 495,-220 103,-67 129,-38 175,-65 95,-57 129,-77 142,-174 26,-189 6,-324 -157,-465"/>
  <path class="fil4 str0" d="M4947 9310c-87,271 -161,317 -337,379 -170,60 -209,34 -370,67 -187,38 -255,140 -260,241 -5,117 82,214 197,154"/>
  <path class="fil4 str0" d="M4466 9846c-246,2 -341,252 -271,340 75,95 379,94 429,39"/>
  <path class="fil4 str0" d="M4904 9976c-93,44 -479,308 -190,430 216,90 384,65 498,-240m-46 103c-8,125 48,173 125,170 196,-8 178,-180 177,-373 -1,-69 43,-166 58,-224 95,-349 -34,-490 -153,-668"/>
  <path class="fil4 str0" d="M1418 6830c-6,119 24,487 69,605 93,244 209,80 214,-158m-17 -143c0,131 45,268 120,368 82,109 139,131 174,104 65,-49 57,-196 20,-324m-66 -330c0,418 221,526 317,469 74,-44 33,-206 -29,-330m-60 -89c37,69 224,322 319,313 100,-10 48,-230 21,-281 -124,-237 -429,-517 -469,-574"/>
  <path class="fil4 str0" d="M5102 6745c-70,50 -158,137 -251,213 -78,64 -424,300 -306,461 47,64 179,31 305,-97m240 -326c-114,205 -311,366 -322,485 -10,111 63,157 160,131 239,-64 346,-319 474,-603m-172 349c-43,145 -43,302 39,314 199,29 261,-480 304,-627m-62 267c-18,161 -19,458 120,349 102,-81 147,-626 106,-718"/>
  <path class="fil4 str0" d="M5781 6904c403,218 782,222 1103,-251 102,-150 112,-373 69,-612 -179,-997 -652,-1069 -1005,-1752 -153,-297 -146,-771 194,-1153 448,-503 759,245 426,426 -59,32 -135,56 -163,96 -67,94 -102,288 -50,425 46,121 202,314 369,529 413,530 714,1079 660,1782 -18,237 -91,465 -244,666 -220,288 -463,425 -707,494 -217,61 -466,6 -714,-125"/>
 </g>
</svg>
