<?xml version="1.0" encoding="UTF-8" standalone="no"?>
<!-- Creator: CorelDRAW X6 -->

<svg
   xmlns:dc="http://purl.org/dc/elements/1.1/"
   xmlns:cc="http://creativecommons.org/ns#"
   xmlns:rdf="http://www.w3.org/1999/02/22-rdf-syntax-ns#"
   xmlns:svg="http://www.w3.org/2000/svg"
   xmlns="http://www.w3.org/2000/svg"
   xmlns:sodipodi="http://sodipodi.sourceforge.net/DTD/sodipodi-0.dtd"
   xmlns:inkscape="http://www.inkscape.org/namespaces/inkscape"
   xml:space="preserve"
   width="77.2275mm"
   height="104.739mm"
   version="1.1"
   style="shape-rendering:geometricPrecision; text-rendering:geometricPrecision; image-rendering:optimizeQuality; fill-rule:evenodd; clip-rule:evenodd"
   viewBox="0 0 7722 10473"
   id="svg3493"
   inkscape:version="0.48.2 r9819"
   sodipodi:docname="monkey-r.svg"><metadata
   id="metadata3564"><rdf:RDF><cc:Work
       rdf:about=""><dc:format>image/svg+xml</dc:format><dc:type
         rdf:resource="http://purl.org/dc/dcmitype/StillImage" /><dc:title></dc:title></cc:Work></rdf:RDF></metadata><sodipodi:namedview
   pagecolor="#ffffff"
   bordercolor="#666666"
   borderopacity="1"
   objecttolerance="10"
   gridtolerance="10"
   guidetolerance="10"
   inkscape:pageopacity="0"
   inkscape:pageshadow="2"
   inkscape:window-width="640"
   inkscape:window-height="480"
   id="namedview3562"
   showgrid="false"
   inkscape:zoom="0.63590874"
   inkscape:cx="136.82037"
   inkscape:cy="185.56122"
   inkscape:window-x="0"
   inkscape:window-y="0"
   inkscape:window-maximized="0"
   inkscape:current-layer="svg3493" />
 <defs
   id="defs3495">
  <style
   type="text/css"
   id="style3497">
   
    .str0 {stroke:black;stroke-width:79.3668;stroke-linecap:round;stroke-linejoin:round}
    .fil0 {fill:none}
   
  </style>
 </defs>
 <g
   id="lineart"
   transform="matrix(-1,0,0,1,7723.3374,0)">
  <metadata
   id="CorelCorpID_0Corel-Layer" />
  <g
   id="_749195728">
   <path
   class="fil0 str0"
   d="m 1157,1565 c -20,-155 -21,-297 9,-451 86,-438 399,-786 864,-963 350,-133 753,-152 1147,-30 357,110 841,417 915,814"
   id="path3502"
   inkscape:connector-curvature="0"
   style="fill:none;stroke:#000000;stroke-width:79.3667984;stroke-linecap:round;stroke-linejoin:round" />
   <path
   class="fil0 str0"
   d="m 3604,1378 c 173,-237 439,-496 741,-515 134,-8 322,122 410,263 147,235 107,581 -90,759 -328,297 -604,459 -986,211"
   id="path3504"
   inkscape:connector-curvature="0"
   style="fill:none;stroke:#000000;stroke-width:79.3667984;stroke-linecap:round;stroke-linejoin:round" />
   <path
   class="fil0 str0"
   d="m 3055,3214 c 327,-13 944,-649 982,-996"
   id="path3506"
   inkscape:connector-curvature="0"
   style="fill:none;stroke:#000000;stroke-width:79.3667984;stroke-linecap:round;stroke-linejoin:round" />
   <path
   class="fil0 str0"
   d="m 4272,1212 c -324,250 -274,317 -204,424 96,145 37,223 -129,211"
   id="path3508"
   inkscape:connector-curvature="0"
   style="fill:none;stroke:#000000;stroke-width:79.3667984;stroke-linecap:round;stroke-linejoin:round" />
   <path
   class="fil0 str0"
   d="m 868,779 c 129,-88 218,-74 371,95"
   id="path3510"
   inkscape:connector-curvature="0"
   style="fill:none;stroke:#000000;stroke-width:79.3667984;stroke-linecap:round;stroke-linejoin:round" />
   <path
   class="fil0 str0"
   d="M 1580,413 C 1458,324 1288,278 1152,290 924,311 690,528 611,749 c -95,263 -114,492 0,660 102,150 250,231 431,216"
   id="path3512"
   inkscape:connector-curvature="0"
   style="fill:none;stroke:#000000;stroke-width:79.3667984;stroke-linecap:round;stroke-linejoin:round" />
   <path
   class="fil0 str0"
   d="m 1326,1084 c 70,-124 195,-239 319,-248 143,-10 249,169 262,363 8,123 -30,257 -90,337"
   id="path3514"
   inkscape:connector-curvature="0"
   style="fill:none;stroke:#000000;stroke-width:79.3667984;stroke-linecap:round;stroke-linejoin:round" />
   <path
   class="fil0 str0"
   d="m 1657,836 c -144,22 -277,366 -173,663"
   id="path3516"
   inkscape:connector-curvature="0"
   style="fill:none;stroke:#000000;stroke-width:79.3667984;stroke-linecap:round;stroke-linejoin:round" />
   <path
   class="fil0 str0"
   d="m 2961,1022 c 117,6 155,238 115,411 -33,140 -108,258 -233,268 -321,26 -236,-383 -107,-569 144,-206 548,-117 547,230"
   id="path3518"
   inkscape:connector-curvature="0"
   style="fill:none;stroke:#000000;stroke-width:79.3667984;stroke-linecap:round;stroke-linejoin:round" />
   <path
   class="fil0 str0"
   d="m 2680,1233 c 354,-150 313,285 111,468"
   id="path3520"
   inkscape:connector-curvature="0"
   style="fill:none;stroke:#000000;stroke-width:79.3667984;stroke-linecap:round;stroke-linejoin:round" />
   <path
   class="fil0 str0"
   d="m 1467,1100 c 62,-106 167,-89 216,-43 99,92 75,359 4,454"
   id="path3522"
   inkscape:connector-curvature="0"
   style="fill:none;stroke:#000000;stroke-width:79.3667984;stroke-linecap:round;stroke-linejoin:round" />
   <path
   class="fil0 str0"
   d="m 868,2014 c 132,116 227,406 8,620"
   id="path3524"
   inkscape:connector-curvature="0"
   style="fill:none;stroke:#000000;stroke-width:79.3667984;stroke-linecap:round;stroke-linejoin:round" />
   <path
   class="fil0 str0"
   d="m 1683,2124 c -201,0 -296,150 -320,304 -19,120 -16,243 148,300"
   id="path3526"
   inkscape:connector-curvature="0"
   style="fill:none;stroke:#000000;stroke-width:79.3667984;stroke-linecap:round;stroke-linejoin:round" />
   <path
   class="fil0 str0"
   d="m 2204,1723 c -216,-192 -581,-241 -794,-221 -219,20 -398,106 -675,367 -183,172 -248,416 -226,652 23,243 139,425 292,566 283,260 720,365 1117,347 590,-27 824,-425 876,-683"
   id="path3528"
   inkscape:connector-curvature="0"
   style="fill:none;stroke:#000000;stroke-width:79.3667984;stroke-linecap:round;stroke-linejoin:round" />
   <path
   class="fil0 str0"
   d="m 758,3046 c 510,184 1042,125 1481,-80"
   id="path3530"
   inkscape:connector-curvature="0"
   style="fill:none;stroke:#000000;stroke-width:79.3667984;stroke-linecap:round;stroke-linejoin:round" />
   <path
   class="fil0 str0"
   d="M 1612,3424 C 968,3875 455,4773 230,5512 92,5965 6,6410 53,6793 c 64,517 119,-602 373,-65 100,212 30,-291 217,-48 3,4 25,-35 22,-109 -7,-185 68,-535 183,-920 100,-335 227,-702 403,-948"
   id="path3532"
   inkscape:connector-curvature="0"
   style="fill:none;stroke:#000000;stroke-width:79.3667984;stroke-linecap:round;stroke-linejoin:round" />
   <path
   class="fil0 str0"
   d="m 1413,4083 c -282,879 -334,1681 -115,2251 236,612 751,930 1190,910 186,-8 382,-64 489,-211"
   id="path3534"
   inkscape:connector-curvature="0"
   style="fill:none;stroke:#000000;stroke-width:79.3667984;stroke-linecap:round;stroke-linejoin:round" />
   <path
   class="fil0 str0"
   d="m 3055,3214 c 713,488 1290,1160 1492,2015 142,600 112,1205 -104,1615 -38,73 -74,117 -143,55 -93,-85 25,-271 -169,-180 -68,32 -128,70 -111,-36 18,-116 -105,-30 -156,-2 -104,59 -200,121 -49,-110 134,-204 82,-657 -28,-1140 -119,-520 -344,-1079 -552,-1432"
   id="path3536"
   inkscape:connector-curvature="0"
   style="fill:none;stroke:#000000;stroke-width:79.3667984;stroke-linecap:round;stroke-linejoin:round" />
   <path
   class="fil0 str0"
   d="m 1384,6521 c -97,325 -271,1393 -147,1908 55,230 151,475 326,729 82,119 203,246 235,143 13,-41 52,-51 90,-11 28,30 73,66 107,-92 26,-118 178,18 84,-183 -226,-483 -36,-1319 273,-1774"
   id="path3538"
   inkscape:connector-curvature="0"
   style="fill:none;stroke:#000000;stroke-width:79.3667984;stroke-linecap:round;stroke-linejoin:round" />
   <path
   class="fil0 str0"
   d="m 2721,7206 c 5,312 37,714 139,1083 121,440 514,913 715,1000 85,37 331,101 297,-21 -37,-133 -11,-151 138,-112 -77,-108 -182,-226 -240,-380 -149,-392 -149,-825 -85,-1234"
   id="path3540"
   inkscape:connector-curvature="0"
   style="fill:none;stroke:#000000;stroke-width:79.3667984;stroke-linecap:round;stroke-linejoin:round" />
   <path
   class="fil0 str0"
   d="m 1639,9256 c -126,126 -336,151 -550,145 -160,-4 -231,-61 -298,-60 -103,2 -296,418 91,447"
   id="path3542"
   inkscape:connector-curvature="0"
   style="fill:none;stroke:#000000;stroke-width:79.3667984;stroke-linecap:round;stroke-linejoin:round" />
   <path
   class="fil0 str0"
   d="m 1262,9568 c -59,-36 -329,-77 -381,220 -32,185 110,166 210,163"
   id="path3544"
   inkscape:connector-curvature="0"
   style="fill:none;stroke:#000000;stroke-width:79.3667984;stroke-linecap:round;stroke-linejoin:round" />
   <path
   class="fil0 str0"
   d="m 1282,9745 c -94,0 -212,115 -191,203 13,54 79,131 239,98"
   id="path3546"
   inkscape:connector-curvature="0"
   style="fill:none;stroke:#000000;stroke-width:79.3667984;stroke-linecap:round;stroke-linejoin:round" />
   <path
   class="fil0 str0"
   d="m 1525,9745 c -112,40 -324,335 -96,364 62,8 173,-7 273,-38 196,-61 281,-195 414,-350 80,-93 113,-72 150,-112 75,-82 102,-110 88,-207 -28,-189 -85,-313 -280,-402"
   id="path3548"
   inkscape:connector-curvature="0"
   style="fill:none;stroke:#000000;stroke-width:79.3667984;stroke-linecap:round;stroke-linejoin:round" />
   <path
   class="fil0 str0"
   d="m 3583,9293 c -87,270 -161,317 -337,379 -170,60 -209,34 -370,67 -187,38 -255,140 -260,241 -5,116 82,214 197,154"
   id="path3550"
   inkscape:connector-curvature="0"
   style="fill:none;stroke:#000000;stroke-width:79.3667984;stroke-linecap:round;stroke-linejoin:round" />
   <path
   class="fil0 str0"
   d="m 3102,9829 c -246,2 -341,252 -271,340 75,95 379,94 429,39"
   id="path3552"
   inkscape:connector-curvature="0"
   style="fill:none;stroke:#000000;stroke-width:79.3667984;stroke-linecap:round;stroke-linejoin:round" />
   <path
   class="fil0 str0"
   d="m 3540,9959 c -93,44 -479,308 -190,429 216,90 384,65 498,-240 m -46,103 c -8,125 48,173 125,170 196,-8 178,-180 177,-373 -1,-69 43,-165 58,-224 95,-349 -34,-490 -153,-668"
   id="path3554"
   inkscape:connector-curvature="0"
   style="fill:none;stroke:#000000;stroke-width:79.3667984;stroke-linecap:round;stroke-linejoin:round" />
   <path
   class="fil0 str0"
   d="m 55,6814 c -6,119 24,487 69,605 93,244 209,80 214,-158 m -17,-143 c 0,131 45,268 120,368 82,109 139,131 174,104 65,-49 57,-196 20,-324 m -66,-330 c 0,417 221,525 317,469 74,-44 32,-206 -29,-330 m -60,-89 c 37,69 224,322 319,313 100,-10 48,-230 21,-281 -124,-237 -429,-517 -469,-574"
   id="path3556"
   inkscape:connector-curvature="0"
   style="fill:none;stroke:#000000;stroke-width:79.3667984;stroke-linecap:round;stroke-linejoin:round" />
   <path
   class="fil0 str0"
   d="m 3738,6729 c -70,49 -158,137 -251,213 -78,64 -424,300 -306,461 47,64 179,31 305,-97 m 240,-326 c -114,205 -311,365 -322,485 -10,111 63,157 160,131 239,-64 346,-319 473,-603 m -172,349 c -43,145 -43,302 39,314 199,29 261,-480 304,-627 m -62,267 c -18,161 -19,458 120,349 102,-81 148,-623 106,-715"
   id="path3558"
   inkscape:connector-curvature="0"
   style="fill:none;stroke:#000000;stroke-width:79.3667984;stroke-linecap:round;stroke-linejoin:round" />
   <path
   class="fil0 str0"
   d="m 4297,7604 c 261,532 713,1214 1515,1002 382,-101 530,-444 509,-1064 -8,-225 -10,-572 45,-796 80,-325 396,-677 903,-742 668,-85 412,682 42,601 -66,-15 -139,-46 -186,-35 -112,27 -163,152 -214,290 -47,128 -80,293 -120,477 -56,256 -49,659 -171,1005 -125,356 -386,651 -881,738 -357,63 -628,17 -857,-91 -423,-200 -825,-840 -978,-1334"
   id="path3560"
   inkscape:connector-curvature="0"
   style="fill:none;stroke:#000000;stroke-width:79.3667984;stroke-linecap:round;stroke-linejoin:round" />
  </g>
 </g>
<text
   xml:space="preserve"
   style="font-size:1128.79187012px;font-style:normal;font-weight:normal;line-height:125%;letter-spacing:0px;word-spacing:0px;fill:#000000;fill-opacity:1;stroke:none;font-family:Sans"
   x="2041.3042"
   y="5058.9912"
   id="text3585"
   sodipodi:linespacing="125%"><tspan
     sodipodi:role="line"
     id="tspan3587"
     x="2041.3042"
     y="5058.9912">FRONT</tspan></text>
</svg>