<?xml version="1.0" encoding="UTF-8"?>
<!DOCTYPE svg PUBLIC "-//W3C//DTD SVG 1.1//EN" "http://www.w3.org/Graphics/SVG/1.1/DTD/svg11.dtd">
<!-- Creator: CorelDRAW X6 -->
<svg xmlns="http://www.w3.org/2000/svg" xml:space="preserve" width="74.3478mm" height="105.04mm" version="1.1" style="shape-rendering:geometricPrecision; text-rendering:geometricPrecision; image-rendering:optimizeQuality; fill-rule:evenodd; clip-rule:evenodd"
viewBox="0 0 7435 10504"
 xmlns:xlink="http://www.w3.org/1999/xlink">
 <defs>
  <style type="text/css">
   <![CDATA[
    .str0 {stroke:black;stroke-width:79.37;stroke-linecap:round;stroke-linejoin:round}
    .fil4 {fill:none}
    .fil0 {fill:#117600}
    .fil3 {fill:#815C09}
    .fil2 {fill:#FCD59A}
    .fil1 {fill:white}
   ]]>
  </style>
 </defs>
 <g id="Colours">
  <metadata id="CorelCorpID_0Corel-Layer"/>
  <path class="fil0" d="M2893 1554c69,-97 85,-365 -16,-454 -50,-45 -156,-59 -215,49 -26,120 -23,265 27,398 62,-3 131,-1 204,8z"/>
  <path class="fil0" d="M4002 1714c197,-188 226,-625 -124,-465 -79,191 -93,453 124,465z"/>
  <path class="fil1" d="M3105 1236c-18,-189 -123,-361 -261,-356 -79,14 -151,124 -182,270 59,-108 165,-93 215,-49 101,89 85,357 16,454 43,5 87,12 131,21 58,-82 92,-217 81,-340z"/>
  <path class="fil1" d="M4280 1438c35,-174 -9,-405 -127,-408 -88,2 -172,40 -221,116 -20,30 -38,65 -54,103 350,-160 321,277 124,465 16,1 33,0 52,-2 125,-14 197,-133 226,-274z"/>
  <path class="fil2" d="M2360 1171c14,-84 36,-165 66,-242 70,-179 181,-338 328,-471 -125,-86 -296,-127 -431,-111 -228,27 -456,251 -529,474 -87,266 -101,496 18,661 106,147 256,224 437,204 39,-25 77,-46 114,-64 -24,-154 -30,-296 -4,-451z"/>
  <path class="fil2" d="M2496 7078c-131,-233 -443,-506 -485,-561 -3,48 -4,91 -2,128 5,74 -15,114 -19,109 -194,-238 -110,263 -216,54 -265,-523 -292,559 -368,96 -3,119 37,486 86,603 100,241 211,75 210,-164 22,82 60,160 110,223 85,107 142,127 177,100 63,-51 51,-198 11,-325 77,140 193,170 255,131 73,-46 27,-207 -38,-329 76,97 197,225 266,216 100,-13 41,-231 13,-281z"/>
  <path class="fil2" d="M3717 9420c-28,-189 -87,-314 -282,-403 2,5 5,11 7,16 94,200 -59,65 -84,183 -34,158 -79,122 -108,92 -38,-40 -77,-29 -90,11 -23,74 -92,29 -159,-45 -126,126 -335,149 -549,144 -160,-4 -231,-61 -298,-60 -103,2 -296,419 91,447 -32,185 111,166 210,163 15,54 83,128 240,95 11,32 40,56 97,64 62,8 173,-7 273,-38 196,-61 281,-195 414,-350 80,-93 113,-72 150,-112 75,-82 102,-110 88,-207z"/>
  <path class="fil2" d="M5236 9286c33,119 -196,62 -289,25 -87,271 -160,316 -337,377 -170,60 -209,34 -370,67 -187,38 -255,140 -260,241 -5,117 82,214 197,154 4,13 9,25 17,35 75,95 379,94 429,39 -32,67 -19,134 91,180 188,79 341,70 452,-138 -8,125 48,173 125,170 196,-8 178,-180 177,-373 -1,-69 43,-166 58,-224 95,-349 -34,-489 -153,-666 -150,-38 -175,-21 -138,112z"/>
  <path class="fil3" d="M2167 5719c91,-338 207,-709 377,-959 34,-193 80,-392 138,-595 -60,-106 -104,-205 -127,-292 -12,-46 -18,-84 -4,-109 -2,-1 -4,-2 -5,-3 -473,499 -832,1224 -1001,1836 -126,457 -200,904 -142,1287 1,7 2,14 3,21 75,463 103,-619 368,-96 106,209 22,-292 216,-54 3,4 24,-36 19,-109 -2,-36 -2,-79 2,-128 14,-197 72,-486 156,-798z"/>
  <path class="fil3" d="M6884 6653c-253,372 -547,481 -786,423 -445,-108 -796,-721 -1015,-756 -35,145 -72,295 -95,483 362,149 698,960 1446,750 244,-69 487,-206 707,-494 341,-446 285,-1079 105,-1581 -123,-343 -313,-600 -586,-948 -142,-182 -265,-342 -305,-447 -52,-138 -17,-331 50,-425 28,-40 104,-64 163,-96 333,-181 22,-929 -426,-426 -340,382 -347,855 -194,1153 356,691 875,800 1015,1820 29,213 13,408 -80,544z"/>
  <path class="fil3" d="M3709 7267c-353,-31 -734,-265 -975,-683 -98,370 -253,1370 -134,1863 55,230 151,475 326,729 23,34 50,68 76,98 67,75 136,119 159,45 13,-41 52,-51 90,-11 28,30 73,66 108,-92 26,-118 178,18 84,-183 -2,-5 -5,-11 -7,-16 -213,-482 -28,-1298 274,-1750z"/>
  <path class="fil3" d="M5133 8794c-173,-456 -168,-1098 -169,-1579 0,-158 9,-292 23,-411 23,-188 60,-338 95,-483 91,-375 172,-713 -22,-1560 -18,45 -39,90 -63,135 -184,349 -363,524 -550,578 -514,149 -1415,-690 -1765,-1309 -58,204 -104,403 -138,595 -111,636 -85,1203 94,1631 29,68 60,133 95,193 241,419 623,652 975,683 49,4 97,5 145,1 78,-6 157,-20 231,-45 5,312 37,714 139,1084 121,440 515,913 715,1000 3,1 6,2 9,4 92,37 322,94 289,-25 -37,-133 -11,-151 138,-112 -77,-108 -182,-226 -240,-380z"/>
  <path class="fil3" d="M2689 1547c-51,-133 -53,-278 -27,-398 31,-145 104,-255 182,-270 138,-4 243,168 261,356 11,123 -23,258 -81,340 -44,-9 -88,-16 -131,-21 -73,-8 -142,-10 -204,-8zm2371 3213c214,-529 12,-1023 -752,-1541 327,-22 926,-676 955,-1023 217,-5 407,-147 619,-350 192,-184 223,-531 69,-762 -92,-139 -284,-264 -418,-252 -88,8 -172,36 -251,78 -85,-395 -578,-689 -938,-789 -398,-111 -800,-81 -1146,62 -171,70 -319,163 -443,275 -147,133 -259,292 -328,471 -30,77 -52,158 -66,242 -26,155 -21,297 4,451 -37,17 -75,38 -114,64 -90,59 -187,140 -300,252 -178,178 -237,423 -208,659 27,220 129,387 264,518 46,15 92,28 138,40 21,-105 112,-49 199,38 19,2 37,5 56,7 -52,-123 -73,-238 3,-290 69,-47 175,69 242,205 -26,-135 -24,-259 37,-370 4,-7 8,-15 13,-22 54,-85 140,-100 207,-12 28,37 40,98 47,172 6,-180 81,-293 159,-278 196,39 101,446 87,546 -17,116 -23,237 -40,321 0,2 -1,4 -1,6 -21,-10 -39,55 -61,121 -18,55 -51,202 -116,104 -60,-89 -78,-21 -106,49 -80,199 -120,-19 -246,-18 -39,0 -61,10 -72,28 -15,24 -9,63 4,109 23,87 67,186 127,292 350,619 1251,1458 1765,1309 187,-54 366,-229 550,-578 24,-45 45,-90 63,-135zm-780 -3322c-29,141 -101,261 -226,274 -19,2 -36,3 -52,2 -216,-12 -203,-274 -124,-465 16,-38 34,-73 54,-103 50,-75 134,-114 221,-116 117,3 162,234 127,408z"/>
  <path class="fil2" d="M4807 1368c160,-233 420,-507 727,-535 134,-12 326,113 418,251 153,231 123,578 -69,762 -211,202 -401,344 -618,350 -111,3 -229,-30 -360,-110 -1,-1 -2,-1 -3,-2 -68,-38 -107,-125 -84,-186 63,-166 -123,-274 -11,-530z"/>
  <path class="fil2" d="M3153 3473l0 -1c8,0 16,-1 24,-2 589,-43 812,-448 857,-708 46,-525 -300,-800 -618,-1011 -110,-93 -257,-149 -402,-179l-2 0 0 0 -12 -2 -1 0 -1 0 -12 -2 0 0 -14 -2 -1 0 -12 -2 -1 0 -11 -2 -2 0 0 0 -14 -2 -1 0 -2 0 -10 -1 -1 0 -1 0 -2 0 -2 0 -6 -1 -2 0 0 0 -2 0 -2 0 -6 -1 -3 0 0 0 -1 0 -9 -1 -3 0 0 0 -3 0 -9 -1 -1 0 -10 -1 -2 0 -1 0 -10 -1 -2 0 -1 0 0 0 -10 -1 -2 0 -1 0 -10 -1 -2 0 -2 0 -10 0 -1 0 -12 0 -1 0 -2 0 -10 0 -1 0 -12 0 -1 0 -3 0 -6 0 -3 0 0 0 -3 0 -6 0 -3 0 0 0 0 0 -12 0 0 0 -11 0 0 0 0 0c-8,0 -15,0 -23,1l-1 0c-26,1 -51,3 -74,6 -87,10 -168,31 -251,70l-2 1 -2 1 0 0 -2 1 -2 1 -2 1 -2 1 -2 1 -1 0 -1 0 -2 1 -4 2 -2 1 -2 1 0 0 -2 1 -2 1 -2 1 -2 1 -2 1 -1 0 -1 0 -2 1 -7 3 0 0 0 0 -2 1 -5 3 -2 1 -1 1 -1 0 -2 1 -5 3 -2 1 0 0 -2 1 0 0 -7 4 -1 1 -1 0 -2 1 -4 2 -2 1 -2 1 0 0 0 0 -7 4 -2 1 -1 1 0 0 0 0 -9 6 -1 0 -1 1 -7 5 -1 1 0 0 -9 6 -1 1 -1 0 -9 6 -1 1 0 0c-7,4 -13,9 -20,14l0 0 0 0c-7,5 -14,10 -21,15l0 0 -1 1 -9 7 -1 1 -11 8 -2 1 -8 6 -1 1 0 0 -1 1c-10,8 -20,16 -31,25l-1 1 0 0c-7,6 -15,12 -22,18l0 0c-7,6 -14,12 -22,19l0 0 -1 1 -10 8 0 0 -1 0 -1 1 -8 7 -2 2 -2 2 -9 8 0 0 -1 1 -10 9 -1 1 0 0 -8 8 -3 3 -2 2 -10 9 0 0 -10 9 -2 2 -3 3 -5 5 -4 4 -1 1 -5 5 -5 5 -1 1 -4 4 -5 5 -3 3 -2 2 -5 5 -5 5c-178,178 -237,423 -208,659l1 10 0 1 1 4 1 6 1 4 1 6 1 5 1 6 1 5 1 5 1 5 1 6 1 4 1 6 1 5 1 4 1 7 0 0 2 9 0 1 2 10 0 0 2 9 0 0 1 5 2 6 1 4 2 6 1 4 2 6 1 4 2 6 1 3 2 7 1 3 2 7 1 2 3 7 1 2 0 1 3 9 0 0 3 9 0 1 3 8 0 1 2 5 2 4 2 5 2 4 2 4 2 5 2 4 2 5 2 4 2 4 2 5 3 5 1 2 1 2 4 7 0 1 4 8 0 0 4 8 1 1 4 7 0 0 4 6 1 2 3 5 2 3 3 4 2 3 3 5 2 3 2 4 3 4 3 4 0 1 4 6 1 1 5 7 0 0 5 7 0 0 5 7 1 1 4 6 1 1 2 3 4 5 2 2 4 5 2 3 4 5 3 3 3 3 3 4 3 3 3 4 0 0 5 6 6 7 0 0 6 7 1 1 5 6 1 1 2 2 4 4 2 2 4 5 1 1 4 4 1 1 4 4 3 3 4 4 1 1 4 5 1 1 5 5 2 2 1 1 6 6 0 0 6 6 0 0 6 6 1 1 0 0 1 1 1 1 5 4 1 1 0 0 0 0 1 1 1 1 5 4 1 1 0 0 1 1 1 1 4 4 1 1 1 1 1 0 0 0 1 1 1 1 6 5 0 0 5 4 1 1 1 1 1 1c4,4 8,7 12,10l4 3 10 8 3 3c4,3 8,7 13,10l0 0c4,3 9,7 13,10l3 3 10 8 4 3c4,3 9,6 13,9l0 0c5,3 9,6 14,9l3 2 1 1 0 1c58,169 306,480 391,525 2,1 4,2 5,3 11,-18 33,-28 72,-28 126,-1 166,217 246,18 28,-70 47,-138 106,-49 65,98 98,-49 116,-104 21,-66 40,-131 61,-121 0,-2 1,-4 1,-6z"/>
 </g>
 <g id="lineart">
  <metadata id="CorelCorpID_1Corel-Layer"/>
  <path class="fil4 str0" d="M2733 6584c-98,370 -253,1370 -134,1863 55,230 151,475 326,729 82,119 203,246 235,143 13,-41 52,-51 90,-11 28,30 73,66 108,-92 26,-118 178,18 84,-183 -224,-480 -39,-1309 267,-1766"/>
  <path class="fil4 str0" d="M4084 7223c5,312 37,714 139,1084 121,440 515,913 715,1000 86,37 331,101 297,-21 -37,-133 -11,-151 138,-112 -77,-108 -182,-226 -240,-380 -173,-456 -168,-1098 -169,-1579 -3,-1045 413,-1070 96,-2454"/>
  <path class="fil4 str0" d="M2364 1623c-24,-154 -30,-296 -4,-451 74,-441 377,-798 838,-987 347,-142 749,-172 1146,-62 360,100 853,394 938,789"/>
  <path class="fil4 str0" d="M4807 1368c166,-242 426,-508 727,-535 134,-12 326,113 418,252 153,231 123,578 -69,762 -320,306 -592,475 -981,238"/>
  <path class="fil4 str0" d="M4308 3220c327,-22 926,-676 955,-1023"/>
  <path class="fil4 str0" d="M5470 1183c-318,259 -266,324 -192,430 100,143 43,222 -124,214"/>
  <path class="fil4 str0" d="M2053 845c127,-91 216,-81 374,84"/>
  <path class="fil4 str0" d="M2755 459c-125,-86 -296,-127 -431,-111 -228,27 -456,251 -529,474 -87,266 -101,496 18,661 106,147 256,224 437,204"/>
  <path class="fil4 str0" d="M2520 1137c67,-126 188,-244 313,-257 143,-14 254,162 272,356 11,123 -23,258 -81,340"/>
  <path class="fil4 str0" d="M2844 879c-144,26 -267,374 -155,668"/>
  <path class="fil4 str0" d="M4154 1030c117,3 162,234 127,408 -29,141 -101,261 -226,274 -320,35 -247,-376 -122,-566 138,-210 545,-132 554,215"/>
  <path class="fil4 str0" d="M3879 1249c350,-160 321,277 124,465"/>
  <path class="fil4 str0" d="M2662 1149c59,-108 165,-93 215,-49 101,89 85,357 16,454"/>
  <path class="fil4 str0" d="M2087 2080c135,112 239,400 25,620"/>
  <path class="fil4 str0" d="M2906 2168c-201,6 -292,158 -312,313 -13,100 -10,203 87,264"/>
  <path class="fil4 str0" d="M3415 1752c-222,-186 -588,-225 -800,-199 -218,26 -396,117 -666,386 -178,178 -237,423 -208,659 30,243 150,422 308,558 33,29 68,56 105,80m999 237c8,0 15,-1 23,-2 589,-43 813,-448 857,-708"/>
  <path class="fil4 str0" d="M2006 3116c46,15 92,28 138,40m199 38c19,2 37,5 56,7"/>
  <path class="fil4 str0" d="M2546 3761c-473,499 -832,1224 -1001,1836 -126,457 -200,904 -142,1287 78,515 103,-606 371,-75 106,209 22,-292 216,-54 3,4 24,-36 19,-109 -12,-184 53,-537 157,-926 91,-338 207,-709 377,-959"/>
  <path class="fil4 str0" d="M2682 4164c-250,876 -277,1668 -44,2226 253,606 777,910 1216,878 186,-14 380,-75 483,-224"/>
  <path class="fil4 str0" d="M1407 6904c-3,119 37,486 86,603 100,241 211,75 210,-164m-21 -142c4,131 52,267 131,365 85,107 142,127 177,100 63,-51 51,-198 11,-325m-75 -329c12,418 235,519 330,460 73,-46 27,-207 -38,-329m-62 -88c39,68 233,316 328,304 100,-13 41,-231 13,-281 -131,-233 -443,-506 -485,-561"/>
  <path class="fil4 str0" d="M3152 3479c18,-84 24,-208 41,-327 15,-100 110,-508 -87,-546 -78,-15 -153,98 -159,278m44 403c-55,-228 -18,-480 -91,-575 -67,-89 -153,-73 -207,12 -133,209 -39,469 60,765m-110 -373c-67,-136 -173,-252 -242,-205 -166,113 133,530 200,667m-135 -238c-96,-130 -296,-351 -324,-176 -21,129 315,561 408,600"/>
  <path class="fil4 str0" d="M4308 3220c829,562 996,1095 689,1675 -184,349 -363,524 -550,578 -602,175 -1735,-1006 -1892,-1601 -21,-80 -24,-136 68,-137 126,-1 166,217 246,18 28,-70 47,-138 106,-49 65,98 98,-49 116,-104 37,-114 66,-225 111,48 55,332 713,828 1021,969 131,-230 179,-334 251,-524"/>
  <path class="fil4 str0" d="M5083 6320c219,35 570,648 1015,756 239,58 533,-51 786,-423 92,-136 109,-331 80,-544 -140,-1020 -659,-1129 -1015,-1820 -153,-297 -146,-771 194,-1153 448,-503 759,245 426,426 -59,32 -135,56 -163,96 -67,94 -102,288 -50,425 40,106 163,266 305,447 272,348 463,605 586,948 180,502 235,1135 -105,1581 -220,288 -463,425 -707,494 -748,210 -1084,-601 -1446,-750"/>
  <path class="fil4 str0" d="M3001 9274c-126,126 -335,149 -549,144 -160,-4 -231,-61 -298,-60 -103,2 -296,419 91,447m381 -220c-59,-36 -329,-77 -381,220 -32,185 111,166 210,163m190 -206c-94,0 -213,115 -191,203 13,54 81,131 241,98m193 -301c-112,40 -324,335 -96,364 62,8 173,-7 273,-38 196,-61 281,-195 414,-350 80,-93 113,-72 150,-112 75,-82 102,-110 88,-207 -28,-189 -87,-314 -282,-403"/>
  <path class="fil4 str0" d="M4947 9312c-87,271 -160,316 -337,377 -170,60 -209,34 -370,67 -187,38 -255,140 -260,241 -5,117 82,214 197,154"/>
  <path class="fil4 str0" d="M4466 9846c-246,2 -341,252 -271,340 75,95 379,94 429,39"/>
  <path class="fil4 str0" d="M4904 9976c-93,44 -479,308 -190,430 216,90 384,65 498,-240m-46 103c-8,125 48,173 125,170 196,-8 178,-180 177,-373 -1,-69 43,-166 58,-224 95,-349 -34,-489 -153,-666"/>
 </g>
</svg>
