<?xml version="1.0" encoding="UTF-8"?>
<!DOCTYPE svg PUBLIC "-//W3C//DTD SVG 1.1//EN" "http://www.w3.org/Graphics/SVG/1.1/DTD/svg11.dtd">
<!-- Creator: CorelDRAW X6 -->
<svg xmlns="http://www.w3.org/2000/svg" xml:space="preserve" width="74.3478mm" height="105.04mm" version="1.1" style="shape-rendering:geometricPrecision; text-rendering:geometricPrecision; image-rendering:optimizeQuality; fill-rule:evenodd; clip-rule:evenodd"
viewBox="0 0 7435 10504"
 xmlns:xlink="http://www.w3.org/1999/xlink">
 <defs>
  <style type="text/css">
   <![CDATA[
    .str0 {stroke:black;stroke-width:79.37;stroke-linecap:round;stroke-linejoin:round}
    .fil0 {fill:none}
   ]]>
  </style>
 </defs>
 <g id="Layer_x0020_1">
  <metadata id="CorelCorpID_0Corel-Layer"/>
  <g id="_750457968">
   <path class="fil0 str0" d="M2733 6584c-98,370 -253,1370 -134,1863 55,230 151,475 326,729 82,119 203,246 235,143 13,-41 52,-51 90,-11 28,30 73,66 108,-92 26,-118 178,18 84,-183 -224,-480 -39,-1309 267,-1766"/>
   <path class="fil0 str0" d="M4084 7223c5,312 37,714 139,1084 121,440 515,913 715,1000 86,37 331,101 297,-21 -37,-133 -11,-151 138,-112 -77,-108 -182,-226 -240,-380 -173,-456 -168,-1098 -169,-1579 -3,-1045 413,-1070 96,-2454"/>
   <path class="fil0 str0" d="M3002 9274c-126,126 -336,151 -550,145 -160,-4 -231,-61 -298,-60 -103,2 -296,419 91,447"/>
   <path class="fil0 str0" d="M2625 9587c-59,-36 -329,-77 -381,220 -32,185 110,166 210,163"/>
   <path class="fil0 str0" d="M2645 9764c-94,0 -213,115 -191,203 13,54 79,131 239,98"/>
   <path class="fil0 str0" d="M2887 9764c-112,41 -324,335 -96,365 62,8 174,-7 273,-38 196,-61 282,-195 414,-350 80,-93 113,-72 150,-112 75,-82 102,-110 88,-207 -28,-189 -85,-313 -281,-403"/>
   <path class="fil0 str0" d="M4947 9312c-87,271 -161,317 -337,379 -171,60 -209,34 -370,67 -187,38 -256,140 -260,241 -5,117 82,215 197,154"/>
   <path class="fil0 str0" d="M4466 9848c-246,2 -341,252 -271,340 75,95 380,94 429,39"/>
   <path class="fil0 str0" d="M4904 9978c-93,44 -479,308 -190,430 216,90 384,65 498,-241m-46 103c-8,125 48,173 125,170 196,-8 178,-180 177,-374 -1,-69 43,-166 58,-224 95,-350 -34,-491 -153,-668"/>
   <path class="fil0 str0" d="M2364 1623c-24,-154 -30,-296 -4,-451 74,-441 377,-798 838,-987 347,-142 749,-172 1146,-62 360,100 853,394 938,789"/>
   <path class="fil0 str0" d="M4807 1368c166,-242 426,-508 727,-535 134,-12 326,113 418,252 153,231 123,578 -69,762 -320,306 -592,475 -981,238"/>
   <path class="fil0 str0" d="M4308 3220c327,-22 926,-676 955,-1023"/>
   <path class="fil0 str0" d="M5470 1183c-318,259 -266,324 -192,430 100,143 43,222 -124,214"/>
   <path class="fil0 str0" d="M2053 845c127,-91 216,-81 374,84"/>
   <path class="fil0 str0" d="M2755 459c-125,-86 -296,-127 -431,-111 -228,27 -456,251 -529,474 -87,266 -101,496 18,661 106,147 256,224 437,204"/>
   <path class="fil0 str0" d="M2520 1137c67,-126 188,-244 313,-257 143,-14 254,162 272,356 11,123 -23,258 -81,340"/>
   <path class="fil0 str0" d="M2844 879c-144,26 -267,374 -155,668"/>
   <path class="fil0 str0" d="M4154 1030c117,3 162,234 127,408 -29,141 -101,261 -226,274 -320,35 -247,-376 -122,-566 138,-210 545,-132 554,215"/>
   <path class="fil0 str0" d="M3879 1249c350,-160 321,277 124,465"/>
   <path class="fil0 str0" d="M2662 1149c59,-108 165,-93 215,-49 101,89 85,357 16,454"/>
   <path class="fil0 str0" d="M2087 2080c135,112 239,400 25,620"/>
   <path class="fil0 str0" d="M2906 2168c-201,6 -292,158 -312,313 -13,100 -10,203 87,264"/>
   <path class="fil0 str0" d="M3415 1752c-222,-186 -588,-225 -800,-199 -218,26 -396,117 -666,386 -178,178 -237,423 -208,659 30,243 150,422 308,558 33,29 68,56 105,80m999 237c8,0 15,-1 23,-2 589,-43 813,-448 857,-708"/>
   <path class="fil0 str0" d="M2006 3116c46,15 92,28 138,40m199 38c19,2 37,5 56,7"/>
   <path class="fil0 str0" d="M2546 3761c-473,499 -832,1224 -1001,1836 -126,457 -200,904 -142,1287 78,515 103,-606 371,-75 106,209 22,-292 216,-54 3,4 24,-36 19,-109 -12,-184 53,-537 157,-926 91,-338 207,-709 377,-959"/>
   <path class="fil0 str0" d="M2682 4164c-250,876 -277,1668 -44,2226 253,606 777,910 1216,878 186,-14 380,-75 483,-224"/>
   <path class="fil0 str0" d="M1407 6904c-3,119 37,486 86,603 100,241 211,75 210,-164m-21 -142c4,131 52,267 131,365 85,107 142,127 177,100 63,-51 51,-198 11,-325m-75 -329c12,418 235,519 330,460 73,-46 27,-207 -38,-329m-62 -88c39,68 233,316 328,304 100,-13 41,-231 13,-281 -131,-233 -443,-506 -485,-561"/>
   <path class="fil0 str0" d="M3152 3479c18,-84 24,-208 41,-327 15,-100 110,-508 -87,-546 -78,-15 -153,98 -159,278m44 403c-55,-228 -18,-480 -91,-575 -67,-89 -153,-73 -207,12 -133,209 -39,469 60,765m-110 -373c-67,-136 -173,-252 -242,-205 -166,113 133,530 200,667m-135 -238c-96,-130 -296,-351 -324,-176 -21,129 313,560 406,599"/>
   <path class="fil0 str0" d="M4308 3220c829,562 996,1095 689,1675 -184,349 -363,524 -550,578 -602,175 -1735,-1006 -1892,-1601 -21,-80 -24,-136 68,-137 126,-1 166,217 246,18 28,-70 47,-138 106,-49 65,98 98,-49 116,-104 37,-114 66,-225 111,48 55,332 713,828 1021,969 131,-230 179,-334 251,-524"/>
   <path class="fil0 str0" d="M5083 6320c219,35 570,648 1015,756 239,58 533,-51 786,-423 92,-136 109,-331 80,-544 -140,-1020 -659,-1129 -1015,-1820 -153,-297 -146,-771 194,-1153 448,-503 759,245 426,426 -59,32 -135,56 -163,96 -67,94 -102,288 -50,425 40,106 163,266 305,447 272,348 463,605 586,948 180,502 235,1135 -105,1581 -220,288 -463,425 -707,494 -748,210 -1084,-601 -1446,-750"/>
  </g>
 </g>
</svg>
