<?xml version="1.0" encoding="UTF-8"?>
<!DOCTYPE svg PUBLIC "-//W3C//DTD SVG 1.1//EN" "http://www.w3.org/Graphics/SVG/1.1/DTD/svg11.dtd">
<!-- Creator: CorelDRAW X6 -->
<svg xmlns="http://www.w3.org/2000/svg" xml:space="preserve" width="77.2275mm" height="104.739mm" version="1.1" style="shape-rendering:geometricPrecision; text-rendering:geometricPrecision; image-rendering:optimizeQuality; fill-rule:evenodd; clip-rule:evenodd"
viewBox="0 0 7722 10473"
 xmlns:xlink="http://www.w3.org/1999/xlink">
 <defs>
  <style type="text/css">
   <![CDATA[
    .str0 {stroke:black;stroke-width:79.3668;stroke-linecap:round;stroke-linejoin:round}
    .fil0 {fill:none}
   ]]>
  </style>
 </defs>
 <g id="lineart">
  <metadata id="CorelCorpID_0Corel-Layer"/>
  <g id="_749195728">
   <path class="fil0 str0" d="M1157 1565c-20,-155 -21,-297 9,-451 86,-438 399,-786 864,-963 350,-133 753,-152 1147,-30 357,110 841,417 915,814"/>
   <path class="fil0 str0" d="M3604 1378c173,-237 439,-496 741,-515 134,-8 322,122 410,263 147,235 107,581 -90,759 -328,297 -604,459 -986,211"/>
   <path class="fil0 str0" d="M3055 3214c327,-13 944,-649 982,-996"/>
   <path class="fil0 str0" d="M4272 1212c-324,250 -274,317 -204,424 96,145 37,223 -129,211"/>
   <path class="fil0 str0" d="M868 779c129,-88 218,-74 371,95"/>
   <path class="fil0 str0" d="M1580 413c-122,-89 -292,-135 -428,-123 -228,21 -462,238 -541,459 -95,263 -114,492 0,660 102,150 250,231 431,216"/>
   <path class="fil0 str0" d="M1326 1084c70,-124 195,-239 319,-248 143,-10 249,169 262,363 8,123 -30,257 -90,337"/>
   <path class="fil0 str0" d="M1657 836c-144,22 -277,366 -173,663"/>
   <path class="fil0 str0" d="M2961 1022c117,6 155,238 115,411 -33,140 -108,258 -233,268 -321,26 -236,-383 -107,-569 144,-206 548,-117 547,230"/>
   <path class="fil0 str0" d="M2680 1233c354,-150 313,285 111,468"/>
   <path class="fil0 str0" d="M1467 1100c62,-106 167,-89 216,-43 99,92 75,359 4,454"/>
   <path class="fil0 str0" d="M868 2014c132,116 227,406 8,620"/>
   <path class="fil0 str0" d="M1683 2124c-201,0 -296,150 -320,304 -19,120 -16,243 148,300"/>
   <path class="fil0 str0" d="M2204 1723c-216,-192 -581,-241 -794,-221 -219,20 -398,106 -675,367 -183,172 -248,416 -226,652 23,243 139,425 292,566 283,260 720,365 1117,347 590,-27 824,-425 876,-683"/>
   <path class="fil0 str0" d="M758 3046c510,184 1042,125 1481,-80"/>
   <path class="fil0 str0" d="M1612 3424c-644,451 -1157,1349 -1382,2088 -138,453 -224,898 -177,1281 64,517 119,-602 373,-65 100,212 30,-291 217,-48 3,4 25,-35 22,-109 -7,-185 68,-535 183,-920 100,-335 227,-702 403,-948"/>
   <path class="fil0 str0" d="M1413 4083c-282,879 -334,1681 -115,2251 236,612 751,930 1190,910 186,-8 382,-64 489,-211"/>
   <path class="fil0 str0" d="M3055 3214c713,488 1290,1160 1492,2015 142,600 112,1205 -104,1615 -38,73 -74,117 -143,55 -93,-85 25,-271 -169,-180 -68,32 -128,70 -111,-36 18,-116 -105,-30 -156,-2 -104,59 -200,121 -49,-110 134,-204 82,-657 -28,-1140 -119,-520 -344,-1079 -552,-1432"/>
   <path class="fil0 str0" d="M1384 6521c-97,325 -271,1393 -147,1908 55,230 151,475 326,729 82,119 203,246 235,143 13,-41 52,-51 90,-11 28,30 73,66 107,-92 26,-118 178,18 84,-183 -226,-483 -36,-1319 273,-1774"/>
   <path class="fil0 str0" d="M2721 7206c5,312 37,714 139,1083 121,440 514,913 715,1000 85,37 331,101 297,-21 -37,-133 -11,-151 138,-112 -77,-108 -182,-226 -240,-380 -149,-392 -149,-825 -85,-1234"/>
   <path class="fil0 str0" d="M1639 9256c-126,126 -336,151 -550,145 -160,-4 -231,-61 -298,-60 -103,2 -296,418 91,447"/>
   <path class="fil0 str0" d="M1262 9568c-59,-36 -329,-77 -381,220 -32,185 110,166 210,163"/>
   <path class="fil0 str0" d="M1282 9745c-94,0 -212,115 -191,203 13,54 79,131 239,98"/>
   <path class="fil0 str0" d="M1525 9745c-112,40 -324,335 -96,364 62,8 173,-7 273,-38 196,-61 281,-195 414,-350 80,-93 113,-72 150,-112 75,-82 102,-110 88,-207 -28,-189 -85,-313 -280,-402"/>
   <path class="fil0 str0" d="M3583 9293c-87,270 -161,317 -337,379 -170,60 -209,34 -370,67 -187,38 -255,140 -260,241 -5,116 82,214 197,154"/>
   <path class="fil0 str0" d="M3102 9829c-246,2 -341,252 -271,340 75,95 379,94 429,39"/>
   <path class="fil0 str0" d="M3540 9959c-93,44 -479,308 -190,429 216,90 384,65 498,-240m-46 103c-8,125 48,173 125,170 196,-8 178,-180 177,-373 -1,-69 43,-165 58,-224 95,-349 -34,-490 -153,-668"/>
   <path class="fil0 str0" d="M55 6814c-6,119 24,487 69,605 93,244 209,80 214,-158m-17 -143c0,131 45,268 120,368 82,109 139,131 174,104 65,-49 57,-196 20,-324m-66 -330c0,417 221,525 317,469 74,-44 32,-206 -29,-330m-60 -89c37,69 224,322 319,313 100,-10 48,-230 21,-281 -124,-237 -429,-517 -469,-574"/>
   <path class="fil0 str0" d="M3738 6729c-70,49 -158,137 -251,213 -78,64 -424,300 -306,461 47,64 179,31 305,-97m240 -326c-114,205 -311,365 -322,485 -10,111 63,157 160,131 239,-64 346,-319 473,-603m-172 349c-43,145 -43,302 39,314 199,29 261,-480 304,-627m-62 267c-18,161 -19,458 120,349 102,-81 148,-623 106,-715"/>
   <path class="fil0 str0" d="M4297 7604c261,532 713,1214 1515,1002 382,-101 530,-444 509,-1064 -8,-225 -10,-572 45,-796 80,-325 396,-677 903,-742 668,-85 412,682 42,601 -66,-15 -139,-46 -186,-35 -112,27 -163,152 -214,290 -47,128 -80,293 -120,477 -56,256 -49,659 -171,1005 -125,356 -386,651 -881,738 -357,63 -628,17 -857,-91 -423,-200 -825,-840 -978,-1334"/>
  </g>
 </g>
</svg>
