<?xml version="1.0" encoding="UTF-8" standalone="no"?>
<!-- Created with Inkscape (http://www.inkscape.org/) -->

<svg
   xmlns:dc="http://purl.org/dc/elements/1.1/"
   xmlns:cc="http://creativecommons.org/ns#"
   xmlns:rdf="http://www.w3.org/1999/02/22-rdf-syntax-ns#"
   xmlns:svg="http://www.w3.org/2000/svg"
   xmlns="http://www.w3.org/2000/svg"
   xmlns:sodipodi="http://sodipodi.sourceforge.net/DTD/sodipodi-0.dtd"
   xmlns:inkscape="http://www.inkscape.org/namespaces/inkscape"
   width="900"
   height="1200"
   id="svg4384"
   version="1.1"
   inkscape:version="0.48.2 r9819"
   sodipodi:docname="New document 9">
  <defs
     id="defs4386">
    <clipPath
       clipPathUnits="userSpaceOnUse"
       id="clipPath4921">
      <rect
         style="opacity:0.63793137;fill:#b30008;fill-opacity:1;stroke:none"
         id="rect4923"
         width="900"
         height="1200"
         x="-100"
         y="-156.20934" />
    </clipPath>
  </defs>
  <sodipodi:namedview
     id="base"
     pagecolor="#ffffff"
     bordercolor="#666666"
     borderopacity="1.0"
     inkscape:pageopacity="0.0"
     inkscape:pageshadow="2"
     inkscape:zoom="0.35"
     inkscape:cx="-47.857143"
     inkscape:cy="519.99991"
     inkscape:document-units="px"
     inkscape:current-layer="layer1"
     showgrid="false"
     fit-margin-top="0"
     fit-margin-left="0"
     fit-margin-right="0"
     fit-margin-bottom="0"
     inkscape:window-width="1676"
     inkscape:window-height="1006"
     inkscape:window-x="4"
     inkscape:window-y="0"
     inkscape:window-maximized="1" />
  <metadata
     id="metadata4389">
    <rdf:RDF>
      <cc:Work
         rdf:about="">
        <dc:format>image/svg+xml</dc:format>
        <dc:type
           rdf:resource="http://purl.org/dc/dcmitype/StillImage" />
        <dc:title></dc:title>
      </cc:Work>
    </rdf:RDF>
  </metadata>
  <g
     inkscape:label="Layer 1"
     inkscape:groupmode="layer"
     id="layer1"
     transform="translate(82.857143,147.63791)">
    <g
       id="g4914"
       clip-path="url(#clipPath4921)"
       transform="translate(17.142857,8.5714286)">
      <rect
         ry="0"
         y="-161.92354"
         x="-197.14285"
         height="851.42859"
         width="1297.1428"
         id="rect4398"
         style="fill:#fff8ec;fill-opacity:1;stroke:none" />
      <path
         sodipodi:nodetypes="cssssssssssssssssssssssssssssscssccssssscssssssssssscssssssscssssscccsssscssssssssssssssssscsssssssssccsssssssssssssssssssssscccscc"
         inkscape:connector-curvature="0"
         id="path4396"
         d="M 0,598.07647 C 3.8095238,594.26694 7.6190476,582.83837 11.428571,586.6479 15.238095,590.45742 -5.3874802,598.07647 0,598.07647 c 6.0982136,0 9.2116939,-8.04589 14.285714,-11.42857 4.897959,-3.26531 1.768708,2.31292 2.857143,2.85714 1.703671,0.85184 3.90727,-0.60234 5.714286,0 2.555506,0.85184 3.304931,4.50961 5.714286,5.71429 0.851835,0.42591 1.904761,0 2.857142,0 0.952381,0 1.904762,0 2.857143,0 4.761905,0 9.52381,0 14.285715,0 1.904761,0 3.809523,0 5.714285,0 1.904762,0 4.010615,0.85183 5.714286,0 0.851835,-0.42592 -0.673435,-2.18371 0,-2.85715 0.673435,-0.67343 2.064714,0.52829 2.857143,0 2.241327,-1.49422 3.472958,-4.22006 5.714286,-5.71428 1.584857,-1.05657 4.010614,0.85183 5.714285,0 1.204677,-0.60234 1.652466,-2.25481 2.857143,-2.85715 2.285714,-1.14285 6.285714,1.14286 8.571429,0 1.204677,-0.60233 1.652465,-2.2548 2.857143,-2.85714 0.851835,-0.42592 2.183707,0.67344 2.857142,0 0.673435,-0.67343 -0.673435,-2.18371 0,-2.85714 2.496496,-2.4965 4.598502,2.85714 5.714286,2.85714 4.337663,0 4.796503,-14.62624 8.571433,-17.14286 1.58485,-1.05657 3.80952,0 5.71428,0 0.95238,0 2.00531,-0.42591 2.85714,0 1.20468,0.60234 1.77965,2.04902 2.85715,2.85715 2.74708,2.06031 5.82434,3.65397 8.57143,5.71428 2.15499,1.61625 3.30493,4.50961 5.71428,5.71429 0.85184,0.42592 1.95364,-0.30117 2.85714,0 2.02031,0.67343 3.94237,1.67586 5.71429,2.85714 1.12066,0.74711 1.57939,2.43123 2.85714,2.85714 0.21197,0.0707 16.51555,0.31366 17.14286,0 13.49196,-6.74598 -17.43889,1.50258 11.42857,-5.71428 1.84789,-0.46197 4.08097,0.97999 5.71429,0 3.80952,-2.85714 7.61904,-5.71429 11.42857,-8.57143 0.95238,0 2.00531,0.42592 2.85714,0 1.20468,-0.60234 1.57939,-2.43123 2.85714,-2.85714 1.80702,-0.60234 3.90727,0.60234 5.71429,0 1.27775,-0.42592 1.57939,-2.43123 2.85714,-2.85715 1.80702,-0.60233 3.90727,0.60234 5.71429,0 1.27775,-0.42591 1.90476,-1.90476 2.85714,-2.85714 1.90476,-0.95238 3.69398,-2.18371 5.71429,-2.85714 0.90351,-0.30117 1.90476,0 2.85714,0 1.90476,0 3.90727,0.60234 5.71429,0 1.27775,-0.42592 1.57939,-2.43123 2.85714,-2.85714 1.80701,-0.60234 3.80952,0 5.71428,0 0.95239,0 2.18371,-0.67344 2.85715,0 0.67343,0.67343 -0.67344,2.1837 0,2.85714 1.50584,1.50584 3.94236,1.67586 5.71428,2.85714 1.12067,0.74711 1.90476,1.90476 2.85715,2.85714 0.95238,0.95238 2.2548,1.65247 2.85714,2.85715 0.42592,0.85183 -0.67344,2.1837 0,2.85714 0.67343,0.67343 1.90476,0 2.85714,0 0.95238,0.95238 2.11004,1.73648 2.85714,2.85714 1.18129,1.77193 1.67586,3.94236 2.85715,5.71429 0.79212,1.18818 10.40669,10.91763 11.42857,11.42857 0.64037,0.32019 10.74963,0 11.42857,0 11.42857,0 22.85714,0 34.28571,0 1.90477,0 3.80953,0 5.71429,0 1.90476,0 4.01061,-0.85184 5.71429,0 0.85183,0.42592 0,1.90476 0,2.85714 2.85714,0 5.79959,-0.69296 8.57142,0 1.30666,0.32667 1.90477,1.90476 2.85715,2.85715 2.85714,2.85714 5.10663,6.49255 8.57143,8.57142 1.63332,0.98 3.90727,-0.60233 5.71428,0 1.27775,0.42592 1.51027,2.85715 2.85714,2.85715 0.95239,0 -0.42591,-2.00531 0,-2.85715 0.60234,-1.20467 1.57939,-2.43122 2.85715,-2.85714 0.28623,-0.0954 17.0968,-0.0276 17.14285,0 3.4648,2.07888 5.71429,5.71429 8.57143,8.57143 1.90476,1.90476 3.30493,4.50961 5.71429,5.71429 1.70367,0.85183 4.01061,-0.85184 5.71428,0 2.40936,1.20467 3.21322,4.71385 5.71429,5.71428 2.65279,1.06112 5.79959,0.69296 8.57143,0 0.36942,-0.0924 8.13667,-7.9193 8.57143,-8.57143 1.18128,-1.77192 2.1837,-3.69398 2.85714,-5.71428 0.30117,-0.90351 -0.42592,-2.00531 0,-2.85715 0.60234,-1.20467 2.11003,-1.73648 2.85714,-2.85714 2.17687,-3.2653 5.05052,-10.96688 5.71429,-14.28571 0.37355,-1.86778 -1.1899,-4.22692 0,-5.71429 2.97474,-3.71842 8.90477,-4.53334 11.42857,-8.57143 2.57379,-4.11805 1.15201,-9.7387 2.85714,-14.28571 1.20571,-3.21522 3.94758,-5.62692 5.71429,-8.57143 1.09566,-1.82611 1.67586,-3.94236 2.85714,-5.71429 0.80736,-1.21103 7.38929,-7.98035 8.57143,-8.57142 0.85184,-0.42592 1.90476,0 2.85714,0 0.95238,0 1.95364,-0.30117 2.85715,0 4.70691,1.56897 11.64035,7.46053 14.28571,11.42857 0.52829,0.79243 -0.67344,2.1837 0,2.85714 1.50585,1.50585 4.20844,1.3513 5.71429,2.85714 0.67343,0.67344 -0.52829,2.06472 0,2.85715 0.40322,0.60483 13.36426,13.82499 14.28571,14.28571 2.85714,0.95238 5.71429,1.90476 8.57143,2.85714 2.85714,0.95238 5.87769,1.51028 8.57143,2.85715 0.86769,0.43384 16.75212,11.31693 17.14285,11.42857 3.66295,1.04655 7.67088,-0.62628 11.42858,0 2.10061,0.3501 3.62605,2.43949 5.71428,2.85714 2.80166,0.56033 5.71429,0 8.57143,0 1.90476,0 4.01061,0.85184 5.71429,0 2.40935,-1.20468 3.30493,-4.50961 5.71428,-5.71429 0.56927,-0.28463 19.51914,0 20,0 0.95238,0 2.18371,0.67344 2.85714,0 0.67344,-0.67343 -0.67343,-2.1837 0,-2.85714 0.67344,-0.67343 2.18371,0.67344 2.85715,0 0.67343,-0.67343 -0.67344,-2.18371 0,-2.85714 1.50584,-1.50585 3.69398,-2.18371 5.71428,-2.85714 0.90351,-0.30117 2.43123,0.85183 2.85715,0 0.85183,-1.70368 -1.34687,-7.06116 0,-5.71429 3.01169,3.01169 3.80952,7.61905 5.71428,11.42857 6.91896,13.83793 2.70259,8.41688 11.42857,17.14286 0.95238,0.95238 1.65247,2.2548 2.85715,2.85714 0.85183,0.42592 1.90476,0 2.85714,0 0.95238,0 1.90476,0 2.85714,0 8.57143,0 17.14286,0 25.71429,0 8.57143,0 17.14285,0 25.71428,0 2.85715,0 5.73635,0.35439 8.57143,0 21.06196,-2.63274 7.30776,-1.82694 22.85714,-5.71428 0.92395,-0.23099 1.9332,0.23098 2.85715,0 2.92177,-0.73045 5.61822,-2.26651 8.57143,-2.85715 1.86777,-0.37355 3.90727,0.60234 5.71428,0 1.27775,-0.42592 1.65247,-2.2548 2.85714,-2.85714 2.28572,-1.14286 6.28572,1.14286 8.57143,0 1.20468,-0.60234 1.65247,-2.2548 2.85715,-2.85714 0.85183,-0.42592 1.90476,0 2.85714,0 1.90476,0 3.84651,0.37355 5.71428,0 2.95321,-0.59064 5.61822,-2.2665 8.57143,-2.85715 356.04936,177.27402 146.40254,658.60975 -454.28572,622.85715 -578.51258,-94.2397 -632.10239,-401.19818 -359.999991,-608.57143 3.00079,-1.5004 13.489497,2.6979 14.285714,2.85714 1.867773,0.37356 3.809524,0 5.714286,0 C -20.719538,602.24962 -9.5251078,599.99246 0,598.07647 z"
         style="fill:#00b300;fill-opacity:1;stroke:none" />
    </g>
    <rect
       style="fill:#008000;fill-opacity:1;stroke:#000000;stroke-width:10;stroke-linecap:round;stroke-linejoin:round;stroke-miterlimit:0;stroke-opacity:1;stroke-dasharray:none"
       id="rect4402"
       width="0"
       height="0"
       x="1105.7142"
       y="-136.20924"
       ry="0" />
  </g>
</svg>
