<?xml version="1.0" encoding="UTF-8"?>
<!DOCTYPE svg PUBLIC "-//W3C//DTD SVG 1.1//EN" "http://www.w3.org/Graphics/SVG/1.1/DTD/svg11.dtd">
<!-- Creator: CorelDRAW X6 -->
<svg xmlns="http://www.w3.org/2000/svg" xml:space="preserve" width="39.4228mm" height="25.2867mm" version="1.1" style="shape-rendering:geometricPrecision; text-rendering:geometricPrecision; image-rendering:optimizeQuality; fill-rule:evenodd; clip-rule:evenodd"
viewBox="0 0 39423 25287"
 xmlns:xlink="http://www.w3.org/1999/xlink">
 <defs>
  <style type="text/css">
   <![CDATA[
    .str0 {stroke:black;stroke-width:529.2;stroke-linecap:round;stroke-linejoin:round}
    .fil3 {fill:black}
    .fil5 {fill:#B3B3B3}
    .fil4 {fill:#CCCCCC}
    .fil2 {fill:red}
    .fil0 {fill:#FFCC00}
    .fil1 {fill:white}
   ]]>
  </style>
 </defs>
 <g id="Layer_x0020_1">
  <metadata id="CorelCorpID_0Corel-Layer"/>
  <g id="_833898432">
   <path class="fil0 str0" d="M1617 15385c117,-2694 2645,-5391 5128,-5681 2698,-316 3192,-1682 4270,-4384 756,-1896 3555,-5429 9603,-5024 4186,280 7466,1467 10000,3162 5381,3600 7404,9335 7660,12367 378,4460 -1714,6035 -2215,6042l-29243 432c-5387,79 -5360,-3299 -5203,-6914z"/>
   <path class="fil1 str0" d="M1712 14626c131,-637 386,-1261 730,-1840 531,147 902,487 902,883 0,531 -667,961 -1490,961 -48,0 -95,-2 -142,-4z"/>
   <path class="fil2 str0" d="M37568 12636c222,653 390,1275 508,1848 -77,44 -160,82 -250,113 -639,220 -1247,-71 -1425,-587 -178,-516 -89,-951 721,-1261 161,-62 309,-98 445,-113z"/>
   <path class="fil1 str0" d="M21901 9778l10944 196c-635,-2268 -3426,-7185 -10692,-7695l-252 7500z"/>
   <path class="fil1 str0" d="M19572 9925l-7687 0c-670,-4700 2958,-7753 7915,-7883l-228 7883z"/>
   <polygon class="fil3 str0" points="17520,11375 19401,11375 19340,12381 17573,12367 "/>
   <path class="fil4 str0" d="M1242 15406l1759 0c538,0 998,514 977,1197l-41 1352c-16,537 -489,1050 -1026,1050l-1670 0c-537,0 -977,-440 -977,-977l0 -1645c0,-538 440,-977 977,-977z"/>
   <path class="fil4 str0" d="M36795 15814l1606 0c470,0 655,377 683,846l73 1215c32,536 -342,1002 -880,1002l-1482 0c-537,0 -871,-440 -871,-977l0 -1108c0,-538 334,-977 871,-977z"/>
   <ellipse class="fil3 str0" cx="11632" cy="20896" rx="4061" ry="4126"/>
   <ellipse class="fil5 str0" cx="11589" cy="20961" rx="2247" ry="2280"/>
   <ellipse class="fil3 str0" cx="30565" cy="20896" rx="4061" ry="4126"/>
   <ellipse class="fil5 str0" cx="30521" cy="20961" rx="2247" ry="2280"/>
  </g>
 </g>
</svg>
