<?xml version="1.0" encoding="UTF-8"?>
<!DOCTYPE svg PUBLIC "-//W3C//DTD SVG 1.1//EN" "http://www.w3.org/Graphics/SVG/1.1/DTD/svg11.dtd">
<!-- Creator: CorelDRAW X6 -->
<svg xmlns="http://www.w3.org/2000/svg" xml:space="preserve" width="39.4204mm" height="18.1341mm" version="1.1" style="shape-rendering:geometricPrecision; text-rendering:geometricPrecision; image-rendering:optimizeQuality; fill-rule:evenodd; clip-rule:evenodd"
viewBox="0 0 39083 17979"
 xmlns:xlink="http://www.w3.org/1999/xlink">
 <defs>
  <style type="text/css">
   <![CDATA[
    .str1 {stroke:white;stroke-width:262.336;stroke-linecap:round;stroke-linejoin:round}
    .str0 {stroke:black;stroke-width:524.672;stroke-linecap:round;stroke-linejoin:round}
    .fil2 {fill:none}
    .fil0 {fill:url(#id0)}
    .fil1 {fill:url(#id1)}
   ]]>
  </style>
  <linearGradient id="id0" gradientUnits="userSpaceOnUse" x1="11975.6" y1="14323.3" x2="2114.45" y2="16774">
   <stop offset="0" style="stop-color:#6F6F70"/>
   <stop offset="1" style="stop-color:#8E8E90"/>
  </linearGradient>
  <linearGradient id="id1" gradientUnits="userSpaceOnUse" x1="19137.9" y1="6165.59" x2="20512.7" y2="10416.2">
   <stop offset="0" style="stop-color:#7B7B7C"/>
   <stop offset="1" style="stop-color:#CED1D3"/>
  </linearGradient>
 </defs>
 <g id="Layer_x0020_1">
  <metadata id="CorelCorpID_0Corel-Layer"/>
  <path class="fil0 str0" d="M291 14030c917,5321 12463,5164 13507,-2284 -616,2155 -3945,3596 -5914,4009 -3734,785 -7266,-170 -7593,-1725z"/>
  <path class="fil1 str0" d="M13346 10630c-1477,-1083 -5454,-1052 -7200,-684 -3733,787 -6181,2528 -5854,4084 327,1556 3859,2510 7593,1725 1970,-414 5299,-1855 5914,-4009 3307,-2998 4722,-2984 12400,-4027 2693,-366 7095,-1603 9297,-2688 1602,-789 4190,-2467 3043,-4297 -433,-692 -1352,-551 -2260,-36 -1003,568 -2120,1339 -2720,1669 -2934,1613 -5189,2889 -7559,3293 -5535,943 -8681,1267 -12653,4972z"/>
  <path class="fil2 str1" d="M7082 10441c-284,32 -542,73 -760,119 -3374,711 -5587,2285 -5291,3691m25637 -7166c3375,-635 7191,-1904 8502,-2594 1101,-580 2764,-1578 2983,-2779"/>
 </g>
</svg>
