<?xml version="1.0" encoding="UTF-8"?>
<!DOCTYPE svg PUBLIC "-//W3C//DTD SVG 1.1//EN" "http://www.w3.org/Graphics/SVG/1.1/DTD/svg11.dtd">
<!-- Creator: CorelDRAW X6 -->
<svg xmlns="http://www.w3.org/2000/svg" xml:space="preserve" width="39.4227mm" height="36.4187mm" version="1.1" style="shape-rendering:geometricPrecision; text-rendering:geometricPrecision; image-rendering:optimizeQuality; fill-rule:evenodd; clip-rule:evenodd"
viewBox="0 0 3924 3625"
 xmlns:xlink="http://www.w3.org/1999/xlink">
 <defs>
  <style type="text/css">
   <![CDATA[
    .str1 {stroke:black;stroke-width:52.6759;stroke-linecap:round;stroke-linejoin:round}
    .str0 {stroke:black;stroke-width:105.342;stroke-linecap:round;stroke-linejoin:round}
    .fil0 {fill:none}
    .fil1 {fill:#0833B0}
   ]]>
  </style>
 </defs>
 <g id="Layer_x0020_1">
  <metadata id="CorelCorpID_0Corel-Layer"/>
  <g id="_162657072">
   <path class="fil0 str0" d="M1742 2087l-868 1029c-144,171 -302,235 -412,122 -89,-92 -33,-159 80,-287"/>
   <line class="fil0 str1" x1="3281" y1="263" x2="2926" y2= "683" />
   <path class="fil1 str1" d="M2926 683c924,777 1074,1615 918,2916 -51,-238 -450,-437 -678,-567 -388,-220 -739,-300 -868,-198 52,-226 -1505,-1784 -1833,-1673 108,-178 44,-317 -39,-519 -87,-212 -265,-386 -399,-468 819,-235 1977,-267 2900,510z"/>
   <path class="fil0 str1" d="M2297 2834c518,-766 777,-1491 629,-2151 -604,-342 -1642,-150 -2462,477"/>
  </g>
 </g>
</svg>
