<?xml version="1.0" encoding="UTF-8"?>
<!DOCTYPE svg PUBLIC "-//W3C//DTD SVG 1.1//EN" "http://www.w3.org/Graphics/SVG/1.1/DTD/svg11.dtd">
<!-- Creator: CorelDRAW X6 -->
<svg xmlns="http://www.w3.org/2000/svg" xml:space="preserve" width="39.4184mm" height="23.1192mm" version="1.1" style="shape-rendering:geometricPrecision; text-rendering:geometricPrecision; image-rendering:optimizeQuality; fill-rule:evenodd; clip-rule:evenodd"
viewBox="0 0 39416 23118"
 xmlns:xlink="http://www.w3.org/1999/xlink">
 <defs>
  <style type="text/css">
   <![CDATA[
    .str0 {stroke:black;stroke-width:529.17}
    .str1 {stroke:black;stroke-width:529.17;stroke-linecap:round}
    .str2 {stroke:black;stroke-width:529.17;stroke-linecap:round;stroke-linejoin:round}
    .fil1 {fill:none}
    .fil3 {fill:black}
    .fil0 {fill:#1F48BF}
    .fil2 {fill:gray}
   ]]>
  </style>
 </defs>
 <g id="Layer_x0020_1">
  <metadata id="CorelCorpID_0Corel-Layer"/>
  <g id="_741756800">
   <path class="fil0 str0" d="M6959 17297l18407 -10542c480,838 959,1675 1439,2513l-18406 10542c-1874,1073 -4113,2137 -6185,2746 -293,85 -534,-284 -656,-497 -122,-212 -319,-607 -97,-817 1574,-1479 3625,-2872 5499,-3945z"/>
   <path class="fil0 str0" d="M39091 561c1132,1977 -13044,9555 -14906,10621 -165,94 -420,58 -491,-133 -187,-505 -302,-858 -578,-1340 -275,-481 -515,-759 -860,-1174 -125,-160 -33,-399 131,-493 1862,-1066 15571,-9458 16703,-7482z"/>
   <path class="fil1 str1" d="M36335 3816c48,-651 -736,-2005 -1440,-2527"/>
   <path class="fil2 str2" d="M25265 5799c1452,-905 7733,-4636 9107,-4803 391,-47 648,169 1072,806 88,132 185,271 282,423 -186,-230 -389,-311 -627,-298 -1389,75 -7877,3964 -9202,4804 -1693,1073 -1646,662 -1924,379 -142,-144 -247,-187 8,-423 199,-184 593,-457 1285,-888z"/>
   <path class="fil3 str2" d="M1402 21726c-621,435 -1237,869 -1125,1066 112,196 798,-116 1488,-431 -87,-99 -158,-214 -208,-302 -50,-88 -114,-208 -155,-333z"/>
  </g>
 </g>
</svg>
