<?xml version="1.0" encoding="UTF-8"?>
<!DOCTYPE svg PUBLIC "-//W3C//DTD SVG 1.1//EN" "http://www.w3.org/Graphics/SVG/1.1/DTD/svg11.dtd">
<!-- Creator: CorelDRAW X6 -->
<svg xmlns="http://www.w3.org/2000/svg" xml:space="preserve" width="39.4087mm" height="43.4024mm" version="1.1" style="shape-rendering:geometricPrecision; text-rendering:geometricPrecision; image-rendering:optimizeQuality; fill-rule:evenodd; clip-rule:evenodd"
viewBox="0 0 3941 4340"
 xmlns:xlink="http://www.w3.org/1999/xlink">
 <defs>
  <style type="text/css">
   <![CDATA[
    .str0 {stroke:black;stroke-width:52.9201;stroke-linecap:round;stroke-linejoin:round}
    .fil2 {fill:none}
    .fil1 {fill:#00A329}
    .fil0 {fill:red}
   ]]>
  </style>
 </defs>
 <g id="Layer_x0020_1">
  <metadata id="CorelCorpID_0Corel-Layer"/>
  <g id="_760434464">
   <path id="path3182" class="fil0 str0" d="M839 1281c66,-54 243,-123 483,-178 106,376 336,933 705,1148 -584,106 -656,-275 -734,-497 -94,-197 -555,-346 -454,-473l0 0 0 0zm1460 178c20,-92 59,-180 110,-266 -41,102 -72,205 -72,312 -13,-16 -26,-31 -39,-47l1 1zm443 452c92,-7 213,-67 412,-267 113,-105 230,-194 335,-272 189,148 339,348 425,615 -4,152 -570,13 -901,191 -255,130 -508,192 -727,159 104,10 215,-7 336,-58 264,-95 345,-219 119,-368l1 0z"/>
   <path id="path3186" class="fil0 str0" d="M2742 1911c92,-7 213,-67 412,-267 332,-309 693,-477 709,-632 112,-305 -130,-420 -351,-547 -227,-156 -431,-214 -604,-136 -1110,234 -873,641 -571,1177 119,144 240,281 367,382 13,8 26,16 37,23l1 0z"/>
   <path id="path3188" class="fil0 str0" d="M2912 485c47,-688 -684,-481 -1170,-160 -253,117 -268,264 -237,418 292,81 541,408 793,716 45,-209 192,-396 338,-579 -53,-27 -100,-79 -123,-153 -54,-191 198,-277 352,-237 14,4 27,7 39,11 3,-5 5,-10 8,-16l0 0z"/>
   <path id="path3168" class="fil1 str0" d="M2289 2337c-159,768 -973,1168 -1485,1895l236 82c429,-790 1070,-954 1443,-1990 -68,15 -133,19 -194,13l0 0z"/>
   <path id="path3180" class="fil1 str0" d="M2226 3124c317,-754 876,-298 1422,-77 -545,82 -1002,429 -1422,77z"/>
   <path id="path3176" class="fil1 str0" d="M1506 3114c315,-1003 -628,-965 -1142,-1206 398,478 432,1213 1142,1206z"/>
   <path id="path3178" class="fil1 str0" d="M1334 3464c-263,-666 -803,-335 -1308,-143 473,79 780,380 1308,143z"/>
   <path id="path3170" class="fil2 str0" d="M2038 3141c457,-31 953,-271 1545,-103"/>
   <path id="path3172" class="fil2 str0" d="M1659 3279c-454,-388 -585,-991 -1240,-1330"/>
   <path id="path3174" class="fil2 str0" d="M1473 3482c-453,-44 -870,-284 -1375,-173"/>
   <path id="path3194" class="fil2 str0" d="M3511 1067c-50,106 -95,135 -232,233 -255,207 -254,391 -425,563"/>
   <path id="path3196" class="fil2 str0" d="M3312 684c-161,-137 -219,-131 -447,-194 -154,-40 -406,46 -352,237 51,164 221,223 311,127 163,-181 -127,-157 -138,-126m626 -44l0 0 0 0z"/>
   <path id="path3198" class="fil2 str0" d="M2914 485c-8,-37 -409,-259 -557,-54 -65,86 -152,131 -284,97"/>
   <path id="path3192" class="fil0 str0" d="M3069 858c1,2 2,3 2,5l1 -1c-1,-1 -3,-2 -4,-4l0 0 1 0zm2 5l0 0 1 -1 0 0 -1 1zm-4 9l0 0c-122,231 -497,374 -809,539 -104,-128 -209,-257 -316,-368 -32,-93 -49,-210 -17,-420 7,-121 64,-150 161,-108 428,420 929,401 981,357 -122,231 -497,374 -809,539 15,19 30,37 46,56l6 -2 -51 -54c312,-165 687,-307 809,-539l-1 0z"/>
   <path id="path3190" class="fil2 str0" d="M2732 1905c256,-144 300,-272 341,-613 120,-198 364,-442 234,-616 -102,-107 -265,-65 -203,84 -44,300 -487,460 -846,650m63 77c230,-104 570,-150 780,-249"/>
   <path id="path3184" class="fil0 str0" d="M2704 1888c-481,-384 -874,-1278 -1443,-1152 -75,-47 340,1975 1361,1543 278,-100 353,-232 82,-391l0 0z"/>
  </g>
 </g>
</svg>
