<?xml version="1.0" encoding="UTF-8"?>
<!DOCTYPE svg PUBLIC "-//W3C//DTD SVG 1.1//EN" "http://www.w3.org/Graphics/SVG/1.1/DTD/svg11.dtd">
<!-- Creator: CorelDRAW X6 -->
<svg xmlns="http://www.w3.org/2000/svg" xml:space="preserve" width="38.8936mm" height="203.2mm" version="1.1" style="shape-rendering:geometricPrecision; text-rendering:geometricPrecision; image-rendering:optimizeQuality; fill-rule:evenodd; clip-rule:evenodd"
viewBox="0 0 3889 20320"
 xmlns:xlink="http://www.w3.org/1999/xlink"
 xmlns:dc="http://purl.org/dc/elements/1.1/"
 xmlns:cc="http://creativecommons.org/ns#"
 xmlns:rdf="http://www.w3.org/1999/02/22-rdf-syntax-ns#"
 xmlns:svg="http://www.w3.org/2000/svg"
 xmlns:sodipodi="http://sodipodi.sourceforge.net/DTD/sodipodi-0.dtd"
 xmlns:inkscape="http://www.inkscape.org/namespaces/inkscape"
 sodipodi:version="0.32"
 inkscape:version="0.47 r22583"
 sodipodi:docname="blomst_03.svg"
 inkscape:output_extension="org.inkscape.output.svg.inkscape">
 <defs>
  <style type="text/css">
   <![CDATA[
    .str0 {stroke:black;stroke-width:79.37;stroke-linecap:round;stroke-linejoin:round}
    .str1 {stroke:red;stroke-width:79.37;stroke-linecap:round;stroke-linejoin:round}
    .fil2 {fill:none}
    .fil1 {fill:#00A329}
    .fil0 {fill:red}
   ]]>
  </style>
 </defs>
 <g id="Layer_x0020_1">
  <metadata id="CorelCorpID_0Corel-Layer"/>
  <sodipodi:namedview id="base" pagecolor="#ffffff" bordercolor="#666666" borderopacity="1.0" gridtolerance="10000" guidetolerance="10" objecttolerance="10" inkscape:pageopacity="0.0" inkscape:pageshadow="2" inkscape:zoom="1.6383028" inkscape:cx="56.228018" inkscape:cy="131.03604" inkscape:document-units="px" inkscape:current-layer="layer1" showgrid="false" inkscape:window-width="1264" inkscape:window-height="988" inkscape:window-x="0" inkscape:window-y="0" inkscape:window-maximized="0"/>
  <g id="_888371264">
   <path id="path3182" class="fil0 str0" d="M814 9270c280,-229 2610,-740 3076,706 -4,152 -570,13 -901,191 -358,182 -711,231 -973,70 -597,115 -669,-271 -748,-494 -94,-197 -555,-346 -454,-473l0 0z" sodipodi:nodetypes="cccccc"/>
   <path id="path3186" class="fil0 str0" d="M2443 9850c190,-2 258,213 686,-216 332,-309 693,-477 709,-632 112,-305 -130,-420 -351,-547 -391,-270 -716,-246 -930,263 -65,374 -440,707 -113,1132l0 0z" sodipodi:nodetypes="cccccc"/>
   <path id="path3188" class="fil0 str0" d="M2888 8475c47,-688 -684,-481 -1170,-160 -371,171 -231,408 -181,634l761 836c-189,-525 389,-899 590,-1310l0 0z" sodipodi:nodetypes="ccccc"/>
   <path id="path3168" class="fil1 str0" d="M2267 10316c-154,775 -973,1175 -1487,1905l236 82c433,-797 1081,-957 1453,-2017l-202 30 0 0z" sodipodi:nodetypes="ccccc"/>
   <path id="path3180" class="fil1 str0" d="M2202 11114c317,-754 876,-298 1422,-77 -545,82 -1002,429 -1422,77z" sodipodi:nodetypes="ccc"/>
   <path id="path3176" class="fil1 str0" d="M1481 11104c315,-1004 -628,-965 -1142,-1206 398,478 432,1213 1142,1206z" sodipodi:nodetypes="ccc"/>
   <path id="path3178" class="fil1 str0" d="M1308 11453c-263,-666 -803,-335 -1308,-143 473,79 780,380 1308,143z" sodipodi:nodetypes="ccc"/>
   <path id="path3170" class="fil2 str0" d="M2014 11130c457,-31 953,-271 1545,-103" sodipodi:nodetypes="cc"/>
   <path id="path3172" class="fil2 str0" d="M1633 11269c-454,-388 -585,-991 -1240,-1330" sodipodi:nodetypes="cc"/>
   <path id="path3174" class="fil2 str0" d="M1447 11472c-453,-44 -870,-284 -1375,-173" sodipodi:nodetypes="cc"/>
   <path id="path3194" class="fil2 str0" d="M3486 9057c-50,106 -95,135 -232,233 -255,207 -254,391 -425,563" sodipodi:nodetypes="ccc"/>
   <path id="path3196" class="fil0 str0" d="M3287 8674c-161,-137 -219,-131 -447,-194 -154,-40 -406,46 -352,237 51,164 221,223 311,127 163,-181 -127,-157 -138,-126m626 -44l0 0 0 0z" sodipodi:nodetypes="ccccc"/>
   <path id="path3198" class="fil2 str0" d="M2889 8475c-8,-37 -409,-259 -557,-54 -65,86 -153,131 -284,97" sodipodi:nodetypes="ccc"/>
   <path id="path3200" class="fil2 str0" d="M2714 9037c-7,-2 -14,-5 -20,-7"/>
   <path id="path3202" class="fil2 str1" d="M2077 8655c174,205 326,445 661,391" sodipodi:nodetypes="cc"/>
   <path id="path3204" class="fil2 str1" d="M2044 8789c155,194 2,322 -4,482" sodipodi:nodetypes="cc"/>
   <path id="path3192" class="fil0 str0" d="M3045 8847c45,49 -513,117 -983,-344 -97,-42 -154,-13 -161,108 -81,534 153,470 155,925 774,-279 1251,-462 988,-689l0 0z" sodipodi:nodetypes="ccccc"/>
   <path id="path3190" class="fil0 str0" d="M2600 9950c352,-170 401,-285 448,-668 120,-198 364,-442 234,-616 -102,-107 -265,-65 -203,84 -51,347 -636,507 -1007,742l60 89c192,-187 674,-226 944,-354m-476 722l0 0 0 0z" sodipodi:nodetypes="ccccccc"/>
   <path id="path3184" class="fil0 str0" d="M2680 9878c-481,-384 -874,-1278 -1443,-1152 -75,-47 340,1975 1361,1543 278,-100 353,-232 82,-391z" sodipodi:nodetypes="cccc"/>
  </g>
 </g>
</svg>
