<?xml version="1.0" encoding="UTF-8"?>
<!DOCTYPE svg PUBLIC "-//W3C//DTD SVG 1.1//EN" "http://www.w3.org/Graphics/SVG/1.1/DTD/svg11.dtd">
<!-- Creator: CorelDRAW X6 -->
<svg xmlns="http://www.w3.org/2000/svg" xml:space="preserve" width="39.4215mm" height="34.7583mm" version="1.1" style="shape-rendering:geometricPrecision; text-rendering:geometricPrecision; image-rendering:optimizeQuality; fill-rule:evenodd; clip-rule:evenodd"
viewBox="0 0 39421 34758"
 xmlns:xlink="http://www.w3.org/1999/xlink">
 <defs>
  <style type="text/css">
   <![CDATA[
    .str0 {stroke:black;stroke-width:264.597}
    .str1 {stroke:black;stroke-width:529.193;stroke-linecap:round;stroke-linejoin:round}
    .fil2 {fill:none}
    .fil1 {fill:red}
    .fil0 {fill:white}
   ]]>
  </style>
 </defs>
 <g id="Layer_x0020_1">
  <metadata id="CorelCorpID_0Corel-Layer"/>
  <path class="fil0" d="M5916 17430c-811,776 -1132,1841 -1298,2972 -21,143 -39,287 -56,431 -371,3206 791,2070 1143,653 234,-1216 694,-2434 1219,-2775 -345,-423 -692,-827 -1007,-1282zm13144 14904l-12 129c3,-43 7,-86 12,-129zm-12 133c-256,3182 1906,1928 1758,860 -289,-2090 212,-1618 597,-2629 -368,-366 -812,-713 -1326,-1033 -575,659 -914,1691 -1015,2654 39,-508 2,-1018 -137,-1308 -358,-748 -219,-1202 172,-1883 -492,-238 -1031,-455 -1611,-648 -369,1718 -506,1463 196,3103 292,683 326,1192 223,1544 562,1410 1026,433 1143,-660zm-6945 -936c0,-1677 -13,-2778 930,-4221 -604,-178 -1206,-356 -1764,-499 -157,425 -208,937 -149,1393 180,1378 122,2510 -33,3323 -9,48 -19,96 -29,142 -99,811 837,1731 1016,368 0,-50 4,-95 14,-136 9,-111 15,-234 15,-371zm2029 -3906c-438,1391 -979,2365 -1041,3040 -34,372 103,529 103,1229 65,800 853,2215 1234,1143 75,-210 58,-391 17,-593 -95,-476 -323,-1075 190,-2473 204,-555 522,-1085 745,-2043 -394,-79 -816,-185 -1250,-304zm2386 567c-221,685 -933,1477 -933,2559 0,1202 640,2767 -420,2551 400,822 1146,350 1346,-327 7,-71 21,-147 45,-227 275,-946 -538,-2354 -37,-4556zm-11687 -13426c-689,265 -1484,1108 -1386,1964 182,1588 -355,1602 -754,960 -25,1054 592,1943 1275,205 8,-20 15,-40 23,-60 240,-632 528,-1217 1332,-1436 -43,-93 -84,-188 -124,-287 -184,-457 -302,-904 -366,-1346zm-2208 181c539,-726 1370,-1952 2276,-2651 61,-771 46,-1359 -188,-1946 -1444,1128 -2101,2975 -2962,3933 -468,623 -462,1618 363,1241 106,-49 282,-267 512,-576z"/>
  <path class="fil1" d="M6924 18711c-525,341 -985,1559 -1219,2775 -248,1292 -241,2582 213,2820 633,332 827,-3618 1877,-4407 1357,-428 2209,-980 2973,-1545 680,-503 1290,-1015 2124,-1458 2076,-1103 4220,-2163 6160,-3072 -1197,-251 -3133,-252 -3519,-1536 -556,-1846 159,-3076 991,-4640 891,-1676 1648,-2661 2548,-3416 -3539,-206 -12286,2439 -14945,5149 -800,704 -2012,1692 -2801,2783 -382,528 -2103,3634 -137,2580 201,-108 384,-266 560,-461 861,-957 1518,-2805 2962,-3933 234,587 248,1174 188,1946 -906,699 -1737,1925 -2276,2651 -554,988 -303,2147 67,2743 399,641 936,628 754,-960 -98,-855 697,-1699 1386,-1964 64,442 181,889 366,1346 40,99 81,194 124,287 -804,220 -1091,804 -1332,1436 -8,21 -17,43 -25,64 -145,383 -251,797 -317,1195 -22,130 -39,258 -52,383 -136,1291 188,2217 1024,925 0,-1 0,-1 0,-1 166,-1131 487,-2196 1298,-2972l12 17 3 5 12 17 3 4 12 17 3 4 13 18 2 3 13 18 2 3 13 18 2 2 14 19 1 2 14 19 1 2 14 19 1 1 15 20 1 1 15 20 0 0 15 20 15 20 0 0 15 20 1 1 15 20 1 1 14 19 1 1 14 19 1 2 14 18 2 2 14 18 2 3 13 17 2 3 13 17 3 3 13 17 3 4 13 16 3 4 12 16 4 5 12 15 4 5 12 15 4 5 11 14 5 6 11 14 5 6 11 14 5 7 11 13 6 7 10 13 6 7 10 12 6 8 10 12 6 8 9 12 7 8 9 11 7 9 9 11 7 9 8 10 8 10 8 10 8 10 8 10 8 10 8 9 9 11 7 9 9 11 7 8 9 11 7 8 10 12 6 8 10 12 6 7 10 13 6 7 11 13 5 6 11 13 5 6 11 14 5 6 12 14 4 5 12 15 4 5 12 15 4 5 13 15 3 4 13 16 3 4 13 16 3 3 14 17 3 3 14 17 2 3 14 17 2 2 15 18 2 2 15 18 1 1 15 19 1 1 15 19 1 1 16 19 0 0 16 20zm-2126 -5364l0 0 -2 24 2 -24zm-2 24l0 0 -2 24 2 -24zm-9 120l0 0 -1 24 1 -24zm-1 24l0 0 -1 24 1 -24zm-5 96l0 0 -1 24 1 -24zm-1 24l0 0 -1 24 1 -24zm-4 96l0 0 -1 24 1 -24zm-1 24l0 0 -1 24 1 -24zm-1 24l0 0 0 24 0 -24zm1124 3623l1 1 1 1 0 1 1 1 1 1 1 1 1 1 0 1 1 1 1 1 1 1 1 1 0 0 -1 -1 0 0 -1 -1m-4 -6l1 1 0 0m1 1l1 1 0 0m1 2l1 1 0 0m2 2l1 1 0 0 -1 -1zm1 1l0 1 0 0 0 -1zm0 1l1 1 1 1 1 1 1 1 0 1 0 0 0 -1 0 0 -1 -1m-1 -2l1 1 0 0m2 2l1 1 0 0 -1 -1zm1 1l1 1 0 0 -1 -1zm1 1l1 1 1 1 0 0 0 1 0 -1 0 0 -1 -1m1 2l1 1 1 1 0 0 1 1 1 1 1 1 0 1 1 1 1 1m-3 -4l1 1 0 0"/>
  <path class="fil0 str0" d="M18581 14047c158,-75 315,-149 471,-222 -210,-44 -444,-80 -687,-117 70,113 142,226 216,339zm-7121 3787c436,-327 886,-647 1432,-937 710,-377 1428,-749 2143,-1112 -2080,-3047 -3479,-6378 -3135,-10273 -1387,430 -2771,945 -4009,1509 1085,4351 545,6606 3569,10813zm4815 -9718c81,-153 164,-308 249,-467 891,-1676 1648,-2661 2548,-3416 -810,-47 -1893,55 -3112,273 12,1102 88,2326 316,3610z"/>
  <path class="fil1" d="M19096 29128c-390,681 -530,1135 -172,1883 139,291 176,804 136,1313 0,-1 0,-1 0,-2 101,-964 440,-1998 1016,-2657 514,320 958,667 1326,1033 628,-1421 2666,-2121 4858,-4726 1578,-1876 2831,-4511 3401,-5343 1197,-1748 1622,-3308 1374,-4567 -439,-1827 -2884,-2474 -5371,-2474 -2197,0 -4604,501 -6612,236 -484,2858 -1118,4120 -2270,5341 -778,825 -1986,1652 -4115,2658 -148,70 -289,140 -423,209 -2073,1080 -2494,2178 -2571,4493 -339,3574 486,3083 429,5460 -35,1483 631,1199 956,-315 6,-48 15,-95 29,-142 155,-814 213,-1945 33,-3323 -60,-457 -8,-968 149,-1393 558,142 1160,321 1764,499 -943,1443 -930,2544 -930,4221 0,137 -5,261 -15,371 -4,48 -9,93 -14,136 4,746 1121,2379 1121,-143 0,-700 -137,-857 -103,-1229 62,-676 603,-1649 1041,-3040 434,119 856,225 1250,304 -223,958 -542,1488 -745,2043 -513,1398 -286,1997 -190,2473 182,600 503,814 719,858 1060,216 420,-1349 420,-2551 0,-1082 711,-1874 933,-2559 -501,2202 312,3610 37,4556 -8,77 -23,154 -45,227 -89,925 1124,1080 1394,152 103,-353 69,-862 -223,-1544 -702,-1640 -565,-1385 -196,-3103 580,193 1118,410 1611,648z"/>
  <path class="fil0 str0" d="M29709 14424c-1039,-597 -2534,-836 -4045,-835 -2197,0 -4604,501 -6612,236l-8 45c3132,814 6738,1222 10665,554zm-2836 10764c1287,-1762 2295,-3838 2789,-4559 200,-291 378,-578 535,-858 -4310,415 -8689,322 -13100,-955 -100,118 -205,234 -315,351 -778,825 -1986,1652 -4115,2658 -148,70 -289,140 -423,209 1691,260 2771,962 3708,1822 3628,1172 7235,1687 10922,1333z"/>
  <path class="fil1" d="M19052 13825c2008,264 4416,-236 6612,-236 2487,0 4932,647 5371,2474 -165,-839 -630,-1544 -1364,-2081 -386,-282 -1738,-1010 -2375,-1779 -211,-254 -343,-513 -337,-761 -54,-2630 977,-4566 4374,-6105 3093,-1401 4891,-1915 5874,-1673 802,198 1062,898 1040,2030 -10,537 -511,2356 -1418,3204 2418,-2212 3301,-4557 950,-7264 -840,-967 -3026,-1388 -5733,-1369 -3269,22 -7297,731 -10611,2475 -943,496 -1693,931 -2363,1493 -900,755 -1657,1740 -2548,3416 -832,1564 -1547,2794 -991,4640 387,1284 2323,1285 3519,1536z"/>
  <path class="fil0 str0" d="M35973 3672c509,-86 915,-87 1235,-8 357,88 606,276 771,557 -178,-1406 -545,-2351 -1319,-3321 -711,-289 -1643,-475 -2721,-567 1242,1079 1775,1895 2034,3339zm-16921 10153c2008,264 4416,-236 6612,-236 2487,0 4932,647 5371,2474 -165,-839 -630,-1544 -1364,-2081 -381,-279 -1708,-994 -2354,-1754 -2881,-1296 -7037,-2061 -11943,-1756 -79,554 -45,1145 158,1816 387,1284 2323,1285 3519,1536zm8191 -4584c348,-1084 1041,-2026 2224,-2860 -1393,-1783 -3692,-3528 -7073,-4109 -325,147 -645,302 -959,468 -943,496 -1693,931 -2363,1493 -372,312 -720,665 -1064,1089 3148,493 6644,1535 9236,3919zm4611 -4137c873,-385 1634,-693 2297,-927 -630,-1610 -1820,-2910 -3685,-3850 -1113,79 -2281,234 -3455,476 1937,1069 3636,2267 4842,4301z"/>
  <path class="fil1" d="M31334 5337c-3396,1539 -4428,3475 -4374,6105 -6,248 126,507 337,761 3143,151 7077,-1298 8672,-2572 304,-243 592,-487 860,-733 907,-848 1408,-2667 1418,-3204 22,-1132 -238,-1833 -1040,-2030 -983,-242 -2781,272 -5874,1673z"/>
  <path class="fil0 str0" d="M35114 10204c330,-191 618,-384 855,-573 304,-243 592,-487 860,-733 284,-265 528,-626 730,-1013 -787,-1281 -1457,-2650 -1949,-4141 -788,176 -1789,523 -3050,1055 490,1749 1262,3631 2553,5405zm-4749 -4382c-1395,774 -2283,1645 -2801,2646 277,1204 694,2451 1320,3688 1122,-109 2275,-369 3340,-709 -858,-1747 -1526,-3603 -1860,-5626z"/>
  <path class="fil2 str1" d="M27297 12203c3143,151 7077,-1298 8672,-2572 3042,-2429 4423,-4989 1810,-7997 -840,-967 -3026,-1388 -5733,-1369 -3269,22 -7297,731 -10611,2475 -2209,1162 -3356,1985 -4912,4909 -832,1564 -1547,2794 -991,4640 387,1284 2323,1285 3519,1536 -484,2858 -1118,4120 -2270,5341 -778,825 -1986,1652 -4115,2658 -2440,1153 -2913,2238 -2994,4702 1432,72 3871,1037 5709,1403 2710,540 4789,1544 6021,2769 628,-1421 2666,-2121 4858,-4726 1578,-1876 2831,-4511 3401,-5343 1996,-2913 1843,-5307 10,-6647 -513,-375 -2737,-1540 -2712,-2541 -54,-2630 977,-4566 4374,-6105 5614,-2543 6963,-2164 6914,358 -10,537 -511,2356 -1418,3204"/>
  <path class="fil2 str1" d="M19072 4233c-3539,-206 -12286,2439 -14945,5149 966,1215 866,2077 682,3846 -99,950 -12,1894 388,2884 650,1611 1738,2407 2599,3788 2565,-808 3326,-2062 5097,-3003 2076,-1103 4220,-2163 6160,-3072"/>
  <path class="fil2 str1" d="M12243 22033c3247,500 4244,2628 6296,4375 861,733 1499,998 2408,1524"/>
  <path class="fil2 str1" d="M25647 26653c-3748,546 -6616,-690 -8789,-1898"/>
  <path class="fil2 str1" d="M19052 13825c2008,264 4416,-236 6612,-236 2487,0 4932,647 5371,2474"/>
  <path class="fil2 str1" d="M8308 8726c-366,3326 796,6784 2460,9629"/>
  <path class="fil2 str1" d="M26960 11442c4321,157 11388,-2248 10248,-7778"/>
  <path class="fil2 str1" d="M7795 19900c-1050,789 -1244,4739 -1877,4407 -883,-463 -77,-4892 1005,-5595m-1007 -1282c-913,874 -1205,2114 -1354,3404 -371,3206 791,2070 1143,653m-1086 -1085c-1177,1820 -1339,-764 -629,-2566 240,-632 528,-1217 1332,-1436m-2630 1292c-25,1066 606,1964 1298,145m-1366 -2887c-1151,2053 1173,4844 821,1782 -98,-855 697,-1699 1386,-1964m-3082 -483c-468,623 -462,1618 363,1241 356,-163 1496,-2231 2788,-3228m-772 -2915c-800,704 -2012,1692 -2801,2783 -382,528 -2103,3634 -137,2580 1185,-636 1784,-3036 3522,-4393"/>
  <path class="fil2 str1" d="M9673 26526c-339,3574 486,3083 429,5460 -54,2288 1561,371 1018,-3781 -60,-457 -8,-968 149,-1393m-182 4717c-265,919 1016,2177 1016,3 0,-1677 -13,-2778 930,-4221m-945 4592c-164,646 1106,2683 1106,-8 0,-700 -137,-857 -103,-1229 62,-676 603,-1649 1041,-3040m-937 4269c65,800 853,2215 1234,1143 250,-704 -524,-1073 208,-3066 204,-555 522,-1085 745,-2043m-936 4516c182,600 503,814 719,858 1060,216 420,-1349 420,-2551 0,-1082 711,-1874 933,-2559 -501,2202 312,3610 37,4556 -441,1518 2248,1453 1127,-1165 -702,-1640 -565,-1385 -196,-3103m-2321 4822c443,911 1312,232 1390,-555m1341 358c850,2168 1483,-1145 1028,-2095 -358,-748 -219,-1202 172,-1883m980 537c-604,692 -948,1798 -1029,2801 -256,3182 1906,1928 1758,860 -289,-2090 212,-1618 597,-2629"/>
 </g>
</svg>
