<?xml version="1.0" encoding="UTF-8"?>
<!DOCTYPE svg PUBLIC "-//W3C//DTD SVG 1.1//EN" "http://www.w3.org/Graphics/SVG/1.1/DTD/svg11.dtd">
<!-- Creator: CorelDRAW X6 -->
<svg xmlns="http://www.w3.org/2000/svg" xml:space="preserve" width="39.1811mm" height="18.713mm" version="1.1" style="shape-rendering:geometricPrecision; text-rendering:geometricPrecision; image-rendering:optimizeQuality; fill-rule:evenodd; clip-rule:evenodd"
viewBox="0 0 39261 18751"
 xmlns:xlink="http://www.w3.org/1999/xlink">
 <defs>
  <style type="text/css">
   <![CDATA[
    .str2 {stroke:black;stroke-width:265.137;stroke-linecap:round;stroke-linejoin:round}
    .str1 {stroke:black;stroke-width:530.273;stroke-linecap:round;stroke-linejoin:round}
    .str3 {stroke:white;stroke-width:530.273;stroke-linecap:round;stroke-linejoin:round}
    .str0 {stroke:black;stroke-width:795.31;stroke-linecap:round;stroke-linejoin:round}
    .fil0 {fill:none}
    .fil2 {fill:#E6E6E6}
    .fil1 {fill:red}
    .fil3 {fill:url(#id0)}
   ]]>
  </style>
  <linearGradient id="id0" gradientUnits="userSpaceOnUse" x1="6738.44" y1="5567.97" x2="7921.23" y2="1080.89">
   <stop offset="0" style="stop-color:#1AA6B6"/>
   <stop offset="1" style="stop-color:#64E8E8"/>
  </linearGradient>
 </defs>
 <g id="Layer_x0020_1">
  <metadata id="CorelCorpID_0Corel-Layer"/>
  <g id="_749872608">
   <path class="fil0 str0" d="M1868 12786c0,-37 0,-19 0,-56 6,-2074 -159,-4141 -585,-6196 -1982,-1928 907,-7093 4519,-5983 -1038,265 -2881,2136 -744,1885 7205,-845 9050,-572 9807,702 492,829 218,1459 -329,1750 -361,192 -749,368 -1157,529 258,111 574,392 563,528 -156,1913 -181,3694 17,5253"/>
   <path class="fil1 str1" d="M265 13802c317,-438 908,-750 1603,-1015l12000 -2550 5216 -2105 2113 -1686 15904 -3832 1894 759c-4655,1380 -9310,2759 -13965,4139 -3238,1476 -7587,4428 -9715,4429 -1633,641 -5206,2453 -8020,3336 -3166,993 -4116,-122 -7031,-1475z"/>
   <path class="fil2" d="M1283 6535c-1982,-1928 907,-7093 4519,-5983 -1038,265 -2881,2136 -744,1885 7205,-845 9050,-572 9807,702 492,829 218,1459 -329,1750 -361,192 -749,368 -1157,529 258,111 574,392 563,528 -156,1913 -181,3694 17,5253 -400,804 -1126,923 -1599,497 -401,509 -942,685 -1630,464 27,445 -343,897 -1443,746 -310,775 -772,791 -1259,680 -273,548 -644,711 -1359,464 -523,786 -1149,769 -1790,215 -590,222 -1157,333 -1525,-488 -742,322 -1235,134 -1491,-539 37,-2245 -120,-4480 -580,-6703z"/>
   <path class="fil1 str1" d="M265 13802c2915,1353 3864,2468 7031,1475 2814,-882 6387,-2694 8020,-3336 2128,-2 6477,-2953 9715,-4429 4655,-1380 9310,-2759 13965,-4139 -112,402 -224,804 -335,1207 -4645,2100 -9290,4201 -13935,6301 -3645,393 -5138,1260 -8511,2653 -449,1085 -9593,5064 -11116,4953 -982,-72 -4156,-2044 -4483,-2783 -147,-332 -190,-833 -349,-1902z"/>
   <path class="fil0 str2" d="M1283 6535c598,289 1015,367 1666,341 244,2395 338,4616 406,6900 -742,322 -1235,134 -1491,-539 37,-2245 -120,-4480 -580,-6703zm1666 341c609,633 1195,624 1782,396 49,2316 99,4662 149,6993 -590,222 -1157,333 -1525,-488m10589 -7830c10,-136 -305,-417 -563,-528m-1019 6277c473,426 1199,307 1599,-497 -197,-1559 -173,-3340 -17,-5253 -543,334 -1127,410 -1756,166 -111,-43 -181,-125 -218,-215m-1238 6263c688,220 1229,44 1630,-464 -177,-1552 -141,-3600 -174,-5584 -272,439 -750,602 -1408,365 -106,-38 -241,-141 -262,-215m-1230 6644c1100,151 1470,-300 1443,-746 -35,-1941 -50,-3677 48,-5684 -385,333 -845,400 -1326,149 -47,-24 -89,-76 -127,-136m-1298 7095c487,112 949,95 1259,-680 -185,-2045 -92,-4146 166,-6280 -313,441 -773,568 -1309,282 -77,-41 -143,-148 -163,-223m-1312 7365c715,247 1085,84 1359,-464 -196,-2122 -86,-4379 116,-6678 -392,382 -812,397 -1359,215 -123,-41 -209,-153 -255,-295m-1650 7437c640,554 1267,570 1790,-215 -132,-1681 -155,-4134 116,-6926 -616,630 -1602,370 -2055,149 -183,-89 -215,-237 -217,-356"/>
   <path class="fil3 str2" d="M5803 552c-1038,265 -2881,2136 -744,1885 7205,-845 9050,-572 9807,702 492,829 218,1459 -329,1750 -4363,2317 -12578,2303 -13254,1645 -1982,-1928 907,-7093 4519,-5983z"/>
   <path class="fil0 str3" d="M7084 2992c4942,-453 6231,-329 6880,763m-8490 2465c-1904,43 -3343,18 -3607,-242 -1252,-1234 19,-3464 1663,-4584"/>
  </g>
 </g>
</svg>
