<?xml version="1.0" encoding="UTF-8"?>
<!DOCTYPE svg PUBLIC "-//W3C//DTD SVG 1.1//EN" "http://www.w3.org/Graphics/SVG/1.1/DTD/svg11.dtd">
<!-- Creator: CorelDRAW X6 -->
<svg xmlns="http://www.w3.org/2000/svg" xml:space="preserve" width="39.158mm" height="17.3997mm" version="1.1" style="shape-rendering:geometricPrecision; text-rendering:geometricPrecision; image-rendering:optimizeQuality; fill-rule:evenodd; clip-rule:evenodd"
viewBox="0 0 39158 17400"
 xmlns:xlink="http://www.w3.org/1999/xlink">
 <defs>
  <style type="text/css">
   <![CDATA[
    .str1 {stroke:black;stroke-width:264.599;stroke-linecap:round;stroke-linejoin:round;stroke-opacity:0.388235}
    .str0 {stroke:black;stroke-width:264.599;stroke-linecap:round;stroke-linejoin:round}
    .fil4 {fill:none}
    .fil0 {fill:black}
    .fil2 {fill:#002287}
    .fil1 {fill:#B3B3B3}
    .fil3 {fill:#FFCC00}
    .fil5 {fill:black;fill-opacity:0.388235}
   ]]>
  </style>
 </defs>
 <g id="Layer_x0020_1">
  <metadata id="CorelCorpID_0Corel-Layer"/>
  <g id="_834803264">
   <path class="fil0" d="M27013 2109c325,0 684,135 934,296 420,269 798,1281 798,1801 0,829 -1015,972 -1481,827 -466,-145 -1733,-672 -1733,-1501 0,-829 612,-1422 1482,-1422z"/>
   <ellipse class="fil0 str0" cx="26869" cy="14940" rx="2250" ry="2327"/>
   <ellipse class="fil1 str0" cx="26869" cy="14697" rx="614" ry="652"/>
   <path class="fil2 str0" d="M22395 12193l2583 1485c-143,228 -248,484 -306,757l-3671 -2110c465,-41 930,-85 1394,-132z"/>
   <path class="fil2 str0" d="M28636 13499l2510 -2645c497,-107 975,-216 1432,-328l-3535 3816c-80,-311 -220,-597 -408,-842z"/>
   <path class="fil2 str0" d="M36688 9169c-5851,2892 -29272,5359 -32442,1475 -606,-743 -828,-2067 -1002,-4566 -678,-9721 3119,-3454 5193,51 3402,-1213 11965,-2582 15643,-2522 2943,840 5464,655 8394,-47 940,63 2827,475 4313,1017 -335,762 -1291,2831 -99,4592z"/>
   <path class="fil3 str0" d="M5119 8873c1758,-450 2806,-459 3304,-128 589,392 126,815 -259,1164 -621,563 -1692,1235 -2892,1723 -965,393 -4150,1310 -5062,661 -560,-398 2021,-1924 3392,-2794 626,-397 782,-439 1516,-627z"/>
   <path class="fil4 str0" d="M7861 9109c-938,1193 -2548,1944 -4680,2353"/>
   <path class="fil5 str1" d="M36218 132c1057,0 1942,2280 2168,5336 -405,-371 -971,-662 -1599,-891 -335,762 -1291,2831 -99,4592 725,-358 1322,-743 1731,-1152 -157,3322 -1083,5873 -2201,5873 -1229,0 -2225,-3080 -2225,-6879 0,-3799 996,-6879 2225,-6879z"/>
   <path class="fil1 str0" d="M36688 9169c1424,-704 2356,-1510 2338,-2406 -21,-1052 -1009,-1738 -2238,-2187 -335,762 -1291,2831 -99,4592z"/>
   <path class="fil3 str0" d="M22421 6936c3497,-1262 7451,-969 8342,-526 961,478 -2022,3131 -7558,5796 -4460,2147 -9473,4573 -10759,4074 -1166,-453 7901,-8596 9975,-9344z"/>
   <path class="fil4 str0" d="M29215 7309c-1581,2289 -8666,5470 -12259,6792"/>
   <path class="fil4 str0" d="M29406 1608c1059,271 1996,834 3068,1952 -2930,701 -5451,886 -8394,47 118,-554 280,-1085 598,-1538 306,-436 652,-617 1045,-684 780,-134 2925,30 3683,224z"/>
   <path class="fil4 str0" d="M36218 132c1057,0 1942,2280 2168,5336 -405,-371 -971,-662 -1599,-891 -335,762 -1291,2831 -99,4592 725,-358 1322,-743 1731,-1152 -157,3322 -1083,5873 -2201,5873 -1229,0 -2225,-3080 -2225,-6879 0,-3799 996,-6879 2225,-6879z"/>
  </g>
 </g>
</svg>
