<?xml version="1.0" encoding="UTF-8"?>
<!DOCTYPE svg PUBLIC "-//W3C//DTD SVG 1.1//EN" "http://www.w3.org/Graphics/SVG/1.1/DTD/svg11.dtd">
<!-- Creator: CorelDRAW X6 -->
<svg xmlns="http://www.w3.org/2000/svg" xml:space="preserve" width="39.3395mm" height="14.3762mm" version="1.1" style="shape-rendering:geometricPrecision; text-rendering:geometricPrecision; image-rendering:optimizeQuality; fill-rule:evenodd; clip-rule:evenodd"
viewBox="0 0 38780 14172"
 xmlns:xlink="http://www.w3.org/1999/xlink">
 <defs>
  <style type="text/css">
   <![CDATA[
    .fil0 {fill:red;fill-rule:nonzero}
    .fil1 {fill:url(#id0)}
    .fil2 {fill:url(#id1)}
   ]]>
  </style>
  <linearGradient id="id0" gradientUnits="userSpaceOnUse" x1="5603.9" y1="4410.53" x2="5603.9" y2="13732.2">
   <stop offset="0" style="stop-color:black"/>
   <stop offset="1" style="stop-color:#474747"/>
  </linearGradient>
  <linearGradient id="id1" gradientUnits="userSpaceOnUse" xlink:href="#id0" x1="19512.1" y1="4410.53" x2="19512.1" y2="13732.2">
  </linearGradient>
 </defs>
 <g id="Layer_x0020_1">
  <metadata id="CorelCorpID_0Corel-Layer"/>
  <g id="_867674912">
   <g>
    <polygon class="fil0" points="14687,6692 14283,7473 14168,7415 14054,7362 13941,7314 13829,7270 13718,7230 13608,7194 13498,7162 13389,7134 13281,7110 13174,7090 13067,7073 12960,7060 12854,7051 12749,7045 12644,7042 12539,7043 12434,7047 12330,7054 12225,7065 12121,7079 12017,7096 11913,7116 11809,7139 11705,7165 11601,7194 11497,7226 11393,7261 11288,7298 11184,7339 11080,7383 10975,7429 10871,7478 10489,6686 10610,6629 10732,6575 10855,6524 10979,6476 11103,6431 11228,6389 11354,6350 11480,6315 11607,6283 11735,6255 11864,6230 11994,6209 12124,6192 12255,6179 12386,6169 12518,6164 12651,6163 12785,6167 12918,6174 13053,6186 13188,6203 13323,6224 13458,6249 13594,6280 13730,6314 13866,6354 14002,6398 14139,6447 14276,6501 14413,6560 14550,6623 "/>
   </g>
   <path class="fil0" d="M24833 7828c-52,25 -108,39 -162,43 -6,-323 -42,-618 -107,-887l9173 -4424c1331,-642 3010,-201 4173,628 452,322 1209,877 699,1476 -224,263 -684,411 -1039,30 -975,-1047 -1948,-2069 -3452,-1344l-9285 4478z"/>
   <path class="fil0" d="M1893 5314c-66,-205 27,-433 227,-529l9285 -4478c1331,-642 3010,-201 4173,628 452,322 1209,877 699,1476 -224,263 -684,411 -1039,30 -975,-1047 -1948,-2069 -3452,-1344l-6925 3339c-1158,80 -2192,357 -2968,878z"/>
   <g>
    <path class="fil1" d="M5604 4411c2852,0 5145,704 5160,3532 15,2827 -2271,5790 -5160,5790 -2889,0 -5164,-2823 -5164,-5549 0,-2726 2312,-3772 5164,-3772z"/>
    <path id="1" class="fil0" d="M11203 7940l-879 5 0 0 -7 -236 -19 -222 -30 -209 -41 -196 -51 -184 -60 -172 -69 -161 -78 -151 -87 -141 -95 -133 -104 -125 -113 -117 -122 -110 -131 -103 -140 -97 -149 -90 -158 -84 -167 -78 -175 -72 -184 -65 -192 -59 -200 -53 -207 -47 -215 -42 -221 -36 -228 -31 -234 -25 -240 -20 -245 -15 -250 -11 -254 -6 -259 -2 0 -879 273 2 270 7 267 12 263 17 259 22 255 28 251 34 247 40 242 47 237 54 232 62 226 70 220 78 214 87 207 97 200 106 192 117 184 127 175 139 166 150 155 161 145 173 133 185 120 196 107 207 94 218 80 229 66 240 52 250 38 261 23 271 9 282 0 0zm-5599 6232l0 -879 0 0 241 -8 237 -23 234 -37 230 -51 227 -65 223 -78 218 -91 214 -104 209 -116 204 -127 199 -138 193 -149 187 -159 180 -169 173 -178 166 -186 158 -194 150 -202 142 -209 133 -215 124 -221 115 -226 105 -230 95 -234 85 -237 74 -240 63 -242 52 -243 41 -244 29 -244 17 -244 5 -243 879 -5 -6 287 -20 287 -34 286 -47 285 -60 282 -73 280 -85 277 -97 273 -109 269 -120 264 -132 259 -142 253 -153 246 -163 240 -173 232 -182 224 -192 215 -201 206 -210 197 -218 186 -227 175 -235 164 -242 151 -250 138 -257 125 -264 110 -271 95 -277 80 -283 63 -288 46 -293 28 -297 9 0 0zm-5604 -5989l879 0 0 0 6 233 18 234 30 234 41 234 52 233 63 231 74 229 85 227 95 223 105 220 114 215 124 210 133 205 141 199 150 192 158 185 165 178 173 170 179 161 186 152 192 142 198 132 204 121 209 111 214 99 219 87 223 75 227 62 231 49 235 36 239 22 242 7 0 879 -296 -9 -292 -27 -287 -44 -281 -60 -276 -76 -270 -91 -263 -105 -257 -119 -249 -132 -242 -145 -234 -156 -226 -167 -218 -178 -210 -188 -201 -197 -192 -207 -183 -215 -173 -223 -163 -230 -153 -237 -143 -243 -132 -249 -121 -254 -110 -259 -98 -263 -86 -267 -74 -270 -61 -273 -48 -275 -35 -277 -21 -278 -7 -278 0 0zm5604 -4212l0 879 0 0 -255 3 -252 9 -247 15 -242 21 -237 27 -232 34 -226 40 -220 46 -214 53 -207 59 -200 65 -192 72 -184 78 -176 84 -168 91 -160 97 -151 103 -142 110 -133 116 -124 122 -115 129 -107 136 -97 143 -88 150 -79 159 -70 167 -60 176 -50 185 -40 195 -29 205 -18 216 -6 227 -879 0 7 -274 22 -266 37 -257 51 -248 65 -240 79 -231 93 -221 106 -212 118 -202 131 -192 142 -181 153 -171 164 -161 173 -151 182 -141 191 -131 199 -121 207 -111 214 -102 221 -93 227 -85 233 -76 239 -68 244 -60 249 -52 254 -45 258 -37 262 -30 266 -23 270 -16 273 -10 276 -3 0 0z"/>
   </g>
   <g>
    <path class="fil2" d="M19512 4411c2852,0 5145,704 5160,3532 15,2827 -2271,5790 -5160,5790 -2889,0 -5164,-2823 -5164,-5549 0,-2726 2312,-3772 5164,-3772z"/>
    <path id="1" class="fil0" d="M25111 7940l-879 5 0 0 -7 -236 -19 -222 -30 -209 -41 -196 -51 -184 -60 -172 -69 -161 -78 -151 -87 -141 -95 -133 -104 -125 -113 -117 -122 -110 -131 -103 -140 -97 -149 -90 -158 -84 -167 -78 -175 -72 -184 -65 -192 -59 -200 -53 -207 -47 -215 -42 -221 -36 -228 -31 -234 -25 -240 -20 -245 -15 -250 -11 -254 -6 -259 -2 0 -879 273 2 270 7 267 12 263 17 259 22 255 28 251 34 247 40 242 47 237 54 232 62 226 70 220 78 214 87 207 97 200 106 192 117 184 127 175 139 166 150 155 161 145 173 133 185 120 196 107 207 94 218 80 229 66 240 52 250 38 261 23 271 9 282 0 0zm-5599 6232l0 -879 0 0 241 -8 237 -23 234 -37 230 -51 227 -65 223 -78 218 -91 214 -104 209 -116 204 -127 199 -138 193 -149 187 -159 180 -169 173 -178 166 -186 158 -194 150 -202 142 -209 133 -215 124 -221 115 -226 105 -230 95 -234 85 -237 74 -240 63 -242 52 -243 41 -244 29 -244 17 -244 5 -243 879 -5 -6 287 -20 287 -34 286 -47 285 -60 282 -73 280 -85 277 -97 273 -109 269 -120 264 -132 259 -142 253 -153 246 -163 240 -173 232 -182 224 -192 215 -201 206 -210 197 -218 186 -227 175 -235 164 -242 151 -250 138 -257 125 -264 110 -271 95 -277 80 -283 63 -288 46 -293 28 -297 9 0 0zm-5604 -5989l879 0 0 0 6 233 18 234 30 234 41 234 52 233 63 231 74 229 85 227 95 223 105 220 114 215 124 210 133 205 141 199 150 192 158 185 165 178 173 170 179 161 186 152 192 142 198 132 204 121 209 111 214 99 219 87 223 75 227 62 231 49 235 36 239 22 242 7 0 879 -296 -9 -292 -27 -287 -44 -281 -60 -276 -76 -270 -91 -263 -105 -257 -119 -249 -132 -242 -145 -234 -156 -226 -167 -218 -178 -210 -188 -201 -197 -192 -207 -183 -215 -173 -223 -163 -230 -153 -237 -143 -243 -132 -249 -121 -254 -110 -259 -98 -263 -86 -267 -74 -270 -61 -273 -48 -275 -35 -277 -21 -278 -7 -278 0 0zm5604 -4212l0 879 0 0 -255 3 -252 9 -247 15 -242 21 -237 27 -232 34 -226 40 -220 46 -214 53 -207 59 -200 65 -192 72 -184 78 -176 84 -168 91 -160 97 -151 103 -142 110 -133 116 -124 122 -115 129 -107 136 -97 143 -88 150 -79 159 -70 167 -60 176 -50 185 -40 195 -29 205 -18 216 -6 227 -879 0 7 -274 22 -266 37 -257 51 -248 65 -240 79 -231 93 -221 106 -212 118 -202 131 -192 142 -181 153 -171 164 -161 173 -151 182 -141 191 -131 199 -121 207 -111 214 -102 221 -93 227 -85 233 -76 239 -68 244 -60 249 -52 254 -45 258 -37 262 -30 266 -23 270 -16 273 -10 276 -3 0 0z"/>
   </g>
  </g>
 </g>
</svg>
