<?xml version="1.0" encoding="UTF-8"?>
<!DOCTYPE svg PUBLIC "-//W3C//DTD SVG 1.1//EN" "http://www.w3.org/Graphics/SVG/1.1/DTD/svg11.dtd">
<!-- Creator: CorelDRAW X6 -->
<svg xmlns="http://www.w3.org/2000/svg" xml:space="preserve" width="39.2157mm" height="26.0711mm" version="1.1" style="shape-rendering:geometricPrecision; text-rendering:geometricPrecision; image-rendering:optimizeQuality; fill-rule:evenodd; clip-rule:evenodd"
viewBox="0 0 39216 26071"
 xmlns:xlink="http://www.w3.org/1999/xlink">
 <defs>
  <style type="text/css">
   <![CDATA[
    .str1 {stroke:black;stroke-width:264.599;stroke-linecap:round;stroke-linejoin:round}
    .str0 {stroke:black;stroke-width:529.199}
    .str2 {stroke:black;stroke-width:529.199;stroke-linecap:round;stroke-linejoin:round}
    .fil2 {fill:black}
    .fil0 {fill:url(#id0)}
    .fil1 {fill:url(#id1)}
    .fil3 {fill:url(#id2)}
   ]]>
  </style>
  <linearGradient id="id0" gradientUnits="userSpaceOnUse" x1="38647.2" y1="22961" x2="508.699" y2="22961">
   <stop offset="0" style="stop-color:#666666"/>
   <stop offset="0.239216" style="stop-color:#4D4D4D"/>
   <stop offset="1" style="stop-color:#333333"/>
  </linearGradient>
  <linearGradient id="id1" gradientUnits="userSpaceOnUse" x1="10353.6" y1="814.498" x2="27769.7" y2="18230.7">
   <stop offset="0" style="stop-color:#666666"/>
   <stop offset="1" style="stop-color:#333333"/>
  </linearGradient>
  <linearGradient id="id2" gradientUnits="userSpaceOnUse" x1="19503.8" y1="18807.6" x2="19503.8" y2="21314.3">
   <stop offset="0" style="stop-color:gray"/>
   <stop offset="0.301961" style="stop-color:#5A5A5A"/>
   <stop offset="1" style="stop-color:#333333"/>
  </linearGradient>
 </defs>
 <g id="lineart">
  <metadata id="CorelCorpID_0Corel-Layer"/>
  <g id="_754880096">
   <path class="fil0 str0" d="M20079 22279c-5843,-12 -11533,-770 -15327,-1442 -1540,-272 -2770,-523 -3567,-719 -802,-197 -1065,398 -632,1274 38,77 81,156 130,237 983,1630 2876,2730 5427,3334 4372,1036 10265,824 13851,824 9716,0 15216,0 18510,-3864 334,-392 566,-580 451,-723 -47,-59 -153,-111 -335,-166 -2489,-758 -8308,1264 -18507,1244z"/>
   <path class="fil1 str0" d="M5991 18781c8748,-1232 17464,-1308 26141,0l0 -7435c0,-10458 -9638,-11081 -13070,-11081 -6855,0 -12779,3050 -12779,9520l-291 8996z"/>
   <path class="fil2 str0" d="M32132 19633l0 -853c-8677,-1308 -17393,-1232 -26141,0l0 971c126,20 253,40 381,60 3863,608 8976,1278 13707,1223 3949,-46 6728,-340 9546,-867 885,-166 1722,-358 2507,-535z"/>
   <path class="fil2 str1" d="M19113 23126c7248,0 13123,489 13123,1093 0,604 -5823,716 -13070,716 -7248,0 -13176,-113 -13176,-716 0,-604 5875,-1093 13123,-1093z"/>
   <path class="fil3 str2" d="M20079 21035c3949,-46 6727,-342 9546,-867 4463,-831 7693,-2345 9296,1033l0 0c-47,-59 -153,-111 -335,-166 -2489,-758 -8308,1264 -18507,1244 -5843,-12 -11533,-770 -15327,-1442 -1540,-272 -2770,-523 -3567,-719 -802,-197 -1065,398 -632,1274 -466,-939 -387,-1926 394,-2200 589,-207 2776,203 5426,620 3863,608 8976,1278 13707,1223z"/>
  </g>
 </g>
</svg>
