<?xml version="1.0" encoding="UTF-8"?>
<!DOCTYPE svg PUBLIC "-//W3C//DTD SVG 1.1//EN" "http://www.w3.org/Graphics/SVG/1.1/DTD/svg11.dtd">
<!-- Creator: CorelDRAW X6 -->
<svg xmlns="http://www.w3.org/2000/svg" xml:space="preserve" width="39.397mm" height="19.8394mm" version="1.1" style="shape-rendering:geometricPrecision; text-rendering:geometricPrecision; image-rendering:optimizeQuality; fill-rule:evenodd; clip-rule:evenodd"
viewBox="0 0 39371 19826"
 xmlns:xlink="http://www.w3.org/1999/xlink">
 <defs>
  <style type="text/css">
   <![CDATA[
    .str1 {stroke:black;stroke-width:264.427;stroke-linecap:round;stroke-linejoin:round}
    .str0 {stroke:black;stroke-width:528.854;stroke-linecap:round;stroke-linejoin:round}
    .fil3 {fill:#0834B3}
    .fil1 {fill:#333333}
    .fil0 {fill:#9EA095}
    .fil2 {fill:#BABFBB}
   ]]>
  </style>
 </defs>
 <g id="Layer_x0020_1">
  <metadata id="CorelCorpID_0Corel-Layer"/>
  <g id="_754880608">
   <path class="fil0 str0" d="M264 13445l19451 -5668c1585,-462 3412,-1790 4858,-2895l624 2239c-2074,2063 -5336,3677 -8300,4202 -5470,970 -10943,1893 -16435,2610l-198 -488z"/>
   <circle class="fil1 str1" cx="18306" cy="9543" r="647"/>
   <path class="fil2 str0" d="M1389 5620c5622,651 11283,1478 16894,2559l25 9 -4818 1404 -11303 -2955 -1015 -470 217 -548zm20546 3886l10 4c1366,496 2204,1488 3206,2332l-563 2373c-1799,-1265 -3784,-2730 -5992,-3301 1136,-344 2275,-824 3338,-1407z"/>
   <path class="fil3 str0" d="M24504 4630c375,-676 307,-704 1370,-1459 1046,-744 3065,-1764 5218,-2585 1608,-312 2929,-480 4114,-111 903,281 1792,892 2282,1887 519,2111 -520,3313 -2559,3725l-574 355c-1742,152 -3281,365 -4556,711 -1500,408 -2990,531 -4486,384l-810 -2907zm7333 -2802c2182,-368 3761,-150 4249,947 194,435 408,971 163,1275 -319,395 -1282,657 -3430,1135 -1369,305 -2402,524 -3022,481 -1104,-76 -1307,-997 -1404,-1691 -89,-635 394,-915 1168,-1284 593,-283 1330,-703 2276,-863z"/>
   <path class="fil3 str0" d="M25152 11841l383 -447 1925 268 1239 -214c1793,382 3586,765 5379,1147 337,-110 300,-108 651,-56 321,47 365,130 632,316 1112,343 1827,445 2735,1225 864,742 1265,1639 841,2974 -268,846 -758,1434 -1414,1825 -2448,1460 -5583,283 -7956,-752 -1250,-545 -2441,-1215 -3562,-2034 -1056,-771 -988,-680 -1416,-1878l563 -2373zm5013 1584c2081,334 4171,690 6362,1268 776,425 1165,976 1145,1660 -35,1249 -815,1776 -1992,1836 -905,46 -1916,-190 -2742,-365 -1011,-214 -1983,-576 -2934,-1125 -665,-384 -1361,-756 -1271,-1655 57,-574 524,-1129 1431,-1620z"/>
  </g>
 </g>
</svg>
